<svg width="749" height="212" viewBox="0 0 749 212" fill="none" xmlns="http://www.w3.org/2000/svg">
<g filter="url(#filter0_d_272_606)">
<mask id="path-1-outside-1_272_606" maskUnits="userSpaceOnUse" x="9.78723" y="-5.6398" width="744.877" height="214.634" fill="black">
<rect fill="white" x="9.78723" y="-5.6398" width="744.877" height="214.634"/>
<path d="M24.1527 109.095L57.7637 11.3624L111.212 17.925L120.182 120.885L82.3656 116.242L82.2896 107.014L64.2749 104.802L61.9688 113.738L24.1527 109.095ZM80.875 38.5314L71.9481 74.3102L81.9232 75.535L81.6194 38.6228L80.875 38.5314ZM138.394 21.2624L189.907 27.5874C205.54 29.5068 219.945 40.192 217.824 57.4623C216.837 65.5019 212.034 72.6196 205.029 76.7466C214.139 82.5502 218.627 92.7733 217.329 103.344C215.135 121.21 199.472 130.621 182.35 128.519L126.073 121.609L138.394 21.2624ZM172.287 52.929L170.825 64.8395L176.185 65.4976C179.907 65.9546 184.07 64.0478 184.564 60.028C185.057 56.0082 181.071 54.0075 177.647 53.5871L172.287 52.929ZM168.247 85.8319L166.62 99.0824L169.598 99.448C173.618 99.9416 178.805 98.3116 179.372 93.6962C179.975 88.7831 175.096 86.6728 171.076 86.1792L168.247 85.8319ZM336.385 95.4442C332.4 127.9 304.902 145.077 273.637 141.238C242.521 137.418 219.083 114.138 223.086 81.533C227.053 49.2256 254.274 33.0726 285.093 36.8566C315.465 40.5858 340.37 62.9879 336.385 95.4442ZM294.717 90.1768C295.777 81.5417 290.681 73.813 281.748 72.7162C272.815 71.6194 265.87 77.7185 264.791 86.5025C263.713 95.2866 268.475 103.276 277.705 104.41C286.936 105.543 293.62 99.1098 294.717 90.1768ZM393.981 115.966L401.64 53.5847L438.861 58.1547L430.543 125.896C427.6 149.866 401.773 157.123 381.079 154.582C360.384 152.041 337.08 138.752 340.023 114.782L348.341 47.0404L385.561 51.6104L377.902 113.992C377.317 118.756 379.375 124.147 384.735 124.805C390.095 125.463 393.396 120.73 393.981 115.966ZM489.582 166.242L452.362 161.672L461.246 89.315L441.445 86.8837L444.881 58.8939L521.704 68.3265L518.268 96.3163L498.466 93.885L489.582 166.242ZM610.47 142.547L618.13 80.1659L655.35 84.736L647.033 152.477C644.09 176.447 618.263 183.704 597.568 181.163C576.874 178.622 553.569 165.333 556.513 141.363L564.83 73.6216L602.051 78.1917L594.391 140.573C593.806 145.337 595.865 150.728 601.224 151.387C606.584 152.045 609.885 147.312 610.47 142.547ZM649.839 180.629L655.827 145.396C662.43 153.159 679.136 161.104 689.26 162.347C690.451 162.493 692.032 161.932 692.196 160.592C693.019 153.892 653.364 150.685 657.349 118.229C660.457 92.9193 682.603 87.3266 704.489 90.0138C715.953 91.4213 727.31 94.9315 737.554 100.119L731.417 135.333C725.913 128.461 710.769 120.103 701.985 119.025C700.645 118.86 698.655 119.069 698.435 120.856C698.198 122.791 703.356 125.087 704.772 125.865C719.859 133.461 737.069 142.223 734.601 162.322C731.366 188.675 710.185 193.781 687.258 190.966C674.305 189.376 661.775 185.571 649.839 180.629Z"/>
</mask>
<path d="M24.1527 109.095L57.7637 11.3624L111.212 17.925L120.182 120.885L82.3656 116.242L82.2896 107.014L64.2749 104.802L61.9688 113.738L24.1527 109.095ZM80.875 38.5314L71.9481 74.3102L81.9232 75.535L81.6194 38.6228L80.875 38.5314ZM138.394 21.2624L189.907 27.5874C205.54 29.5068 219.945 40.192 217.824 57.4623C216.837 65.5019 212.034 72.6196 205.029 76.7466C214.139 82.5502 218.627 92.7733 217.329 103.344C215.135 121.21 199.472 130.621 182.35 128.519L126.073 121.609L138.394 21.2624ZM172.287 52.929L170.825 64.8395L176.185 65.4976C179.907 65.9546 184.07 64.0478 184.564 60.028C185.057 56.0082 181.071 54.0075 177.647 53.5871L172.287 52.929ZM168.247 85.8319L166.62 99.0824L169.598 99.448C173.618 99.9416 178.805 98.3116 179.372 93.6962C179.975 88.7831 175.096 86.6728 171.076 86.1792L168.247 85.8319ZM336.385 95.4442C332.4 127.9 304.902 145.077 273.637 141.238C242.521 137.418 219.083 114.138 223.086 81.533C227.053 49.2256 254.274 33.0726 285.093 36.8566C315.465 40.5858 340.37 62.9879 336.385 95.4442ZM294.717 90.1768C295.777 81.5417 290.681 73.813 281.748 72.7162C272.815 71.6194 265.87 77.7185 264.791 86.5025C263.713 95.2866 268.475 103.276 277.705 104.41C286.936 105.543 293.62 99.1098 294.717 90.1768ZM393.981 115.966L401.64 53.5847L438.861 58.1547L430.543 125.896C427.6 149.866 401.773 157.123 381.079 154.582C360.384 152.041 337.08 138.752 340.023 114.782L348.341 47.0404L385.561 51.6104L377.902 113.992C377.317 118.756 379.375 124.147 384.735 124.805C390.095 125.463 393.396 120.73 393.981 115.966ZM489.582 166.242L452.362 161.672L461.246 89.315L441.445 86.8837L444.881 58.8939L521.704 68.3265L518.268 96.3163L498.466 93.885L489.582 166.242ZM610.47 142.547L618.13 80.1659L655.35 84.736L647.033 152.477C644.09 176.447 618.263 183.704 597.568 181.163C576.874 178.622 553.569 165.333 556.513 141.363L564.83 73.6216L602.051 78.1917L594.391 140.573C593.806 145.337 595.865 150.728 601.224 151.387C606.584 152.045 609.885 147.312 610.47 142.547ZM649.839 180.629L655.827 145.396C662.43 153.159 679.136 161.104 689.26 162.347C690.451 162.493 692.032 161.932 692.196 160.592C693.019 153.892 653.364 150.685 657.349 118.229C660.457 92.9193 682.603 87.3266 704.489 90.0138C715.953 91.4213 727.31 94.9315 737.554 100.119L731.417 135.333C725.913 128.461 710.769 120.103 701.985 119.025C700.645 118.86 698.655 119.069 698.435 120.856C698.198 122.791 703.356 125.087 704.772 125.865C719.859 133.461 737.069 142.223 734.601 162.322C731.366 188.675 710.185 193.781 687.258 190.966C674.305 189.376 661.775 185.571 649.839 180.629Z" fill="#A74925"/>
<path d="M24.1527 109.095L14.6963 105.843L10.6818 117.516L22.9341 119.02L24.1527 109.095ZM57.7637 11.3624L58.9824 1.43694L50.9418 0.449692L48.3073 8.11026L57.7637 11.3624ZM111.212 17.925L121.175 17.0571L120.472 8.98677L112.431 7.99953L111.212 17.925ZM120.182 120.885L118.963 130.811L131.215 132.315L130.144 120.018L120.182 120.885ZM82.3656 116.242L72.3659 116.325L72.4382 125.099L81.1469 126.168L82.3656 116.242ZM82.2896 107.014L92.2893 106.932L92.2171 98.1581L83.5083 97.0888L82.2896 107.014ZM64.2749 104.802L65.4936 94.8769L56.7848 93.8076L54.5922 102.303L64.2749 104.802ZM61.9688 113.738L60.7501 123.663L69.4588 124.733L71.6515 116.237L61.9688 113.738ZM80.875 38.5314L82.0936 28.606L73.3138 27.5279L71.1724 36.1106L80.875 38.5314ZM71.9481 74.3102L62.2456 71.8894L59.5089 82.858L70.7294 84.2357L71.9481 74.3102ZM81.9232 75.535L80.7045 85.4605L92.0167 86.8494L91.9229 75.4527L81.9232 75.535ZM81.6194 38.6228L91.619 38.5405L91.5468 29.7667L82.838 28.6974L81.6194 38.6228ZM33.6092 112.347L67.2201 14.6145L48.3073 8.11026L14.6963 105.843L33.6092 112.347ZM56.545 21.2879L109.994 27.8505L112.431 7.99953L58.9824 1.43694L56.545 21.2879ZM101.25 18.7928L110.219 121.753L130.144 120.018L121.175 17.0571L101.25 18.7928ZM121.4 110.96L83.5843 106.317L81.1469 126.168L118.963 130.811L121.4 110.96ZM92.3653 116.16L92.2893 106.932L72.29 107.097L72.3659 116.325L92.3653 116.16ZM83.5083 97.0888L65.4936 94.8769L63.0562 114.728L81.0709 116.94L83.5083 97.0888ZM54.5922 102.303L52.286 111.239L71.6515 116.237L73.9576 107.301L54.5922 102.303ZM63.1874 103.812L25.3714 99.1693L22.9341 119.02L60.7501 123.663L63.1874 103.812ZM71.1724 36.1106L62.2456 71.8894L81.6507 76.731L90.5775 40.9522L71.1724 36.1106ZM70.7294 84.2357L80.7045 85.4605L83.1419 65.6095L73.1668 64.3848L70.7294 84.2357ZM91.9229 75.4527L91.619 38.5405L71.6197 38.7051L71.9236 75.6173L91.9229 75.4527ZM82.838 28.6974L82.0936 28.606L79.6563 48.4569L80.4007 48.5483L82.838 28.6974ZM138.394 21.2624L139.612 11.337L129.687 10.1183L128.468 20.0437L138.394 21.2624ZM205.029 76.7466L199.953 68.1307L185.893 76.4138L199.656 85.1808L205.029 76.7466ZM126.073 121.609L116.147 120.39L114.929 130.316L124.854 131.534L126.073 121.609ZM172.287 52.929L173.506 43.0035L163.58 41.7848L162.362 51.7103L172.287 52.929ZM170.825 64.8395L160.899 63.6209L159.681 73.5463L169.606 74.765L170.825 64.8395ZM168.247 85.8319L169.466 75.9064L159.541 74.6877L158.322 84.6132L168.247 85.8319ZM166.62 99.0824L156.695 97.8637L155.476 107.789L165.402 109.008L166.62 99.0824ZM137.175 31.1879L188.688 37.5128L191.126 17.6619L139.612 11.337L137.175 31.1879ZM188.688 37.5128C194.798 38.2631 200.162 40.6894 203.604 43.988C206.796 47.0469 208.546 50.9746 207.899 56.2436L227.75 58.6809C229.223 46.6797 224.831 36.6296 217.442 29.5484C210.303 22.7071 200.648 18.8311 191.126 17.6619L188.688 37.5128ZM207.899 56.2436C207.304 61.0858 204.378 65.5235 199.953 68.1307L210.105 85.3626C219.69 79.7157 226.37 69.918 227.75 58.6809L207.899 56.2436ZM199.656 85.1808C205.345 88.8048 208.257 95.1763 207.404 102.125L227.254 104.563C228.997 90.3703 222.933 76.2956 210.401 68.3125L199.656 85.1808ZM207.404 102.125C206.025 113.35 196.445 120.174 183.569 118.593L181.132 138.444C202.499 141.068 224.245 129.069 227.254 104.563L207.404 102.125ZM183.569 118.593L127.292 111.683L124.854 131.534L181.132 138.444L183.569 118.593ZM135.998 122.828L148.319 22.4811L128.468 20.0437L116.147 120.39L135.998 122.828ZM162.362 51.7103L160.899 63.6209L180.75 66.0582L182.213 54.1477L162.362 51.7103ZM169.606 74.765L174.966 75.4231L177.403 55.5722L172.044 54.9141L169.606 74.765ZM174.966 75.4231C178.801 75.8939 183.017 75.2004 186.654 73.0614C190.482 70.8104 193.807 66.8005 194.489 61.2467L174.638 58.8093C174.717 58.168 174.97 57.4873 175.388 56.8929C175.785 56.328 176.218 55.9964 176.515 55.8218C177.017 55.5269 177.291 55.5583 177.403 55.5722L174.966 75.4231ZM194.489 61.2467C195.247 55.0739 192.275 50.3216 188.697 47.5509C185.502 45.0772 181.769 44.0181 178.866 43.6616L176.428 63.5125C176.59 63.5324 176.734 63.5705 176.811 63.5988C176.902 63.632 176.747 63.5931 176.452 63.3647C176.143 63.1249 175.568 62.5847 175.126 61.6467C174.651 60.6388 174.54 59.6106 174.638 58.8093L194.489 61.2467ZM178.866 43.6616L173.506 43.0035L171.069 62.8544L176.428 63.5125L178.866 43.6616ZM158.322 84.6132L156.695 97.8637L176.546 100.301L178.173 87.0506L158.322 84.6132ZM165.402 109.008L168.379 109.373L170.817 89.5225L167.839 89.1569L165.402 109.008ZM168.379 109.373C172.001 109.818 176.317 109.374 180.205 107.456C184.35 105.41 188.511 101.317 189.297 94.9149L169.446 92.4776C169.532 91.7831 169.836 91.0294 170.331 90.4037C170.782 89.834 171.214 89.5898 171.355 89.5201C171.491 89.4533 171.476 89.4852 171.29 89.5124C171.11 89.5388 170.93 89.5365 170.817 89.5225L168.379 109.373ZM189.297 94.9149C190.119 88.2196 186.871 83.1387 182.858 80.2063C179.337 77.634 175.259 76.6178 172.295 76.2537L169.857 96.1047C170.275 96.156 170.655 96.2441 170.938 96.3402C171.239 96.4425 171.241 96.4886 171.058 96.3544C170.854 96.2054 170.321 95.7537 169.9 94.8872C169.444 93.9471 169.377 93.046 169.446 92.4776L189.297 94.9149ZM172.295 76.2537L169.466 75.9064L167.029 95.7574L169.857 96.1047L172.295 76.2537ZM326.46 94.2255C324.802 107.73 318.394 117.559 309.519 123.751C300.521 130.03 288.376 132.973 274.856 131.313L272.418 151.164C290.163 153.343 307.4 149.617 320.963 140.153C334.65 130.603 343.984 115.615 346.311 96.6629L326.46 94.2255ZM274.856 131.313C247.967 128.012 229.826 108.7 233.012 82.7516L213.161 80.3143C208.34 119.576 237.074 146.824 272.418 151.164L274.856 131.313ZM233.012 82.7516C234.658 69.3395 240.971 59.8418 249.653 53.9231C258.491 47.8979 270.476 45.1369 283.874 46.7821L286.312 26.9311C268.892 24.7922 251.856 28.2158 238.387 37.3979C224.762 46.6865 215.481 61.419 213.161 80.3143L233.012 82.7516ZM283.874 46.7821C310.557 50.0582 329.571 68.886 326.46 94.2255L346.311 96.6629C351.17 57.0898 320.373 31.1133 286.312 26.9311L283.874 46.7821ZM304.642 91.3955C306.279 78.063 298.134 64.6531 282.967 62.7908L280.529 82.6417C282.253 82.8534 283.243 83.5956 283.854 84.4475C284.526 85.385 285.042 86.9144 284.791 88.9582L304.642 91.3955ZM282.967 62.7908C267.986 60.9514 256.546 71.6016 254.866 85.2838L274.717 87.7212C274.972 85.6398 275.851 84.3146 276.72 83.5914C277.53 82.9178 278.726 82.4203 280.529 82.6417L282.967 62.7908ZM254.866 85.2838C253.267 98.3079 260.61 112.386 276.487 114.335L278.924 94.4843C277.123 94.2632 276.208 93.5166 275.642 92.6878C274.978 91.7147 274.434 90.0293 274.717 87.7212L254.866 85.2838ZM276.487 114.335C283.838 115.238 290.67 113.109 295.834 108.604C300.888 104.197 303.833 97.9829 304.642 91.3955L284.791 88.9582C284.503 91.3037 283.558 92.7729 282.688 93.5319C281.929 94.1942 280.804 94.7152 278.924 94.4843L276.487 114.335ZM401.64 53.5847L402.859 43.6592L392.934 42.4405L391.715 52.366L401.64 53.5847ZM438.861 58.1547L448.786 59.3734L450.005 49.4479L440.079 48.2293L438.861 58.1547ZM348.341 47.0404L349.559 37.1149L339.634 35.8962L338.415 45.8217L348.341 47.0404ZM385.561 51.6104L395.487 52.8291L396.705 42.9036L386.78 41.6849L385.561 51.6104ZM403.906 117.185L411.566 54.8033L391.715 52.366L384.055 114.748L403.906 117.185ZM400.422 63.5101L437.642 68.0802L440.079 48.2293L402.859 43.6592L400.422 63.5101ZM428.935 56.936L420.618 124.677L440.469 127.115L448.786 59.3734L428.935 56.936ZM420.618 124.677C419.639 132.645 415.105 137.841 408.16 141.156C400.853 144.644 391.229 145.753 382.297 144.656L379.86 164.507C391.623 165.951 405.26 164.702 416.776 159.205C428.654 153.535 438.504 143.117 440.469 127.115L420.618 124.677ZM382.297 144.656C373.366 143.56 364.296 140.155 358.05 135.003C352.114 130.107 348.97 123.968 349.949 116L330.098 113.563C328.133 129.565 335.17 142.056 345.323 150.432C355.168 158.552 368.097 163.063 379.86 164.507L382.297 144.656ZM349.949 116L358.266 48.259L338.415 45.8217L330.098 113.563L349.949 116ZM347.122 56.9658L384.342 61.5359L386.78 41.6849L349.559 37.1149L347.122 56.9658ZM375.636 50.3917L367.976 112.773L387.827 115.211L395.487 52.8291L375.636 50.3917ZM367.976 112.773C367.477 116.842 368.026 121.564 370.322 125.749C372.784 130.236 377.259 133.962 383.516 134.731L385.953 114.88C386.233 114.914 386.693 115.053 387.152 115.382C387.58 115.689 387.787 116.003 387.856 116.128C387.916 116.237 387.873 116.201 387.837 115.98C387.802 115.764 387.793 115.49 387.827 115.211L367.976 112.773ZM383.516 134.731C389.774 135.499 395.017 132.965 398.491 129.208C401.732 125.702 403.407 121.253 403.906 117.185L384.055 114.748C384.021 115.027 383.946 115.291 383.86 115.492C383.771 115.697 383.721 115.722 383.806 115.631C383.903 115.526 384.179 115.272 384.669 115.077C385.194 114.869 385.674 114.845 385.953 114.88L383.516 134.731ZM489.582 166.242L488.363 176.167L498.289 177.386L499.508 167.46L489.582 166.242ZM452.362 161.672L442.436 160.453L441.218 170.378L451.143 171.597L452.362 161.672ZM461.246 89.315L471.171 90.5337L472.39 80.6082L462.465 79.3895L461.246 89.315ZM441.445 86.8837L431.519 85.665L430.3 95.5905L440.226 96.8092L441.445 86.8837ZM444.881 58.8939L446.1 48.9685L436.174 47.7498L434.956 57.6752L444.881 58.8939ZM521.704 68.3265L531.63 69.5452L532.848 59.6197L522.923 58.401L521.704 68.3265ZM518.268 96.3163L517.049 106.242L526.974 107.46L528.193 97.535L518.268 96.3163ZM498.466 93.885L499.685 83.9596L489.76 82.7409L488.541 92.6664L498.466 93.885ZM490.801 156.316L453.58 151.746L451.143 171.597L488.363 176.167L490.801 156.316ZM462.287 162.89L471.171 90.5337L451.32 88.0963L442.436 160.453L462.287 162.89ZM462.465 79.3895L442.663 76.9583L440.226 96.8092L460.027 99.2405L462.465 79.3895ZM451.37 88.1024L454.807 60.1126L434.956 57.6752L431.519 85.665L451.37 88.1024ZM443.663 68.8194L520.486 78.252L522.923 58.401L446.1 48.9685L443.663 68.8194ZM511.779 67.1078L508.342 95.0976L528.193 97.535L531.63 69.5452L511.779 67.1078ZM519.486 86.3908L499.685 83.9596L497.248 103.811L517.049 106.242L519.486 86.3908ZM488.541 92.6664L479.657 165.023L499.508 167.46L508.392 95.1037L488.541 92.6664ZM618.13 80.1659L619.348 70.2405L609.423 69.0218L608.204 78.9473L618.13 80.1659ZM655.35 84.736L665.276 85.9547L666.494 76.0292L656.569 74.8105L655.35 84.736ZM564.83 73.6216L566.049 63.6962L556.123 62.4775L554.905 72.4029L564.83 73.6216ZM602.051 78.1917L611.976 79.4104L613.195 69.4849L603.269 68.2662L602.051 78.1917ZM620.396 143.766L628.055 81.3846L608.204 78.9473L600.545 141.329L620.396 143.766ZM616.911 90.0914L654.132 94.6614L656.569 74.8105L619.348 70.2405L616.911 90.0914ZM645.425 83.5173L637.107 151.259L656.958 153.696L665.276 85.9547L645.425 83.5173ZM637.107 151.259C636.129 159.227 631.594 164.422 624.649 167.737C617.343 171.225 607.718 172.334 598.787 171.237L596.35 191.088C608.113 192.533 621.749 191.284 633.265 185.786C645.143 180.116 654.993 169.698 656.958 153.696L637.107 151.259ZM598.787 171.237C589.855 170.141 580.785 166.737 574.54 161.585C568.603 156.688 565.46 150.55 566.438 142.582L546.587 140.144C544.622 156.146 551.659 168.638 561.813 177.013C571.657 185.133 584.586 189.644 596.35 191.088L598.787 171.237ZM566.438 142.582L574.756 74.8403L554.905 72.4029L546.587 140.144L566.438 142.582ZM563.611 83.5471L600.832 88.1171L603.269 68.2662L566.049 63.6962L563.611 83.5471ZM592.125 76.973L584.466 139.355L604.317 141.792L611.976 79.4104L592.125 76.973ZM584.466 139.355C583.966 143.423 584.515 148.145 586.811 152.33C589.273 156.817 593.748 160.544 600.006 161.312L602.443 141.461C602.723 141.495 603.182 141.634 603.641 141.963C604.07 142.271 604.277 142.584 604.345 142.709C604.405 142.818 604.363 142.782 604.326 142.562C604.291 142.346 604.282 142.071 604.317 141.792L584.466 139.355ZM600.006 161.312C606.263 162.08 611.506 159.547 614.981 155.789C618.221 152.284 619.896 147.834 620.396 143.766L600.545 141.329C600.511 141.608 600.436 141.872 600.349 142.073C600.261 142.279 600.211 142.303 600.295 142.212C600.392 142.107 600.669 141.853 601.159 141.658C601.684 141.45 602.163 141.427 602.443 141.461L600.006 161.312ZM649.839 180.629L639.98 178.953L638.643 186.817L646.014 189.869L649.839 180.629ZM655.827 145.396L663.444 138.917L649.559 122.594L645.968 143.721L655.827 145.396ZM737.554 100.119L747.405 101.836L748.677 94.5417L742.071 91.1971L737.554 100.119ZM731.417 135.333L723.611 141.584L737.464 158.881L741.268 137.05L731.417 135.333ZM704.772 125.865L699.954 134.628L700.113 134.716L700.275 134.797L704.772 125.865ZM659.697 182.305L665.686 147.072L645.968 143.721L639.98 178.953L659.697 182.305ZM648.21 151.876C652.796 157.267 660.024 161.92 666.776 165.273C673.617 168.67 681.455 171.464 688.042 172.272L690.479 152.422C686.942 151.987 681.364 150.187 675.671 147.36C669.888 144.488 665.461 141.288 663.444 138.917L648.21 151.876ZM688.042 172.272C690.472 172.571 693.2 172.195 695.678 170.924C698.306 169.576 701.528 166.648 702.122 161.81L682.271 159.373C682.7 155.875 685.05 153.898 686.548 153.129C687.897 152.437 689.24 152.269 690.479 152.422L688.042 172.272ZM702.122 161.81C702.903 155.444 698.533 151.573 696.99 150.348C695.071 148.824 692.732 147.617 690.97 146.746C686.816 144.693 682.951 143.075 678.805 140.538C674.833 138.109 671.687 135.426 669.679 132.252C667.813 129.302 666.55 125.349 667.275 119.448L647.424 117.011C646.156 127.337 648.355 135.956 652.778 142.946C657.058 149.711 663.027 154.333 668.369 157.6C673.535 160.76 679.18 163.228 682.106 164.675C682.906 165.07 683.509 165.386 683.967 165.649C684.446 165.924 684.594 166.043 684.553 166.011C684.522 165.985 684.382 165.873 684.186 165.667C683.992 165.463 683.684 165.106 683.365 164.586C682.671 163.451 681.996 161.613 682.271 159.373L702.122 161.81ZM667.275 119.448C668.424 110.086 672.705 105.322 678.263 102.61C684.491 99.5706 693.3 98.7151 703.27 99.9392L705.708 80.0883C693.792 78.6252 680.585 79.2225 669.492 84.6354C657.728 90.3756 649.382 101.062 647.424 117.011L667.275 119.448ZM703.27 99.9392C713.559 101.202 723.802 104.364 733.037 109.04L742.071 91.1971C730.818 85.499 718.347 81.6402 705.708 80.0883L703.27 99.9392ZM727.702 98.4017L721.565 133.616L741.268 137.05L747.405 101.836L727.702 98.4017ZM739.222 129.082C735.272 124.15 728.788 119.585 722.773 116.257C716.745 112.921 709.451 109.866 703.203 109.099L700.766 128.95C703.303 129.262 707.973 130.925 713.089 133.756C718.218 136.594 722.058 139.645 723.611 141.584L739.222 129.082ZM703.203 109.099C701.722 108.917 699.107 108.804 696.334 109.825C692.99 111.056 689.178 114.191 688.51 119.637L708.361 122.075C708.182 123.533 707.55 125.106 706.369 126.435C705.263 127.68 704.046 128.298 703.245 128.593C701.858 129.104 700.908 128.968 700.766 128.95L703.203 109.099ZM688.51 119.637C687.881 124.756 690.887 128.188 691.86 129.216C693.171 130.603 694.645 131.615 695.62 132.235C697.336 133.325 700.189 134.758 699.954 134.628L709.59 117.103C709.255 116.918 708.878 116.726 708.633 116.601C708.337 116.45 708.071 116.315 707.784 116.164C707.199 115.859 706.716 115.589 706.347 115.355C705.885 115.061 706.026 115.088 706.392 115.476C706.591 115.686 707.111 116.267 707.578 117.229C708.067 118.238 708.623 119.941 708.361 122.075L688.51 119.637ZM700.275 134.797C708.116 138.745 714.743 142.196 719.339 146.614C723.374 150.493 725.46 154.719 724.676 161.104L744.527 163.541C746.211 149.827 740.925 139.622 733.2 132.196C726.036 125.309 716.515 120.582 709.269 116.933L700.275 134.797ZM724.676 161.104C723.425 171.289 719.127 176.035 713.896 178.611C707.884 181.572 699.156 182.352 688.476 181.041L686.039 200.892C698.287 202.396 711.613 202.03 722.733 196.553C734.633 190.692 742.542 179.708 744.527 163.541L724.676 161.104ZM688.476 181.041C676.651 179.589 665.013 176.088 653.663 171.389L646.014 189.869C658.537 195.053 671.959 199.163 686.039 200.892L688.476 181.041Z" fill="#4F291E" mask="url(#path-1-outside-1_272_606)"/>
</g>
<defs>
<filter id="filter0_d_272_606" x="0.681641" y="0.449707" width="747.994" height="211.206" filterUnits="userSpaceOnUse" color-interpolation-filters="sRGB">
<feFlood flood-opacity="0" result="BackgroundImageFix"/>
<feColorMatrix in="SourceAlpha" type="matrix" values="0 0 0 0 0 0 0 0 0 0 0 0 0 0 0 0 0 0 127 0" result="hardAlpha"/>
<feOffset dx="-10" dy="10"/>
<feComposite in2="hardAlpha" operator="out"/>
<feColorMatrix type="matrix" values="0 0 0 0 0.309804 0 0 0 0 0.160784 0 0 0 0 0.117647 0 0 0 1 0"/>
<feBlend mode="normal" in2="BackgroundImageFix" result="effect1_dropShadow_272_606"/>
<feBlend mode="normal" in="SourceGraphic" in2="effect1_dropShadow_272_606" result="shape"/>
</filter>
</defs>
</svg>
