<svg width="200" height="219" viewBox="0 0 200 219" fill="none" xmlns="http://www.w3.org/2000/svg">
<path d="M85.2833 4.20182C95.0076 -1.40061 106.992 -1.40061 116.717 4.20182L184.306 43.1419C194.018 48.7373 200 59.0715 200 70.2543V148.746C200 159.929 194.018 170.263 184.306 175.858L116.717 214.798C106.992 220.401 95.0076 220.401 85.2833 214.798L17.6941 175.858C7.98194 170.263 2 159.929 2 148.746V70.2544C2 59.0715 7.98193 48.7373 17.6941 43.1419L85.2833 4.20182Z" fill="#05060F"/>
<path fill-rule="evenodd" clip-rule="evenodd" d="M47 82.1139C47 80.8155 48.3985 80.0038 49.5177 80.6526L88.968 103.525C90.0073 104.127 90.6477 105.241 90.6477 106.447V162.31C90.6477 163.609 89.2492 164.421 88.13 163.772L48.6797 140.9C47.6403 140.297 47 139.183 47 137.977V121.127C47 120.481 47.6928 120.075 48.2524 120.393L71.4885 133.591C72.0481 133.909 72.7409 133.503 72.7409 132.857V115.371C72.7409 114.56 72.3065 113.811 71.604 113.412L48.7054 100.406C47.6516 99.8074 47 98.6851 47 97.4687V82.1139ZM152.482 80.6526C153.602 80.0038 155 80.8155 155 82.1139V97.4687C155 98.6851 154.348 99.8074 153.295 100.406L130.396 113.412C129.693 113.811 129.259 114.56 129.259 115.371V132.857C129.259 133.503 129.952 133.909 130.511 133.591L153.748 120.393C154.307 120.075 155 120.481 155 121.127V137.977C155 139.183 154.36 140.297 153.32 140.9L113.87 163.772C112.751 164.421 111.352 163.609 111.352 162.31V106.447C111.352 105.241 111.993 104.127 113.032 103.525L152.482 80.6526ZM97.6776 49.8838C99.7373 48.7054 102.263 48.7054 104.322 49.8838L136.787 68.4586C137.914 69.1034 137.919 70.7339 136.796 71.3856L120.569 80.8023C119.885 81.1991 119.044 81.2045 118.355 80.8165L102.095 71.6556C101.415 71.2726 100.585 71.2726 99.9054 71.6556L83.6446 80.8165C82.9558 81.2045 82.1146 81.1991 81.4307 80.8023L65.2038 71.3856C64.0808 70.7339 64.0858 69.1034 65.2127 68.4586L97.6776 49.8838Z" fill="white"/>
</svg>
