<svg width="238" height="152" viewBox="0 0 238 152" fill="none" xmlns="http://www.w3.org/2000/svg">
<mask id="path-1-outside-1_121_841" maskUnits="userSpaceOnUse" x="-2.94198" y="14.6959" width="229.12" height="126.647" fill="black">
<rect fill="white" x="-2.94198" y="14.6959" width="229.12" height="126.647"/>
<path d="M30.771 83.6063L11.0307 80.3939L19.6912 27.174L61.7776 34.0228L59.2334 49.6571L36.8874 46.0207L36.2706 49.8109L54.1948 52.7277L51.8048 67.4145L33.8806 64.4977L30.771 83.6063ZM49.9716 86.7308L69.9236 35.3484L98.2707 39.9613L100.902 95.0187L80.8455 91.755L80.9976 86.8355L71.4433 85.2808L70.0278 89.9946L49.9716 86.7308ZM81.6731 50.3098L76.169 69.1909L81.4594 70.0518L82.0679 50.374L81.6731 50.3098ZM165.374 77.6285C164.329 84.0506 161.658 89.3436 157.36 93.5073C153.071 97.6184 147.697 100.094 141.238 100.934C145.454 102.917 149.326 104.196 152.852 104.77C154.326 105.009 155.686 105.123 156.931 105.109L156.854 105.583L142.476 118.724C133.379 112.867 126.531 105.971 121.933 98.0359C115.793 95.2536 111.214 91.1853 108.195 85.8308C105.175 80.4764 104.205 74.4828 105.285 67.85C106.638 59.5328 110.534 53.3583 116.972 49.3267C123.41 45.295 130.84 43.9645 139.262 45.3351C147.685 46.7057 154.463 50.3754 159.598 56.3443C164.794 62.2691 166.719 69.3638 165.374 77.6285ZM143.278 73.9516C143.655 71.6354 143.235 69.5678 142.018 67.7487C140.81 65.877 139.047 64.7527 136.731 64.3758C134.415 63.9988 132.365 64.4758 130.581 65.8066C128.851 67.146 127.792 69.0001 127.407 71.3689C127.013 73.7904 127.394 75.9327 128.549 77.7959C129.758 79.6676 131.546 80.7962 133.915 81.1817C136.284 81.5672 138.338 81.0639 140.078 79.6719C141.817 78.2799 142.884 76.3731 143.278 73.9516ZM163.853 102.426L167.78 83.7746C169.436 85.8813 172.048 87.9274 175.616 89.9129C179.244 91.8542 182.453 93.0519 185.243 93.5059C186.191 93.6601 186.725 93.3687 186.845 92.6318C186.947 92.0001 186.305 91.3011 184.916 90.5348C183.581 89.7771 181.946 88.8627 180.013 87.7917C178.08 86.7206 176.177 85.4653 174.304 84.0258C172.492 82.5422 171.038 80.5223 169.941 77.9663C168.896 75.4188 168.635 72.5395 169.158 69.3284C169.68 66.1173 170.766 63.4301 172.415 61.2669C174.072 59.051 176.114 57.4649 178.539 56.5087C180.964 55.5525 183.513 54.9947 186.187 54.8354C188.922 54.632 191.816 54.7787 194.869 55.2756C200.975 56.2693 206.779 58.2944 212.279 61.3509L208.273 79.9895C206.907 78.0921 204.572 76.172 201.268 74.2294C198.025 72.2428 195.245 71.061 192.929 70.684C191.771 70.4956 191.127 70.7962 190.999 71.5858C190.913 72.1122 192.004 73.0462 194.271 74.3878C196.406 75.5457 198.036 76.4864 199.162 77.2099C200.295 77.8807 201.698 78.8924 203.369 80.245C205.101 81.5536 206.377 82.842 207.198 84.1102C208.026 85.3258 208.672 86.8358 209.135 88.6402C209.651 90.4532 209.741 92.3862 209.407 94.4392C207.454 106.441 198.845 111.2 183.579 108.716C177.315 107.697 170.739 105.6 163.853 102.426Z"/>
</mask>
<path d="M30.771 83.6063L11.0307 80.3939L19.6912 27.174L61.7776 34.0228L59.2334 49.6571L36.8874 46.0207L36.2706 49.8109L54.1948 52.7277L51.8048 67.4145L33.8806 64.4977L30.771 83.6063ZM49.9716 86.7308L69.9236 35.3484L98.2707 39.9613L100.902 95.0187L80.8455 91.755L80.9976 86.8355L71.4433 85.2808L70.0278 89.9946L49.9716 86.7308ZM81.6731 50.3098L76.169 69.1909L81.4594 70.0518L82.0679 50.374L81.6731 50.3098ZM165.374 77.6285C164.329 84.0506 161.658 89.3436 157.36 93.5073C153.071 97.6184 147.697 100.094 141.238 100.934C145.454 102.917 149.326 104.196 152.852 104.77C154.326 105.009 155.686 105.123 156.931 105.109L156.854 105.583L142.476 118.724C133.379 112.867 126.531 105.971 121.933 98.0359C115.793 95.2536 111.214 91.1853 108.195 85.8308C105.175 80.4764 104.205 74.4828 105.285 67.85C106.638 59.5328 110.534 53.3583 116.972 49.3267C123.41 45.295 130.84 43.9645 139.262 45.3351C147.685 46.7057 154.463 50.3754 159.598 56.3443C164.794 62.2691 166.719 69.3638 165.374 77.6285ZM143.278 73.9516C143.655 71.6354 143.235 69.5678 142.018 67.7487C140.81 65.877 139.047 64.7527 136.731 64.3758C134.415 63.9988 132.365 64.4758 130.581 65.8066C128.851 67.146 127.792 69.0001 127.407 71.3689C127.013 73.7904 127.394 75.9327 128.549 77.7959C129.758 79.6676 131.546 80.7962 133.915 81.1817C136.284 81.5672 138.338 81.0639 140.078 79.6719C141.817 78.2799 142.884 76.3731 143.278 73.9516ZM163.853 102.426L167.78 83.7746C169.436 85.8813 172.048 87.9274 175.616 89.9129C179.244 91.8542 182.453 93.0519 185.243 93.5059C186.191 93.6601 186.725 93.3687 186.845 92.6318C186.947 92.0001 186.305 91.3011 184.916 90.5348C183.581 89.7771 181.946 88.8627 180.013 87.7917C178.08 86.7206 176.177 85.4653 174.304 84.0258C172.492 82.5422 171.038 80.5223 169.941 77.9663C168.896 75.4188 168.635 72.5395 169.158 69.3284C169.68 66.1173 170.766 63.4301 172.415 61.2669C174.072 59.051 176.114 57.4649 178.539 56.5087C180.964 55.5525 183.513 54.9947 186.187 54.8354C188.922 54.632 191.816 54.7787 194.869 55.2756C200.975 56.2693 206.779 58.2944 212.279 61.3509L208.273 79.9895C206.907 78.0921 204.572 76.172 201.268 74.2294C198.025 72.2428 195.245 71.061 192.929 70.684C191.771 70.4956 191.127 70.7962 190.999 71.5858C190.913 72.1122 192.004 73.0462 194.271 74.3878C196.406 75.5457 198.036 76.4864 199.162 77.2099C200.295 77.8807 201.698 78.8924 203.369 80.245C205.101 81.5536 206.377 82.842 207.198 84.1102C208.026 85.3258 208.672 86.8358 209.135 88.6402C209.651 90.4532 209.741 92.3862 209.407 94.4392C207.454 106.441 198.845 111.2 183.579 108.716C177.315 107.697 170.739 105.6 163.853 102.426Z" fill="#A74925"/>
<path d="M30.771 83.6063L29.3255 92.4895L38.2086 93.935L39.6542 85.0519L30.771 83.6063ZM11.0307 80.3939L2.14754 78.9484L0.701977 87.8315L9.58513 89.2771L11.0307 80.3939ZM19.6912 27.174L21.1368 18.2909L12.2536 16.8453L10.8081 25.7284L19.6912 27.174ZM61.7776 34.0228L70.6608 35.4683L72.1063 26.5852L63.2232 25.1396L61.7776 34.0228ZM59.2334 49.6571L57.7879 58.5403L66.671 59.9858L68.1166 51.1027L59.2334 49.6571ZM36.8874 46.0207L38.3329 37.1376L29.4498 35.692L28.0042 44.5751L36.8874 46.0207ZM36.2706 49.8109L27.3874 48.3653L25.9419 57.2484L34.825 58.694L36.2706 49.8109ZM54.1948 52.7277L63.078 54.1732L64.5235 45.2901L55.6404 43.8445L54.1948 52.7277ZM51.8048 67.4145L50.3593 76.2976L59.2424 77.7432L60.688 68.8601L51.8048 67.4145ZM33.8806 64.4977L35.3262 55.6145L26.443 54.1689L24.9974 63.0521L33.8806 64.4977ZM32.2166 74.7232L12.4763 71.5108L9.58513 89.2771L29.3255 92.4895L32.2166 74.7232ZM19.9138 81.8395L28.5744 28.6196L10.8081 25.7284L2.14754 78.9484L19.9138 81.8395ZM18.2457 36.0572L60.3321 42.9059L63.2232 25.1396L21.1368 18.2909L18.2457 36.0572ZM52.8945 32.5772L50.3503 48.2115L68.1166 51.1027L70.6608 35.4683L52.8945 32.5772ZM60.679 40.774L38.3329 37.1376L35.4418 54.9039L57.7879 58.5403L60.679 40.774ZM28.0042 44.5751L27.3874 48.3653L45.1537 51.2564L45.7705 47.4663L28.0042 44.5751ZM34.825 58.694L52.7493 61.6108L55.6404 43.8445L37.7162 40.9277L34.825 58.694ZM45.3117 51.2821L42.9217 65.9689L60.688 68.8601L63.078 54.1732L45.3117 51.2821ZM53.2504 58.5313L35.3262 55.6145L32.435 73.3808L50.3593 76.2976L53.2504 58.5313ZM24.9974 63.0521L21.8879 82.1607L39.6542 85.0519L42.7637 65.9432L24.9974 63.0521ZM49.9716 86.7308L41.5819 83.4731L37.5604 93.8295L48.526 95.614L49.9716 86.7308ZM69.9236 35.3484L71.3692 26.4652L64.173 25.2942L61.5339 32.0906L69.9236 35.3484ZM98.2707 39.9613L107.26 39.5317L106.912 32.2492L99.7163 31.0782L98.2707 39.9613ZM100.902 95.0187L99.4561 103.902L110.422 105.686L109.891 94.5892L100.902 95.0187ZM80.8455 91.755L71.8498 91.4768L71.6057 99.3698L79.3999 100.638L80.8455 91.755ZM80.9976 86.8355L89.9933 87.1137L90.2374 79.2207L82.4432 77.9524L80.9976 86.8355ZM71.4433 85.2808L72.8888 76.3976L65.0946 75.1292L62.8235 82.6923L71.4433 85.2808ZM70.0278 89.9946L68.5822 98.8777L76.3764 100.146L78.6475 92.583L70.0278 89.9946ZM81.6731 50.3098L83.1186 41.4267L75.2608 40.1479L73.0327 47.791L81.6731 50.3098ZM76.169 69.1909L67.5286 66.6721L64.6812 76.4398L74.7234 78.074L76.169 69.1909ZM81.4594 70.0518L80.0138 78.9349L90.138 80.5825L90.4551 70.33L81.4594 70.0518ZM82.0679 50.374L91.0636 50.6522L91.3076 42.7593L83.5134 41.4909L82.0679 50.374ZM58.3613 89.9886L78.3133 38.6061L61.5339 32.0906L41.5819 83.4731L58.3613 89.9886ZM68.478 44.2315L96.8251 48.8445L99.7163 31.0782L71.3692 26.4652L68.478 44.2315ZM89.281 40.3909L91.9119 95.4483L109.891 94.5892L107.26 39.5317L89.281 40.3909ZM102.347 86.1356L82.291 82.8718L79.3999 100.638L99.4561 103.902L102.347 86.1356ZM89.8412 92.0332L89.9933 87.1137L72.0019 86.5574L71.8498 91.4768L89.8412 92.0332ZM82.4432 77.9524L72.8888 76.3976L69.9977 94.1639L79.552 95.7187L82.4432 77.9524ZM62.8235 82.6923L61.408 87.4062L78.6475 92.583L80.063 87.8692L62.8235 82.6923ZM71.4733 81.1114L51.4171 77.8477L48.526 95.614L68.5822 98.8777L71.4733 81.1114ZM73.0327 47.791L67.5286 66.6721L84.8093 71.7097L90.3134 52.8286L73.0327 47.791ZM74.7234 78.074L80.0138 78.9349L82.9049 61.1686L77.6145 60.3077L74.7234 78.074ZM90.4551 70.33L91.0636 50.6522L73.0722 50.0959L72.4637 69.7736L90.4551 70.33ZM83.5134 41.4909L83.1186 41.4267L80.2275 59.1929L80.6223 59.2572L83.5134 41.4909ZM157.36 93.5073L163.587 100.005L163.605 99.9882L163.622 99.9714L157.36 93.5073ZM141.238 100.934L140.077 92.0094L109.556 95.9796L137.407 109.078L141.238 100.934ZM156.931 105.109L165.814 106.555L167.533 95.9933L156.833 96.1096L156.931 105.109ZM156.854 105.583L162.926 112.226L165.235 110.116L165.737 107.028L156.854 105.583ZM142.476 118.724L137.604 126.291L143.432 130.044L148.548 125.367L142.476 118.724ZM121.933 98.0359L129.719 93.5232L128.274 91.0285L125.647 89.8383L121.933 98.0359ZM108.195 85.8308L116.034 81.4104L116.034 81.4104L108.195 85.8308ZM116.972 49.3267L121.749 56.9544L121.749 56.9544L116.972 49.3267ZM159.598 56.3443L152.775 62.2136L152.803 62.2461L152.831 62.2784L159.598 56.3443ZM142.018 67.7487L134.457 72.6302L134.497 72.692L134.538 72.7531L142.018 67.7487ZM130.581 65.8066L125.199 58.5933L125.136 58.6404L125.074 58.6887L130.581 65.8066ZM128.549 77.7959L120.901 82.5401L120.944 82.6091L120.988 82.6774L128.549 77.7959ZM140.078 79.6719L134.455 72.6449L134.454 72.6449L140.078 79.6719ZM156.491 76.1829C155.728 80.8705 153.882 84.3463 151.098 87.0433L163.622 99.9714C169.434 94.3409 172.93 87.2308 174.258 79.074L156.491 76.1829ZM151.132 87.0098C148.364 89.6631 144.824 91.3919 140.077 92.0094L142.399 109.859C150.569 108.796 157.777 105.574 163.587 100.005L151.132 87.0098ZM137.407 109.078C142.164 111.316 146.848 112.911 151.407 113.653L154.298 95.8864C151.803 95.4804 148.743 94.5186 145.068 92.79L137.407 109.078ZM151.407 113.653C153.294 113.96 155.177 114.129 157.029 114.109L156.833 96.1096C156.195 96.1165 155.359 96.0591 154.298 95.8864L151.407 113.653ZM148.048 103.664L147.971 104.137L165.737 107.028L165.814 106.555L148.048 103.664ZM150.782 98.9397L136.404 112.081L148.548 125.367L162.926 112.226L150.782 98.9397ZM147.348 111.157C139.236 105.934 133.484 100.02 129.719 93.5232L114.146 102.549C119.578 111.922 127.522 119.8 137.604 126.291L147.348 111.157ZM125.647 89.8383C121.072 87.7649 118.023 84.938 116.034 81.4104L100.355 90.2513C104.404 97.4326 110.514 102.742 118.218 106.233L125.647 89.8383ZM116.034 81.4104C114.114 78.0052 113.384 74.1116 114.168 69.2956L96.4017 66.4045C95.0267 74.8539 96.2366 82.9475 100.355 90.2513L116.034 81.4104ZM114.168 69.2956C115.157 63.2209 117.76 59.4521 121.749 56.9544L112.195 41.6989C103.308 47.2645 98.1201 55.8446 96.4017 66.4045L114.168 69.2956ZM121.749 56.9544C126.103 54.2277 131.267 53.1524 137.817 54.2182L140.708 36.4519C130.413 34.7766 120.717 36.3623 112.195 41.6989L121.749 56.9544ZM137.817 54.2182C144.336 55.2792 149.142 57.9901 152.775 62.2136L166.421 50.4751C159.785 42.7608 151.033 38.1322 140.708 36.4519L137.817 54.2182ZM152.831 62.2784C156.132 66.0422 157.435 70.3807 156.491 76.1829L174.258 79.074C176.003 68.347 173.456 58.4961 166.365 50.4103L152.831 62.2784ZM152.161 75.3972C152.875 71.0089 152.08 66.6029 149.498 62.7444L134.538 72.7531C134.535 72.7493 134.513 72.7152 134.487 72.653C134.46 72.5901 134.439 72.5214 134.426 72.4554C134.42 72.4241 134.416 72.3981 134.414 72.3788C134.412 72.3596 134.412 72.3494 134.412 72.3496C134.412 72.3499 134.412 72.3621 134.41 72.3875C134.408 72.4129 134.404 72.4521 134.395 72.5061L152.161 75.3972ZM149.579 62.8672C146.909 58.7311 142.854 56.2538 138.177 55.4926L135.286 73.2589C135.384 73.2749 135.219 73.2614 134.949 73.0891C134.823 73.0087 134.71 72.916 134.617 72.8219C134.525 72.7292 134.474 72.6574 134.457 72.6302L149.579 62.8672ZM138.177 55.4926C133.599 54.7477 129.054 55.7168 125.199 58.5933L135.964 73.0199C135.951 73.0291 135.899 73.0657 135.808 73.1089C135.715 73.1526 135.608 73.1906 135.496 73.2166C135.254 73.273 135.153 73.2373 135.286 73.2589L138.177 55.4926ZM125.074 58.6887C121.359 61.5631 119.237 65.5409 118.524 69.9233L136.29 72.8145C136.311 72.6832 136.333 72.6163 136.338 72.6002C136.343 72.5856 136.336 72.6113 136.306 72.6629C136.276 72.7154 136.236 72.7733 136.188 72.828C136.141 72.8822 136.103 72.9138 136.089 72.9245L125.074 58.6887ZM118.524 69.9233C117.825 74.2163 118.462 78.608 120.901 82.5401L136.197 73.0517C136.201 73.0572 136.215 73.0821 136.231 73.1226C136.246 73.1632 136.255 73.1975 136.258 73.2165C136.261 73.2344 136.256 73.2183 136.257 73.1587C136.257 73.0977 136.262 72.9853 136.29 72.8145L118.524 69.9233ZM120.988 82.6774C123.693 86.8667 127.806 89.3059 132.47 90.0648L135.361 72.2985C135.209 72.2739 135.343 72.2726 135.6 72.4347C135.721 72.5109 135.834 72.6022 135.932 72.6999C136.028 72.7965 136.085 72.8755 136.111 72.9144L120.988 82.6774ZM132.47 90.0648C137.133 90.8237 141.808 89.8146 145.701 86.6989L134.454 72.6449C134.491 72.616 134.57 72.5591 134.692 72.4981C134.815 72.4364 134.952 72.3859 135.091 72.3519C135.386 72.2796 135.512 72.3232 135.361 72.2985L132.47 90.0648ZM145.701 86.6989C149.362 83.769 151.448 79.7779 152.161 75.3972L134.395 72.5061C134.37 72.6606 134.343 72.752 134.329 72.7931C134.316 72.8328 134.312 72.8318 134.328 72.8035C134.344 72.7744 134.37 72.7369 134.401 72.6997C134.433 72.6629 134.455 72.6448 134.455 72.6449L145.701 86.6989ZM163.853 102.426L155.046 100.572L153.567 107.595L160.086 110.6L163.853 102.426ZM167.78 83.7746L174.855 78.2118L162.943 63.0622L158.973 81.9204L167.78 83.7746ZM175.616 89.9129L171.239 97.777L171.304 97.8133L171.37 97.8485L175.616 89.9129ZM184.916 90.5348L180.476 98.3629L180.521 98.3889L180.567 98.4143L184.916 90.5348ZM180.013 87.7917L175.651 95.6641L175.651 95.6641L180.013 87.7917ZM174.304 84.0258L168.602 90.9892L168.71 91.0772L168.82 91.1618L174.304 84.0258ZM169.941 77.9663L161.613 81.3802L161.641 81.4483L161.67 81.5159L169.941 77.9663ZM172.415 61.2669L179.573 66.7227L179.598 66.6902L179.622 66.6575L172.415 61.2669ZM178.539 56.5087L175.237 48.1361L175.237 48.1361L178.539 56.5087ZM186.187 54.8354L186.722 63.8195L186.788 63.8155L186.854 63.8106L186.187 54.8354ZM212.279 61.3509L221.078 63.2419L222.479 56.7227L216.651 53.4839L212.279 61.3509ZM208.273 79.9895L200.97 85.2486L212.814 101.696L217.073 81.8805L208.273 79.9895ZM201.268 74.2294L196.566 81.9039L196.636 81.9465L196.706 81.9879L201.268 74.2294ZM194.271 74.3878L189.688 82.1334L189.833 82.219L189.981 82.2991L194.271 74.3878ZM199.162 77.2099L194.294 84.7799L194.435 84.8703L194.578 84.9555L199.162 77.2099ZM203.369 80.245L197.706 87.2405L197.824 87.3355L197.944 87.4264L203.369 80.245ZM207.198 84.1102L199.641 88.9981L199.7 89.09L199.762 89.1804L207.198 84.1102ZM209.135 88.6402L200.417 90.8764L200.446 90.9894L200.478 91.1016L209.135 88.6402ZM172.66 104.28L176.587 85.6287L158.973 81.9204L155.046 100.572L172.66 104.28ZM160.705 89.3374C163.381 92.7418 167.12 95.4846 171.239 97.777L179.992 82.0488C176.976 80.3703 175.491 79.0209 174.855 78.2118L160.705 89.3374ZM171.37 97.8485C175.511 100.064 179.692 101.721 183.798 102.389L186.689 84.6228C185.215 84.3829 182.977 83.6443 179.861 81.9772L171.37 97.8485ZM183.798 102.389C185.178 102.614 187.884 102.822 190.667 101.302C193.927 99.5224 195.334 96.4946 195.728 94.0773L177.961 91.1862C178.235 89.5059 179.315 86.9922 182.042 85.5036C184.291 84.2758 186.256 84.5524 186.689 84.6228L183.798 102.389ZM195.728 94.0773C196.405 89.9152 194.322 86.9089 193.065 85.5419C191.792 84.158 190.32 83.2377 189.265 82.6554L180.567 98.4143C180.901 98.5982 180.445 98.4105 179.815 97.7256C179.201 97.0576 177.387 94.7167 177.961 91.1862L195.728 94.0773ZM189.357 82.7067C187.987 81.9293 186.324 80.9993 184.375 79.9193L175.651 95.6641C177.568 96.7262 179.175 97.625 180.476 98.3629L189.357 82.7067ZM184.375 79.9193C182.86 79.0797 181.33 78.0748 179.788 76.8898L168.82 91.1618C171.024 92.8558 173.301 94.3615 175.651 95.6641L184.375 79.9193ZM180.006 77.0624C179.504 76.6511 178.845 75.8933 178.211 74.4167L161.67 81.5159C163.231 85.1513 165.481 88.4333 168.602 90.9892L180.006 77.0624ZM178.268 74.5523C177.961 73.8022 177.736 72.6462 178.041 70.774L160.275 67.8828C159.534 72.4327 159.832 77.0354 161.613 81.3802L178.268 74.5523ZM178.041 70.774C178.373 68.7363 178.979 67.5013 179.573 66.7227L165.257 55.8111C162.553 59.3589 160.988 63.4983 160.275 67.8828L178.041 70.774ZM179.622 66.6575C180.344 65.6928 181.065 65.1869 181.84 64.8813L175.237 48.1361C171.162 49.743 167.801 52.4092 165.208 55.8762L179.622 66.6575ZM181.84 64.8813C183.357 64.2832 184.971 63.9238 186.722 63.8195L185.652 45.8513C182.056 46.0656 178.571 46.8217 175.237 48.1361L181.84 64.8813ZM186.854 63.8106C188.8 63.6659 190.981 63.7613 193.423 64.1587L196.314 46.3924C192.65 45.7962 189.043 45.5981 185.519 45.8602L186.854 63.8106ZM193.423 64.1587C198.485 64.9825 203.301 66.6578 207.908 69.2179L216.651 53.4839C210.257 49.9309 203.465 47.5561 196.314 46.3924L193.423 64.1587ZM203.48 59.4598L199.474 78.0984L217.073 81.8805L221.078 63.2419L203.48 59.4598ZM215.577 74.7303C213.159 71.3726 209.607 68.6921 205.829 66.4709L196.706 81.9879C199.537 83.652 200.655 84.8115 200.97 85.2486L215.577 74.7303ZM205.969 66.555C202.272 64.2902 198.339 62.4461 194.374 61.8009L191.483 79.5672C192.151 79.6758 193.777 80.1953 196.566 81.9039L205.969 66.555ZM194.374 61.8009C193.063 61.5875 190.483 61.3455 187.768 62.6143C184.375 64.1997 182.587 67.2421 182.116 70.1402L199.882 73.0313C199.737 73.9217 199.374 75.1037 198.537 76.2855C197.674 77.5047 196.549 78.3793 195.388 78.922C193.315 79.8902 191.637 79.5921 191.483 79.5672L194.374 61.8009ZM182.116 70.1402C181.541 73.6742 183.12 76.2561 183.742 77.1596C184.497 78.257 185.351 79.0482 185.899 79.5174C187.041 80.4951 188.41 81.3773 189.688 82.1334L198.855 66.6422C197.865 66.0566 197.555 65.8011 197.606 65.8447C197.609 65.8469 198.065 66.2221 198.569 66.9544C198.94 67.4928 200.414 69.7606 199.882 73.0313L182.116 70.1402ZM189.981 82.2991C192.05 83.4213 193.45 84.2373 194.294 84.7799L204.029 69.6398C202.623 68.7355 200.763 67.6702 198.562 66.4764L189.981 82.2991ZM194.578 84.9555C195.174 85.3081 196.192 86.0148 197.706 87.2405L209.031 73.2495C207.203 71.7699 205.416 70.4532 203.745 69.4643L194.578 84.9555ZM197.944 87.4264C199.173 88.3546 199.582 88.9082 199.641 88.9981L214.755 79.2223C213.172 76.7757 211.029 74.7526 208.793 73.0636L197.944 87.4264ZM199.762 89.1804C199.869 89.3377 200.148 89.8265 200.417 90.8764L217.853 86.404C217.197 83.8451 216.184 81.3139 214.634 79.04L199.762 89.1804ZM200.478 91.1016C200.597 91.5182 200.668 92.1075 200.524 92.9936L218.29 95.8848C218.814 92.6649 218.705 89.3882 217.792 86.1788L200.478 91.1016ZM200.524 92.9936C199.875 96.98 198.453 98.4026 197.131 99.1332C195.351 100.118 191.735 100.925 185.024 99.8329L182.133 117.599C190.689 118.991 199.01 118.661 205.839 114.887C213.127 110.858 216.986 103.9 218.29 95.8848L200.524 92.9936ZM185.024 99.8329C179.7 98.9665 173.907 97.15 167.62 94.2524L160.086 110.6C167.572 114.05 174.929 116.427 182.133 117.599L185.024 99.8329Z" fill="#4F291E" mask="url(#path-1-outside-1_121_841)"/>
<mask id="path-4-outside-2_121_841" maskUnits="userSpaceOnUse" x="4.80216" y="7.41467" width="229.12" height="126.647" fill="black">
<rect fill="white" x="4.80216" y="7.41467" width="229.12" height="126.647"/>
<path d="M38.5152 76.3251L18.7748 73.1127L27.4354 19.8928L69.5218 26.7415L66.9776 42.3759L44.6315 38.7395L44.0147 42.5296L61.939 45.4464L59.549 60.1332L41.6247 57.2164L38.5152 76.3251ZM57.7157 79.4496L77.6677 28.0671L106.015 32.6801L108.646 87.7375L88.5896 84.4737L88.7417 79.5543L79.1874 77.9995L77.7719 82.7133L57.7157 79.4496ZM89.4172 43.0285L83.9131 61.9096L89.2035 62.7705L89.812 43.0928L89.4172 43.0285ZM173.119 70.3472C172.073 76.7694 169.402 82.0624 165.104 86.2261C160.815 90.3372 155.441 92.8128 148.982 93.653C153.198 95.636 157.07 96.9144 160.597 97.4883C162.071 97.7282 163.43 97.8414 164.675 97.8278L164.598 98.3016L150.221 111.443C141.123 105.586 134.275 98.6896 129.677 90.7546C123.537 87.9724 118.958 83.904 115.939 78.5496C112.92 73.1951 111.95 67.2015 113.029 60.5688C114.382 52.2515 118.278 46.0771 124.716 42.0454C131.154 38.0138 138.584 36.6832 147.006 38.0538C155.429 39.4245 162.208 43.0942 167.342 49.0631C172.538 54.9879 174.463 62.0826 173.119 70.3472ZM151.022 66.6704C151.399 64.3542 150.979 62.2866 149.762 60.4675C148.554 58.5957 146.791 57.4714 144.475 57.0945C142.159 56.7176 140.109 57.1945 138.326 58.5253C136.595 59.8647 135.536 61.7188 135.151 64.0877C134.757 66.5091 135.138 68.6515 136.294 70.5146C137.502 72.3863 139.291 73.5149 141.659 73.9004C144.028 74.2859 146.082 73.7826 147.822 72.3906C149.561 70.9986 150.628 69.0919 151.022 66.6704ZM171.597 95.1448L175.524 76.4933C177.18 78.6001 179.792 80.6462 183.36 82.6316C186.988 84.573 190.198 85.7707 192.988 86.2247C193.935 86.3789 194.469 86.0875 194.589 85.3505C194.692 84.7188 194.049 84.0198 192.661 83.2536C191.325 82.4959 189.691 81.5815 187.757 80.5104C185.824 79.4394 183.921 78.1841 182.048 76.7445C180.236 75.2609 178.782 73.2411 177.685 70.685C176.64 68.1375 176.38 65.2582 176.902 62.0471C177.425 58.8361 178.51 56.1489 180.159 53.9856C181.817 51.7697 183.858 50.1837 186.283 49.2274C188.708 48.2712 191.257 47.7134 193.931 47.5541C196.666 47.3508 199.56 47.4975 202.613 47.9943C208.719 48.988 214.523 51.0131 220.023 54.0696L216.018 72.7082C214.651 70.8108 212.316 68.8908 209.012 66.9482C205.769 64.9615 202.989 63.7797 200.673 63.4028C199.515 63.2143 198.872 63.5149 198.743 64.3045C198.657 64.8309 199.748 65.7649 202.016 67.1065C204.151 68.2645 205.781 69.2052 206.906 69.9286C208.039 70.5994 209.442 71.6111 211.113 72.9638C212.845 74.2723 214.121 75.5607 214.942 76.8289C215.771 78.0445 216.416 79.5545 216.879 81.359C217.395 83.172 217.485 85.105 217.151 87.1579C215.198 99.1601 206.589 103.919 191.323 101.435C185.059 100.415 178.483 98.3187 171.597 95.1448Z"/>
</mask>
<path d="M38.5152 76.3251L18.7748 73.1127L27.4354 19.8928L69.5218 26.7415L66.9776 42.3759L44.6315 38.7395L44.0147 42.5296L61.939 45.4464L59.549 60.1332L41.6247 57.2164L38.5152 76.3251ZM57.7157 79.4496L77.6677 28.0671L106.015 32.6801L108.646 87.7375L88.5896 84.4737L88.7417 79.5543L79.1874 77.9995L77.7719 82.7133L57.7157 79.4496ZM89.4172 43.0285L83.9131 61.9096L89.2035 62.7705L89.812 43.0928L89.4172 43.0285ZM173.119 70.3472C172.073 76.7694 169.402 82.0624 165.104 86.2261C160.815 90.3372 155.441 92.8128 148.982 93.653C153.198 95.636 157.07 96.9144 160.597 97.4883C162.071 97.7282 163.43 97.8414 164.675 97.8278L164.598 98.3016L150.221 111.443C141.123 105.586 134.275 98.6896 129.677 90.7546C123.537 87.9724 118.958 83.904 115.939 78.5496C112.92 73.1951 111.95 67.2015 113.029 60.5688C114.382 52.2515 118.278 46.0771 124.716 42.0454C131.154 38.0138 138.584 36.6832 147.006 38.0538C155.429 39.4245 162.208 43.0942 167.342 49.0631C172.538 54.9879 174.463 62.0826 173.119 70.3472ZM151.022 66.6704C151.399 64.3542 150.979 62.2866 149.762 60.4675C148.554 58.5957 146.791 57.4714 144.475 57.0945C142.159 56.7176 140.109 57.1945 138.326 58.5253C136.595 59.8647 135.536 61.7188 135.151 64.0877C134.757 66.5091 135.138 68.6515 136.294 70.5146C137.502 72.3863 139.291 73.5149 141.659 73.9004C144.028 74.2859 146.082 73.7826 147.822 72.3906C149.561 70.9986 150.628 69.0919 151.022 66.6704ZM171.597 95.1448L175.524 76.4933C177.18 78.6001 179.792 80.6462 183.36 82.6316C186.988 84.573 190.198 85.7707 192.988 86.2247C193.935 86.3789 194.469 86.0875 194.589 85.3505C194.692 84.7188 194.049 84.0198 192.661 83.2536C191.325 82.4959 189.691 81.5815 187.757 80.5104C185.824 79.4394 183.921 78.1841 182.048 76.7445C180.236 75.2609 178.782 73.2411 177.685 70.685C176.64 68.1375 176.38 65.2582 176.902 62.0471C177.425 58.8361 178.51 56.1489 180.159 53.9856C181.817 51.7697 183.858 50.1837 186.283 49.2274C188.708 48.2712 191.257 47.7134 193.931 47.5541C196.666 47.3508 199.56 47.4975 202.613 47.9943C208.719 48.988 214.523 51.0131 220.023 54.0696L216.018 72.7082C214.651 70.8108 212.316 68.8908 209.012 66.9482C205.769 64.9615 202.989 63.7797 200.673 63.4028C199.515 63.2143 198.872 63.5149 198.743 64.3045C198.657 64.8309 199.748 65.7649 202.016 67.1065C204.151 68.2645 205.781 69.2052 206.906 69.9286C208.039 70.5994 209.442 71.6111 211.113 72.9638C212.845 74.2723 214.121 75.5607 214.942 76.8289C215.771 78.0445 216.416 79.5545 216.879 81.359C217.395 83.172 217.485 85.105 217.151 87.1579C215.198 99.1601 206.589 103.919 191.323 101.435C185.059 100.415 178.483 98.3187 171.597 95.1448Z" fill="#A74925"/>
<path d="M38.5152 76.3251L37.0696 85.2082L45.9527 86.6538L47.3983 77.7706L38.5152 76.3251ZM18.7748 73.1127L9.89168 71.6671L8.44612 80.5503L17.3293 81.9958L18.7748 73.1127ZM27.4354 19.8928L28.8809 11.0096L19.9978 9.56404L18.5522 18.4472L27.4354 19.8928ZM69.5218 26.7415L78.4049 28.1871L79.8505 19.3039L70.9673 17.8584L69.5218 26.7415ZM66.9776 42.3759L65.532 51.259L74.4152 52.7046L75.8607 43.8214L66.9776 42.3759ZM44.6315 38.7395L46.0771 29.8563L37.1939 28.4107L35.7484 37.2939L44.6315 38.7395ZM44.0147 42.5296L35.1316 41.084L33.686 49.9672L42.5692 51.4128L44.0147 42.5296ZM61.939 45.4464L70.8221 46.892L72.2677 38.0088L63.3845 36.5633L61.939 45.4464ZM59.549 60.1332L58.1034 69.0164L66.9865 70.462L68.4321 61.5788L59.549 60.1332ZM41.6247 57.2164L43.0703 48.3333L34.1871 46.8877L32.7416 55.7708L41.6247 57.2164ZM39.9607 67.4419L20.2204 64.2295L17.3293 81.9958L37.0696 85.2082L39.9607 67.4419ZM27.658 74.5583L36.3185 21.3383L18.5522 18.4472L9.89168 71.6671L27.658 74.5583ZM25.9898 28.7759L68.0762 35.6247L70.9673 17.8584L28.8809 11.0096L25.9898 28.7759ZM60.6386 25.296L58.0944 40.9303L75.8607 43.8214L78.4049 28.1871L60.6386 25.296ZM68.4231 33.4927L46.0771 29.8563L43.1859 47.6226L65.532 51.259L68.4231 33.4927ZM35.7484 37.2939L35.1316 41.084L52.8979 43.9752L53.5147 40.185L35.7484 37.2939ZM42.5692 51.4128L60.4934 54.3296L63.3845 36.5633L45.4603 33.6465L42.5692 51.4128ZM53.0558 44.0009L50.6658 58.6877L68.4321 61.5788L70.8221 46.892L53.0558 44.0009ZM60.9945 51.2501L43.0703 48.3333L40.1792 66.0996L58.1034 69.0164L60.9945 51.2501ZM32.7416 55.7708L29.632 74.8795L47.3983 77.7706L50.5079 58.662L32.7416 55.7708ZM57.7157 79.4496L49.326 76.1918L45.3046 86.5483L56.2702 88.3327L57.7157 79.4496ZM77.6677 28.0671L79.1133 19.184L71.9171 18.0129L69.278 24.8094L77.6677 28.0671ZM106.015 32.6801L115.005 32.2505L114.657 24.968L107.46 23.7969L106.015 32.6801ZM108.646 87.7375L107.2 96.6206L118.166 98.4051L117.636 87.3079L108.646 87.7375ZM88.5896 84.4737L79.5939 84.1955L79.3498 92.0885L87.144 93.3569L88.5896 84.4737ZM88.7417 79.5543L97.7374 79.8325L97.9815 71.9395L90.1873 70.6711L88.7417 79.5543ZM79.1874 77.9995L80.633 69.1164L72.8388 67.848L70.5677 75.4111L79.1874 77.9995ZM77.7719 82.7133L76.3263 91.5965L84.1205 92.8649L86.3917 85.3017L77.7719 82.7133ZM89.4172 43.0285L90.8628 34.1454L83.0049 32.8667L80.7768 40.5098L89.4172 43.0285ZM83.9131 61.9096L75.2727 59.3908L72.4253 69.1586L82.4675 70.7928L83.9131 61.9096ZM89.2035 62.7705L87.7579 71.6537L97.8822 73.3012L98.1992 63.0487L89.2035 62.7705ZM89.812 43.0928L98.8077 43.371L99.0518 35.478L91.2576 34.2096L89.812 43.0928ZM66.1054 82.7073L86.0574 31.3249L69.278 24.8094L49.326 76.1918L66.1054 82.7073ZM76.2222 36.9503L104.569 41.5632L107.46 23.7969L79.1133 19.184L76.2222 36.9503ZM97.0251 33.1097L99.656 88.1671L117.636 87.3079L115.005 32.2505L97.0251 33.1097ZM110.091 78.8543L90.0352 75.5906L87.144 93.3569L107.2 96.6206L110.091 78.8543ZM97.5853 84.7519L97.7374 79.8325L79.746 79.2761L79.5939 84.1955L97.5853 84.7519ZM90.1873 70.6711L80.633 69.1164L77.7418 86.8827L87.2962 88.4374L90.1873 70.6711ZM70.5677 75.4111L69.1521 80.1249L86.3917 85.3017L87.8072 80.5879L70.5677 75.4111ZM79.2175 73.8302L59.1613 70.5664L56.2702 88.3327L76.3263 91.5965L79.2175 73.8302ZM80.7768 40.5098L75.2727 59.3908L92.5534 64.4284L98.0576 45.5473L80.7768 40.5098ZM82.4675 70.7928L87.7579 71.6537L90.6491 53.8874L85.3587 53.0265L82.4675 70.7928ZM98.1992 63.0487L98.8077 43.371L80.8163 42.8146L80.2078 62.4924L98.1992 63.0487ZM91.2576 34.2096L90.8628 34.1454L87.9716 51.9117L88.3664 51.9759L91.2576 34.2096ZM165.104 86.2261L171.332 92.7236L171.349 92.7069L171.366 92.6902L165.104 86.2261ZM148.982 93.653L147.821 84.7282L117.3 88.6984L145.152 101.797L148.982 93.653ZM164.675 97.8278L173.558 99.2734L175.277 88.712L164.577 88.8284L164.675 97.8278ZM164.598 98.3016L170.67 104.945L172.979 102.834L173.481 99.7472L164.598 98.3016ZM150.221 111.443L145.348 119.01L151.176 122.762L156.293 118.086L150.221 111.443ZM129.677 90.7546L137.464 86.2419L136.018 83.7472L133.392 82.5571L129.677 90.7546ZM115.939 78.5496L123.778 74.1291L115.939 78.5496ZM124.716 42.0454L129.493 49.6731L129.493 49.6731L124.716 42.0454ZM167.342 49.0631L160.519 54.9323L160.547 54.9649L160.576 54.9971L167.342 49.0631ZM149.762 60.4675L142.201 65.349L142.241 65.4107L142.282 65.4718L149.762 60.4675ZM138.326 58.5253L132.943 51.312L132.88 51.3592L132.818 51.4074L138.326 58.5253ZM136.294 70.5146L128.646 75.2588L128.688 75.3279L128.732 75.3961L136.294 70.5146ZM147.822 72.3906L142.199 65.3636L142.199 65.3636L147.822 72.3906ZM164.235 68.9016C163.473 73.5892 161.626 77.065 158.842 79.762L171.366 92.6902C177.178 87.0597 180.674 79.9496 182.002 71.7928L164.235 68.9016ZM158.877 79.7286C156.108 82.3819 152.568 84.1106 147.821 84.7282L150.143 102.578C158.313 101.515 165.521 98.2925 171.332 92.7236L158.877 79.7286ZM145.152 101.797C149.909 104.035 154.592 105.63 159.151 106.371L162.042 88.6052C159.547 88.1991 156.488 87.2374 152.812 85.5088L145.152 101.797ZM159.151 106.371C161.038 106.679 162.921 106.847 164.773 106.827L164.577 88.8284C163.939 88.8353 163.103 88.7778 162.042 88.6052L159.151 106.371ZM155.792 96.3823L155.715 96.856L173.481 99.7472L173.558 99.2734L155.792 96.3823ZM158.526 91.6585L144.149 104.8L156.293 118.086L170.67 104.945L158.526 91.6585ZM155.093 103.876C146.98 98.6527 141.228 92.7383 137.464 86.2419L121.89 95.2673C127.322 104.641 135.266 112.519 145.348 119.01L155.093 103.876ZM133.392 82.5571C128.816 80.4836 125.767 77.6567 123.778 74.1291L108.099 82.97C112.148 90.1513 118.258 95.4611 125.962 98.9522L133.392 82.5571ZM123.778 74.1291C121.858 70.724 121.128 66.8304 121.912 62.0143L104.146 59.1232C102.771 67.5726 103.981 75.6663 108.099 82.97L123.778 74.1291ZM121.912 62.0143C122.901 55.9397 125.504 52.1709 129.493 49.6731L119.939 34.4177C111.052 39.9832 105.864 48.5634 104.146 59.1232L121.912 62.0143ZM129.493 49.6731C133.847 46.9465 139.011 45.8711 145.561 46.937L148.452 29.1707C138.157 27.4954 128.461 29.081 119.939 34.4177L129.493 49.6731ZM145.561 46.937C152.081 47.998 156.886 50.7088 160.519 54.9323L174.165 43.1938C167.529 35.4796 158.777 30.851 148.452 29.1707L145.561 46.937ZM160.576 54.9971C163.876 58.7609 165.18 63.0994 164.235 68.9016L182.002 71.7928C183.747 61.0658 181.2 51.2148 174.109 43.129L160.576 54.9971ZM159.905 68.116C160.619 63.7276 159.824 59.3216 157.243 55.4631L142.282 65.4718C142.279 65.468 142.257 65.434 142.231 65.3717C142.205 65.3088 142.183 65.2401 142.17 65.1742C142.164 65.1429 142.16 65.1169 142.158 65.0976C142.156 65.0783 142.156 65.0682 142.156 65.0683C142.156 65.0686 142.156 65.0809 142.154 65.1062C142.152 65.1316 142.148 65.1709 142.139 65.2248L159.905 68.116ZM157.323 55.586C154.653 51.4499 150.598 48.9725 145.921 48.2114L143.03 65.9777C143.128 65.9936 142.964 65.9801 142.694 65.8078C142.567 65.7274 142.454 65.6347 142.361 65.5407C142.269 65.4479 142.219 65.3762 142.201 65.349L157.323 55.586ZM145.921 48.2114C141.343 47.4664 136.799 48.4356 132.943 51.312L143.708 65.7387C143.696 65.7478 143.643 65.7845 143.552 65.8276C143.459 65.8713 143.352 65.9093 143.24 65.9354C142.998 65.9918 142.897 65.956 143.03 65.9777L145.921 48.2114ZM132.818 51.4074C129.103 54.2819 126.981 58.2597 126.268 62.6421L144.034 65.5332C144.056 65.4019 144.077 65.335 144.082 65.3189C144.087 65.3044 144.08 65.3301 144.05 65.3816C144.02 65.4341 143.98 65.4921 143.932 65.5467C143.885 65.601 143.847 65.6326 143.833 65.6433L132.818 51.4074ZM126.268 62.6421C125.569 66.935 126.206 71.3267 128.646 75.2588L143.942 65.7704C143.945 65.7759 143.959 65.8009 143.975 65.8413C143.991 65.8819 143.999 65.9162 144.002 65.9352C144.005 65.9532 144.001 65.9371 144.001 65.8775C144.001 65.8165 144.006 65.704 144.034 65.5332L126.268 62.6421ZM128.732 75.3961C131.437 79.5855 135.55 82.0247 140.214 82.7836L143.105 65.0173C142.953 64.9926 143.087 64.9914 143.344 65.1534C143.465 65.2297 143.579 65.321 143.676 65.4186C143.773 65.5152 143.83 65.5943 143.855 65.6331L128.732 75.3961ZM140.214 82.7836C144.877 83.5425 149.552 82.5333 153.445 79.4176L142.199 65.3636C142.235 65.3347 142.314 65.2778 142.436 65.2168C142.559 65.1551 142.696 65.1046 142.835 65.0706C143.13 64.9983 143.256 65.0419 143.105 65.0173L140.214 82.7836ZM153.445 79.4176C157.106 76.4878 159.193 72.4966 159.905 68.116L142.139 65.2248C142.114 65.3793 142.087 65.4708 142.073 65.5119C142.06 65.5516 142.056 65.5506 142.072 65.5223C142.089 65.4931 142.114 65.4556 142.145 65.4185C142.177 65.3816 142.199 65.3636 142.199 65.3636L153.445 79.4176ZM171.597 95.1448L162.79 93.2906L161.312 100.314L167.83 103.318L171.597 95.1448ZM175.524 76.4933L182.599 70.9305L170.687 55.7809L166.717 74.6392L175.524 76.4933ZM183.36 82.6316L178.983 90.4957L179.048 90.532L179.114 90.5672L183.36 82.6316ZM192.661 83.2536L188.22 91.0817L188.265 91.1076L188.311 91.133L192.661 83.2536ZM187.757 80.5104L183.396 88.3828L183.396 88.3828L187.757 80.5104ZM182.048 76.7445L176.346 83.708L176.454 83.7959L176.564 83.8805L182.048 76.7445ZM177.685 70.685L169.357 74.099L169.385 74.167L169.414 74.2346L177.685 70.685ZM180.159 53.9856L187.317 59.4414L187.342 59.409L187.366 59.3763L180.159 53.9856ZM186.283 49.2274L182.982 40.8548L182.982 40.8548L186.283 49.2274ZM193.931 47.5541L194.466 56.5382L194.532 56.5343L194.598 56.5294L193.931 47.5541ZM220.023 54.0696L228.822 55.9607L230.223 49.4415L224.395 46.2026L220.023 54.0696ZM216.018 72.7082L208.714 77.9674L220.558 94.4152L224.817 74.5993L216.018 72.7082ZM209.012 66.9482L204.31 74.6226L204.38 74.6653L204.45 74.7067L209.012 66.9482ZM202.015 67.1065L197.432 74.8521L197.577 74.9377L197.725 75.0179L202.015 67.1065ZM206.906 69.9286L202.038 77.4987L202.179 77.5891L202.323 77.6742L206.906 69.9286ZM211.113 72.9638L205.45 79.9593L205.568 80.0542L205.688 80.1451L211.113 72.9638ZM214.942 76.8289L207.385 81.7168L207.444 81.8087L207.506 81.8992L214.942 76.8289ZM216.879 81.359L208.162 83.5951L208.19 83.7081L208.222 83.8204L216.879 81.359ZM180.404 96.9989L184.331 78.3475L166.717 74.6392L162.79 93.2906L180.404 96.9989ZM168.449 82.0561C171.126 85.4605 174.864 88.2033 178.983 90.4957L187.736 74.7675C184.721 73.089 183.235 71.7396 182.599 70.9305L168.449 82.0561ZM179.114 90.5672C183.255 92.7829 187.436 94.4397 191.542 95.1078L194.433 77.3415C192.959 77.1016 190.721 76.3631 187.605 74.696L179.114 90.5672ZM191.542 95.1078C192.922 95.3324 195.629 95.5404 198.411 94.0212C201.672 92.2412 203.079 89.2134 203.472 86.7961L185.706 83.9049C185.979 82.2246 187.059 79.711 189.786 78.2224C192.035 76.9946 194.001 77.2711 194.433 77.3415L191.542 95.1078ZM203.472 86.7961C204.149 82.6339 202.066 79.6276 200.809 78.2606C199.536 76.8768 198.065 75.9564 197.01 75.3741L188.311 91.133C188.645 91.317 188.189 91.1293 187.559 90.4444C186.945 89.7764 185.131 87.4354 185.706 83.9049L203.472 86.7961ZM197.101 75.4255C195.731 74.648 194.068 73.718 192.119 72.6381L183.396 88.3828C185.313 89.445 186.919 90.3437 188.22 91.0817L197.101 75.4255ZM192.119 72.6381C190.604 71.7985 189.074 70.7936 187.532 69.6085L176.564 83.8805C178.768 85.5746 181.045 87.0803 183.396 88.3828L192.119 72.6381ZM187.75 69.7811C187.248 69.3698 186.589 68.6121 185.955 67.1354L169.414 74.2346C170.975 77.8701 173.225 81.152 176.346 83.708L187.75 69.7811ZM186.012 67.2711C185.705 66.5209 185.481 65.365 185.785 63.4927L168.019 60.6016C167.279 65.1515 167.576 69.7542 169.357 74.099L186.012 67.2711ZM185.785 63.4927C186.117 61.4551 186.724 60.2201 187.317 59.4414L173.001 48.5298C170.297 52.0777 168.732 56.217 168.019 60.6016L185.785 63.4927ZM187.366 59.3763C188.088 58.4116 188.809 57.9056 189.584 57.6L182.982 40.8548C178.906 42.4617 175.545 45.1279 172.952 48.595L187.366 59.3763ZM189.584 57.6001C191.101 57.0019 192.715 56.6426 194.466 56.5382L193.396 38.5701C189.8 38.7843 186.315 39.5405 182.982 40.8548L189.584 57.6001ZM194.598 56.5294C196.545 56.3846 198.725 56.4801 201.167 56.8775L204.059 39.1112C200.395 38.5149 196.787 38.3169 193.264 38.5789L194.598 56.5294ZM201.167 56.8775C206.229 57.7012 211.045 59.3766 215.652 61.9366L224.395 46.2026C218.001 42.6497 211.209 40.2749 204.059 39.1112L201.167 56.8775ZM211.224 52.1786L207.218 70.8172L224.817 74.5993L228.822 55.9607L211.224 52.1786ZM223.321 67.4491C220.903 64.0914 217.351 61.4109 213.573 59.1897L204.45 74.7067C207.281 76.3707 208.399 77.5302 208.714 77.9674L223.321 67.4491ZM213.713 59.2737C210.016 57.009 206.083 55.1648 202.119 54.5196L199.227 72.2859C199.895 72.3946 201.521 72.914 204.31 74.6226L213.713 59.2737ZM202.119 54.5196C200.807 54.3062 198.228 54.0643 195.512 55.333C192.119 56.9185 190.332 59.9609 189.86 62.859L207.626 65.7501C207.481 66.6404 207.118 67.8224 206.282 69.0042C205.418 70.2235 204.293 71.098 203.132 71.6407C201.06 72.6089 199.381 72.3109 199.227 72.2859L202.119 54.5196ZM189.86 62.859C189.285 66.3929 190.864 68.9749 191.486 69.8784C192.241 70.9757 193.095 71.767 193.643 72.2362C194.785 73.2138 196.155 74.0961 197.432 74.8521L206.599 59.3609C205.609 58.7754 205.3 58.5198 205.35 58.5635C205.353 58.5657 205.809 58.9409 206.313 59.6731C206.684 60.2115 208.158 62.4793 207.626 65.7501L189.86 62.859ZM197.725 75.0179C199.794 76.14 201.194 76.9561 202.038 77.4987L211.773 62.3585C210.367 61.4543 208.507 60.3889 206.306 59.1952L197.725 75.0179ZM202.323 77.6742C202.918 78.0268 203.936 78.7336 205.45 79.9593L216.775 65.9682C214.947 64.4887 213.16 63.172 211.489 62.183L202.323 77.6742ZM205.688 80.1451C206.917 81.0733 207.327 81.627 207.385 81.7168L222.499 71.941C220.916 69.4944 218.773 67.4713 216.538 65.7824L205.688 80.1451ZM207.506 81.8992C207.613 82.0564 207.892 82.5452 208.162 83.5951L225.597 79.1228C224.941 76.5638 223.928 74.0326 222.378 71.7587L207.506 81.8992ZM208.222 83.8204C208.341 84.237 208.412 84.8263 208.268 85.7124L226.035 88.6035C226.559 85.3837 226.449 82.107 225.536 78.8975L208.222 83.8204ZM208.268 85.7124C207.62 89.6988 206.197 91.1213 204.876 91.852C203.095 92.8363 199.479 93.6436 192.768 92.5516L189.877 110.318C198.433 111.71 206.755 111.38 213.583 107.606C220.871 103.577 224.73 96.6192 226.035 88.6035L208.268 85.7124ZM192.768 92.5516C187.445 91.6853 181.651 89.8688 175.364 86.9712L167.83 103.318C175.316 106.769 182.673 109.146 189.877 110.318L192.768 92.5516Z" fill="#4F291E" mask="url(#path-4-outside-2_121_841)"/>
<mask id="path-7-outside-3_121_841" maskUnits="userSpaceOnUse" x="12.2553" y="3.11877" width="229.12" height="126.647" fill="black">
<rect fill="white" x="12.2553" y="3.11877" width="229.12" height="126.647"/>
<path d="M45.9683 72.0292L26.228 68.8168L34.8885 15.5969L76.9749 22.4456L74.4307 38.08L52.0846 34.4436L51.4679 38.2337L69.3921 41.1505L67.0021 55.8373L49.0779 52.9205L45.9683 72.0292ZM65.1688 75.1537L85.1209 23.7712L113.468 28.3842L116.099 83.4416L96.0427 80.1778L96.1949 75.2584L86.6405 73.7036L85.225 78.4174L65.1688 75.1537ZM96.8703 38.7327L91.3662 57.6137L96.6566 58.4746L97.2651 38.7969L96.8703 38.7327ZM180.572 66.0513C179.527 72.4735 176.855 77.7665 172.557 81.9302C168.268 86.0413 162.894 88.5169 156.435 89.3571C160.651 91.3401 164.523 92.6185 168.05 93.1924C169.524 93.4323 170.883 93.5455 172.128 93.5319L172.051 94.0057L157.674 107.147C148.576 101.29 141.728 94.3937 137.13 86.4587C130.99 83.6765 126.411 79.6081 123.392 74.2537C120.373 68.8992 119.403 62.9056 120.482 56.2729C121.836 47.9556 125.731 41.7812 132.169 37.7495C138.607 33.7179 146.037 32.3873 154.46 33.7579C162.882 35.1286 169.661 38.7983 174.795 44.7672C179.991 50.692 181.917 57.7867 180.572 66.0513ZM158.475 62.3745C158.852 60.0583 158.432 57.9907 157.215 56.1716C156.007 54.2999 154.245 53.1755 151.928 52.7986C149.612 52.4217 147.562 52.8986 145.779 54.2294C144.048 55.5688 142.99 57.4229 142.604 59.7918C142.21 62.2132 142.591 64.3556 143.747 66.2187C144.955 68.0904 146.744 69.219 149.113 69.6045C151.481 69.99 153.536 69.4867 155.275 68.0947C157.015 66.7027 158.081 64.796 158.475 62.3745ZM179.05 90.8489L182.977 72.1974C184.633 74.3042 187.245 76.3503 190.813 78.3357C194.441 80.2771 197.651 81.4748 200.441 81.9288C201.388 82.083 201.922 81.7916 202.042 81.0546C202.145 80.4229 201.502 79.7239 200.114 78.9577C198.778 78.2 197.144 77.2856 195.211 76.2145C193.278 75.1435 191.374 73.8882 189.501 72.4486C187.689 70.965 186.235 68.9452 185.138 66.3891C184.094 63.8416 183.833 60.9623 184.355 57.7512C184.878 54.5402 185.963 51.853 187.612 49.6897C189.27 47.4738 191.311 45.8878 193.736 44.9315C196.161 43.9753 198.71 43.4175 201.384 43.2582C204.119 43.0549 207.013 43.2016 210.066 43.6984C216.172 44.6921 221.976 46.7172 227.476 49.7737L223.471 68.4123C222.104 66.5149 219.769 64.5949 216.465 62.6523C213.222 60.6656 210.442 59.4838 208.126 59.1069C206.968 58.9184 206.325 59.219 206.196 60.0086C206.111 60.535 207.201 61.469 209.469 62.8106C211.604 63.9686 213.234 64.9093 214.359 65.6327C215.492 66.3035 216.895 67.3152 218.566 68.6679C220.298 69.9764 221.575 71.2648 222.395 72.533C223.224 73.7486 223.87 75.2586 224.332 77.0631C224.848 78.8761 224.939 80.8091 224.605 82.8621C222.651 94.8642 214.042 99.6231 198.776 97.1389C192.512 96.1195 185.937 94.0228 179.05 90.8489Z"/>
</mask>
<path d="M45.9683 72.0292L26.228 68.8168L34.8885 15.5969L76.9749 22.4456L74.4307 38.08L52.0846 34.4436L51.4679 38.2337L69.3921 41.1505L67.0021 55.8373L49.0779 52.9205L45.9683 72.0292ZM65.1688 75.1537L85.1209 23.7712L113.468 28.3842L116.099 83.4416L96.0427 80.1778L96.1949 75.2584L86.6405 73.7036L85.225 78.4174L65.1688 75.1537ZM96.8703 38.7327L91.3662 57.6137L96.6566 58.4746L97.2651 38.7969L96.8703 38.7327ZM180.572 66.0513C179.527 72.4735 176.855 77.7665 172.557 81.9302C168.268 86.0413 162.894 88.5169 156.435 89.3571C160.651 91.3401 164.523 92.6185 168.05 93.1924C169.524 93.4323 170.883 93.5455 172.128 93.5319L172.051 94.0057L157.674 107.147C148.576 101.29 141.728 94.3937 137.13 86.4587C130.99 83.6765 126.411 79.6081 123.392 74.2537C120.373 68.8992 119.403 62.9056 120.482 56.2729C121.836 47.9556 125.731 41.7812 132.169 37.7495C138.607 33.7179 146.037 32.3873 154.46 33.7579C162.882 35.1286 169.661 38.7983 174.795 44.7672C179.991 50.692 181.917 57.7867 180.572 66.0513ZM158.475 62.3745C158.852 60.0583 158.432 57.9907 157.215 56.1716C156.007 54.2999 154.245 53.1755 151.928 52.7986C149.612 52.4217 147.562 52.8986 145.779 54.2294C144.048 55.5688 142.99 57.4229 142.604 59.7918C142.21 62.2132 142.591 64.3556 143.747 66.2187C144.955 68.0904 146.744 69.219 149.113 69.6045C151.481 69.99 153.536 69.4867 155.275 68.0947C157.015 66.7027 158.081 64.796 158.475 62.3745ZM179.05 90.8489L182.977 72.1974C184.633 74.3042 187.245 76.3503 190.813 78.3357C194.441 80.2771 197.651 81.4748 200.441 81.9288C201.388 82.083 201.922 81.7916 202.042 81.0546C202.145 80.4229 201.502 79.7239 200.114 78.9577C198.778 78.2 197.144 77.2856 195.211 76.2145C193.278 75.1435 191.374 73.8882 189.501 72.4486C187.689 70.965 186.235 68.9452 185.138 66.3891C184.094 63.8416 183.833 60.9623 184.355 57.7512C184.878 54.5402 185.963 51.853 187.612 49.6897C189.27 47.4738 191.311 45.8878 193.736 44.9315C196.161 43.9753 198.71 43.4175 201.384 43.2582C204.119 43.0549 207.013 43.2016 210.066 43.6984C216.172 44.6921 221.976 46.7172 227.476 49.7737L223.471 68.4123C222.104 66.5149 219.769 64.5949 216.465 62.6523C213.222 60.6656 210.442 59.4838 208.126 59.1069C206.968 58.9184 206.325 59.219 206.196 60.0086C206.111 60.535 207.201 61.469 209.469 62.8106C211.604 63.9686 213.234 64.9093 214.359 65.6327C215.492 66.3035 216.895 67.3152 218.566 68.6679C220.298 69.9764 221.575 71.2648 222.395 72.533C223.224 73.7486 223.87 75.2586 224.332 77.0631C224.848 78.8761 224.939 80.8091 224.605 82.8621C222.651 94.8642 214.042 99.6231 198.776 97.1389C192.512 96.1195 185.937 94.0228 179.05 90.8489Z" fill="#A74925"/>
<path d="M45.9683 72.0292L44.5227 80.9123L53.4059 82.3579L54.8514 73.4747L45.9683 72.0292ZM26.228 68.8168L17.3448 67.3712L15.8992 76.2544L24.7824 77.6999L26.228 68.8168ZM34.8885 15.5969L36.3341 6.7137L27.4509 5.26814L26.0053 14.1513L34.8885 15.5969ZM76.9749 22.4456L85.858 23.8912L87.3036 15.008L78.4205 13.5625L76.9749 22.4456ZM74.4307 38.08L72.9851 46.9631L81.8683 48.4087L83.3138 39.5255L74.4307 38.08ZM52.0846 34.4436L53.5302 25.5604L44.647 24.1148L43.2015 32.998L52.0846 34.4436ZM51.4679 38.2337L42.5847 36.7881L41.1391 45.6713L50.0223 47.1169L51.4679 38.2337ZM69.3921 41.1505L78.2752 42.5961L79.7208 33.7129L70.8376 32.2674L69.3921 41.1505ZM67.0021 55.8373L65.5565 64.7205L74.4397 66.1661L75.8852 57.2829L67.0021 55.8373ZM49.0779 52.9205L50.5234 44.0374L41.6403 42.5918L40.1947 51.4749L49.0779 52.9205ZM47.4139 63.146L27.6735 59.9336L24.7824 77.6999L44.5227 80.9123L47.4139 63.146ZM35.1111 70.2624L43.7716 17.0424L26.0053 14.1513L17.3448 67.3712L35.1111 70.2624ZM33.4429 24.48L75.5293 31.3288L78.4205 13.5625L36.3341 6.7137L33.4429 24.48ZM68.0917 21.0001L65.5475 36.6344L83.3138 39.5255L85.858 23.8912L68.0917 21.0001ZM75.8763 29.1968L53.5302 25.5604L50.6391 43.3267L72.9851 46.9631L75.8763 29.1968ZM43.2015 32.998L42.5847 36.7881L60.351 39.6793L60.9678 35.8891L43.2015 32.998ZM50.0223 47.1169L67.9465 50.0337L70.8376 32.2674L52.9134 29.3506L50.0223 47.1169ZM60.5089 39.705L58.1189 54.3918L75.8852 57.2829L78.2752 42.5961L60.5089 39.705ZM68.4476 46.9542L50.5234 44.0374L47.6323 61.8037L65.5565 64.7205L68.4476 46.9542ZM40.1947 51.4749L37.0851 70.5836L54.8514 73.4747L57.961 54.3661L40.1947 51.4749ZM65.1688 75.1537L56.7791 71.8959L52.7577 82.2524L63.7233 84.0368L65.1688 75.1537ZM85.1209 23.7712L86.5664 14.8881L79.3702 13.717L76.7312 20.5135L85.1209 23.7712ZM113.468 28.3842L122.458 27.9546L122.11 20.6721L114.914 19.501L113.468 28.3842ZM116.099 83.4416L114.653 92.3247L125.619 94.1092L125.089 83.012L116.099 83.4416ZM96.0427 80.1778L87.047 79.8996L86.8029 87.7926L94.5972 89.061L96.0427 80.1778ZM96.1949 75.2584L105.191 75.5366L105.435 67.6436L97.6404 66.3752L96.1949 75.2584ZM86.6405 73.7036L88.0861 64.8205L80.2919 63.5521L78.0208 71.1152L86.6405 73.7036ZM85.225 78.4174L83.7795 87.3006L91.5737 88.569L93.8448 81.0058L85.225 78.4174ZM96.8703 38.7327L98.3159 29.8495L90.458 28.5708L88.23 36.2139L96.8703 38.7327ZM91.3662 57.6137L82.7259 55.0949L79.8784 64.8627L89.9206 66.4969L91.3662 57.6137ZM96.6566 58.4746L95.2111 67.3578L105.335 69.0053L105.652 58.7528L96.6566 58.4746ZM97.2651 38.7969L106.261 39.0751L106.505 31.1821L98.7107 29.9137L97.2651 38.7969ZM73.5585 78.4114L93.5106 27.029L76.7312 20.5135L56.7791 71.8959L73.5585 78.4114ZM83.6753 32.6544L112.022 37.2673L114.914 19.501L86.5664 14.8881L83.6753 32.6544ZM104.478 28.8138L107.109 83.8712L125.089 83.012L122.458 27.9546L104.478 28.8138ZM117.544 74.5584L97.4883 71.2947L94.5972 89.061L114.653 92.3247L117.544 74.5584ZM105.038 80.456L105.191 75.5366L87.1992 74.9802L87.047 79.8996L105.038 80.456ZM97.6404 66.3752L88.0861 64.8205L85.195 82.5868L94.7493 84.1415L97.6404 66.3752ZM78.0208 71.1152L76.6053 75.829L93.8448 81.0058L95.2603 76.292L78.0208 71.1152ZM86.6706 69.5343L66.6144 66.2705L63.7233 84.0368L83.7795 87.3006L86.6706 69.5343ZM88.23 36.2139L82.7259 55.0949L100.007 60.1325L105.511 41.2514L88.23 36.2139ZM89.9206 66.4969L95.2111 67.3578L98.1022 49.5915L92.8118 48.7306L89.9206 66.4969ZM105.652 58.7528L106.261 39.0751L88.2694 38.5187L87.6609 58.1965L105.652 58.7528ZM98.7107 29.9137L98.3159 29.8495L95.4248 47.6158L95.8196 47.68L98.7107 29.9137ZM172.557 81.9302L178.785 88.4277L178.802 88.411L178.819 88.3943L172.557 81.9302ZM156.435 89.3571L155.274 80.4323L124.753 84.4025L152.605 97.5013L156.435 89.3571ZM172.128 93.5319L181.011 94.9775L182.73 84.4161L172.03 84.5325L172.128 93.5319ZM172.051 94.0057L178.123 100.649L180.432 98.5385L180.934 95.4513L172.051 94.0057ZM157.674 107.147L152.802 114.714L158.629 118.466L163.746 113.79L157.674 107.147ZM137.13 86.4587L144.917 81.946L143.471 79.4513L140.845 78.2612L137.13 86.4587ZM123.392 74.2537L131.231 69.8332L123.392 74.2537ZM132.169 37.7495L136.946 45.3772L136.946 45.3772L132.169 37.7495ZM174.795 44.7672L167.972 50.6364L168 50.669L168.029 50.7012L174.795 44.7672ZM157.215 56.1716L149.654 61.0531L149.694 61.1148L149.735 61.1759L157.215 56.1716ZM145.779 54.2294L140.397 47.0161L140.333 47.0633L140.271 47.1115L145.779 54.2294ZM143.747 66.2187L136.099 70.9629L136.141 71.032L136.186 71.1002L143.747 66.2187ZM155.275 68.0947L149.652 61.0677L149.652 61.0677L155.275 68.0947ZM171.689 64.6057C170.926 69.2933 169.079 72.7691 166.295 75.4661L178.819 88.3943C184.631 82.7638 188.127 75.6537 189.455 67.4969L171.689 64.6057ZM166.33 75.4327C163.561 78.086 160.021 79.8147 155.274 80.4323L157.596 98.2819C165.766 97.2191 172.974 93.9966 178.785 88.4277L166.33 75.4327ZM152.605 97.5013C157.362 99.7387 162.045 101.334 166.604 102.076L169.495 84.3093C167 83.9032 163.941 82.9415 160.265 81.2129L152.605 97.5013ZM166.604 102.076C168.491 102.383 170.374 102.552 172.226 102.531L172.03 84.5325C171.392 84.5394 170.556 84.482 169.495 84.3093L166.604 102.076ZM163.245 92.0864L163.168 92.5601L180.934 95.4513L181.011 94.9775L163.245 92.0864ZM165.979 87.3626L151.602 100.504L163.746 113.79L178.123 100.649L165.979 87.3626ZM162.546 99.5798C154.433 94.3568 148.682 88.4424 144.917 81.946L129.343 90.9714C134.775 100.345 142.719 108.223 152.802 114.714L162.546 99.5798ZM140.845 78.2612C136.269 76.1877 133.221 73.3608 131.231 69.8332L115.552 78.6741C119.601 85.8554 125.711 91.1652 133.415 94.6563L140.845 78.2612ZM131.231 69.8332C129.311 66.4281 128.582 62.5345 129.365 57.7184L111.599 54.8273C110.224 63.2768 111.434 71.3704 115.552 78.6741L131.231 69.8332ZM129.365 57.7184C130.354 51.6438 132.957 47.875 136.946 45.3772L127.392 30.1218C118.505 35.6873 113.317 44.2675 111.599 54.8273L129.365 57.7184ZM136.946 45.3772C141.3 42.6506 146.464 41.5752 153.014 42.6411L155.905 24.8748C145.61 23.1995 135.914 24.7851 127.392 30.1218L136.946 45.3772ZM153.014 42.6411C159.534 43.7021 164.339 46.4129 167.972 50.6364L181.618 38.8979C174.982 31.1837 166.231 26.5551 155.905 24.8748L153.014 42.6411ZM168.029 50.7012C171.329 54.465 172.633 58.8035 171.689 64.6057L189.455 67.4969C191.2 56.7699 188.653 46.9189 181.562 38.8331L168.029 50.7012ZM167.359 63.8201C168.073 59.4317 167.277 55.0257 164.696 51.1672L149.735 61.1759C149.732 61.1721 149.71 61.1381 149.684 61.0758C149.658 61.0129 149.637 60.9442 149.623 60.8783C149.617 60.847 149.613 60.821 149.611 60.8017C149.609 60.7824 149.609 60.7723 149.609 60.7724C149.609 60.7727 149.609 60.785 149.607 60.8103C149.605 60.8357 149.601 60.875 149.592 60.9289L167.359 63.8201ZM164.776 51.2901C162.106 47.154 158.051 44.6766 153.374 43.9155L150.483 61.6818C150.581 61.6977 150.417 61.6842 150.147 61.5119C150.021 61.4315 149.907 61.3388 149.814 61.2448C149.722 61.152 149.672 61.0803 149.654 61.0531L164.776 51.2901ZM153.374 43.9155C148.796 43.1705 144.252 44.1397 140.397 47.0161L151.161 61.4428C151.149 61.4519 151.097 61.4886 151.005 61.5317C150.912 61.5754 150.805 61.6134 150.693 61.6395C150.451 61.6959 150.35 61.6601 150.483 61.6818L153.374 43.9155ZM140.271 47.1115C136.556 49.986 134.434 53.9638 133.721 58.3462L151.487 61.2373C151.509 61.106 151.53 61.0391 151.535 61.023C151.54 61.0085 151.533 61.0342 151.503 61.0857C151.473 61.1382 151.433 61.1962 151.385 61.2508C151.338 61.3051 151.3 61.3367 151.286 61.3474L140.271 47.1115ZM133.721 58.3462C133.022 62.6391 133.66 67.0308 136.099 70.9629L151.395 61.4745C151.398 61.48 151.413 61.505 151.428 61.5454C151.444 61.586 151.452 61.6203 151.455 61.6393C151.458 61.6573 151.454 61.6412 151.454 61.5816C151.454 61.5206 151.459 61.4081 151.487 61.2373L133.721 58.3462ZM136.186 71.1002C138.89 75.2896 143.003 77.7288 147.667 78.4877L150.558 60.7214C150.407 60.6967 150.54 60.6955 150.797 60.8575C150.918 60.9338 151.032 61.0251 151.129 61.1227C151.226 61.2193 151.283 61.2984 151.308 61.3372L136.186 71.1002ZM147.667 78.4877C152.33 79.2466 157.005 78.2374 160.898 75.1217L149.652 61.0677C149.688 61.0388 149.767 60.9819 149.889 60.9209C150.013 60.8592 150.149 60.8087 150.288 60.7747C150.583 60.7024 150.71 60.746 150.558 60.7214L147.667 78.4877ZM160.898 75.1217C164.56 72.1919 166.646 68.2007 167.359 63.8201L149.592 60.9289C149.567 61.0834 149.54 61.1749 149.526 61.216C149.513 61.2557 149.51 61.2547 149.525 61.2264C149.542 61.1972 149.567 61.1597 149.598 61.1226C149.63 61.0857 149.652 61.0677 149.652 61.0677L160.898 75.1217ZM179.05 90.8489L170.243 88.9947L168.765 96.0181L175.283 99.0225L179.05 90.8489ZM182.977 72.1974L190.052 66.6346L178.14 51.485L174.17 70.3433L182.977 72.1974ZM190.813 78.3357L186.436 86.1998L186.501 86.2361L186.567 86.2713L190.813 78.3357ZM200.114 78.9577L195.673 86.7858L195.719 86.8117L195.765 86.8371L200.114 78.9577ZM195.211 76.2145L190.849 84.0869L190.849 84.0869L195.211 76.2145ZM189.501 72.4486L183.8 79.4121L183.907 79.5L184.017 79.5846L189.501 72.4486ZM185.138 66.3891L176.811 69.8031L176.838 69.8711L176.868 69.9387L185.138 66.3891ZM187.612 49.6897L194.77 55.1455L194.795 55.1131L194.819 55.0804L187.612 49.6897ZM193.736 44.9315L190.435 36.5589L190.435 36.5589L193.736 44.9315ZM201.384 43.2582L201.919 52.2423L201.986 52.2384L202.052 52.2335L201.384 43.2582ZM227.476 49.7737L236.275 51.6648L237.677 45.1456L231.848 41.9067L227.476 49.7737ZM223.471 68.4123L216.167 73.6715L228.011 90.1193L232.27 70.3034L223.471 68.4123ZM216.465 62.6523L211.763 70.3267L211.833 70.3694L211.904 70.4108L216.465 62.6523ZM209.469 62.8106L204.885 70.5562L205.03 70.6418L205.178 70.722L209.469 62.8106ZM214.359 65.6327L209.491 73.2028L209.632 73.2932L209.776 73.3783L214.359 65.6327ZM218.566 68.6679L212.904 75.6634L213.021 75.7583L213.141 75.8492L218.566 68.6679ZM222.395 72.533L214.838 77.4209L214.897 77.5128L214.959 77.6033L222.395 72.533ZM224.332 77.0631L215.615 79.2992L215.644 79.4122L215.676 79.5245L224.332 77.0631ZM187.857 92.703L191.784 74.0516L174.17 70.3433L170.243 88.9947L187.857 92.703ZM175.902 77.7602C178.579 81.1646 182.317 83.9074 186.436 86.1998L195.19 70.4716C192.174 68.7931 190.688 67.4437 190.052 66.6346L175.902 77.7602ZM186.567 86.2713C190.708 88.487 194.889 90.1438 198.995 90.8119L201.886 73.0456C200.412 72.8057 198.174 72.0672 195.058 70.4001L186.567 86.2713ZM198.995 90.8119C200.375 91.0365 203.082 91.2445 205.864 89.7253C209.125 87.9453 210.532 84.9175 210.925 82.5002L193.159 79.609C193.432 77.9287 194.512 75.4151 197.239 73.9265C199.488 72.6987 201.454 72.9752 201.886 73.0456L198.995 90.8119ZM210.925 82.5002C211.602 78.338 209.519 75.3317 208.262 73.9647C206.989 72.5809 205.518 71.6605 204.463 71.0782L195.765 86.8371C196.098 87.0211 195.642 86.8334 195.012 86.1485C194.398 85.4805 192.584 83.1395 193.159 79.609L210.925 82.5002ZM204.554 71.1296C203.184 70.3521 201.522 69.4221 199.572 68.3422L190.849 84.0869C192.766 85.1491 194.372 86.0478 195.673 86.7858L204.554 71.1296ZM199.572 68.3422C198.057 67.5026 196.528 66.4977 194.986 65.3126L184.017 79.5846C186.221 81.2787 188.498 82.7844 190.849 84.0869L199.572 68.3422ZM195.203 65.4852C194.701 65.0739 194.042 64.3162 193.408 62.8395L176.868 69.9387C178.428 73.5742 180.678 76.8561 183.8 79.4121L195.203 65.4852ZM193.465 62.9752C193.158 62.225 192.934 61.0691 193.238 59.1968L175.472 56.3057C174.732 60.8556 175.029 65.4583 176.811 69.8031L193.465 62.9752ZM193.238 59.1968C193.57 57.1592 194.177 55.9242 194.77 55.1455L180.455 44.2339C177.75 47.7818 176.186 51.9211 175.472 56.3057L193.238 59.1968ZM194.819 55.0804C195.541 54.1157 196.262 53.6098 197.038 53.3042L190.435 36.5589C186.36 38.1658 182.999 40.832 180.405 44.2991L194.819 55.0804ZM197.037 53.3042C198.554 52.706 200.168 52.3467 201.919 52.2423L200.849 34.2742C197.253 34.4884 193.768 35.2446 190.435 36.5589L197.037 53.3042ZM202.052 52.2335C203.998 52.0887 206.178 52.1842 208.621 52.5816L211.512 34.8153C207.848 34.219 204.24 34.021 200.717 34.283L202.052 52.2335ZM208.621 52.5816C213.682 53.4053 218.498 55.0807 223.105 57.6407L231.848 41.9067C225.454 38.3538 218.663 35.979 211.512 34.8153L208.621 52.5816ZM218.677 47.8827L214.672 66.5213L232.27 70.3034L236.275 51.6648L218.677 47.8827ZM230.774 63.1532C228.356 59.7955 224.804 57.115 221.026 54.8938L211.904 70.4108C214.734 72.0748 215.852 73.2343 216.167 73.6715L230.774 63.1532ZM221.166 54.9778C217.469 52.7131 213.536 50.8689 209.572 50.2237L206.681 67.99C207.348 68.0987 208.974 68.6181 211.763 70.3267L221.166 54.9778ZM209.572 50.2237C208.26 50.0103 205.681 49.7684 202.965 51.0371C199.572 52.6226 197.785 55.665 197.313 58.5631L215.079 61.4542C214.934 62.3445 214.571 63.5265 213.735 64.7084C212.872 65.9276 211.746 66.8021 210.585 67.3448C208.513 68.313 206.834 68.015 206.681 67.99L209.572 50.2237ZM197.313 58.5631C196.738 62.097 198.317 64.679 198.939 65.5825C199.694 66.6798 200.548 67.4711 201.096 67.9403C202.238 68.9179 203.608 69.8002 204.885 70.5562L214.052 55.065C213.062 54.4795 212.753 54.2239 212.804 54.2676C212.806 54.2698 213.262 54.645 213.766 55.3772C214.137 55.9156 215.612 58.1834 215.079 61.4542L197.313 58.5631ZM205.178 70.722C207.247 71.8441 208.647 72.6602 209.491 73.2028L219.226 58.0626C217.82 57.1584 215.96 56.093 213.759 54.8993L205.178 70.722ZM209.776 73.3783C210.372 73.7309 211.389 74.4377 212.904 75.6634L224.228 61.6723C222.4 60.1928 220.613 58.8761 218.942 57.8871L209.776 73.3783ZM213.141 75.8492C214.37 76.7774 214.78 77.3311 214.838 77.4209L229.952 67.6451C228.369 65.1985 226.227 63.1754 223.991 61.4865L213.141 75.8492ZM214.959 77.6033C215.066 77.7605 215.345 78.2493 215.615 79.2992L233.05 74.8269C232.394 72.2679 231.381 69.7367 229.831 67.4628L214.959 77.6033ZM215.676 79.5245C215.794 79.9411 215.866 80.5304 215.721 81.4165L233.488 84.3076C234.012 81.0878 233.902 77.8111 232.989 74.6017L215.676 79.5245ZM215.721 81.4165C215.073 85.4029 213.65 86.8254 212.329 87.5561C210.548 88.5404 206.932 89.3477 200.222 88.2557L197.33 106.022C205.886 107.414 214.208 107.084 221.036 103.31C228.324 99.2813 232.183 92.3233 233.488 84.3076L215.721 81.4165ZM200.222 88.2557C194.898 87.3894 189.104 85.5729 182.817 82.6753L175.283 99.0225C182.769 102.473 190.126 104.85 197.33 106.022L200.222 88.2557Z" fill="#4F291E" mask="url(#path-7-outside-3_121_841)"/>
</svg>
