<svg width="338" height="513" viewBox="0 0 338 513" fill="none" xmlns="http://www.w3.org/2000/svg">
<g clip-path="url(#clip0_183_954)">
<rect width="338" height="513" rx="12" fill="#5FA19E"/>
<path d="M42.322 60H35.194V48.66C35.194 47.796 34.96 47.094 34.492 46.554C34.06 46.014 33.322 45.744 32.278 45.744H24.07V60H16.942V22.2H31.414C33.358 22.2 35.068 22.47 36.544 23.01C38.02 23.55 39.244 24.306 40.216 25.278C41.224 26.214 41.98 27.312 42.484 28.572C43.024 29.832 43.294 31.182 43.294 32.622V33.918C43.294 35.466 42.88 36.924 42.052 38.292C41.224 39.624 39.946 40.65 38.218 41.37V42.342C39.478 42.486 40.468 42.972 41.188 43.8C41.944 44.628 42.322 45.672 42.322 46.932V60ZM24.07 38.94H30.874C32.602 38.94 33.916 38.544 34.816 37.752C35.716 36.924 36.166 35.772 36.166 34.296V33.648C36.166 32.388 35.716 31.308 34.816 30.408C33.916 29.472 32.602 29.004 30.874 29.004H24.07V38.94ZM58.8085 40.776C58.8085 41.64 59.2585 42.27 60.1585 42.666C61.0585 43.026 62.6965 43.332 65.0725 43.584C67.8085 43.872 70.0405 44.7 71.7685 46.068C73.4965 47.4 74.3605 49.272 74.3605 51.684V52.008C74.3605 54.672 73.3885 56.796 71.4445 58.38C69.5005 59.964 66.7645 60.756 63.2365 60.756C61.1485 60.756 59.3665 60.486 57.8905 59.946C56.4145 59.406 55.1905 58.74 54.2185 57.948C53.2465 57.12 52.4905 56.22 51.9505 55.248C51.4465 54.24 51.1045 53.268 50.9245 52.332L57.1885 50.28C57.4765 51.432 58.0705 52.44 58.9705 53.304C59.9065 54.168 61.3285 54.6 63.2365 54.6C64.9285 54.6 66.0805 54.348 66.6925 53.844C67.3405 53.304 67.6645 52.728 67.6645 52.116C67.6645 51.756 67.5745 51.432 67.3945 51.144C67.2505 50.82 66.9625 50.532 66.5305 50.28C66.0985 49.992 65.5045 49.758 64.7485 49.578C64.0285 49.398 63.1105 49.254 61.9945 49.146C58.9705 48.894 56.5585 48.12 54.7585 46.824C52.9945 45.492 52.1125 43.548 52.1125 40.992V40.668C52.1125 39.336 52.4005 38.166 52.9765 37.158C53.5525 36.15 54.3085 35.304 55.2445 34.62C56.1805 33.9 57.2605 33.36 58.4845 33C59.7085 32.64 60.9685 32.46 62.2645 32.46C63.9565 32.46 65.4145 32.676 66.6385 33.108C67.8985 33.504 68.9605 34.044 69.8245 34.728C70.6885 35.376 71.3905 36.114 71.9305 36.942C72.4705 37.734 72.8845 38.508 73.1725 39.264L67.0165 41.748C66.6925 40.776 66.1345 40.02 65.3425 39.48C64.5505 38.904 63.5245 38.616 62.2645 38.616C61.1125 38.616 60.2485 38.832 59.6725 39.264C59.0965 39.66 58.8085 40.164 58.8085 40.776ZM100.783 55.626C100.783 56.346 100.639 57.03 100.351 57.678C100.099 58.29 99.7389 58.83 99.2709 59.298C98.8029 59.73 98.2449 60.072 97.5969 60.324C96.9849 60.612 96.3369 60.756 95.6529 60.756C94.9329 60.756 94.2669 60.612 93.6549 60.324C93.0429 60.072 92.5029 59.73 92.0349 59.298C91.5669 58.83 91.1889 58.29 90.9009 57.678C90.6489 57.03 90.5229 56.346 90.5229 55.626C90.5229 54.906 90.6489 54.24 90.9009 53.628C91.1889 52.98 91.5669 52.44 92.0349 52.008C92.5029 51.54 93.0429 51.18 93.6549 50.928C94.2669 50.64 94.9329 50.496 95.6529 50.496C96.3369 50.496 96.9849 50.64 97.5969 50.928C98.2449 51.18 98.8029 51.54 99.2709 52.008C99.7389 52.44 100.099 52.98 100.351 53.628C100.639 54.24 100.783 54.906 100.783 55.626ZM115.433 22.2H142.001V33.324L128.339 53.304C127.619 54.384 127.043 55.32 126.611 56.112C126.215 56.868 126.017 57.732 126.017 58.704V60H118.349V58.38C118.349 57.66 118.403 57.012 118.511 56.436C118.619 55.86 118.781 55.284 118.997 54.708C119.249 54.132 119.573 53.52 119.969 52.872C120.365 52.224 120.851 51.468 121.427 50.604L135.521 29.976V29.004H115.433V22.2ZM156.652 55.626C156.652 54.942 156.778 54.294 157.03 53.682C157.318 53.034 157.696 52.494 158.164 52.062C158.632 51.594 159.172 51.234 159.784 50.982C160.396 50.694 161.062 50.55 161.782 50.55C162.466 50.55 163.114 50.694 163.726 50.982C164.374 51.234 164.932 51.594 165.4 52.062C165.868 52.494 166.228 53.034 166.48 53.682C166.768 54.294 166.912 54.942 166.912 55.626V62.214C166.912 63.582 166.444 64.734 165.508 65.67C164.608 66.606 163.474 67.074 162.106 67.074H158.65V62.862H161.242C162.214 62.862 162.7 62.322 162.7 61.242V60.594C162.412 60.702 162.106 60.756 161.782 60.756C161.062 60.756 160.396 60.612 159.784 60.324C159.172 60.072 158.632 59.712 158.164 59.244C157.696 58.776 157.318 58.236 157.03 57.624C156.778 57.012 156.652 56.346 156.652 55.626ZM190.31 41.1C190.31 39.876 190.76 38.814 191.66 37.914C192.56 37.014 193.622 36.564 194.846 36.564C196.07 36.564 197.132 37.014 198.032 37.914C198.932 38.814 199.382 39.876 199.382 41.1C199.382 42.324 198.932 43.386 198.032 44.286C197.132 45.186 196.07 45.636 194.846 45.636C193.622 45.636 192.56 45.186 191.66 44.286C190.76 43.386 190.31 42.324 190.31 41.1ZM180.914 36.888C180.914 31.992 182.138 28.194 184.586 25.494C187.07 22.794 190.49 21.444 194.846 21.444C199.202 21.444 202.604 22.794 205.052 25.494C207.536 28.194 208.778 31.992 208.778 36.888V45.312C208.778 50.352 207.536 54.186 205.052 56.814C202.604 59.442 199.202 60.756 194.846 60.756C190.49 60.756 187.07 59.442 184.586 56.814C182.138 54.186 180.914 50.352 180.914 45.312V36.888ZM194.846 54.276C196.142 54.276 197.222 54.078 198.086 53.682C198.95 53.25 199.652 52.656 200.192 51.9C200.732 51.144 201.11 50.244 201.326 49.2C201.542 48.156 201.65 47.004 201.65 45.744V36.456C201.65 35.268 201.524 34.152 201.272 33.108C201.02 32.064 200.624 31.164 200.084 30.408C199.544 29.652 198.842 29.058 197.978 28.626C197.114 28.158 196.07 27.924 194.846 27.924C193.622 27.924 192.578 28.158 191.714 28.626C190.85 29.058 190.148 29.652 189.608 30.408C189.068 31.164 188.672 32.064 188.42 33.108C188.168 34.152 188.042 35.268 188.042 36.456V45.744C188.042 47.004 188.15 48.156 188.366 49.2C188.582 50.244 188.96 51.144 189.5 51.9C190.04 52.656 190.742 53.25 191.606 53.682C192.47 54.078 193.55 54.276 194.846 54.276ZM223.375 41.1C223.375 39.876 223.825 38.814 224.725 37.914C225.625 37.014 226.687 36.564 227.911 36.564C229.135 36.564 230.197 37.014 231.097 37.914C231.997 38.814 232.447 39.876 232.447 41.1C232.447 42.324 231.997 43.386 231.097 44.286C230.197 45.186 229.135 45.636 227.911 45.636C226.687 45.636 225.625 45.186 224.725 44.286C223.825 43.386 223.375 42.324 223.375 41.1ZM213.979 36.888C213.979 31.992 215.203 28.194 217.651 25.494C220.135 22.794 223.555 21.444 227.911 21.444C232.267 21.444 235.669 22.794 238.117 25.494C240.601 28.194 241.843 31.992 241.843 36.888V45.312C241.843 50.352 240.601 54.186 238.117 56.814C235.669 59.442 232.267 60.756 227.911 60.756C223.555 60.756 220.135 59.442 217.651 56.814C215.203 54.186 213.979 50.352 213.979 45.312V36.888ZM227.911 54.276C229.207 54.276 230.287 54.078 231.151 53.682C232.015 53.25 232.717 52.656 233.257 51.9C233.797 51.144 234.175 50.244 234.391 49.2C234.607 48.156 234.715 47.004 234.715 45.744V36.456C234.715 35.268 234.589 34.152 234.337 33.108C234.085 32.064 233.689 31.164 233.149 30.408C232.609 29.652 231.907 29.058 231.043 28.626C230.179 28.158 229.135 27.924 227.911 27.924C226.687 27.924 225.643 28.158 224.779 28.626C223.915 29.058 223.213 29.652 222.673 30.408C222.133 31.164 221.737 32.064 221.485 33.108C221.233 34.152 221.107 35.268 221.107 36.456V45.744C221.107 47.004 221.215 48.156 221.431 49.2C221.647 50.244 222.025 51.144 222.565 51.9C223.105 52.656 223.807 53.25 224.671 53.682C225.535 54.078 226.615 54.276 227.911 54.276ZM256.439 41.1C256.439 39.876 256.889 38.814 257.789 37.914C258.689 37.014 259.751 36.564 260.975 36.564C262.199 36.564 263.261 37.014 264.161 37.914C265.061 38.814 265.511 39.876 265.511 41.1C265.511 42.324 265.061 43.386 264.161 44.286C263.261 45.186 262.199 45.636 260.975 45.636C259.751 45.636 258.689 45.186 257.789 44.286C256.889 43.386 256.439 42.324 256.439 41.1ZM247.043 36.888C247.043 31.992 248.267 28.194 250.715 25.494C253.199 22.794 256.619 21.444 260.975 21.444C265.331 21.444 268.733 22.794 271.181 25.494C273.665 28.194 274.907 31.992 274.907 36.888V45.312C274.907 50.352 273.665 54.186 271.181 56.814C268.733 59.442 265.331 60.756 260.975 60.756C256.619 60.756 253.199 59.442 250.715 56.814C248.267 54.186 247.043 50.352 247.043 45.312V36.888ZM260.975 54.276C262.271 54.276 263.351 54.078 264.215 53.682C265.079 53.25 265.781 52.656 266.321 51.9C266.861 51.144 267.239 50.244 267.455 49.2C267.671 48.156 267.779 47.004 267.779 45.744V36.456C267.779 35.268 267.653 34.152 267.401 33.108C267.149 32.064 266.753 31.164 266.213 30.408C265.673 29.652 264.971 29.058 264.107 28.626C263.243 28.158 262.199 27.924 260.975 27.924C259.751 27.924 258.707 28.158 257.843 28.626C256.979 29.058 256.277 29.652 255.737 30.408C255.197 31.164 254.801 32.064 254.549 33.108C254.297 34.152 254.171 35.268 254.171 36.456V45.744C254.171 47.004 254.279 48.156 254.495 49.2C254.711 50.244 255.089 51.144 255.629 51.9C256.169 52.656 256.871 53.25 257.735 53.682C258.599 54.078 259.679 54.276 260.975 54.276Z" fill="#4F291E"/>
<path d="M15.522 120.964H20.02V116.466H21.892V120.964H26.39V122.836H21.892V127.334H20.02V122.836H15.522V120.964ZM46.0358 112.8H50.1958L52.6398 130.064H52.9518L55.3958 112.8H59.5558V131H57.5278V113.736H57.2158L54.7718 131H50.8198L48.3758 113.736H48.0638V131H46.0358V112.8ZM64.5038 125.176C64.5558 126.459 64.9544 127.49 65.6998 128.27C66.4451 129.05 67.4851 129.44 68.8198 129.44C69.4264 129.44 69.9551 129.371 70.4058 129.232C70.8564 129.093 71.2378 128.903 71.5498 128.66C71.8791 128.417 72.1391 128.14 72.3298 127.828C72.5378 127.499 72.7024 127.152 72.8238 126.788L74.7478 127.308C74.3838 128.504 73.7078 129.483 72.7198 130.246C71.7491 130.991 70.4318 131.364 68.7678 131.364C67.8491 131.364 66.9998 131.208 66.2198 130.896C65.4571 130.567 64.7984 130.107 64.2438 129.518C63.6891 128.929 63.2558 128.227 62.9438 127.412C62.6318 126.597 62.4758 125.696 62.4758 124.708V124.084C62.4758 123.183 62.6318 122.342 62.9438 121.562C63.2731 120.782 63.7238 120.115 64.2958 119.56C64.8678 118.988 65.5351 118.546 66.2978 118.234C67.0778 117.905 67.9184 117.74 68.8198 117.74C69.8771 117.74 70.7871 117.939 71.5498 118.338C72.3298 118.719 72.9624 119.196 73.4478 119.768C73.9504 120.34 74.3144 120.964 74.5398 121.64C74.7824 122.316 74.9038 122.94 74.9038 123.512V125.176H64.5038ZM68.8198 119.664C68.2478 119.664 67.7104 119.759 67.2078 119.95C66.7224 120.123 66.2891 120.375 65.9078 120.704C65.5438 121.033 65.2404 121.423 64.9978 121.874C64.7724 122.307 64.6251 122.784 64.5558 123.304H72.8758C72.8411 122.749 72.7024 122.247 72.4598 121.796C72.2344 121.345 71.9311 120.964 71.5498 120.652C71.1858 120.34 70.7611 120.097 70.2758 119.924C69.8078 119.751 69.3224 119.664 68.8198 119.664ZM80.9697 131H78.9417V118.104H80.9697V120.288H81.2817C82.079 118.589 83.4657 117.74 85.4417 117.74C86.9324 117.74 88.1197 118.208 89.0037 119.144C89.8877 120.063 90.3297 121.449 90.3297 123.304V131H88.3017V123.72C88.3017 122.368 87.9984 121.354 87.3917 120.678C86.785 120.002 85.9617 119.664 84.9217 119.664C83.691 119.664 82.7204 120.089 82.0097 120.938C81.3164 121.77 80.9697 122.888 80.9697 124.292V131ZM94.4196 118.104H98.4756V112.8H100.504V118.104H105.496V119.976H100.504V128.348C100.504 128.868 100.738 129.128 101.206 129.128H104.872V131H100.478C99.8883 131 99.4029 130.809 99.0216 130.428C98.6576 130.047 98.4756 129.561 98.4756 128.972V119.976H94.4196V118.104ZM114.786 114.256C114.786 113.753 114.959 113.329 115.306 112.982C115.67 112.618 116.103 112.436 116.606 112.436C117.108 112.436 117.533 112.618 117.88 112.982C118.244 113.329 118.426 113.753 118.426 114.256C118.426 114.759 118.244 115.192 117.88 115.556C117.533 115.903 117.108 116.076 116.606 116.076C116.103 116.076 115.67 115.903 115.306 115.556C114.959 115.192 114.786 114.759 114.786 114.256ZM111.094 129.128H115.618V119.976H111.562V118.104H117.646V129.128H121.858V131H111.094V129.128ZM138.869 124.708C138.869 125.783 138.687 126.736 138.323 127.568C137.977 128.383 137.509 129.076 136.919 129.648C136.33 130.203 135.637 130.627 134.839 130.922C134.059 131.217 133.245 131.364 132.395 131.364C131.529 131.364 130.705 131.217 129.925 130.922C129.145 130.627 128.461 130.203 127.871 129.648C127.282 129.076 126.805 128.383 126.441 127.568C126.095 126.736 125.921 125.783 125.921 124.708V124.396C125.921 123.339 126.095 122.403 126.441 121.588C126.805 120.756 127.282 120.054 127.871 119.482C128.478 118.91 129.171 118.477 129.951 118.182C130.731 117.887 131.546 117.74 132.395 117.74C133.245 117.74 134.059 117.887 134.839 118.182C135.619 118.477 136.304 118.91 136.893 119.482C137.5 120.054 137.977 120.756 138.323 121.588C138.687 122.403 138.869 123.339 138.869 124.396V124.708ZM132.395 129.44C133.019 129.44 133.591 129.336 134.111 129.128C134.649 128.903 135.117 128.582 135.515 128.166C135.914 127.75 136.226 127.256 136.451 126.684C136.677 126.095 136.789 125.436 136.789 124.708V124.396C136.789 123.703 136.677 123.07 136.451 122.498C136.226 121.909 135.914 121.406 135.515 120.99C135.117 120.574 134.649 120.253 134.111 120.028C133.574 119.785 133.002 119.664 132.395 119.664C131.789 119.664 131.217 119.785 130.679 120.028C130.142 120.253 129.674 120.574 129.275 120.99C128.877 121.406 128.565 121.909 128.339 122.498C128.114 123.07 128.001 123.703 128.001 124.396V124.708C128.001 125.436 128.114 126.095 128.339 126.684C128.565 127.256 128.877 127.75 129.275 128.166C129.674 128.582 130.133 128.903 130.653 129.128C131.191 129.336 131.771 129.44 132.395 129.44ZM144.649 131H142.621V118.104H144.649V120.288H144.961C145.759 118.589 147.145 117.74 149.121 117.74C150.612 117.74 151.799 118.208 152.683 119.144C153.567 120.063 154.009 121.449 154.009 123.304V131H151.981V123.72C151.981 122.368 151.678 121.354 151.071 120.678C150.465 120.002 149.641 119.664 148.601 119.664C147.371 119.664 146.4 120.089 145.689 120.938C144.996 121.77 144.649 122.888 144.649 124.292V131ZM186.629 124.708C186.629 125.783 186.447 126.736 186.083 127.568C185.737 128.383 185.269 129.076 184.679 129.648C184.09 130.203 183.397 130.627 182.599 130.922C181.819 131.217 181.005 131.364 180.155 131.364C179.289 131.364 178.465 131.217 177.685 130.922C176.905 130.627 176.221 130.203 175.631 129.648C175.042 129.076 174.565 128.383 174.201 127.568C173.855 126.736 173.681 125.783 173.681 124.708V124.396C173.681 123.339 173.855 122.403 174.201 121.588C174.565 120.756 175.042 120.054 175.631 119.482C176.238 118.91 176.931 118.477 177.711 118.182C178.491 117.887 179.306 117.74 180.155 117.74C181.005 117.74 181.819 117.887 182.599 118.182C183.379 118.477 184.064 118.91 184.653 119.482C185.26 120.054 185.737 120.756 186.083 121.588C186.447 122.403 186.629 123.339 186.629 124.396V124.708ZM180.155 129.44C180.779 129.44 181.351 129.336 181.871 129.128C182.409 128.903 182.877 128.582 183.275 128.166C183.674 127.75 183.986 127.256 184.211 126.684C184.437 126.095 184.549 125.436 184.549 124.708V124.396C184.549 123.703 184.437 123.07 184.211 122.498C183.986 121.909 183.674 121.406 183.275 120.99C182.877 120.574 182.409 120.253 181.871 120.028C181.334 119.785 180.762 119.664 180.155 119.664C179.549 119.664 178.977 119.785 178.439 120.028C177.902 120.253 177.434 120.574 177.035 120.99C176.637 121.406 176.325 121.909 176.099 122.498C175.874 123.07 175.761 123.703 175.761 124.396V124.708C175.761 125.436 175.874 126.095 176.099 126.684C176.325 127.256 176.637 127.75 177.035 128.166C177.434 128.582 177.893 128.903 178.413 129.128C178.951 129.336 179.531 129.44 180.155 129.44ZM192.409 131H190.381V118.104H192.409V120.288H192.721C193.518 118.589 194.905 117.74 196.881 117.74C198.372 117.74 199.559 118.208 200.443 119.144C201.327 120.063 201.769 121.449 201.769 123.304V131H199.741V123.72C199.741 122.368 199.438 121.354 198.831 120.678C198.224 120.002 197.401 119.664 196.361 119.664C195.13 119.664 194.16 120.089 193.449 120.938C192.756 121.77 192.409 122.888 192.409 124.292V131ZM26.416 170H22.672L21.112 158.04H20.8L19.24 170H15.496L13.468 157.104H15.548L17.264 169.064H17.576L19.084 157.104H22.828L24.336 169.064H24.648L26.364 157.104H28.444L26.416 170ZM32.6639 164.176C32.7159 165.459 33.1146 166.49 33.8599 167.27C34.6053 168.05 35.6453 168.44 36.9799 168.44C37.5866 168.44 38.1153 168.371 38.5659 168.232C39.0166 168.093 39.3979 167.903 39.7099 167.66C40.0393 167.417 40.2993 167.14 40.4899 166.828C40.6979 166.499 40.8626 166.152 40.9839 165.788L42.9079 166.308C42.5439 167.504 41.8679 168.483 40.8799 169.246C39.9093 169.991 38.5919 170.364 36.9279 170.364C36.0093 170.364 35.1599 170.208 34.3799 169.896C33.6173 169.567 32.9586 169.107 32.4039 168.518C31.8493 167.929 31.4159 167.227 31.1039 166.412C30.7919 165.597 30.6359 164.696 30.6359 163.708V163.084C30.6359 162.183 30.7919 161.342 31.1039 160.562C31.4333 159.782 31.8839 159.115 32.4559 158.56C33.0279 157.988 33.6953 157.546 34.4579 157.234C35.2379 156.905 36.0786 156.74 36.9799 156.74C38.0373 156.74 38.9473 156.939 39.7099 157.338C40.4899 157.719 41.1226 158.196 41.6079 158.768C42.1106 159.34 42.4746 159.964 42.6999 160.64C42.9426 161.316 43.0639 161.94 43.0639 162.512V164.176H32.6639ZM36.9799 158.664C36.4079 158.664 35.8706 158.759 35.3679 158.95C34.8826 159.123 34.4493 159.375 34.0679 159.704C33.7039 160.033 33.4006 160.423 33.1579 160.874C32.9326 161.307 32.7853 161.784 32.7159 162.304H41.0359C41.0013 161.749 40.8626 161.247 40.6199 160.796C40.3946 160.345 40.0913 159.964 39.7099 159.652C39.3459 159.34 38.9213 159.097 38.4359 158.924C37.9679 158.751 37.4826 158.664 36.9799 158.664ZM48.6618 170H46.6338V151.8H48.6618V159.132H48.9738C49.4245 158.352 50.0485 157.763 50.8458 157.364C51.6432 156.948 52.5098 156.74 53.4458 156.74C54.2432 156.74 54.9972 156.887 55.7078 157.182C56.4185 157.477 57.0425 157.901 57.5798 158.456C58.1345 159.011 58.5678 159.695 58.8798 160.51C59.2092 161.325 59.3738 162.252 59.3738 163.292V163.812C59.3738 164.869 59.2178 165.805 58.9058 166.62C58.5938 167.435 58.1605 168.119 57.6058 168.674C57.0685 169.229 56.4358 169.653 55.7078 169.948C54.9798 170.225 54.2085 170.364 53.3938 170.364C52.9778 170.364 52.5532 170.312 52.1198 170.208C51.6865 170.121 51.2705 169.983 50.8718 169.792C50.4905 169.584 50.1352 169.341 49.8058 169.064C49.4765 168.769 49.1992 168.423 48.9738 168.024H48.6618V170ZM52.9778 168.44C53.6018 168.44 54.1738 168.336 54.6938 168.128C55.2138 167.903 55.6645 167.591 56.0458 167.192C56.4445 166.793 56.7478 166.308 56.9558 165.736C57.1812 165.164 57.2938 164.523 57.2938 163.812V163.292C57.2938 162.599 57.1812 161.975 56.9558 161.42C56.7478 160.848 56.4445 160.363 56.0458 159.964C55.6645 159.548 55.2052 159.227 54.6678 159.002C54.1478 158.777 53.5845 158.664 52.9778 158.664C52.3712 158.664 51.8078 158.785 51.2878 159.028C50.7678 159.253 50.3085 159.574 49.9098 159.99C49.5285 160.406 49.2252 160.909 48.9998 161.498C48.7745 162.07 48.6618 162.703 48.6618 163.396V163.708C48.6618 164.419 48.7745 165.069 48.9998 165.658C49.2252 166.23 49.5285 166.724 49.9098 167.14C50.3085 167.556 50.7678 167.877 51.2878 168.102C51.8078 168.327 52.3712 168.44 52.9778 168.44ZM65.6998 160.432C65.6998 161.056 65.9598 161.533 66.4798 161.862C67.0171 162.191 67.9878 162.408 69.3918 162.512C70.8998 162.633 72.0438 162.997 72.8238 163.604C73.6211 164.193 74.0198 165.06 74.0198 166.204V166.36C74.0198 166.984 73.8898 167.547 73.6298 168.05C73.3871 168.535 73.0404 168.951 72.5898 169.298C72.1564 169.645 71.6191 169.905 70.9778 170.078C70.3538 170.269 69.6691 170.364 68.9238 170.364C67.9184 170.364 67.0518 170.234 66.3238 169.974C65.6131 169.697 65.0151 169.341 64.5298 168.908C64.0618 168.457 63.7064 167.955 63.4638 167.4C63.2211 166.828 63.0824 166.256 63.0478 165.684L64.9718 165.216C65.0584 166.204 65.4398 167.001 66.1158 167.608C66.7918 168.197 67.6931 168.492 68.8198 168.492C69.7731 168.492 70.5358 168.31 71.1078 167.946C71.6971 167.565 71.9918 167.036 71.9918 166.36C71.9918 165.632 71.7058 165.112 71.1338 164.8C70.5618 164.488 69.6344 164.289 68.3518 164.202C66.8611 164.098 65.7171 163.751 64.9198 163.162C64.1224 162.573 63.7238 161.715 63.7238 160.588V160.432C63.7238 159.825 63.8538 159.297 64.1138 158.846C64.3738 158.378 64.7204 157.988 65.1538 157.676C65.6044 157.364 66.1071 157.13 66.6618 156.974C67.2164 156.818 67.7971 156.74 68.4038 156.74C69.2531 156.74 69.9984 156.861 70.6398 157.104C71.2811 157.329 71.8184 157.633 72.2518 158.014C72.6851 158.378 73.0144 158.803 73.2398 159.288C73.4824 159.773 73.6384 160.259 73.7078 160.744L71.7838 161.212C71.6971 160.38 71.3591 159.73 70.7698 159.262C70.1978 158.794 69.4438 158.56 68.5078 158.56C68.1438 158.56 67.7884 158.603 67.4418 158.69C67.1124 158.759 66.8178 158.872 66.5578 159.028C66.2978 159.184 66.0898 159.383 65.9338 159.626C65.7778 159.851 65.6998 160.12 65.6998 160.432ZM82.9457 153.256C82.9457 152.753 83.119 152.329 83.4657 151.982C83.8297 151.618 84.263 151.436 84.7657 151.436C85.2684 151.436 85.693 151.618 86.0397 151.982C86.4037 152.329 86.5857 152.753 86.5857 153.256C86.5857 153.759 86.4037 154.192 86.0397 154.556C85.693 154.903 85.2684 155.076 84.7657 155.076C84.263 155.076 83.8297 154.903 83.4657 154.556C83.119 154.192 82.9457 153.759 82.9457 153.256ZM79.2537 168.128H83.7777V158.976H79.7217V157.104H85.8057V168.128H90.0177V170H79.2537V168.128ZM94.4196 157.104H98.4756V151.8H100.504V157.104H105.496V158.976H100.504V167.348C100.504 167.868 100.738 168.128 101.206 168.128H104.872V170H100.478C99.8883 170 99.4029 169.809 99.0216 169.428C98.6576 169.047 98.4756 168.561 98.4756 167.972V158.976H94.4196V157.104ZM112.264 164.176C112.316 165.459 112.714 166.49 113.46 167.27C114.205 168.05 115.245 168.44 116.58 168.44C117.186 168.44 117.715 168.371 118.166 168.232C118.616 168.093 118.998 167.903 119.31 167.66C119.639 167.417 119.899 167.14 120.09 166.828C120.298 166.499 120.462 166.152 120.584 165.788L122.508 166.308C122.144 167.504 121.468 168.483 120.48 169.246C119.509 169.991 118.192 170.364 116.528 170.364C115.609 170.364 114.76 170.208 113.98 169.896C113.217 169.567 112.558 169.107 112.004 168.518C111.449 167.929 111.016 167.227 110.704 166.412C110.392 165.597 110.236 164.696 110.236 163.708V163.084C110.236 162.183 110.392 161.342 110.704 160.562C111.033 159.782 111.484 159.115 112.056 158.56C112.628 157.988 113.295 157.546 114.058 157.234C114.838 156.905 115.678 156.74 116.58 156.74C117.637 156.74 118.547 156.939 119.31 157.338C120.09 157.719 120.722 158.196 121.208 158.768C121.71 159.34 122.074 159.964 122.3 160.64C122.542 161.316 122.664 161.94 122.664 162.512V164.176H112.264ZM116.58 158.664C116.008 158.664 115.47 158.759 114.968 158.95C114.482 159.123 114.049 159.375 113.668 159.704C113.304 160.033 113 160.423 112.758 160.874C112.532 161.307 112.385 161.784 112.316 162.304H120.636C120.601 161.749 120.462 161.247 120.22 160.796C119.994 160.345 119.691 159.964 119.31 159.652C118.946 159.34 118.521 159.097 118.036 158.924C117.568 158.751 117.082 158.664 116.58 158.664ZM15.522 198.964H20.02V194.466H21.892V198.964H26.39V200.836H21.892V205.334H20.02V200.836H15.522V198.964ZM51.0538 200.264H59.1658V209H57.1378V206.816H56.8258C56.5312 207.579 56.0112 208.194 55.2658 208.662C54.5205 209.13 53.6538 209.364 52.6658 209.364C50.7072 209.364 49.1645 208.731 48.0378 207.466C46.9285 206.201 46.3738 204.355 46.3738 201.928V197.872C46.3738 195.515 46.9372 193.686 48.0638 192.386C49.1905 191.086 50.7592 190.436 52.7698 190.436C53.8098 190.436 54.7285 190.609 55.5258 190.956C56.3232 191.285 56.9905 191.753 57.5278 192.36C58.0652 192.949 58.4725 193.651 58.7498 194.466C59.0272 195.263 59.1658 196.121 59.1658 197.04V197.352H56.9818V197.04C56.9818 196.451 56.8952 195.879 56.7218 195.324C56.5658 194.769 56.3145 194.284 55.9678 193.868C55.6385 193.435 55.2052 193.097 54.6678 192.854C54.1478 192.594 53.5152 192.464 52.7698 192.464C51.3658 192.464 50.3085 192.975 49.5978 193.998C48.9045 195.021 48.5578 196.364 48.5578 198.028V201.772C48.5578 203.557 48.9045 204.935 49.5978 205.906C50.3085 206.859 51.3832 207.336 52.8218 207.336C54.1218 207.336 55.1358 206.92 55.8638 206.088C56.6092 205.256 56.9818 204.095 56.9818 202.604V202.292H51.0538V200.264ZM62.6578 190.8H68.6378C70.8911 190.8 72.5378 191.337 73.5778 192.412C74.6178 193.487 75.1378 195.203 75.1378 197.56V202.24C75.1378 204.597 74.6178 206.313 73.5778 207.388C72.5378 208.463 70.8911 209 68.6378 209H62.6578V206.946H64.2178V192.828H62.6578V190.8ZM68.3258 206.972C69.1231 206.972 69.8078 206.894 70.3798 206.738C70.9691 206.582 71.4544 206.322 71.8358 205.958C72.2171 205.577 72.4944 205.074 72.6678 204.45C72.8584 203.826 72.9538 203.037 72.9538 202.084V197.716C72.9538 196.763 72.8584 195.974 72.6678 195.35C72.4944 194.726 72.2171 194.232 71.8358 193.868C71.4544 193.487 70.9691 193.218 70.3798 193.062C69.8078 192.906 69.1231 192.828 68.3258 192.828H66.4018V206.972H68.3258ZM82.8937 200.264H91.0057V209H88.9777V206.816H88.6657C88.371 207.579 87.851 208.194 87.1057 208.662C86.3604 209.13 85.4937 209.364 84.5057 209.364C82.547 209.364 81.0044 208.731 79.8777 207.466C78.7684 206.201 78.2137 204.355 78.2137 201.928V197.872C78.2137 195.515 78.777 193.686 79.9037 192.386C81.0304 191.086 82.599 190.436 84.6097 190.436C85.6497 190.436 86.5684 190.609 87.3657 190.956C88.163 191.285 88.8304 191.753 89.3677 192.36C89.905 192.949 90.3124 193.651 90.5897 194.466C90.867 195.263 91.0057 196.121 91.0057 197.04V197.352H88.8217V197.04C88.8217 196.451 88.735 195.879 88.5617 195.324C88.4057 194.769 88.1544 194.284 87.8077 193.868C87.4784 193.435 87.045 193.097 86.5077 192.854C85.9877 192.594 85.355 192.464 84.6097 192.464C83.2057 192.464 82.1484 192.975 81.4377 193.998C80.7444 195.021 80.3977 196.364 80.3977 198.028V201.772C80.3977 203.557 80.7444 204.935 81.4377 205.906C82.1484 206.859 83.223 207.336 84.6617 207.336C85.9617 207.336 86.9757 206.92 87.7037 206.088C88.449 205.256 88.8217 204.095 88.8217 202.604V202.292H82.8937V200.264ZM100.66 207.336C101.405 207.336 102.038 207.215 102.558 206.972C103.095 206.712 103.528 206.374 103.858 205.958C104.204 205.525 104.456 205.039 104.612 204.502C104.785 203.947 104.872 203.367 104.872 202.76V202.448H107.056V202.76C107.056 203.679 106.917 204.545 106.64 205.36C106.362 206.157 105.955 206.859 105.418 207.466C104.88 208.055 104.213 208.523 103.416 208.87C102.618 209.199 101.7 209.364 100.66 209.364C98.6489 209.364 97.0803 208.731 95.9536 207.466C94.8269 206.201 94.2636 204.355 94.2636 201.928V197.872C94.2636 195.515 94.8269 193.686 95.9536 192.386C97.0803 191.086 98.6489 190.436 100.66 190.436C101.7 190.436 102.618 190.609 103.416 190.956C104.213 191.285 104.88 191.753 105.418 192.36C105.955 192.949 106.362 193.651 106.64 194.466C106.917 195.263 107.056 196.121 107.056 197.04V197.352H104.872V197.04C104.854 196.451 104.759 195.879 104.586 195.324C104.43 194.769 104.178 194.284 103.832 193.868C103.502 193.435 103.078 193.097 102.558 192.854C102.038 192.594 101.405 192.464 100.66 192.464C99.2556 192.464 98.1983 192.975 97.4876 193.998C96.7943 195.021 96.4476 196.364 96.4476 198.028V201.772C96.4476 203.557 96.7943 204.935 97.4876 205.906C98.1983 206.859 99.2556 207.336 100.66 207.336ZM136.685 196.052C136.685 195.463 136.564 194.943 136.321 194.492C136.096 194.041 135.784 193.669 135.385 193.374C134.987 193.079 134.527 192.854 134.007 192.698C133.487 192.542 132.941 192.464 132.369 192.464C131.867 192.464 131.39 192.533 130.939 192.672C130.489 192.793 130.081 192.975 129.717 193.218C129.371 193.461 129.093 193.764 128.885 194.128C128.677 194.475 128.573 194.882 128.573 195.35V195.506C128.573 196.009 128.677 196.442 128.885 196.806C129.093 197.153 129.397 197.456 129.795 197.716C130.211 197.959 130.723 198.167 131.329 198.34C131.936 198.496 132.647 198.635 133.461 198.756C135.368 199.051 136.772 199.614 137.673 200.446C138.575 201.261 139.025 202.361 139.025 203.748V204.06C139.025 204.84 138.887 205.559 138.609 206.218C138.349 206.859 137.951 207.414 137.413 207.882C136.893 208.35 136.243 208.714 135.463 208.974C134.683 209.234 133.782 209.364 132.759 209.364C131.598 209.364 130.567 209.199 129.665 208.87C128.781 208.523 128.036 208.055 127.429 207.466C126.84 206.859 126.389 206.157 126.077 205.36C125.765 204.545 125.609 203.661 125.609 202.708V201.928H127.793V202.552C127.793 204.147 128.227 205.343 129.093 206.14C129.977 206.937 131.199 207.336 132.759 207.336C134.111 207.336 135.125 207.041 135.801 206.452C136.495 205.845 136.841 205.048 136.841 204.06V203.904C136.841 202.951 136.486 202.223 135.775 201.72C135.082 201.217 133.947 200.853 132.369 200.628C131.451 200.507 130.619 200.325 129.873 200.082C129.145 199.822 128.521 199.493 128.001 199.094C127.481 198.678 127.083 198.184 126.805 197.612C126.528 197.04 126.389 196.364 126.389 195.584V195.272C126.389 194.561 126.537 193.911 126.831 193.322C127.126 192.733 127.533 192.221 128.053 191.788C128.591 191.355 129.223 191.025 129.951 190.8C130.697 190.557 131.511 190.436 132.395 190.436C133.418 190.436 134.328 190.583 135.125 190.878C135.94 191.173 136.625 191.571 137.179 192.074C137.734 192.559 138.15 193.14 138.427 193.816C138.722 194.475 138.869 195.168 138.869 195.896V196.988H136.685V196.052ZM153.775 209H150.031L148.471 197.04H148.159L146.599 209H142.855L140.827 196.104H142.907L144.623 208.064H144.935L146.443 196.104H150.187L151.695 208.064H152.007L153.723 196.104H155.803L153.775 209ZM167.901 206.816H167.589C167.173 207.683 166.593 208.324 165.847 208.74C165.119 209.156 164.348 209.364 163.533 209.364C162.684 209.364 161.895 209.225 161.167 208.948C160.439 208.653 159.798 208.229 159.243 207.674C158.706 207.102 158.281 206.409 157.969 205.594C157.657 204.779 157.501 203.835 157.501 202.76V202.344C157.501 201.287 157.657 200.351 157.969 199.536C158.281 198.721 158.706 198.037 159.243 197.482C159.798 196.91 160.439 196.477 161.167 196.182C161.895 195.887 162.667 195.74 163.481 195.74C164.365 195.74 165.163 195.939 165.873 196.338C166.601 196.719 167.173 197.317 167.589 198.132H167.901V196.104H169.929V206.348C169.929 206.868 170.163 207.128 170.631 207.128H171.281V209H169.903C169.314 209 168.829 208.809 168.447 208.428C168.083 208.047 167.901 207.561 167.901 206.972V206.816ZM163.741 207.44C164.348 207.44 164.903 207.327 165.405 207.102C165.925 206.877 166.367 206.556 166.731 206.14C167.095 205.724 167.381 205.23 167.589 204.658C167.797 204.069 167.901 203.419 167.901 202.708V202.396C167.901 201.703 167.797 201.07 167.589 200.498C167.381 199.909 167.087 199.406 166.705 198.99C166.341 198.574 165.899 198.253 165.379 198.028C164.877 197.785 164.331 197.664 163.741 197.664C163.135 197.664 162.58 197.777 162.077 198.002C161.575 198.227 161.133 198.548 160.751 198.964C160.387 199.363 160.101 199.857 159.893 200.446C159.685 201.018 159.581 201.651 159.581 202.344V202.76C159.581 204.233 159.963 205.386 160.725 206.218C161.505 207.033 162.511 207.44 163.741 207.44ZM184.263 207.024H183.951C183.535 207.804 182.963 208.393 182.235 208.792C181.525 209.173 180.745 209.364 179.895 209.364C179.029 209.364 178.214 209.217 177.451 208.922C176.689 208.627 176.013 208.203 175.423 207.648C174.851 207.093 174.392 206.409 174.045 205.594C173.716 204.762 173.551 203.817 173.551 202.76V202.344C173.551 201.304 173.725 200.377 174.071 199.562C174.418 198.73 174.877 198.037 175.449 197.482C176.021 196.91 176.689 196.477 177.451 196.182C178.214 195.887 179.011 195.74 179.843 195.74C180.779 195.74 181.594 195.948 182.287 196.364C182.998 196.763 183.553 197.352 183.951 198.132H184.263V196.104H186.291V212.172C186.291 212.761 186.101 213.247 185.719 213.628C185.355 214.009 184.879 214.2 184.289 214.2H175.891V212.328H183.561C184.029 212.328 184.263 212.068 184.263 211.548V207.024ZM179.947 207.44C180.554 207.44 181.117 207.327 181.637 207.102C182.157 206.877 182.608 206.556 182.989 206.14C183.388 205.724 183.7 205.23 183.925 204.658C184.151 204.069 184.263 203.419 184.263 202.708V202.396C184.263 201.703 184.151 201.07 183.925 200.498C183.7 199.909 183.388 199.406 182.989 198.99C182.608 198.574 182.149 198.253 181.611 198.028C181.091 197.785 180.537 197.664 179.947 197.664C179.341 197.664 178.769 197.777 178.231 198.002C177.711 198.227 177.252 198.548 176.853 198.964C176.472 199.38 176.169 199.874 175.943 200.446C175.735 201.018 175.631 201.651 175.631 202.344V202.76C175.631 203.488 175.735 204.138 175.943 204.71C176.169 205.282 176.472 205.776 176.853 206.192C177.252 206.591 177.711 206.903 178.231 207.128C178.751 207.336 179.323 207.44 179.947 207.44ZM193.059 199.432C193.059 200.056 193.319 200.533 193.839 200.862C194.376 201.191 195.347 201.408 196.751 201.512C198.259 201.633 199.403 201.997 200.183 202.604C200.98 203.193 201.379 204.06 201.379 205.204V205.36C201.379 205.984 201.249 206.547 200.989 207.05C200.746 207.535 200.4 207.951 199.949 208.298C199.516 208.645 198.978 208.905 198.337 209.078C197.713 209.269 197.028 209.364 196.283 209.364C195.278 209.364 194.411 209.234 193.683 208.974C192.972 208.697 192.374 208.341 191.889 207.908C191.421 207.457 191.066 206.955 190.823 206.4C190.58 205.828 190.442 205.256 190.407 204.684L192.331 204.216C192.418 205.204 192.799 206.001 193.475 206.608C194.151 207.197 195.052 207.492 196.179 207.492C197.132 207.492 197.895 207.31 198.467 206.946C199.056 206.565 199.351 206.036 199.351 205.36C199.351 204.632 199.065 204.112 198.493 203.8C197.921 203.488 196.994 203.289 195.711 203.202C194.22 203.098 193.076 202.751 192.279 202.162C191.482 201.573 191.083 200.715 191.083 199.588V199.432C191.083 198.825 191.213 198.297 191.473 197.846C191.733 197.378 192.08 196.988 192.513 196.676C192.964 196.364 193.466 196.13 194.021 195.974C194.576 195.818 195.156 195.74 195.763 195.74C196.612 195.74 197.358 195.861 197.999 196.104C198.64 196.329 199.178 196.633 199.611 197.014C200.044 197.378 200.374 197.803 200.599 198.288C200.842 198.773 200.998 199.259 201.067 199.744L199.143 200.212C199.056 199.38 198.718 198.73 198.129 198.262C197.557 197.794 196.803 197.56 195.867 197.56C195.503 197.56 195.148 197.603 194.801 197.69C194.472 197.759 194.177 197.872 193.917 198.028C193.657 198.184 193.449 198.383 193.293 198.626C193.137 198.851 193.059 199.12 193.059 199.432Z" fill="#4F291E"/>
<path d="M243.908 475.904V469.768L258.52 462.28V461.656H239.02V457.6H261.952V464.672L248.068 471.848V472.472H250.252C251.57 472.472 252.766 472.68 253.84 473.096C254.95 473.477 255.903 474.032 256.7 474.76C257.498 475.488 258.122 476.372 258.572 477.412C259.023 478.452 259.248 479.613 259.248 480.896C259.248 482.976 258.832 484.865 258 486.564C257.168 488.263 256.059 489.719 254.672 490.932C253.286 492.145 251.674 493.081 249.836 493.74C247.999 494.399 246.075 494.728 244.064 494.728C242.296 494.728 240.719 494.485 239.332 494C237.98 493.48 236.836 492.787 235.9 491.92C234.999 491.053 234.306 490.031 233.82 488.852C233.37 487.673 233.144 486.425 233.144 485.108C233.144 484.727 233.162 484.328 233.196 483.912C233.266 483.496 233.335 483.08 233.404 482.664L233.976 479.856H238.344L237.824 482.352C237.755 482.768 237.686 483.167 237.616 483.548C237.582 483.929 237.564 484.311 237.564 484.692C237.564 486.772 238.206 488.297 239.488 489.268C240.771 490.204 242.487 490.672 244.636 490.672C246.196 490.672 247.6 490.447 248.848 489.996C250.096 489.511 251.154 488.852 252.02 488.02C252.922 487.188 253.598 486.217 254.048 485.108C254.534 483.999 254.776 482.803 254.776 481.52C254.776 479.683 254.204 478.296 253.06 477.36C251.951 476.389 250.495 475.904 248.692 475.904H243.908ZM273.408 472.68C273.512 472.264 273.46 471.952 273.252 471.744C273.044 471.501 272.784 471.38 272.472 471.38C272.195 471.38 271.935 471.467 271.692 471.64L266.96 474.864L264.88 471.796L269.508 468.676C270.687 467.879 271.883 467.48 273.096 467.48C274.171 467.48 275.107 467.792 275.904 468.416C276.702 469.005 277.152 469.976 277.256 471.328H277.88C278.886 469.907 280.012 468.919 281.26 468.364C282.508 467.775 283.808 467.48 285.16 467.48C287.656 467.48 289.615 468.208 291.036 469.664C292.458 471.085 293.168 472.975 293.168 475.332C293.168 476.233 293.064 477.152 292.856 478.088L288.436 478.4C288.61 477.533 288.696 476.805 288.696 476.216C288.696 474.552 288.228 473.321 287.292 472.524C286.391 471.727 285.212 471.328 283.756 471.328C282.716 471.328 281.763 471.536 280.896 471.952C280.064 472.333 279.336 472.871 278.712 473.564C278.088 474.223 277.551 475.003 277.1 475.904C276.684 476.805 276.372 477.741 276.164 478.712L273.72 490.256H279.856V494H263.32V490.256H269.664L273.408 472.68ZM313.412 489.944C312.303 491.781 310.985 493.047 309.46 493.74C307.935 494.399 306.323 494.728 304.624 494.728C303.237 494.728 301.972 494.485 300.828 494C299.684 493.515 298.713 492.839 297.916 491.972C297.119 491.071 296.495 489.996 296.044 488.748C295.593 487.465 295.368 486.061 295.368 484.536C295.368 482.387 295.697 480.289 296.356 478.244C297.015 476.199 297.968 474.379 299.216 472.784C300.464 471.189 301.989 469.907 303.792 468.936C305.629 467.965 307.727 467.48 310.084 467.48C311.921 467.48 313.447 467.861 314.66 468.624C315.908 469.387 316.757 470.6 317.208 472.264H317.832L321.056 456.872H325.112L318.144 489.632C318.04 490.256 318.265 490.568 318.82 490.568C319.028 490.568 319.253 490.481 319.496 490.308L321.368 488.956L323.604 492.024L321.264 493.792C320.883 494.069 320.415 494.295 319.86 494.468C319.34 494.641 318.751 494.728 318.092 494.728C317.572 494.728 317.069 494.659 316.584 494.52C316.099 494.381 315.648 494.173 315.232 493.896C314.851 493.584 314.539 493.203 314.296 492.752C314.053 492.267 313.932 491.677 313.932 490.984C313.932 490.811 313.932 490.637 313.932 490.464C313.967 490.291 314.001 490.117 314.036 489.944H313.412ZM305.872 490.88C307.259 490.88 308.576 490.568 309.824 489.944C311.107 489.285 312.216 488.401 313.152 487.292C314.123 486.183 314.885 484.883 315.44 483.392C315.995 481.867 316.272 480.22 316.272 478.452C316.272 476.303 315.735 474.587 314.66 473.304C313.585 471.987 312.025 471.328 309.98 471.328C308.351 471.328 306.895 471.692 305.612 472.42C304.364 473.113 303.289 474.049 302.388 475.228C301.487 476.372 300.793 477.707 300.308 479.232C299.857 480.757 299.632 482.335 299.632 483.964C299.632 488.575 301.712 490.88 305.872 490.88Z" fill="#4F291E"/>
</g>
<defs>
<clipPath id="clip0_183_954">
<rect width="338" height="513" rx="12" fill="white"/>
</clipPath>
</defs>
</svg>
