<svg width="384" height="513" viewBox="0 0 384 513" fill="none" xmlns="http://www.w3.org/2000/svg">
<rect width="384" height="513" rx="12" fill="#F2BF41"/>
<path d="M46.322 60H39.194V48.66C39.194 47.796 38.96 47.094 38.492 46.554C38.06 46.014 37.322 45.744 36.278 45.744H28.07V60H20.942V22.2H35.414C37.358 22.2 39.068 22.47 40.544 23.01C42.02 23.55 43.244 24.306 44.216 25.278C45.224 26.214 45.98 27.312 46.484 28.572C47.024 29.832 47.294 31.182 47.294 32.622V33.918C47.294 35.466 46.88 36.924 46.052 38.292C45.224 39.624 43.946 40.65 42.218 41.37V42.342C43.478 42.486 44.468 42.972 45.188 43.8C45.944 44.628 46.322 45.672 46.322 46.932V60ZM28.07 38.94H34.874C36.602 38.94 37.916 38.544 38.816 37.752C39.716 36.924 40.166 35.772 40.166 34.296V33.648C40.166 32.388 39.716 31.308 38.816 30.408C37.916 29.472 36.602 29.004 34.874 29.004H28.07V38.94ZM62.8085 40.776C62.8085 41.64 63.2585 42.27 64.1585 42.666C65.0585 43.026 66.6965 43.332 69.0725 43.584C71.8085 43.872 74.0405 44.7 75.7685 46.068C77.4965 47.4 78.3605 49.272 78.3605 51.684V52.008C78.3605 54.672 77.3885 56.796 75.4445 58.38C73.5005 59.964 70.7645 60.756 67.2365 60.756C65.1485 60.756 63.3665 60.486 61.8905 59.946C60.4145 59.406 59.1905 58.74 58.2185 57.948C57.2465 57.12 56.4905 56.22 55.9505 55.248C55.4465 54.24 55.1045 53.268 54.9245 52.332L61.1885 50.28C61.4765 51.432 62.0705 52.44 62.9705 53.304C63.9065 54.168 65.3285 54.6 67.2365 54.6C68.9285 54.6 70.0805 54.348 70.6925 53.844C71.3405 53.304 71.6645 52.728 71.6645 52.116C71.6645 51.756 71.5745 51.432 71.3945 51.144C71.2505 50.82 70.9625 50.532 70.5305 50.28C70.0985 49.992 69.5045 49.758 68.7485 49.578C68.0285 49.398 67.1105 49.254 65.9945 49.146C62.9705 48.894 60.5585 48.12 58.7585 46.824C56.9945 45.492 56.1125 43.548 56.1125 40.992V40.668C56.1125 39.336 56.4005 38.166 56.9765 37.158C57.5525 36.15 58.3085 35.304 59.2445 34.62C60.1805 33.9 61.2605 33.36 62.4845 33C63.7085 32.64 64.9685 32.46 66.2645 32.46C67.9565 32.46 69.4145 32.676 70.6385 33.108C71.8985 33.504 72.9605 34.044 73.8245 34.728C74.6885 35.376 75.3905 36.114 75.9305 36.942C76.4705 37.734 76.8845 38.508 77.1725 39.264L71.0165 41.748C70.6925 40.776 70.1345 40.02 69.3425 39.48C68.5505 38.904 67.5245 38.616 66.2645 38.616C65.1125 38.616 64.2485 38.832 63.6725 39.264C63.0965 39.66 62.8085 40.164 62.8085 40.776ZM104.783 55.626C104.783 56.346 104.639 57.03 104.351 57.678C104.099 58.29 103.739 58.83 103.271 59.298C102.803 59.73 102.245 60.072 101.597 60.324C100.985 60.612 100.337 60.756 99.6529 60.756C98.9329 60.756 98.2669 60.612 97.6549 60.324C97.0429 60.072 96.5029 59.73 96.0349 59.298C95.5669 58.83 95.1889 58.29 94.9009 57.678C94.6489 57.03 94.5229 56.346 94.5229 55.626C94.5229 54.906 94.6489 54.24 94.9009 53.628C95.1889 52.98 95.5669 52.44 96.0349 52.008C96.5029 51.54 97.0429 51.18 97.6549 50.928C98.2669 50.64 98.9329 50.496 99.6529 50.496C100.337 50.496 100.985 50.64 101.597 50.928C102.245 51.18 102.803 51.54 103.271 52.008C103.739 52.44 104.099 52.98 104.351 53.628C104.639 54.24 104.783 54.906 104.783 55.626ZM119.757 43.152V22.2H145.029V29.004H126.885V39.264H127.857C128.361 37.86 129.297 36.654 130.665 35.646C132.069 34.602 133.941 34.08 136.281 34.08C138.045 34.08 139.629 34.386 141.033 34.998C142.437 35.61 143.625 36.456 144.597 37.536C145.569 38.616 146.307 39.912 146.811 41.424C147.351 42.936 147.621 44.592 147.621 46.392V46.716C147.621 48.624 147.297 50.424 146.649 52.116C146.037 53.808 145.119 55.302 143.895 56.598C142.707 57.858 141.231 58.866 139.467 59.622C137.703 60.378 135.669 60.756 133.365 60.756C131.061 60.756 129.027 60.45 127.263 59.838C125.499 59.19 124.005 58.308 122.781 57.192C121.593 56.04 120.675 54.69 120.027 53.142C119.415 51.558 119.109 49.848 119.109 48.012V46.716H126.237V47.364C126.237 49.272 126.813 50.856 127.965 52.116C129.153 53.34 130.881 53.952 133.149 53.952C135.417 53.952 137.199 53.34 138.495 52.116C139.827 50.892 140.493 49.2 140.493 47.04C140.493 44.988 140.007 43.458 139.035 42.45C138.063 41.406 136.785 40.884 135.201 40.884C134.157 40.884 133.311 41.118 132.663 41.586C132.015 42.018 131.601 42.54 131.421 43.152H119.757ZM161.246 41.1C161.246 39.876 161.696 38.814 162.596 37.914C163.496 37.014 164.558 36.564 165.782 36.564C167.006 36.564 168.068 37.014 168.968 37.914C169.868 38.814 170.318 39.876 170.318 41.1C170.318 42.324 169.868 43.386 168.968 44.286C168.068 45.186 167.006 45.636 165.782 45.636C164.558 45.636 163.496 45.186 162.596 44.286C161.696 43.386 161.246 42.324 161.246 41.1ZM151.85 36.888C151.85 31.992 153.074 28.194 155.522 25.494C158.006 22.794 161.426 21.444 165.782 21.444C170.138 21.444 173.54 22.794 175.988 25.494C178.472 28.194 179.714 31.992 179.714 36.888V45.312C179.714 50.352 178.472 54.186 175.988 56.814C173.54 59.442 170.138 60.756 165.782 60.756C161.426 60.756 158.006 59.442 155.522 56.814C153.074 54.186 151.85 50.352 151.85 45.312V36.888ZM165.782 54.276C167.078 54.276 168.158 54.078 169.022 53.682C169.886 53.25 170.588 52.656 171.128 51.9C171.668 51.144 172.046 50.244 172.262 49.2C172.478 48.156 172.586 47.004 172.586 45.744V36.456C172.586 35.268 172.46 34.152 172.208 33.108C171.956 32.064 171.56 31.164 171.02 30.408C170.48 29.652 169.778 29.058 168.914 28.626C168.05 28.158 167.006 27.924 165.782 27.924C164.558 27.924 163.514 28.158 162.65 28.626C161.786 29.058 161.084 29.652 160.544 30.408C160.004 31.164 159.608 32.064 159.356 33.108C159.104 34.152 158.978 35.268 158.978 36.456V45.744C158.978 47.004 159.086 48.156 159.302 49.2C159.518 50.244 159.896 51.144 160.436 51.9C160.976 52.656 161.678 53.25 162.542 53.682C163.406 54.078 164.486 54.276 165.782 54.276ZM193.716 55.626C193.716 54.942 193.842 54.294 194.094 53.682C194.382 53.034 194.76 52.494 195.228 52.062C195.696 51.594 196.236 51.234 196.848 50.982C197.46 50.694 198.126 50.55 198.846 50.55C199.53 50.55 200.178 50.694 200.79 50.982C201.438 51.234 201.996 51.594 202.464 52.062C202.932 52.494 203.292 53.034 203.544 53.682C203.832 54.294 203.976 54.942 203.976 55.626V62.214C203.976 63.582 203.508 64.734 202.572 65.67C201.672 66.606 200.538 67.074 199.17 67.074H195.714V62.862H198.306C199.278 62.862 199.764 62.322 199.764 61.242V60.594C199.476 60.702 199.17 60.756 198.846 60.756C198.126 60.756 197.46 60.612 196.848 60.324C196.236 60.072 195.696 59.712 195.228 59.244C194.76 58.776 194.382 58.236 194.094 57.624C193.842 57.012 193.716 56.346 193.716 55.626ZM227.375 41.1C227.375 39.876 227.825 38.814 228.725 37.914C229.625 37.014 230.687 36.564 231.911 36.564C233.135 36.564 234.197 37.014 235.097 37.914C235.997 38.814 236.447 39.876 236.447 41.1C236.447 42.324 235.997 43.386 235.097 44.286C234.197 45.186 233.135 45.636 231.911 45.636C230.687 45.636 229.625 45.186 228.725 44.286C227.825 43.386 227.375 42.324 227.375 41.1ZM217.979 36.888C217.979 31.992 219.203 28.194 221.651 25.494C224.135 22.794 227.555 21.444 231.911 21.444C236.267 21.444 239.669 22.794 242.117 25.494C244.601 28.194 245.843 31.992 245.843 36.888V45.312C245.843 50.352 244.601 54.186 242.117 56.814C239.669 59.442 236.267 60.756 231.911 60.756C227.555 60.756 224.135 59.442 221.651 56.814C219.203 54.186 217.979 50.352 217.979 45.312V36.888ZM231.911 54.276C233.207 54.276 234.287 54.078 235.151 53.682C236.015 53.25 236.717 52.656 237.257 51.9C237.797 51.144 238.175 50.244 238.391 49.2C238.607 48.156 238.715 47.004 238.715 45.744V36.456C238.715 35.268 238.589 34.152 238.337 33.108C238.085 32.064 237.689 31.164 237.149 30.408C236.609 29.652 235.907 29.058 235.043 28.626C234.179 28.158 233.135 27.924 231.911 27.924C230.687 27.924 229.643 28.158 228.779 28.626C227.915 29.058 227.213 29.652 226.673 30.408C226.133 31.164 225.737 32.064 225.485 33.108C225.233 34.152 225.107 35.268 225.107 36.456V45.744C225.107 47.004 225.215 48.156 225.431 49.2C225.647 50.244 226.025 51.144 226.565 51.9C227.105 52.656 227.807 53.25 228.671 53.682C229.535 54.078 230.615 54.276 231.911 54.276ZM260.439 41.1C260.439 39.876 260.889 38.814 261.789 37.914C262.689 37.014 263.751 36.564 264.975 36.564C266.199 36.564 267.261 37.014 268.161 37.914C269.061 38.814 269.511 39.876 269.511 41.1C269.511 42.324 269.061 43.386 268.161 44.286C267.261 45.186 266.199 45.636 264.975 45.636C263.751 45.636 262.689 45.186 261.789 44.286C260.889 43.386 260.439 42.324 260.439 41.1ZM251.043 36.888C251.043 31.992 252.267 28.194 254.715 25.494C257.199 22.794 260.619 21.444 264.975 21.444C269.331 21.444 272.733 22.794 275.181 25.494C277.665 28.194 278.907 31.992 278.907 36.888V45.312C278.907 50.352 277.665 54.186 275.181 56.814C272.733 59.442 269.331 60.756 264.975 60.756C260.619 60.756 257.199 59.442 254.715 56.814C252.267 54.186 251.043 50.352 251.043 45.312V36.888ZM264.975 54.276C266.271 54.276 267.351 54.078 268.215 53.682C269.079 53.25 269.781 52.656 270.321 51.9C270.861 51.144 271.239 50.244 271.455 49.2C271.671 48.156 271.779 47.004 271.779 45.744V36.456C271.779 35.268 271.653 34.152 271.401 33.108C271.149 32.064 270.753 31.164 270.213 30.408C269.673 29.652 268.971 29.058 268.107 28.626C267.243 28.158 266.199 27.924 264.975 27.924C263.751 27.924 262.707 28.158 261.843 28.626C260.979 29.058 260.277 29.652 259.737 30.408C259.197 31.164 258.801 32.064 258.549 33.108C258.297 34.152 258.171 35.268 258.171 36.456V45.744C258.171 47.004 258.279 48.156 258.495 49.2C258.711 50.244 259.089 51.144 259.629 51.9C260.169 52.656 260.871 53.25 261.735 53.682C262.599 54.078 263.679 54.276 264.975 54.276ZM293.504 41.1C293.504 39.876 293.954 38.814 294.854 37.914C295.754 37.014 296.816 36.564 298.04 36.564C299.264 36.564 300.326 37.014 301.226 37.914C302.126 38.814 302.576 39.876 302.576 41.1C302.576 42.324 302.126 43.386 301.226 44.286C300.326 45.186 299.264 45.636 298.04 45.636C296.816 45.636 295.754 45.186 294.854 44.286C293.954 43.386 293.504 42.324 293.504 41.1ZM284.108 36.888C284.108 31.992 285.332 28.194 287.78 25.494C290.264 22.794 293.684 21.444 298.04 21.444C302.396 21.444 305.798 22.794 308.246 25.494C310.73 28.194 311.972 31.992 311.972 36.888V45.312C311.972 50.352 310.73 54.186 308.246 56.814C305.798 59.442 302.396 60.756 298.04 60.756C293.684 60.756 290.264 59.442 287.78 56.814C285.332 54.186 284.108 50.352 284.108 45.312V36.888ZM298.04 54.276C299.336 54.276 300.416 54.078 301.28 53.682C302.144 53.25 302.846 52.656 303.386 51.9C303.926 51.144 304.304 50.244 304.52 49.2C304.736 48.156 304.844 47.004 304.844 45.744V36.456C304.844 35.268 304.718 34.152 304.466 33.108C304.214 32.064 303.818 31.164 303.278 30.408C302.738 29.652 302.036 29.058 301.172 28.626C300.308 28.158 299.264 27.924 298.04 27.924C296.816 27.924 295.772 28.158 294.908 28.626C294.044 29.058 293.342 29.652 292.802 30.408C292.262 31.164 291.866 32.064 291.614 33.108C291.362 34.152 291.236 35.268 291.236 36.456V45.744C291.236 47.004 291.344 48.156 291.56 49.2C291.776 50.244 292.154 51.144 292.694 51.9C293.234 52.656 293.936 53.25 294.8 53.682C295.664 54.078 296.744 54.276 298.04 54.276Z" fill="#4F291E"/>
<path d="M19.522 120.964H24.02V116.466H25.892V120.964H30.39V122.836H25.892V127.334H24.02V122.836H19.522V120.964ZM61.0858 118.052C61.0858 117.463 60.9645 116.943 60.7218 116.492C60.4965 116.041 60.1845 115.669 59.7858 115.374C59.3872 115.079 58.9278 114.854 58.4078 114.698C57.8878 114.542 57.3418 114.464 56.7698 114.464C56.2672 114.464 55.7905 114.533 55.3398 114.672C54.8892 114.793 54.4818 114.975 54.1178 115.218C53.7712 115.461 53.4938 115.764 53.2858 116.128C53.0778 116.475 52.9738 116.882 52.9738 117.35V117.506C52.9738 118.009 53.0778 118.442 53.2858 118.806C53.4938 119.153 53.7972 119.456 54.1958 119.716C54.6118 119.959 55.1232 120.167 55.7298 120.34C56.3365 120.496 57.0472 120.635 57.8618 120.756C59.7685 121.051 61.1725 121.614 62.0738 122.446C62.9752 123.261 63.4258 124.361 63.4258 125.748V126.06C63.4258 126.84 63.2872 127.559 63.0098 128.218C62.7498 128.859 62.3512 129.414 61.8138 129.882C61.2938 130.35 60.6438 130.714 59.8638 130.974C59.0838 131.234 58.1825 131.364 57.1598 131.364C55.9985 131.364 54.9672 131.199 54.0658 130.87C53.1818 130.523 52.4365 130.055 51.8298 129.466C51.2405 128.859 50.7898 128.157 50.4778 127.36C50.1658 126.545 50.0098 125.661 50.0098 124.708V123.928H52.1938V124.552C52.1938 126.147 52.6272 127.343 53.4938 128.14C54.3778 128.937 55.5998 129.336 57.1598 129.336C58.5118 129.336 59.5258 129.041 60.2018 128.452C60.8952 127.845 61.2418 127.048 61.2418 126.06V125.904C61.2418 124.951 60.8865 124.223 60.1758 123.72C59.4825 123.217 58.3472 122.853 56.7698 122.628C55.8512 122.507 55.0192 122.325 54.2738 122.082C53.5458 121.822 52.9218 121.493 52.4018 121.094C51.8818 120.678 51.4832 120.184 51.2058 119.612C50.9285 119.04 50.7898 118.364 50.7898 117.584V117.272C50.7898 116.561 50.9372 115.911 51.2318 115.322C51.5265 114.733 51.9338 114.221 52.4538 113.788C52.9912 113.355 53.6238 113.025 54.3518 112.8C55.0972 112.557 55.9118 112.436 56.7958 112.436C57.8185 112.436 58.7285 112.583 59.5258 112.878C60.3405 113.173 61.0252 113.571 61.5798 114.074C62.1345 114.559 62.5505 115.14 62.8278 115.816C63.1225 116.475 63.2698 117.168 63.2698 117.896V118.988H61.0858V118.052ZM68.5818 136.2H66.5538V118.104H68.5818V120.132H68.8938C69.3444 119.352 69.9684 118.763 70.7658 118.364C71.5631 117.948 72.4298 117.74 73.3658 117.74C74.1631 117.74 74.9171 117.887 75.6278 118.182C76.3384 118.477 76.9624 118.901 77.4998 119.456C78.0544 120.011 78.4878 120.695 78.7998 121.51C79.1291 122.325 79.2938 123.252 79.2938 124.292V124.812C79.2938 125.869 79.1378 126.805 78.8258 127.62C78.5138 128.435 78.0804 129.119 77.5258 129.674C76.9884 130.229 76.3558 130.653 75.6278 130.948C74.8998 131.225 74.1284 131.364 73.3138 131.364C72.8978 131.364 72.4731 131.312 72.0398 131.208C71.6064 131.121 71.1904 130.983 70.7918 130.792C70.4104 130.584 70.0551 130.341 69.7258 130.064C69.3964 129.769 69.1191 129.423 68.8938 129.024H68.5818V136.2ZM72.8978 129.44C73.5218 129.44 74.0938 129.336 74.6138 129.128C75.1338 128.903 75.5844 128.591 75.9658 128.192C76.3644 127.793 76.6678 127.308 76.8758 126.736C77.1011 126.164 77.2138 125.523 77.2138 124.812V124.292C77.2138 123.599 77.1011 122.975 76.8758 122.42C76.6678 121.848 76.3644 121.363 75.9658 120.964C75.5844 120.548 75.1251 120.227 74.5878 120.002C74.0678 119.777 73.5044 119.664 72.8978 119.664C72.2911 119.664 71.7278 119.785 71.2078 120.028C70.6878 120.253 70.2284 120.574 69.8298 120.99C69.4484 121.406 69.1451 121.909 68.9198 122.498C68.6944 123.07 68.5818 123.703 68.5818 124.396V124.708C68.5818 125.419 68.6944 126.069 68.9198 126.658C69.1451 127.23 69.4484 127.724 69.8298 128.14C70.2284 128.556 70.6878 128.877 71.2078 129.102C71.7278 129.327 72.2911 129.44 72.8978 129.44ZM84.4237 125.176C84.4757 126.459 84.8744 127.49 85.6197 128.27C86.365 129.05 87.405 129.44 88.7397 129.44C89.3464 129.44 89.875 129.371 90.3257 129.232C90.7764 129.093 91.1577 128.903 91.4697 128.66C91.799 128.417 92.059 128.14 92.2497 127.828C92.4577 127.499 92.6224 127.152 92.7437 126.788L94.6677 127.308C94.3037 128.504 93.6277 129.483 92.6397 130.246C91.669 130.991 90.3517 131.364 88.6877 131.364C87.769 131.364 86.9197 131.208 86.1397 130.896C85.377 130.567 84.7184 130.107 84.1637 129.518C83.609 128.929 83.1757 128.227 82.8637 127.412C82.5517 126.597 82.3957 125.696 82.3957 124.708V124.084C82.3957 123.183 82.5517 122.342 82.8637 121.562C83.193 120.782 83.6437 120.115 84.2157 119.56C84.7877 118.988 85.455 118.546 86.2177 118.234C86.9977 117.905 87.8384 117.74 88.7397 117.74C89.797 117.74 90.707 117.939 91.4697 118.338C92.2497 118.719 92.8824 119.196 93.3677 119.768C93.8704 120.34 94.2344 120.964 94.4597 121.64C94.7024 122.316 94.8237 122.94 94.8237 123.512V125.176H84.4237ZM88.7397 119.664C88.1677 119.664 87.6304 119.759 87.1277 119.95C86.6424 120.123 86.209 120.375 85.8277 120.704C85.4637 121.033 85.1604 121.423 84.9177 121.874C84.6924 122.307 84.545 122.784 84.4757 123.304H92.7957C92.761 122.749 92.6224 122.247 92.3797 121.796C92.1544 121.345 91.851 120.964 91.4697 120.652C91.1057 120.34 90.681 120.097 90.1957 119.924C89.7277 119.751 89.2424 119.664 88.7397 119.664ZM110.926 126.424C110.787 127.135 110.544 127.793 110.198 128.4C109.868 129.007 109.444 129.535 108.924 129.986C108.404 130.419 107.797 130.757 107.104 131C106.41 131.243 105.639 131.364 104.79 131.364C103.888 131.364 103.03 131.217 102.216 130.922C101.418 130.627 100.716 130.203 100.11 129.648C99.5029 129.076 99.0176 128.383 98.6536 127.568C98.3069 126.753 98.1336 125.817 98.1336 124.76V124.448C98.1336 123.408 98.3069 122.472 98.6536 121.64C99.0176 120.808 99.5029 120.106 100.11 119.534C100.716 118.962 101.418 118.52 102.216 118.208C103.03 117.896 103.888 117.74 104.79 117.74C105.604 117.74 106.358 117.861 107.052 118.104C107.745 118.347 108.352 118.693 108.872 119.144C109.409 119.577 109.842 120.097 110.172 120.704C110.518 121.311 110.752 121.969 110.874 122.68L108.846 123.148C108.794 122.697 108.664 122.264 108.456 121.848C108.265 121.415 107.996 121.042 107.65 120.73C107.32 120.401 106.913 120.141 106.428 119.95C105.942 119.759 105.379 119.664 104.738 119.664C104.114 119.664 103.524 119.785 102.97 120.028C102.432 120.253 101.956 120.583 101.54 121.016C101.124 121.432 100.794 121.935 100.552 122.524C100.326 123.113 100.214 123.755 100.214 124.448V124.76C100.214 125.488 100.326 126.147 100.552 126.736C100.794 127.308 101.124 127.793 101.54 128.192C101.956 128.591 102.441 128.903 102.996 129.128C103.55 129.336 104.148 129.44 104.79 129.44C105.431 129.44 105.986 129.345 106.454 129.154C106.939 128.946 107.346 128.686 107.676 128.374C108.022 128.045 108.291 127.672 108.482 127.256C108.69 126.84 108.828 126.407 108.898 125.956L110.926 126.424ZM118.786 114.256C118.786 113.753 118.959 113.329 119.306 112.982C119.67 112.618 120.103 112.436 120.606 112.436C121.108 112.436 121.533 112.618 121.88 112.982C122.244 113.329 122.426 113.753 122.426 114.256C122.426 114.759 122.244 115.192 121.88 115.556C121.533 115.903 121.108 116.076 120.606 116.076C120.103 116.076 119.67 115.903 119.306 115.556C118.959 115.192 118.786 114.759 118.786 114.256ZM115.094 129.128H119.618V119.976H115.562V118.104H121.646V129.128H125.858V131H115.094V129.128ZM140.061 128.816H139.749C139.333 129.683 138.753 130.324 138.007 130.74C137.279 131.156 136.508 131.364 135.693 131.364C134.844 131.364 134.055 131.225 133.327 130.948C132.599 130.653 131.958 130.229 131.403 129.674C130.866 129.102 130.441 128.409 130.129 127.594C129.817 126.779 129.661 125.835 129.661 124.76V124.344C129.661 123.287 129.817 122.351 130.129 121.536C130.441 120.721 130.866 120.037 131.403 119.482C131.958 118.91 132.599 118.477 133.327 118.182C134.055 117.887 134.827 117.74 135.641 117.74C136.525 117.74 137.323 117.939 138.033 118.338C138.761 118.719 139.333 119.317 139.749 120.132H140.061V118.104H142.089V128.348C142.089 128.868 142.323 129.128 142.791 129.128H143.441V131H142.063C141.474 131 140.989 130.809 140.607 130.428C140.243 130.047 140.061 129.561 140.061 128.972V128.816ZM135.901 129.44C136.508 129.44 137.063 129.327 137.565 129.102C138.085 128.877 138.527 128.556 138.891 128.14C139.255 127.724 139.541 127.23 139.749 126.658C139.957 126.069 140.061 125.419 140.061 124.708V124.396C140.061 123.703 139.957 123.07 139.749 122.498C139.541 121.909 139.247 121.406 138.865 120.99C138.501 120.574 138.059 120.253 137.539 120.028C137.037 119.785 136.491 119.664 135.901 119.664C135.295 119.664 134.74 119.777 134.237 120.002C133.735 120.227 133.293 120.548 132.911 120.964C132.547 121.363 132.261 121.857 132.053 122.446C131.845 123.018 131.741 123.651 131.741 124.344V124.76C131.741 126.233 132.123 127.386 132.885 128.218C133.665 129.033 134.671 129.44 135.901 129.44ZM146.621 129.128H151.301V114.672H146.777V112.8H153.329V129.128H158.009V131H146.621V129.128ZM177.395 112.8H181.555L183.999 130.064H184.311L186.755 112.8H190.915V131H188.887V113.736H188.575L186.131 131H182.179L179.735 113.736H179.423V131H177.395V112.8ZM195.863 125.176C195.915 126.459 196.314 127.49 197.059 128.27C197.804 129.05 198.844 129.44 200.179 129.44C200.786 129.44 201.314 129.371 201.765 129.232C202.216 129.093 202.597 128.903 202.909 128.66C203.238 128.417 203.498 128.14 203.689 127.828C203.897 127.499 204.062 127.152 204.183 126.788L206.107 127.308C205.743 128.504 205.067 129.483 204.079 130.246C203.108 130.991 201.791 131.364 200.127 131.364C199.208 131.364 198.359 131.208 197.579 130.896C196.816 130.567 196.158 130.107 195.603 129.518C195.048 128.929 194.615 128.227 194.303 127.412C193.991 126.597 193.835 125.696 193.835 124.708V124.084C193.835 123.183 193.991 122.342 194.303 121.562C194.632 120.782 195.083 120.115 195.655 119.56C196.227 118.988 196.894 118.546 197.657 118.234C198.437 117.905 199.278 117.74 200.179 117.74C201.236 117.74 202.146 117.939 202.909 118.338C203.689 118.719 204.322 119.196 204.807 119.768C205.31 120.34 205.674 120.964 205.899 121.64C206.142 122.316 206.263 122.94 206.263 123.512V125.176H195.863ZM200.179 119.664C199.607 119.664 199.07 119.759 198.567 119.95C198.082 120.123 197.648 120.375 197.267 120.704C196.903 121.033 196.6 121.423 196.357 121.874C196.132 122.307 195.984 122.784 195.915 123.304H204.235C204.2 122.749 204.062 122.247 203.819 121.796C203.594 121.345 203.29 120.964 202.909 120.652C202.545 120.34 202.12 120.097 201.635 119.924C201.167 119.751 200.682 119.664 200.179 119.664ZM212.329 131H210.301V118.104H212.329V120.288H212.641C213.438 118.589 214.825 117.74 216.801 117.74C218.292 117.74 219.479 118.208 220.363 119.144C221.247 120.063 221.689 121.449 221.689 123.304V131H219.661V123.72C219.661 122.368 219.358 121.354 218.751 120.678C218.144 120.002 217.321 119.664 216.281 119.664C215.05 119.664 214.08 120.089 213.369 120.938C212.676 121.77 212.329 122.888 212.329 124.292V131ZM225.779 118.104H229.835V112.8H231.863V118.104H236.855V119.976H231.863V128.348C231.863 128.868 232.097 129.128 232.565 129.128H236.231V131H231.837C231.248 131 230.762 130.809 230.381 130.428C230.017 130.047 229.835 129.561 229.835 128.972V119.976H225.779V118.104ZM246.145 114.256C246.145 113.753 246.318 113.329 246.665 112.982C247.029 112.618 247.462 112.436 247.965 112.436C248.468 112.436 248.892 112.618 249.239 112.982C249.603 113.329 249.785 113.753 249.785 114.256C249.785 114.759 249.603 115.192 249.239 115.556C248.892 115.903 248.468 116.076 247.965 116.076C247.462 116.076 247.029 115.903 246.665 115.556C246.318 115.192 246.145 114.759 246.145 114.256ZM242.453 129.128H246.977V119.976H242.921V118.104H249.005V129.128H253.217V131H242.453V129.128ZM270.229 124.708C270.229 125.783 270.047 126.736 269.683 127.568C269.336 128.383 268.868 129.076 268.279 129.648C267.689 130.203 266.996 130.627 266.199 130.922C265.419 131.217 264.604 131.364 263.755 131.364C262.888 131.364 262.065 131.217 261.285 130.922C260.505 130.627 259.82 130.203 259.231 129.648C258.641 129.076 258.165 128.383 257.801 127.568C257.454 126.736 257.281 125.783 257.281 124.708V124.396C257.281 123.339 257.454 122.403 257.801 121.588C258.165 120.756 258.641 120.054 259.231 119.482C259.837 118.91 260.531 118.477 261.311 118.182C262.091 117.887 262.905 117.74 263.755 117.74C264.604 117.74 265.419 117.887 266.199 118.182C266.979 118.477 267.663 118.91 268.253 119.482C268.859 120.054 269.336 120.756 269.683 121.588C270.047 122.403 270.229 123.339 270.229 124.396V124.708ZM263.755 129.44C264.379 129.44 264.951 129.336 265.471 129.128C266.008 128.903 266.476 128.582 266.875 128.166C267.273 127.75 267.585 127.256 267.811 126.684C268.036 126.095 268.149 125.436 268.149 124.708V124.396C268.149 123.703 268.036 123.07 267.811 122.498C267.585 121.909 267.273 121.406 266.875 120.99C266.476 120.574 266.008 120.253 265.471 120.028C264.933 119.785 264.361 119.664 263.755 119.664C263.148 119.664 262.576 119.785 262.039 120.028C261.501 120.253 261.033 120.574 260.635 120.99C260.236 121.406 259.924 121.909 259.699 122.498C259.473 123.07 259.361 123.703 259.361 124.396V124.708C259.361 125.436 259.473 126.095 259.699 126.684C259.924 127.256 260.236 127.75 260.635 128.166C261.033 128.582 261.493 128.903 262.013 129.128C262.55 129.336 263.131 129.44 263.755 129.44ZM276.009 131H273.981V118.104H276.009V120.288H276.321C277.118 118.589 278.505 117.74 280.481 117.74C281.971 117.74 283.159 118.208 284.043 119.144C284.927 120.063 285.369 121.449 285.369 123.304V131H283.341V123.72C283.341 122.368 283.037 121.354 282.431 120.678C281.824 120.002 281.001 119.664 279.961 119.664C278.73 119.664 277.759 120.089 277.049 120.938C276.355 121.77 276.009 122.888 276.009 124.292V131ZM317.989 124.708C317.989 125.783 317.807 126.736 317.443 127.568C317.096 128.383 316.628 129.076 316.039 129.648C315.449 130.203 314.756 130.627 313.959 130.922C313.179 131.217 312.364 131.364 311.515 131.364C310.648 131.364 309.825 131.217 309.045 130.922C308.265 130.627 307.58 130.203 306.991 129.648C306.401 129.076 305.925 128.383 305.561 127.568C305.214 126.736 305.041 125.783 305.041 124.708V124.396C305.041 123.339 305.214 122.403 305.561 121.588C305.925 120.756 306.401 120.054 306.991 119.482C307.597 118.91 308.291 118.477 309.071 118.182C309.851 117.887 310.665 117.74 311.515 117.74C312.364 117.74 313.179 117.887 313.959 118.182C314.739 118.477 315.423 118.91 316.013 119.482C316.619 120.054 317.096 120.756 317.443 121.588C317.807 122.403 317.989 123.339 317.989 124.396V124.708ZM311.515 129.44C312.139 129.44 312.711 129.336 313.231 129.128C313.768 128.903 314.236 128.582 314.635 128.166C315.033 127.75 315.345 127.256 315.571 126.684C315.796 126.095 315.909 125.436 315.909 124.708V124.396C315.909 123.703 315.796 123.07 315.571 122.498C315.345 121.909 315.033 121.406 314.635 120.99C314.236 120.574 313.768 120.253 313.231 120.028C312.693 119.785 312.121 119.664 311.515 119.664C310.908 119.664 310.336 119.785 309.799 120.028C309.261 120.253 308.793 120.574 308.395 120.99C307.996 121.406 307.684 121.909 307.459 122.498C307.233 123.07 307.121 123.703 307.121 124.396V124.708C307.121 125.436 307.233 126.095 307.459 126.684C307.684 127.256 307.996 127.75 308.395 128.166C308.793 128.582 309.253 128.903 309.773 129.128C310.31 129.336 310.891 129.44 311.515 129.44ZM323.769 131H321.741V118.104H323.769V120.288H324.081C324.878 118.589 326.265 117.74 328.241 117.74C329.731 117.74 330.919 118.208 331.803 119.144C332.687 120.063 333.129 121.449 333.129 123.304V131H331.101V123.72C331.101 122.368 330.797 121.354 330.191 120.678C329.584 120.002 328.761 119.664 327.721 119.664C326.49 119.664 325.519 120.089 324.809 120.938C324.115 121.77 323.769 122.888 323.769 124.292V131ZM30.416 170H26.672L25.112 158.04H24.8L23.24 170H19.496L17.468 157.104H19.548L21.264 169.064H21.576L23.084 157.104H26.828L28.336 169.064H28.648L30.364 157.104H32.444L30.416 170ZM36.6639 164.176C36.7159 165.459 37.1146 166.49 37.8599 167.27C38.6053 168.05 39.6453 168.44 40.9799 168.44C41.5866 168.44 42.1153 168.371 42.5659 168.232C43.0166 168.093 43.3979 167.903 43.7099 167.66C44.0393 167.417 44.2993 167.14 44.4899 166.828C44.6979 166.499 44.8626 166.152 44.9839 165.788L46.9079 166.308C46.5439 167.504 45.8679 168.483 44.8799 169.246C43.9093 169.991 42.5919 170.364 40.9279 170.364C40.0093 170.364 39.1599 170.208 38.3799 169.896C37.6173 169.567 36.9586 169.107 36.4039 168.518C35.8493 167.929 35.4159 167.227 35.1039 166.412C34.7919 165.597 34.6359 164.696 34.6359 163.708V163.084C34.6359 162.183 34.7919 161.342 35.1039 160.562C35.4333 159.782 35.8839 159.115 36.4559 158.56C37.0279 157.988 37.6953 157.546 38.4579 157.234C39.2379 156.905 40.0786 156.74 40.9799 156.74C42.0373 156.74 42.9473 156.939 43.7099 157.338C44.4899 157.719 45.1226 158.196 45.6079 158.768C46.1106 159.34 46.4746 159.964 46.6999 160.64C46.9426 161.316 47.0639 161.94 47.0639 162.512V164.176H36.6639ZM40.9799 158.664C40.4079 158.664 39.8706 158.759 39.3679 158.95C38.8826 159.123 38.4493 159.375 38.0679 159.704C37.7039 160.033 37.4006 160.423 37.1579 160.874C36.9326 161.307 36.7853 161.784 36.7159 162.304H45.0359C45.0013 161.749 44.8626 161.247 44.6199 160.796C44.3946 160.345 44.0913 159.964 43.7099 159.652C43.3459 159.34 42.9213 159.097 42.4359 158.924C41.9679 158.751 41.4826 158.664 40.9799 158.664ZM52.6618 170H50.6338V151.8H52.6618V159.132H52.9738C53.4245 158.352 54.0485 157.763 54.8458 157.364C55.6432 156.948 56.5098 156.74 57.4458 156.74C58.2432 156.74 58.9972 156.887 59.7078 157.182C60.4185 157.477 61.0425 157.901 61.5798 158.456C62.1345 159.011 62.5678 159.695 62.8798 160.51C63.2092 161.325 63.3738 162.252 63.3738 163.292V163.812C63.3738 164.869 63.2178 165.805 62.9058 166.62C62.5938 167.435 62.1605 168.119 61.6058 168.674C61.0685 169.229 60.4358 169.653 59.7078 169.948C58.9798 170.225 58.2085 170.364 57.3938 170.364C56.9778 170.364 56.5532 170.312 56.1198 170.208C55.6865 170.121 55.2705 169.983 54.8718 169.792C54.4905 169.584 54.1352 169.341 53.8058 169.064C53.4765 168.769 53.1992 168.423 52.9738 168.024H52.6618V170ZM56.9778 168.44C57.6018 168.44 58.1738 168.336 58.6938 168.128C59.2138 167.903 59.6645 167.591 60.0458 167.192C60.4445 166.793 60.7478 166.308 60.9558 165.736C61.1812 165.164 61.2938 164.523 61.2938 163.812V163.292C61.2938 162.599 61.1812 161.975 60.9558 161.42C60.7478 160.848 60.4445 160.363 60.0458 159.964C59.6645 159.548 59.2052 159.227 58.6678 159.002C58.1478 158.777 57.5845 158.664 56.9778 158.664C56.3712 158.664 55.8078 158.785 55.2878 159.028C54.7678 159.253 54.3085 159.574 53.9098 159.99C53.5285 160.406 53.2252 160.909 52.9998 161.498C52.7745 162.07 52.6618 162.703 52.6618 163.396V163.708C52.6618 164.419 52.7745 165.069 52.9998 165.658C53.2252 166.23 53.5285 166.724 53.9098 167.14C54.3085 167.556 54.7678 167.877 55.2878 168.102C55.8078 168.327 56.3712 168.44 56.9778 168.44ZM69.6998 160.432C69.6998 161.056 69.9598 161.533 70.4798 161.862C71.0171 162.191 71.9878 162.408 73.3918 162.512C74.8998 162.633 76.0438 162.997 76.8238 163.604C77.6211 164.193 78.0198 165.06 78.0198 166.204V166.36C78.0198 166.984 77.8898 167.547 77.6298 168.05C77.3871 168.535 77.0404 168.951 76.5898 169.298C76.1564 169.645 75.6191 169.905 74.9778 170.078C74.3538 170.269 73.6691 170.364 72.9238 170.364C71.9184 170.364 71.0518 170.234 70.3238 169.974C69.6131 169.697 69.0151 169.341 68.5298 168.908C68.0618 168.457 67.7064 167.955 67.4638 167.4C67.2211 166.828 67.0824 166.256 67.0478 165.684L68.9718 165.216C69.0584 166.204 69.4398 167.001 70.1158 167.608C70.7918 168.197 71.6931 168.492 72.8198 168.492C73.7731 168.492 74.5358 168.31 75.1078 167.946C75.6971 167.565 75.9918 167.036 75.9918 166.36C75.9918 165.632 75.7058 165.112 75.1338 164.8C74.5618 164.488 73.6344 164.289 72.3518 164.202C70.8611 164.098 69.7171 163.751 68.9198 163.162C68.1224 162.573 67.7238 161.715 67.7238 160.588V160.432C67.7238 159.825 67.8538 159.297 68.1138 158.846C68.3738 158.378 68.7204 157.988 69.1538 157.676C69.6044 157.364 70.1071 157.13 70.6618 156.974C71.2164 156.818 71.7971 156.74 72.4038 156.74C73.2531 156.74 73.9984 156.861 74.6398 157.104C75.2811 157.329 75.8184 157.633 76.2518 158.014C76.6851 158.378 77.0144 158.803 77.2398 159.288C77.4824 159.773 77.6384 160.259 77.7078 160.744L75.7838 161.212C75.6971 160.38 75.3591 159.73 74.7698 159.262C74.1978 158.794 73.4438 158.56 72.5078 158.56C72.1438 158.56 71.7884 158.603 71.4418 158.69C71.1124 158.759 70.8178 158.872 70.5578 159.028C70.2978 159.184 70.0898 159.383 69.9338 159.626C69.7778 159.851 69.6998 160.12 69.6998 160.432ZM86.9457 153.256C86.9457 152.753 87.119 152.329 87.4657 151.982C87.8297 151.618 88.263 151.436 88.7657 151.436C89.2684 151.436 89.693 151.618 90.0397 151.982C90.4037 152.329 90.5857 152.753 90.5857 153.256C90.5857 153.759 90.4037 154.192 90.0397 154.556C89.693 154.903 89.2684 155.076 88.7657 155.076C88.263 155.076 87.8297 154.903 87.4657 154.556C87.119 154.192 86.9457 153.759 86.9457 153.256ZM83.2537 168.128H87.7777V158.976H83.7217V157.104H89.8057V168.128H94.0177V170H83.2537V168.128ZM98.4196 157.104H102.476V151.8H104.504V157.104H109.496V158.976H104.504V167.348C104.504 167.868 104.738 168.128 105.206 168.128H108.872V170H104.478C103.888 170 103.403 169.809 103.022 169.428C102.658 169.047 102.476 168.561 102.476 167.972V158.976H98.4196V157.104ZM116.264 164.176C116.316 165.459 116.714 166.49 117.46 167.27C118.205 168.05 119.245 168.44 120.58 168.44C121.186 168.44 121.715 168.371 122.166 168.232C122.616 168.093 122.998 167.903 123.31 167.66C123.639 167.417 123.899 167.14 124.09 166.828C124.298 166.499 124.462 166.152 124.584 165.788L126.508 166.308C126.144 167.504 125.468 168.483 124.48 169.246C123.509 169.991 122.192 170.364 120.528 170.364C119.609 170.364 118.76 170.208 117.98 169.896C117.217 169.567 116.558 169.107 116.004 168.518C115.449 167.929 115.016 167.227 114.704 166.412C114.392 165.597 114.236 164.696 114.236 163.708V163.084C114.236 162.183 114.392 161.342 114.704 160.562C115.033 159.782 115.484 159.115 116.056 158.56C116.628 157.988 117.295 157.546 118.058 157.234C118.838 156.905 119.678 156.74 120.58 156.74C121.637 156.74 122.547 156.939 123.31 157.338C124.09 157.719 124.722 158.196 125.208 158.768C125.71 159.34 126.074 159.964 126.3 160.64C126.542 161.316 126.664 161.94 126.664 162.512V164.176H116.264ZM120.58 158.664C120.008 158.664 119.47 158.759 118.968 158.95C118.482 159.123 118.049 159.375 117.668 159.704C117.304 160.033 117 160.423 116.758 160.874C116.532 161.307 116.385 161.784 116.316 162.304H124.636C124.601 161.749 124.462 161.247 124.22 160.796C123.994 160.345 123.691 159.964 123.31 159.652C122.946 159.34 122.521 159.097 122.036 158.924C121.568 158.751 121.082 158.664 120.58 158.664ZM19.522 198.964H24.02V194.466H25.892V198.964H30.39V200.836H25.892V205.334H24.02V200.836H19.522V198.964ZM61.0858 196.052C61.0858 195.463 60.9645 194.943 60.7218 194.492C60.4965 194.041 60.1845 193.669 59.7858 193.374C59.3872 193.079 58.9278 192.854 58.4078 192.698C57.8878 192.542 57.3418 192.464 56.7698 192.464C56.2672 192.464 55.7905 192.533 55.3398 192.672C54.8892 192.793 54.4818 192.975 54.1178 193.218C53.7712 193.461 53.4938 193.764 53.2858 194.128C53.0778 194.475 52.9738 194.882 52.9738 195.35V195.506C52.9738 196.009 53.0778 196.442 53.2858 196.806C53.4938 197.153 53.7972 197.456 54.1958 197.716C54.6118 197.959 55.1232 198.167 55.7298 198.34C56.3365 198.496 57.0472 198.635 57.8618 198.756C59.7685 199.051 61.1725 199.614 62.0738 200.446C62.9752 201.261 63.4258 202.361 63.4258 203.748V204.06C63.4258 204.84 63.2872 205.559 63.0098 206.218C62.7498 206.859 62.3512 207.414 61.8138 207.882C61.2938 208.35 60.6438 208.714 59.8638 208.974C59.0838 209.234 58.1825 209.364 57.1598 209.364C55.9985 209.364 54.9672 209.199 54.0658 208.87C53.1818 208.523 52.4365 208.055 51.8298 207.466C51.2405 206.859 50.7898 206.157 50.4778 205.36C50.1658 204.545 50.0098 203.661 50.0098 202.708V201.928H52.1938V202.552C52.1938 204.147 52.6272 205.343 53.4938 206.14C54.3778 206.937 55.5998 207.336 57.1598 207.336C58.5118 207.336 59.5258 207.041 60.2018 206.452C60.8952 205.845 61.2418 205.048 61.2418 204.06V203.904C61.2418 202.951 60.8865 202.223 60.1758 201.72C59.4825 201.217 58.3472 200.853 56.7698 200.628C55.8512 200.507 55.0192 200.325 54.2738 200.082C53.5458 199.822 52.9218 199.493 52.4018 199.094C51.8818 198.678 51.4832 198.184 51.2058 197.612C50.9285 197.04 50.7898 196.364 50.7898 195.584V195.272C50.7898 194.561 50.9372 193.911 51.2318 193.322C51.5265 192.733 51.9338 192.221 52.4538 191.788C52.9912 191.355 53.6238 191.025 54.3518 190.8C55.0972 190.557 55.9118 190.436 56.7958 190.436C57.8185 190.436 58.7285 190.583 59.5258 190.878C60.3405 191.173 61.0252 191.571 61.5798 192.074C62.1345 192.559 62.5505 193.14 62.8278 193.816C63.1225 194.475 63.2698 195.168 63.2698 195.896V196.988H61.0858V196.052ZM68.5818 214.2H66.5538V196.104H68.5818V198.132H68.8938C69.3444 197.352 69.9684 196.763 70.7658 196.364C71.5631 195.948 72.4298 195.74 73.3658 195.74C74.1631 195.74 74.9171 195.887 75.6278 196.182C76.3384 196.477 76.9624 196.901 77.4998 197.456C78.0544 198.011 78.4878 198.695 78.7998 199.51C79.1291 200.325 79.2938 201.252 79.2938 202.292V202.812C79.2938 203.869 79.1378 204.805 78.8258 205.62C78.5138 206.435 78.0804 207.119 77.5258 207.674C76.9884 208.229 76.3558 208.653 75.6278 208.948C74.8998 209.225 74.1284 209.364 73.3138 209.364C72.8978 209.364 72.4731 209.312 72.0398 209.208C71.6064 209.121 71.1904 208.983 70.7918 208.792C70.4104 208.584 70.0551 208.341 69.7258 208.064C69.3964 207.769 69.1191 207.423 68.8938 207.024H68.5818V214.2ZM72.8978 207.44C73.5218 207.44 74.0938 207.336 74.6138 207.128C75.1338 206.903 75.5844 206.591 75.9658 206.192C76.3644 205.793 76.6678 205.308 76.8758 204.736C77.1011 204.164 77.2138 203.523 77.2138 202.812V202.292C77.2138 201.599 77.1011 200.975 76.8758 200.42C76.6678 199.848 76.3644 199.363 75.9658 198.964C75.5844 198.548 75.1251 198.227 74.5878 198.002C74.0678 197.777 73.5044 197.664 72.8978 197.664C72.2911 197.664 71.7278 197.785 71.2078 198.028C70.6878 198.253 70.2284 198.574 69.8298 198.99C69.4484 199.406 69.1451 199.909 68.9198 200.498C68.6944 201.07 68.5818 201.703 68.5818 202.396V202.708C68.5818 203.419 68.6944 204.069 68.9198 204.658C69.1451 205.23 69.4484 205.724 69.8298 206.14C70.2284 206.556 70.6878 206.877 71.2078 207.102C71.7278 207.327 72.2911 207.44 72.8978 207.44ZM95.1097 202.708C95.1097 203.783 94.9277 204.736 94.5637 205.568C94.217 206.383 93.749 207.076 93.1597 207.648C92.5704 208.203 91.877 208.627 91.0797 208.922C90.2997 209.217 89.485 209.364 88.6357 209.364C87.769 209.364 86.9457 209.217 86.1657 208.922C85.3857 208.627 84.701 208.203 84.1117 207.648C83.5224 207.076 83.0457 206.383 82.6817 205.568C82.335 204.736 82.1617 203.783 82.1617 202.708V202.396C82.1617 201.339 82.335 200.403 82.6817 199.588C83.0457 198.756 83.5224 198.054 84.1117 197.482C84.7184 196.91 85.4117 196.477 86.1917 196.182C86.9717 195.887 87.7864 195.74 88.6357 195.74C89.485 195.74 90.2997 195.887 91.0797 196.182C91.8597 196.477 92.5444 196.91 93.1337 197.482C93.7404 198.054 94.217 198.756 94.5637 199.588C94.9277 200.403 95.1097 201.339 95.1097 202.396V202.708ZM88.6357 207.44C89.2597 207.44 89.8317 207.336 90.3517 207.128C90.889 206.903 91.357 206.582 91.7557 206.166C92.1544 205.75 92.4664 205.256 92.6917 204.684C92.917 204.095 93.0297 203.436 93.0297 202.708V202.396C93.0297 201.703 92.917 201.07 92.6917 200.498C92.4664 199.909 92.1544 199.406 91.7557 198.99C91.357 198.574 90.889 198.253 90.3517 198.028C89.8144 197.785 89.2424 197.664 88.6357 197.664C88.029 197.664 87.457 197.785 86.9197 198.028C86.3824 198.253 85.9144 198.574 85.5157 198.99C85.117 199.406 84.805 199.909 84.5797 200.498C84.3544 201.07 84.2417 201.703 84.2417 202.396V202.708C84.2417 203.436 84.3544 204.095 84.5797 204.684C84.805 205.256 85.117 205.75 85.5157 206.166C85.9144 206.582 86.3737 206.903 86.8937 207.128C87.431 207.336 88.0117 207.44 88.6357 207.44ZM100.89 209H98.8616V196.104H100.89V198.288H101.202C101.999 196.589 103.386 195.74 105.362 195.74C106.852 195.74 108.04 196.208 108.924 197.144C109.808 198.063 110.25 199.449 110.25 201.304V209H108.222V201.72C108.222 200.368 107.918 199.354 107.312 198.678C106.705 198.002 105.882 197.664 104.842 197.664C103.611 197.664 102.64 198.089 101.93 198.938C101.236 199.77 100.89 200.888 100.89 202.292V209ZM117.46 199.432C117.46 200.056 117.72 200.533 118.24 200.862C118.777 201.191 119.748 201.408 121.152 201.512C122.66 201.633 123.804 201.997 124.584 202.604C125.381 203.193 125.78 204.06 125.78 205.204V205.36C125.78 205.984 125.65 206.547 125.39 207.05C125.147 207.535 124.8 207.951 124.35 208.298C123.916 208.645 123.379 208.905 122.738 209.078C122.114 209.269 121.429 209.364 120.684 209.364C119.678 209.364 118.812 209.234 118.084 208.974C117.373 208.697 116.775 208.341 116.29 207.908C115.822 207.457 115.466 206.955 115.224 206.4C114.981 205.828 114.842 205.256 114.808 204.684L116.732 204.216C116.818 205.204 117.2 206.001 117.876 206.608C118.552 207.197 119.453 207.492 120.58 207.492C121.533 207.492 122.296 207.31 122.868 206.946C123.457 206.565 123.752 206.036 123.752 205.36C123.752 204.632 123.466 204.112 122.894 203.8C122.322 203.488 121.394 203.289 120.112 203.202C118.621 203.098 117.477 202.751 116.68 202.162C115.882 201.573 115.484 200.715 115.484 199.588V199.432C115.484 198.825 115.614 198.297 115.874 197.846C116.134 197.378 116.48 196.988 116.914 196.676C117.364 196.364 117.867 196.13 118.422 195.974C118.976 195.818 119.557 195.74 120.164 195.74C121.013 195.74 121.758 195.861 122.4 196.104C123.041 196.329 123.578 196.633 124.012 197.014C124.445 197.378 124.774 197.803 125 198.288C125.242 198.773 125.398 199.259 125.468 199.744L123.544 200.212C123.457 199.38 123.119 198.73 122.53 198.262C121.958 197.794 121.204 197.56 120.268 197.56C119.904 197.56 119.548 197.603 119.202 197.69C118.872 197.759 118.578 197.872 118.318 198.028C118.058 198.184 117.85 198.383 117.694 198.626C117.538 198.851 117.46 199.12 117.46 199.432ZM132.183 203.176C132.235 204.459 132.634 205.49 133.379 206.27C134.125 207.05 135.165 207.44 136.499 207.44C137.106 207.44 137.635 207.371 138.085 207.232C138.536 207.093 138.917 206.903 139.229 206.66C139.559 206.417 139.819 206.14 140.009 205.828C140.217 205.499 140.382 205.152 140.503 204.788L142.427 205.308C142.063 206.504 141.387 207.483 140.399 208.246C139.429 208.991 138.111 209.364 136.447 209.364C135.529 209.364 134.679 209.208 133.899 208.896C133.137 208.567 132.478 208.107 131.923 207.518C131.369 206.929 130.935 206.227 130.623 205.412C130.311 204.597 130.155 203.696 130.155 202.708V202.084C130.155 201.183 130.311 200.342 130.623 199.562C130.953 198.782 131.403 198.115 131.975 197.56C132.547 196.988 133.215 196.546 133.977 196.234C134.757 195.905 135.598 195.74 136.499 195.74C137.557 195.74 138.467 195.939 139.229 196.338C140.009 196.719 140.642 197.196 141.127 197.768C141.63 198.34 141.994 198.964 142.219 199.64C142.462 200.316 142.583 200.94 142.583 201.512V203.176H132.183ZM136.499 197.664C135.927 197.664 135.39 197.759 134.887 197.95C134.402 198.123 133.969 198.375 133.587 198.704C133.223 199.033 132.92 199.423 132.677 199.874C132.452 200.307 132.305 200.784 132.235 201.304H140.555C140.521 200.749 140.382 200.247 140.139 199.796C139.914 199.345 139.611 198.964 139.229 198.652C138.865 198.34 138.441 198.097 137.955 197.924C137.487 197.751 137.002 197.664 136.499 197.664ZM145.893 196.104H150.573V197.82H150.885C151.215 197.109 151.683 196.589 152.289 196.26C152.896 195.913 153.589 195.74 154.369 195.74C155.669 195.74 156.718 196.165 157.515 197.014C158.313 197.863 158.737 199.103 158.789 200.732L156.657 201.044C156.657 199.848 156.371 198.99 155.799 198.47C155.227 197.933 154.525 197.664 153.693 197.664C153.156 197.664 152.688 197.768 152.289 197.976C151.908 198.184 151.587 198.47 151.327 198.834C151.067 199.198 150.877 199.623 150.755 200.108C150.634 200.593 150.573 201.113 150.573 201.668V207.128H153.849V209H145.581V207.128H148.545V197.976H145.893V196.104ZM188.445 196.052C188.445 195.463 188.324 194.943 188.081 194.492C187.856 194.041 187.544 193.669 187.145 193.374C186.747 193.079 186.287 192.854 185.767 192.698C185.247 192.542 184.701 192.464 184.129 192.464C183.627 192.464 183.15 192.533 182.699 192.672C182.249 192.793 181.841 192.975 181.477 193.218C181.131 193.461 180.853 193.764 180.645 194.128C180.437 194.475 180.333 194.882 180.333 195.35V195.506C180.333 196.009 180.437 196.442 180.645 196.806C180.853 197.153 181.157 197.456 181.555 197.716C181.971 197.959 182.483 198.167 183.089 198.34C183.696 198.496 184.407 198.635 185.221 198.756C187.128 199.051 188.532 199.614 189.433 200.446C190.335 201.261 190.785 202.361 190.785 203.748V204.06C190.785 204.84 190.647 205.559 190.369 206.218C190.109 206.859 189.711 207.414 189.173 207.882C188.653 208.35 188.003 208.714 187.223 208.974C186.443 209.234 185.542 209.364 184.519 209.364C183.358 209.364 182.327 209.199 181.425 208.87C180.541 208.523 179.796 208.055 179.189 207.466C178.6 206.859 178.149 206.157 177.837 205.36C177.525 204.545 177.369 203.661 177.369 202.708V201.928H179.553V202.552C179.553 204.147 179.987 205.343 180.853 206.14C181.737 206.937 182.959 207.336 184.519 207.336C185.871 207.336 186.885 207.041 187.561 206.452C188.255 205.845 188.601 205.048 188.601 204.06V203.904C188.601 202.951 188.246 202.223 187.535 201.72C186.842 201.217 185.707 200.853 184.129 200.628C183.211 200.507 182.379 200.325 181.633 200.082C180.905 199.822 180.281 199.493 179.761 199.094C179.241 198.678 178.843 198.184 178.565 197.612C178.288 197.04 178.149 196.364 178.149 195.584V195.272C178.149 194.561 178.297 193.911 178.591 193.322C178.886 192.733 179.293 192.221 179.813 191.788C180.351 191.355 180.983 191.025 181.711 190.8C182.457 190.557 183.271 190.436 184.155 190.436C185.178 190.436 186.088 190.583 186.885 190.878C187.7 191.173 188.385 191.571 188.939 192.074C189.494 192.559 189.91 193.14 190.187 193.816C190.482 194.475 190.629 195.168 190.629 195.896V196.988H188.445V196.052ZM205.535 209H201.791L200.231 197.04H199.919L198.359 209H194.615L192.587 196.104H194.667L196.383 208.064H196.695L198.203 196.104H201.947L203.455 208.064H203.767L205.483 196.104H207.563L205.535 209ZM219.661 206.816H219.349C218.933 207.683 218.352 208.324 217.607 208.74C216.879 209.156 216.108 209.364 215.293 209.364C214.444 209.364 213.655 209.225 212.927 208.948C212.199 208.653 211.558 208.229 211.003 207.674C210.466 207.102 210.041 206.409 209.729 205.594C209.417 204.779 209.261 203.835 209.261 202.76V202.344C209.261 201.287 209.417 200.351 209.729 199.536C210.041 198.721 210.466 198.037 211.003 197.482C211.558 196.91 212.199 196.477 212.927 196.182C213.655 195.887 214.426 195.74 215.241 195.74C216.125 195.74 216.922 195.939 217.633 196.338C218.361 196.719 218.933 197.317 219.349 198.132H219.661V196.104H221.689V206.348C221.689 206.868 221.923 207.128 222.391 207.128H223.041V209H221.663C221.074 209 220.588 208.809 220.207 208.428C219.843 208.047 219.661 207.561 219.661 206.972V206.816ZM215.501 207.44C216.108 207.44 216.662 207.327 217.165 207.102C217.685 206.877 218.127 206.556 218.491 206.14C218.855 205.724 219.141 205.23 219.349 204.658C219.557 204.069 219.661 203.419 219.661 202.708V202.396C219.661 201.703 219.557 201.07 219.349 200.498C219.141 199.909 218.846 199.406 218.465 198.99C218.101 198.574 217.659 198.253 217.139 198.028C216.636 197.785 216.09 197.664 215.501 197.664C214.894 197.664 214.34 197.777 213.837 198.002C213.334 198.227 212.892 198.548 212.511 198.964C212.147 199.363 211.861 199.857 211.653 200.446C211.445 201.018 211.341 201.651 211.341 202.344V202.76C211.341 204.233 211.722 205.386 212.485 206.218C213.265 207.033 214.27 207.44 215.501 207.44ZM236.023 207.024H235.711C235.295 207.804 234.723 208.393 233.995 208.792C233.284 209.173 232.504 209.364 231.655 209.364C230.788 209.364 229.974 209.217 229.211 208.922C228.448 208.627 227.772 208.203 227.183 207.648C226.611 207.093 226.152 206.409 225.805 205.594C225.476 204.762 225.311 203.817 225.311 202.76V202.344C225.311 201.304 225.484 200.377 225.831 199.562C226.178 198.73 226.637 198.037 227.209 197.482C227.781 196.91 228.448 196.477 229.211 196.182C229.974 195.887 230.771 195.74 231.603 195.74C232.539 195.74 233.354 195.948 234.047 196.364C234.758 196.763 235.312 197.352 235.711 198.132H236.023V196.104H238.051V212.172C238.051 212.761 237.86 213.247 237.479 213.628C237.115 214.009 236.638 214.2 236.049 214.2H227.651V212.328H235.321C235.789 212.328 236.023 212.068 236.023 211.548V207.024ZM231.707 207.44C232.314 207.44 232.877 207.327 233.397 207.102C233.917 206.877 234.368 206.556 234.749 206.14C235.148 205.724 235.46 205.23 235.685 204.658C235.91 204.069 236.023 203.419 236.023 202.708V202.396C236.023 201.703 235.91 201.07 235.685 200.498C235.46 199.909 235.148 199.406 234.749 198.99C234.368 198.574 233.908 198.253 233.371 198.028C232.851 197.785 232.296 197.664 231.707 197.664C231.1 197.664 230.528 197.777 229.991 198.002C229.471 198.227 229.012 198.548 228.613 198.964C228.232 199.38 227.928 199.874 227.703 200.446C227.495 201.018 227.391 201.651 227.391 202.344V202.76C227.391 203.488 227.495 204.138 227.703 204.71C227.928 205.282 228.232 205.776 228.613 206.192C229.012 206.591 229.471 206.903 229.991 207.128C230.511 207.336 231.083 207.44 231.707 207.44ZM244.819 199.432C244.819 200.056 245.079 200.533 245.599 200.862C246.136 201.191 247.107 201.408 248.511 201.512C250.019 201.633 251.163 201.997 251.943 202.604C252.74 203.193 253.139 204.06 253.139 205.204V205.36C253.139 205.984 253.009 206.547 252.749 207.05C252.506 207.535 252.16 207.951 251.709 208.298C251.276 208.645 250.738 208.905 250.097 209.078C249.473 209.269 248.788 209.364 248.043 209.364C247.038 209.364 246.171 209.234 245.443 208.974C244.732 208.697 244.134 208.341 243.649 207.908C243.181 207.457 242.826 206.955 242.583 206.4C242.34 205.828 242.202 205.256 242.167 204.684L244.091 204.216C244.178 205.204 244.559 206.001 245.235 206.608C245.911 207.197 246.812 207.492 247.939 207.492C248.892 207.492 249.655 207.31 250.227 206.946C250.816 206.565 251.111 206.036 251.111 205.36C251.111 204.632 250.825 204.112 250.253 203.8C249.681 203.488 248.754 203.289 247.471 203.202C245.98 203.098 244.836 202.751 244.039 202.162C243.242 201.573 242.843 200.715 242.843 199.588V199.432C242.843 198.825 242.973 198.297 243.233 197.846C243.493 197.378 243.84 196.988 244.273 196.676C244.724 196.364 245.226 196.13 245.781 195.974C246.336 195.818 246.916 195.74 247.523 195.74C248.372 195.74 249.118 195.861 249.759 196.104C250.4 196.329 250.938 196.633 251.371 197.014C251.804 197.378 252.134 197.803 252.359 198.288C252.602 198.773 252.758 199.259 252.827 199.744L250.903 200.212C250.816 199.38 250.478 198.73 249.889 198.262C249.317 197.794 248.563 197.56 247.627 197.56C247.263 197.56 246.908 197.603 246.561 197.69C246.232 197.759 245.937 197.872 245.677 198.028C245.417 198.184 245.209 198.383 245.053 198.626C244.897 198.851 244.819 199.12 244.819 199.432Z" fill="#4F291E"/>
<path d="M299.908 489.944V494H274.48L275.728 487.76C276.075 486.061 276.647 484.605 277.444 483.392C278.242 482.144 279.247 481.087 280.46 480.22C281.674 479.319 283.078 478.573 284.672 477.984C286.267 477.395 288.035 476.909 289.976 476.528C291.328 476.285 292.628 475.921 293.876 475.436C295.159 474.951 296.286 474.327 297.256 473.564C298.262 472.767 299.059 471.813 299.648 470.704C300.272 469.595 300.584 468.277 300.584 466.752C300.584 465.955 300.446 465.209 300.168 464.516C299.926 463.788 299.527 463.164 298.972 462.644C298.452 462.124 297.759 461.708 296.892 461.396C296.026 461.084 295.003 460.928 293.824 460.928C291.155 460.928 288.919 461.743 287.116 463.372C285.348 465.001 284.17 467.168 283.58 469.872L283.112 472.16H278.692L279.212 469.56C279.559 467.792 280.131 466.145 280.928 464.62C281.726 463.06 282.748 461.708 283.996 460.564C285.244 459.42 286.718 458.519 288.416 457.86C290.15 457.201 292.126 456.872 294.344 456.872C296.043 456.872 297.568 457.132 298.92 457.652C300.272 458.137 301.399 458.813 302.3 459.68C303.202 460.512 303.895 461.483 304.38 462.592C304.866 463.701 305.108 464.845 305.108 466.024C305.108 470.08 303.895 473.269 301.468 475.592C299.042 477.88 295.679 479.44 291.38 480.272C289.647 480.619 288.139 481.017 286.856 481.468C285.574 481.919 284.464 482.456 283.528 483.08C282.627 483.704 281.882 484.449 281.292 485.316C280.738 486.183 280.322 487.205 280.044 488.384L279.68 489.944H299.908ZM327.796 478.504C327.9 478.019 327.97 477.62 328.004 477.308C328.039 476.961 328.056 476.615 328.056 476.268C328.056 474.604 327.554 473.373 326.548 472.576C325.578 471.744 324.208 471.328 322.44 471.328C320.083 471.328 318.159 472.177 316.668 473.876C315.178 475.54 314.155 477.672 313.6 480.272L310.688 494H306.632L312.144 468.208H316.2L315.42 471.952H316.044C316.911 470.392 318.038 469.265 319.424 468.572C320.846 467.844 322.336 467.48 323.896 467.48C325.006 467.48 326.063 467.671 327.068 468.052C328.074 468.399 328.94 468.919 329.668 469.612C330.431 470.305 331.02 471.155 331.436 472.16C331.887 473.165 332.112 474.327 332.112 475.644C332.112 476.511 332.008 477.429 331.8 478.4L329.304 489.944C329.235 490.221 329.27 490.429 329.408 490.568C329.547 490.707 329.72 490.776 329.928 490.776C330.136 490.776 330.327 490.707 330.5 490.568L332.684 488.956L334.868 492.024L332.84 493.532C331.8 494.329 330.639 494.728 329.356 494.728C328.836 494.728 328.334 494.659 327.848 494.52C327.363 494.416 326.93 494.225 326.548 493.948C326.167 493.636 325.855 493.237 325.612 492.752C325.37 492.267 325.248 491.66 325.248 490.932C325.248 490.481 325.318 489.927 325.456 489.268L327.796 478.504ZM356.412 489.944C355.303 491.781 353.985 493.047 352.46 493.74C350.935 494.399 349.323 494.728 347.624 494.728C346.237 494.728 344.972 494.485 343.828 494C342.684 493.515 341.713 492.839 340.916 491.972C340.119 491.071 339.495 489.996 339.044 488.748C338.593 487.465 338.368 486.061 338.368 484.536C338.368 482.387 338.697 480.289 339.356 478.244C340.015 476.199 340.968 474.379 342.216 472.784C343.464 471.189 344.989 469.907 346.792 468.936C348.629 467.965 350.727 467.48 353.084 467.48C354.921 467.48 356.447 467.861 357.66 468.624C358.908 469.387 359.757 470.6 360.208 472.264H360.832L364.056 456.872H368.112L361.144 489.632C361.04 490.256 361.265 490.568 361.82 490.568C362.028 490.568 362.253 490.481 362.496 490.308L364.368 488.956L366.604 492.024L364.264 493.792C363.883 494.069 363.415 494.295 362.86 494.468C362.34 494.641 361.751 494.728 361.092 494.728C360.572 494.728 360.069 494.659 359.584 494.52C359.099 494.381 358.648 494.173 358.232 493.896C357.851 493.584 357.539 493.203 357.296 492.752C357.053 492.267 356.932 491.677 356.932 490.984C356.932 490.811 356.932 490.637 356.932 490.464C356.967 490.291 357.001 490.117 357.036 489.944H356.412ZM348.872 490.88C350.259 490.88 351.576 490.568 352.824 489.944C354.107 489.285 355.216 488.401 356.152 487.292C357.123 486.183 357.885 484.883 358.44 483.392C358.995 481.867 359.272 480.22 359.272 478.452C359.272 476.303 358.735 474.587 357.66 473.304C356.585 471.987 355.025 471.328 352.98 471.328C351.351 471.328 349.895 471.692 348.612 472.42C347.364 473.113 346.289 474.049 345.388 475.228C344.487 476.372 343.793 477.707 343.308 479.232C342.857 480.757 342.632 482.335 342.632 483.964C342.632 488.575 344.712 490.88 348.872 490.88Z" fill="#4F291E"/>
</svg>
