<svg width="1292" height="135" viewBox="0 0 1292 135" fill="none" xmlns="http://www.w3.org/2000/svg">
<rect width="1292" height="135" rx="12" fill="#E35734"/>
<path d="M40.978 51H34.906V41.34C34.906 40.604 34.7067 40.006 34.308 39.546C33.94 39.086 33.3113 38.856 32.422 38.856H25.43V51H19.358V18.8H31.686C33.342 18.8 34.7987 19.03 36.056 19.49C37.3133 19.95 38.356 20.594 39.184 21.422C40.0427 22.2193 40.6867 23.1547 41.116 24.228C41.576 25.3013 41.806 26.4513 41.806 27.678V28.782C41.806 30.1007 41.4533 31.3427 40.748 32.508C40.0427 33.6427 38.954 34.5167 37.482 35.13V35.958C38.5553 36.0807 39.3987 36.4947 40.012 37.2C40.656 37.9053 40.978 38.7947 40.978 39.868V51ZM25.43 33.06H31.226C32.698 33.06 33.8173 32.7227 34.584 32.048C35.3507 31.3427 35.734 30.3613 35.734 29.104V28.552C35.734 27.4787 35.3507 26.5587 34.584 25.792C33.8173 24.9947 32.698 24.596 31.226 24.596H25.43V33.06ZM55.022 34.624C55.022 35.36 55.4053 35.8967 56.172 36.234C56.9387 36.5407 58.334 36.8013 60.358 37.016C62.6887 37.2613 64.59 37.9667 66.062 39.132C67.534 40.2667 68.27 41.8613 68.27 43.916V44.192C68.27 46.4613 67.442 48.2707 65.786 49.62C64.13 50.9693 61.7993 51.644 58.794 51.644C57.0153 51.644 55.4973 51.414 54.24 50.954C52.9827 50.494 51.94 49.9267 51.112 49.252C50.284 48.5467 49.64 47.78 49.18 46.952C48.7507 46.0933 48.4593 45.2653 48.306 44.468L53.642 42.72C53.8873 43.7013 54.3933 44.56 55.16 45.296C55.9573 46.032 57.1687 46.4 58.794 46.4C60.2353 46.4 61.2167 46.1853 61.738 45.756C62.29 45.296 62.566 44.8053 62.566 44.284C62.566 43.9773 62.4893 43.7013 62.336 43.456C62.2134 43.18 61.968 42.9347 61.6 42.72C61.232 42.4747 60.726 42.2753 60.082 42.122C59.4687 41.9687 58.6867 41.846 57.736 41.754C55.16 41.5393 53.1053 40.88 51.572 39.776C50.0693 38.6413 49.318 36.9853 49.318 34.808V34.532C49.318 33.3973 49.5633 32.4007 50.054 31.542C50.5447 30.6833 51.1887 29.9627 51.986 29.38C52.7833 28.7667 53.7033 28.3067 54.746 28C55.7887 27.6933 56.862 27.54 57.966 27.54C59.4073 27.54 60.6493 27.724 61.692 28.092C62.7653 28.4293 63.67 28.8893 64.406 29.472C65.142 30.024 65.74 30.6527 66.2 31.358C66.66 32.0327 67.0127 32.692 67.258 33.336L62.014 35.452C61.738 34.624 61.2627 33.98 60.588 33.52C59.9133 33.0293 59.0393 32.784 57.966 32.784C56.9847 32.784 56.2487 32.968 55.758 33.336C55.2673 33.6733 55.022 34.1027 55.022 34.624ZM90.778 47.274C90.778 47.8873 90.6554 48.47 90.41 49.022C90.1954 49.5433 89.8887 50.0033 89.49 50.402C89.0914 50.77 88.616 51.0613 88.064 51.276C87.5427 51.5213 86.9907 51.644 86.408 51.644C85.7947 51.644 85.2274 51.5213 84.706 51.276C84.1847 51.0613 83.7247 50.77 83.326 50.402C82.9274 50.0033 82.6054 49.5433 82.36 49.022C82.1454 48.47 82.038 47.8873 82.038 47.274C82.038 46.6607 82.1454 46.0933 82.36 45.572C82.6054 45.02 82.9274 44.56 83.326 44.192C83.7247 43.7933 84.1847 43.4867 84.706 43.272C85.2274 43.0267 85.7947 42.904 86.408 42.904C86.9907 42.904 87.5427 43.0267 88.064 43.272C88.616 43.4867 89.0914 43.7933 89.49 44.192C89.8887 44.56 90.1954 45.02 90.41 45.572C90.6554 46.0933 90.778 46.6607 90.778 47.274ZM112.642 45.204V21.836H111.814L108.778 32.876H102.982V32.324L106.846 18.8H118.714V45.204H126.718V51H103.534V45.204H112.642ZM131.424 18.8H154.056V28.276L142.418 45.296C141.805 46.216 141.314 47.0133 140.946 47.688C140.609 48.332 140.44 49.068 140.44 49.896V51H133.908V49.62C133.908 49.0067 133.954 48.4547 134.046 47.964C134.138 47.4733 134.276 46.9827 134.46 46.492C134.675 46.0013 134.951 45.48 135.288 44.928C135.625 44.376 136.039 43.732 136.53 42.996L148.536 25.424V24.596H131.424V18.8ZM166.536 47.274C166.536 46.6913 166.643 46.1393 166.858 45.618C167.103 45.066 167.425 44.606 167.824 44.238C168.223 43.8393 168.683 43.5327 169.204 43.318C169.725 43.0727 170.293 42.95 170.906 42.95C171.489 42.95 172.041 43.0727 172.562 43.318C173.114 43.5327 173.589 43.8393 173.988 44.238C174.387 44.606 174.693 45.066 174.908 45.618C175.153 46.1393 175.276 46.6913 175.276 47.274V52.886C175.276 54.0513 174.877 55.0327 174.08 55.83C173.313 56.6273 172.347 57.026 171.182 57.026H168.238V53.438H170.446C171.274 53.438 171.688 52.978 171.688 52.058V51.506C171.443 51.598 171.182 51.644 170.906 51.644C170.293 51.644 169.725 51.5213 169.204 51.276C168.683 51.0613 168.223 50.7547 167.824 50.356C167.425 49.9573 167.103 49.4973 166.858 48.976C166.643 48.4547 166.536 47.8873 166.536 47.274ZM195.208 34.9C195.208 33.8573 195.591 32.9527 196.358 32.186C197.125 31.4193 198.029 31.036 199.072 31.036C200.115 31.036 201.019 31.4193 201.786 32.186C202.553 32.9527 202.936 33.8573 202.936 34.9C202.936 35.9427 202.553 36.8473 201.786 37.614C201.019 38.3807 200.115 38.764 199.072 38.764C198.029 38.764 197.125 38.3807 196.358 37.614C195.591 36.8473 195.208 35.9427 195.208 34.9ZM187.204 31.312C187.204 27.1413 188.247 23.906 190.332 21.606C192.448 19.306 195.361 18.156 199.072 18.156C202.783 18.156 205.681 19.306 207.766 21.606C209.882 23.906 210.94 27.1413 210.94 31.312V38.488C210.94 42.7813 209.882 46.0473 207.766 48.286C205.681 50.5247 202.783 51.644 199.072 51.644C195.361 51.644 192.448 50.5247 190.332 48.286C188.247 46.0473 187.204 42.7813 187.204 38.488V31.312ZM199.072 46.124C200.176 46.124 201.096 45.9553 201.832 45.618C202.568 45.25 203.166 44.744 203.626 44.1C204.086 43.456 204.408 42.6893 204.592 41.8C204.776 40.9107 204.868 39.9293 204.868 38.856V30.944C204.868 29.932 204.761 28.9813 204.546 28.092C204.331 27.2027 203.994 26.436 203.534 25.792C203.074 25.148 202.476 24.642 201.74 24.274C201.004 23.8753 200.115 23.676 199.072 23.676C198.029 23.676 197.14 23.8753 196.404 24.274C195.668 24.642 195.07 25.148 194.61 25.792C194.15 26.436 193.813 27.2027 193.598 28.092C193.383 28.9813 193.276 29.932 193.276 30.944V38.856C193.276 39.9293 193.368 40.9107 193.552 41.8C193.736 42.6893 194.058 43.456 194.518 44.1C194.978 44.744 195.576 45.25 196.312 45.618C197.048 45.9553 197.968 46.124 199.072 46.124ZM223.374 34.9C223.374 33.8573 223.757 32.9527 224.524 32.186C225.291 31.4193 226.195 31.036 227.238 31.036C228.281 31.036 229.185 31.4193 229.952 32.186C230.719 32.9527 231.102 33.8573 231.102 34.9C231.102 35.9427 230.719 36.8473 229.952 37.614C229.185 38.3807 228.281 38.764 227.238 38.764C226.195 38.764 225.291 38.3807 224.524 37.614C223.757 36.8473 223.374 35.9427 223.374 34.9ZM215.37 31.312C215.37 27.1413 216.413 23.906 218.498 21.606C220.614 19.306 223.527 18.156 227.238 18.156C230.949 18.156 233.847 19.306 235.932 21.606C238.048 23.906 239.106 27.1413 239.106 31.312V38.488C239.106 42.7813 238.048 46.0473 235.932 48.286C233.847 50.5247 230.949 51.644 227.238 51.644C223.527 51.644 220.614 50.5247 218.498 48.286C216.413 46.0473 215.37 42.7813 215.37 38.488V31.312ZM227.238 46.124C228.342 46.124 229.262 45.9553 229.998 45.618C230.734 45.25 231.332 44.744 231.792 44.1C232.252 43.456 232.574 42.6893 232.758 41.8C232.942 40.9107 233.034 39.9293 233.034 38.856V30.944C233.034 29.932 232.927 28.9813 232.712 28.092C232.497 27.2027 232.16 26.436 231.7 25.792C231.24 25.148 230.642 24.642 229.906 24.274C229.17 23.8753 228.281 23.676 227.238 23.676C226.195 23.676 225.306 23.8753 224.57 24.274C223.834 24.642 223.236 25.148 222.776 25.792C222.316 26.436 221.979 27.2027 221.764 28.092C221.549 28.9813 221.442 29.932 221.442 30.944V38.856C221.442 39.9293 221.534 40.9107 221.718 41.8C221.902 42.6893 222.224 43.456 222.684 44.1C223.144 44.744 223.742 45.25 224.478 45.618C225.214 45.9553 226.134 46.124 227.238 46.124ZM251.54 34.9C251.54 33.8573 251.923 32.9527 252.69 32.186C253.457 31.4193 254.361 31.036 255.404 31.036C256.447 31.036 257.351 31.4193 258.118 32.186C258.885 32.9527 259.268 33.8573 259.268 34.9C259.268 35.9427 258.885 36.8473 258.118 37.614C257.351 38.3807 256.447 38.764 255.404 38.764C254.361 38.764 253.457 38.3807 252.69 37.614C251.923 36.8473 251.54 35.9427 251.54 34.9ZM243.536 31.312C243.536 27.1413 244.579 23.906 246.664 21.606C248.78 19.306 251.693 18.156 255.404 18.156C259.115 18.156 262.013 19.306 264.098 21.606C266.214 23.906 267.272 27.1413 267.272 31.312V38.488C267.272 42.7813 266.214 46.0473 264.098 48.286C262.013 50.5247 259.115 51.644 255.404 51.644C251.693 51.644 248.78 50.5247 246.664 48.286C244.579 46.0473 243.536 42.7813 243.536 38.488V31.312ZM255.404 46.124C256.508 46.124 257.428 45.9553 258.164 45.618C258.9 45.25 259.498 44.744 259.958 44.1C260.418 43.456 260.74 42.6893 260.924 41.8C261.108 40.9107 261.2 39.9293 261.2 38.856V30.944C261.2 29.932 261.093 28.9813 260.878 28.092C260.663 27.2027 260.326 26.436 259.866 25.792C259.406 25.148 258.808 24.642 258.072 24.274C257.336 23.8753 256.447 23.676 255.404 23.676C254.361 23.676 253.472 23.8753 252.736 24.274C252 24.642 251.402 25.148 250.942 25.792C250.482 26.436 250.145 27.2027 249.93 28.092C249.715 28.9813 249.608 29.932 249.608 30.944V38.856C249.608 39.9293 249.7 40.9107 249.884 41.8C250.068 42.6893 250.39 43.456 250.85 44.1C251.31 44.744 251.908 45.25 252.644 45.618C253.38 45.9553 254.3 46.124 255.404 46.124Z" fill="white"/>
<path d="M18.328 82.736H22.48V78.584H24.208V82.736H28.36V84.464H24.208V88.616H22.48V84.464H18.328V82.736ZM51.1266 83.936H58.6146V92H56.7426V89.984H56.4546C56.1826 90.688 55.7026 91.256 55.0146 91.688C54.3266 92.12 53.5266 92.336 52.6146 92.336C50.8066 92.336 49.3826 91.752 48.3426 90.584C47.3186 89.416 46.8066 87.712 46.8066 85.472V81.728C46.8066 79.552 47.3266 77.864 48.3666 76.664C49.4066 75.464 50.8546 74.864 52.7106 74.864C53.6706 74.864 54.5186 75.024 55.2546 75.344C55.9906 75.648 56.6066 76.08 57.1026 76.64C57.5986 77.184 57.9746 77.832 58.2306 78.584C58.4866 79.32 58.6146 80.112 58.6146 80.96V81.248H56.5986V80.96C56.5986 80.416 56.5186 79.888 56.3586 79.376C56.2146 78.864 55.9826 78.416 55.6626 78.032C55.3586 77.632 54.9586 77.32 54.4626 77.096C53.9826 76.856 53.3986 76.736 52.7106 76.736C51.4146 76.736 50.4386 77.208 49.7826 78.152C49.1426 79.096 48.8226 80.336 48.8226 81.872V85.328C48.8226 86.976 49.1426 88.248 49.7826 89.144C50.4386 90.024 51.4306 90.464 52.7586 90.464C53.9586 90.464 54.8946 90.08 55.5666 89.312C56.2546 88.544 56.5986 87.472 56.5986 86.096V85.808H51.1266V83.936ZM65.8699 76.544C65.8699 76.08 66.0299 75.688 66.3499 75.368C66.6859 75.032 67.0859 74.864 67.5499 74.864C68.0139 74.864 68.4059 75.032 68.7259 75.368C69.0619 75.688 69.2299 76.08 69.2299 76.544C69.2299 77.008 69.0619 77.408 68.7259 77.744C68.4059 78.064 68.0139 78.224 67.5499 78.224C67.0859 78.224 66.6859 78.064 66.3499 77.744C66.0299 77.408 65.8699 77.008 65.8699 76.544ZM62.4619 90.272H66.6379V81.824H62.8939V80.096H68.5099V90.272H72.3979V92H62.4619V90.272ZM76.4613 80.096H80.2053V75.2H82.0773V80.096H86.6853V81.824H82.0773V89.552C82.0773 90.032 82.2933 90.272 82.7253 90.272H86.1093V92H82.0533C81.5093 92 81.0613 91.824 80.7093 91.472C80.3733 91.12 80.2053 90.672 80.2053 90.128V81.824H76.4613V80.096ZM93.4366 92H91.5646V75.2H93.4366V82.256H93.7246C94.0926 81.488 94.6046 80.88 95.2606 80.432C95.9326 79.984 96.7486 79.76 97.7086 79.76C99.0046 79.76 100.053 80.192 100.853 81.056C101.669 81.904 102.077 83.184 102.077 84.896V92H100.205V85.28C100.205 84.032 99.9246 83.096 99.3646 82.472C98.8046 81.848 98.0446 81.536 97.0846 81.536C95.9486 81.536 95.0526 81.928 94.3966 82.712C93.7566 83.48 93.4366 84.512 93.4366 85.808V92ZM114.756 80.096H116.628V92H114.756V89.84H114.468C114.084 90.608 113.58 91.216 112.956 91.664C112.332 92.112 111.54 92.336 110.58 92.336C109.924 92.336 109.316 92.224 108.756 92C108.212 91.792 107.74 91.472 107.34 91.04C106.956 90.608 106.652 90.072 106.428 89.432C106.22 88.792 106.116 88.048 106.116 87.2V80.096H107.988V86.96C107.988 88.208 108.244 89.12 108.756 89.696C109.268 90.272 110.052 90.56 111.108 90.56C112.244 90.56 113.132 90.176 113.772 89.408C114.428 88.624 114.756 87.584 114.756 86.288V80.096ZM122.395 92H120.523V75.2H122.395V81.968H122.683C123.099 81.248 123.675 80.704 124.411 80.336C125.147 79.952 125.947 79.76 126.811 79.76C127.547 79.76 128.243 79.896 128.899 80.168C129.555 80.44 130.131 80.832 130.627 81.344C131.139 81.856 131.539 82.488 131.827 83.24C132.131 83.992 132.283 84.848 132.283 85.808V86.288C132.283 87.264 132.139 88.128 131.851 88.88C131.563 89.632 131.163 90.264 130.651 90.776C130.155 91.288 129.571 91.68 128.899 91.952C128.227 92.208 127.515 92.336 126.763 92.336C126.379 92.336 125.987 92.288 125.587 92.192C125.187 92.112 124.803 91.984 124.435 91.808C124.083 91.616 123.755 91.392 123.451 91.136C123.147 90.864 122.891 90.544 122.683 90.176H122.395V92ZM126.379 90.56C126.955 90.56 127.483 90.464 127.963 90.272C128.443 90.064 128.859 89.776 129.211 89.408C129.579 89.04 129.859 88.592 130.051 88.064C130.259 87.536 130.363 86.944 130.363 86.288V85.808C130.363 85.168 130.259 84.592 130.051 84.08C129.859 83.552 129.579 83.104 129.211 82.736C128.859 82.352 128.435 82.056 127.939 81.848C127.459 81.64 126.939 81.536 126.379 81.536C125.819 81.536 125.299 81.648 124.819 81.872C124.339 82.08 123.915 82.376 123.547 82.76C123.195 83.144 122.915 83.608 122.707 84.152C122.499 84.68 122.395 85.264 122.395 85.904V86.192C122.395 86.848 122.499 87.448 122.707 87.992C122.915 88.52 123.195 88.976 123.547 89.36C123.915 89.744 124.339 90.04 124.819 90.248C125.299 90.456 125.819 90.56 126.379 90.56ZM152.314 85.088V92H150.298V75.2H156.298C157.162 75.2 157.914 75.328 158.554 75.584C159.194 75.824 159.722 76.152 160.138 76.568C160.57 76.984 160.89 77.472 161.098 78.032C161.322 78.576 161.434 79.152 161.434 79.76V80.48C161.434 81.088 161.322 81.672 161.098 82.232C160.89 82.792 160.57 83.288 160.138 83.72C159.706 84.136 159.17 84.472 158.53 84.728C157.89 84.968 157.146 85.088 156.298 85.088H152.314ZM152.314 83.216H156.058C158.298 83.216 159.418 82.256 159.418 80.336V79.904C159.418 79.056 159.138 78.376 158.578 77.864C158.034 77.336 157.194 77.072 156.058 77.072H152.314V83.216ZM164.369 80.096H168.689V81.68H168.977C169.281 81.024 169.713 80.544 170.273 80.24C170.833 79.92 171.473 79.76 172.193 79.76C173.393 79.76 174.361 80.152 175.097 80.936C175.833 81.72 176.225 82.864 176.273 84.368L174.305 84.656C174.305 83.552 174.041 82.76 173.513 82.28C172.985 81.784 172.337 81.536 171.569 81.536C171.073 81.536 170.641 81.632 170.273 81.824C169.921 82.016 169.625 82.28 169.385 82.616C169.145 82.952 168.969 83.344 168.857 83.792C168.745 84.24 168.689 84.72 168.689 85.232V90.272H171.713V92H164.081V90.272H166.817V81.824H164.369V80.096ZM190.968 86.192C190.968 87.184 190.8 88.064 190.464 88.832C190.144 89.584 189.712 90.224 189.168 90.752C188.624 91.264 187.984 91.656 187.248 91.928C186.528 92.2 185.776 92.336 184.992 92.336C184.192 92.336 183.432 92.2 182.712 91.928C181.992 91.656 181.36 91.264 180.816 90.752C180.272 90.224 179.832 89.584 179.496 88.832C179.176 88.064 179.016 87.184 179.016 86.192V85.904C179.016 84.928 179.176 84.064 179.496 83.312C179.832 82.544 180.272 81.896 180.816 81.368C181.376 80.84 182.016 80.44 182.736 80.168C183.456 79.896 184.208 79.76 184.992 79.76C185.776 79.76 186.528 79.896 187.248 80.168C187.968 80.44 188.6 80.84 189.144 81.368C189.704 81.896 190.144 82.544 190.464 83.312C190.8 84.064 190.968 84.928 190.968 85.904V86.192ZM184.992 90.56C185.568 90.56 186.096 90.464 186.576 90.272C187.072 90.064 187.504 89.768 187.872 89.384C188.24 89 188.528 88.544 188.736 88.016C188.944 87.472 189.048 86.864 189.048 86.192V85.904C189.048 85.264 188.944 84.68 188.736 84.152C188.528 83.608 188.24 83.144 187.872 82.76C187.504 82.376 187.072 82.08 186.576 81.872C186.08 81.648 185.552 81.536 184.992 81.536C184.432 81.536 183.904 81.648 183.408 81.872C182.912 82.08 182.48 82.376 182.112 82.76C181.744 83.144 181.456 83.608 181.248 84.152C181.04 84.68 180.936 85.264 180.936 85.904V86.192C180.936 86.864 181.04 87.472 181.248 88.016C181.456 88.544 181.744 89 182.112 89.384C182.48 89.768 182.904 90.064 183.384 90.272C183.88 90.464 184.416 90.56 184.992 90.56ZM213.495 90.128V76.088H213.207L210.447 82.4H208.455V82.256L211.599 75.2H215.511V90.128H220.263V92H208.743V90.128H213.495ZM242.766 86.096H242.334L237.078 75.2H239.334L243.63 84.368H243.918L248.214 75.2H250.47L245.214 86.096H244.782V92H242.766V86.096ZM254.581 86.624C254.629 87.808 254.997 88.76 255.685 89.48C256.373 90.2 257.333 90.56 258.565 90.56C259.125 90.56 259.613 90.496 260.029 90.368C260.445 90.24 260.797 90.064 261.085 89.84C261.389 89.616 261.629 89.36 261.805 89.072C261.997 88.768 262.149 88.448 262.261 88.112L264.037 88.592C263.701 89.696 263.077 90.6 262.165 91.304C261.269 91.992 260.053 92.336 258.517 92.336C257.669 92.336 256.885 92.192 256.165 91.904C255.461 91.6 254.853 91.176 254.341 90.632C253.829 90.088 253.429 89.44 253.141 88.688C252.853 87.936 252.709 87.104 252.709 86.192V85.616C252.709 84.784 252.853 84.008 253.141 83.288C253.445 82.568 253.861 81.952 254.389 81.44C254.917 80.912 255.533 80.504 256.237 80.216C256.957 79.912 257.733 79.76 258.565 79.76C259.541 79.76 260.381 79.944 261.085 80.312C261.805 80.664 262.389 81.104 262.837 81.632C263.301 82.16 263.637 82.736 263.845 83.36C264.069 83.984 264.181 84.56 264.181 85.088V86.624H254.581ZM258.565 81.536C258.037 81.536 257.541 81.624 257.077 81.8C256.629 81.96 256.229 82.192 255.877 82.496C255.541 82.8 255.261 83.16 255.037 83.576C254.829 83.976 254.693 84.416 254.629 84.896H262.309C262.277 84.384 262.149 83.92 261.925 83.504C261.717 83.088 261.437 82.736 261.085 82.448C260.749 82.16 260.357 81.936 259.909 81.776C259.477 81.616 259.029 81.536 258.565 81.536ZM276.548 89.984H276.26C275.876 90.784 275.34 91.376 274.652 91.76C273.98 92.144 273.268 92.336 272.516 92.336C271.732 92.336 271.004 92.208 270.332 91.952C269.66 91.68 269.068 91.288 268.556 90.776C268.06 90.248 267.668 89.608 267.38 88.856C267.092 88.104 266.948 87.232 266.948 86.24V85.856C266.948 84.88 267.092 84.016 267.38 83.264C267.668 82.512 268.06 81.88 268.556 81.368C269.068 80.84 269.66 80.44 270.332 80.168C271.004 79.896 271.716 79.76 272.468 79.76C273.284 79.76 274.02 79.944 274.676 80.312C275.348 80.664 275.876 81.216 276.26 81.968H276.548V80.096H278.42V89.552C278.42 90.032 278.636 90.272 279.068 90.272H279.668V92H278.396C277.852 92 277.404 91.824 277.052 91.472C276.716 91.12 276.548 90.672 276.548 90.128V89.984ZM272.708 90.56C273.268 90.56 273.78 90.456 274.244 90.248C274.724 90.04 275.132 89.744 275.468 89.36C275.804 88.976 276.068 88.52 276.26 87.992C276.452 87.448 276.548 86.848 276.548 86.192V85.904C276.548 85.264 276.452 84.68 276.26 84.152C276.068 83.608 275.796 83.144 275.444 82.76C275.108 82.376 274.7 82.08 274.22 81.872C273.756 81.648 273.252 81.536 272.708 81.536C272.148 81.536 271.636 81.64 271.172 81.848C270.708 82.056 270.3 82.352 269.948 82.736C269.612 83.104 269.348 83.56 269.156 84.104C268.964 84.632 268.868 85.216 268.868 85.856V86.24C268.868 87.6 269.22 88.664 269.924 89.432C270.644 90.184 271.572 90.56 272.708 90.56ZM281.932 80.096H286.252V81.68H286.54C286.844 81.024 287.276 80.544 287.836 80.24C288.396 79.92 289.036 79.76 289.756 79.76C290.956 79.76 291.924 80.152 292.66 80.936C293.396 81.72 293.788 82.864 293.836 84.368L291.868 84.656C291.868 83.552 291.604 82.76 291.076 82.28C290.548 81.784 289.9 81.536 289.132 81.536C288.636 81.536 288.204 81.632 287.836 81.824C287.484 82.016 287.188 82.28 286.948 82.616C286.708 82.952 286.532 83.344 286.42 83.792C286.308 84.24 286.252 84.72 286.252 85.232V90.272H289.276V92H281.644V90.272H284.38V81.824H281.932V80.096ZM311.01 75.2H314.85L317.106 91.136H317.394L319.65 75.2H323.49V92H321.618V76.064H321.33L319.074 92H315.426L313.17 76.064H312.882V92H311.01V75.2ZM328.058 86.624C328.106 87.808 328.474 88.76 329.162 89.48C329.85 90.2 330.81 90.56 332.042 90.56C332.602 90.56 333.09 90.496 333.506 90.368C333.922 90.24 334.274 90.064 334.562 89.84C334.866 89.616 335.106 89.36 335.282 89.072C335.474 88.768 335.626 88.448 335.738 88.112L337.514 88.592C337.178 89.696 336.554 90.6 335.642 91.304C334.746 91.992 333.53 92.336 331.994 92.336C331.146 92.336 330.362 92.192 329.642 91.904C328.938 91.6 328.33 91.176 327.818 90.632C327.306 90.088 326.906 89.44 326.618 88.688C326.33 87.936 326.186 87.104 326.186 86.192V85.616C326.186 84.784 326.33 84.008 326.618 83.288C326.922 82.568 327.338 81.952 327.866 81.44C328.394 80.912 329.01 80.504 329.714 80.216C330.434 79.912 331.21 79.76 332.042 79.76C333.018 79.76 333.858 79.944 334.562 80.312C335.282 80.664 335.866 81.104 336.314 81.632C336.778 82.16 337.114 82.736 337.322 83.36C337.546 83.984 337.658 84.56 337.658 85.088V86.624H328.058ZM332.042 81.536C331.514 81.536 331.018 81.624 330.554 81.8C330.106 81.96 329.706 82.192 329.354 82.496C329.018 82.8 328.738 83.16 328.514 83.576C328.306 83.976 328.17 84.416 328.106 84.896H335.786C335.754 84.384 335.626 83.92 335.402 83.504C335.194 83.088 334.914 82.736 334.562 82.448C334.226 82.16 333.834 81.936 333.386 81.776C332.954 81.616 332.506 81.536 332.042 81.536ZM352.833 92H350.961V83.456C350.961 82.896 350.833 82.44 350.577 82.088C350.321 81.72 349.913 81.536 349.353 81.536C348.825 81.536 348.393 81.736 348.057 82.136C347.737 82.52 347.577 83.12 347.577 83.936V92H345.705V83.36C345.705 82.832 345.561 82.4 345.273 82.064C344.985 81.712 344.601 81.536 344.121 81.536C343.545 81.536 343.097 81.744 342.777 82.16C342.473 82.576 342.321 83.12 342.321 83.792V92H340.449V80.096H342.321V81.392H342.609C342.817 80.832 343.121 80.424 343.521 80.168C343.921 79.896 344.393 79.76 344.937 79.76C345.513 79.76 345.985 79.912 346.353 80.216C346.737 80.52 347.001 80.912 347.145 81.392H347.433C347.977 80.304 348.841 79.76 350.025 79.76C350.921 79.76 351.609 80.048 352.089 80.624C352.585 81.184 352.833 81.92 352.833 82.832V92ZM357.52 92H355.648V75.2H357.52V81.968H357.808C358.224 81.248 358.8 80.704 359.536 80.336C360.272 79.952 361.072 79.76 361.936 79.76C362.672 79.76 363.368 79.896 364.024 80.168C364.68 80.44 365.256 80.832 365.752 81.344C366.264 81.856 366.664 82.488 366.952 83.24C367.256 83.992 367.408 84.848 367.408 85.808V86.288C367.408 87.264 367.264 88.128 366.976 88.88C366.688 89.632 366.288 90.264 365.776 90.776C365.28 91.288 364.696 91.68 364.024 91.952C363.352 92.208 362.64 92.336 361.888 92.336C361.504 92.336 361.112 92.288 360.712 92.192C360.312 92.112 359.928 91.984 359.56 91.808C359.208 91.616 358.88 91.392 358.576 91.136C358.272 90.864 358.016 90.544 357.808 90.176H357.52V92ZM361.504 90.56C362.08 90.56 362.608 90.464 363.088 90.272C363.568 90.064 363.984 89.776 364.336 89.408C364.704 89.04 364.984 88.592 365.176 88.064C365.384 87.536 365.488 86.944 365.488 86.288V85.808C365.488 85.168 365.384 84.592 365.176 84.08C364.984 83.552 364.704 83.104 364.336 82.736C363.984 82.352 363.56 82.056 363.064 81.848C362.584 81.64 362.064 81.536 361.504 81.536C360.944 81.536 360.424 81.648 359.944 81.872C359.464 82.08 359.04 82.376 358.672 82.76C358.32 83.144 358.04 83.608 357.832 84.152C357.624 84.68 357.52 85.264 357.52 85.904V86.192C357.52 86.848 357.624 87.448 357.832 87.992C358.04 88.52 358.32 88.976 358.672 89.36C359.04 89.744 359.464 90.04 359.944 90.248C360.424 90.456 360.944 90.56 361.504 90.56ZM372.144 86.624C372.192 87.808 372.56 88.76 373.248 89.48C373.936 90.2 374.896 90.56 376.128 90.56C376.688 90.56 377.176 90.496 377.592 90.368C378.008 90.24 378.36 90.064 378.648 89.84C378.952 89.616 379.192 89.36 379.368 89.072C379.56 88.768 379.712 88.448 379.824 88.112L381.6 88.592C381.264 89.696 380.64 90.6 379.728 91.304C378.832 91.992 377.616 92.336 376.08 92.336C375.232 92.336 374.448 92.192 373.728 91.904C373.024 91.6 372.416 91.176 371.904 90.632C371.392 90.088 370.992 89.44 370.704 88.688C370.416 87.936 370.271 87.104 370.271 86.192V85.616C370.271 84.784 370.416 84.008 370.704 83.288C371.008 82.568 371.424 81.952 371.952 81.44C372.48 80.912 373.096 80.504 373.8 80.216C374.52 79.912 375.296 79.76 376.128 79.76C377.104 79.76 377.944 79.944 378.648 80.312C379.368 80.664 379.952 81.104 380.4 81.632C380.864 82.16 381.2 82.736 381.408 83.36C381.632 83.984 381.744 84.56 381.744 85.088V86.624H372.144ZM376.128 81.536C375.6 81.536 375.104 81.624 374.64 81.8C374.192 81.96 373.792 82.192 373.44 82.496C373.104 82.8 372.824 83.16 372.6 83.576C372.392 83.976 372.256 84.416 372.192 84.896H379.872C379.84 84.384 379.712 83.92 379.488 83.504C379.28 83.088 379 82.736 378.648 82.448C378.312 82.16 377.92 81.936 377.472 81.776C377.04 81.616 376.592 81.536 376.128 81.536ZM384.799 80.096H389.119V81.68H389.407C389.711 81.024 390.143 80.544 390.703 80.24C391.263 79.92 391.903 79.76 392.623 79.76C393.823 79.76 394.791 80.152 395.527 80.936C396.263 81.72 396.655 82.864 396.703 84.368L394.735 84.656C394.735 83.552 394.471 82.76 393.943 82.28C393.415 81.784 392.767 81.536 391.999 81.536C391.503 81.536 391.071 81.632 390.703 81.824C390.351 82.016 390.055 82.28 389.815 82.616C389.575 82.952 389.399 83.344 389.287 83.792C389.175 84.24 389.119 84.72 389.119 85.232V90.272H392.143V92H384.511V90.272H387.247V81.824H384.799V80.096ZM402.638 83.168C402.638 83.744 402.878 84.184 403.358 84.488C403.854 84.792 404.75 84.992 406.046 85.088C407.438 85.2 408.494 85.536 409.214 86.096C409.95 86.64 410.318 87.44 410.318 88.496V88.64C410.318 89.216 410.198 89.736 409.958 90.2C409.734 90.648 409.414 91.032 408.998 91.352C408.598 91.672 408.102 91.912 407.51 92.072C406.934 92.248 406.302 92.336 405.614 92.336C404.686 92.336 403.886 92.216 403.214 91.976C402.558 91.72 402.006 91.392 401.558 90.992C401.126 90.576 400.798 90.112 400.574 89.6C400.35 89.072 400.222 88.544 400.19 88.016L401.966 87.584C402.046 88.496 402.398 89.232 403.022 89.792C403.646 90.336 404.478 90.608 405.518 90.608C406.398 90.608 407.102 90.44 407.63 90.104C408.174 89.752 408.446 89.264 408.446 88.64C408.446 87.968 408.182 87.488 407.654 87.2C407.126 86.912 406.27 86.728 405.086 86.648C403.71 86.552 402.654 86.232 401.918 85.688C401.182 85.144 400.814 84.352 400.814 83.312V83.168C400.814 82.608 400.934 82.12 401.174 81.704C401.414 81.272 401.734 80.912 402.134 80.624C402.55 80.336 403.014 80.12 403.526 79.976C404.038 79.832 404.574 79.76 405.134 79.76C405.918 79.76 406.606 79.872 407.198 80.096C407.79 80.304 408.286 80.584 408.686 80.936C409.086 81.272 409.39 81.664 409.598 82.112C409.822 82.56 409.966 83.008 410.03 83.456L408.254 83.888C408.174 83.12 407.862 82.52 407.318 82.088C406.79 81.656 406.094 81.44 405.23 81.44C404.894 81.44 404.566 81.48 404.246 81.56C403.942 81.624 403.67 81.728 403.43 81.872C403.19 82.016 402.998 82.2 402.854 82.424C402.71 82.632 402.638 82.88 402.638 83.168ZM416.733 92H414.861V75.2H416.733V82.256H417.021C417.389 81.488 417.901 80.88 418.557 80.432C419.229 79.984 420.045 79.76 421.005 79.76C422.301 79.76 423.349 80.192 424.149 81.056C424.965 81.904 425.373 83.184 425.373 84.896V92H423.501V85.28C423.501 84.032 423.221 83.096 422.661 82.472C422.101 81.848 421.341 81.536 420.381 81.536C419.245 81.536 418.349 81.928 417.693 82.712C417.053 83.48 416.733 84.512 416.733 85.808V92ZM433.253 76.544C433.253 76.08 433.413 75.688 433.733 75.368C434.069 75.032 434.469 74.864 434.933 74.864C435.397 74.864 435.789 75.032 436.109 75.368C436.445 75.688 436.613 76.08 436.613 76.544C436.613 77.008 436.445 77.408 436.109 77.744C435.789 78.064 435.397 78.224 434.933 78.224C434.469 78.224 434.069 78.064 433.733 77.744C433.413 77.408 433.253 77.008 433.253 76.544ZM429.845 90.272H434.021V81.824H430.277V80.096H435.893V90.272H439.781V92H429.845V90.272ZM445.692 96.8H443.82V80.096H445.692V81.968H445.98C446.396 81.248 446.972 80.704 447.708 80.336C448.444 79.952 449.244 79.76 450.108 79.76C450.844 79.76 451.54 79.896 452.196 80.168C452.852 80.44 453.428 80.832 453.924 81.344C454.436 81.856 454.836 82.488 455.124 83.24C455.428 83.992 455.58 84.848 455.58 85.808V86.288C455.58 87.264 455.436 88.128 455.148 88.88C454.86 89.632 454.46 90.264 453.948 90.776C453.452 91.288 452.868 91.68 452.196 91.952C451.524 92.208 450.812 92.336 450.06 92.336C449.676 92.336 449.284 92.288 448.884 92.192C448.484 92.112 448.1 91.984 447.732 91.808C447.38 91.616 447.052 91.392 446.748 91.136C446.444 90.864 446.188 90.544 445.98 90.176H445.692V96.8ZM449.676 90.56C450.252 90.56 450.78 90.464 451.26 90.272C451.74 90.064 452.156 89.776 452.508 89.408C452.876 89.04 453.156 88.592 453.348 88.064C453.556 87.536 453.66 86.944 453.66 86.288V85.808C453.66 85.168 453.556 84.592 453.348 84.08C453.156 83.552 452.876 83.104 452.508 82.736C452.156 82.352 451.732 82.056 451.236 81.848C450.756 81.64 450.236 81.536 449.676 81.536C449.116 81.536 448.596 81.648 448.116 81.872C447.636 82.08 447.212 82.376 446.844 82.76C446.492 83.144 446.212 83.608 446.004 84.152C445.796 84.68 445.692 85.264 445.692 85.904V86.192C445.692 86.848 445.796 87.448 446.004 87.992C446.212 88.52 446.492 88.976 446.844 89.36C447.212 89.744 447.636 90.04 448.116 90.248C448.596 90.456 449.116 90.56 449.676 90.56Z" fill="white" fill-opacity="0.88"/>
<path d="M1022.19 96.8H1040.3V99.608H1032.99L1028.24 122H1025.22L1029.97 99.608H1022.19V96.8ZM1047.51 107.24C1047.58 106.952 1047.55 106.736 1047.4 106.592C1047.26 106.424 1047.08 106.34 1046.86 106.34C1046.67 106.34 1046.49 106.4 1046.32 106.52L1043.05 108.752L1041.61 106.628L1044.81 104.468C1045.63 103.916 1046.46 103.64 1047.3 103.64C1048.04 103.64 1048.69 103.856 1049.24 104.288C1049.79 104.696 1050.1 105.368 1050.18 106.304H1050.61C1051.3 105.32 1052.08 104.636 1052.95 104.252C1053.81 103.844 1054.71 103.64 1055.65 103.64C1057.38 103.64 1058.73 104.144 1059.72 105.152C1060.7 106.136 1061.19 107.444 1061.19 109.076C1061.19 109.7 1061.12 110.336 1060.98 110.984L1057.92 111.2C1058.04 110.6 1058.1 110.096 1058.1 109.688C1058.1 108.536 1057.77 107.684 1057.12 107.132C1056.5 106.58 1055.68 106.304 1054.68 106.304C1053.96 106.304 1053.3 106.448 1052.7 106.736C1052.12 107 1051.62 107.372 1051.18 107.852C1050.75 108.308 1050.38 108.848 1050.07 109.472C1049.78 110.096 1049.56 110.744 1049.42 111.416L1047.73 119.408H1051.98V122H1040.53V119.408H1044.92L1047.51 107.24ZM1075.06 119.192C1074.32 120.464 1073.43 121.34 1072.4 121.82C1071.39 122.276 1070.32 122.504 1069.19 122.504C1068.23 122.504 1067.37 122.336 1066.6 122C1065.83 121.64 1065.19 121.148 1064.66 120.524C1064.13 119.9 1063.72 119.156 1063.43 118.292C1063.15 117.404 1063 116.432 1063 115.376C1063 113.864 1063.22 112.4 1063.65 110.984C1064.08 109.568 1064.71 108.32 1065.52 107.24C1066.36 106.16 1067.39 105.296 1068.62 104.648C1069.84 103.976 1071.26 103.64 1072.87 103.64C1074.09 103.64 1075.13 103.928 1076 104.504C1076.86 105.056 1077.43 105.872 1077.69 106.952H1078.12L1078.7 104.144H1081.51L1078.34 118.976C1078.29 119.192 1078.31 119.36 1078.41 119.48C1078.51 119.576 1078.64 119.624 1078.81 119.624C1078.97 119.624 1079.14 119.564 1079.31 119.444L1080.61 118.508L1082.12 120.632L1080.5 121.856C1080.23 122.048 1079.9 122.204 1079.49 122.324C1079.11 122.444 1078.71 122.504 1078.3 122.504C1077.94 122.504 1077.59 122.456 1077.26 122.36C1076.92 122.264 1076.61 122.12 1076.32 121.928C1076.06 121.712 1075.84 121.448 1075.67 121.136C1075.51 120.8 1075.42 120.392 1075.42 119.912C1075.42 119.792 1075.42 119.672 1075.42 119.552C1075.45 119.432 1075.47 119.312 1075.49 119.192H1075.06ZM1070.06 119.84C1071.02 119.84 1071.92 119.624 1072.76 119.192C1073.62 118.736 1074.37 118.124 1074.99 117.356C1075.64 116.588 1076.14 115.688 1076.5 114.656C1076.86 113.6 1077.04 112.46 1077.04 111.236C1077.04 109.748 1076.71 108.56 1076.03 107.672C1075.36 106.76 1074.32 106.304 1072.9 106.304C1071.77 106.304 1070.78 106.544 1069.91 107.024C1069.07 107.504 1068.35 108.152 1067.75 108.968C1067.15 109.76 1066.7 110.684 1066.39 111.74C1066.1 112.796 1065.95 113.888 1065.95 115.016C1065.95 116.6 1066.3 117.8 1067 118.616C1067.69 119.432 1068.71 119.84 1070.06 119.84ZM1102.97 115.88C1102.66 116.792 1102.23 117.656 1101.68 118.472C1101.13 119.264 1100.43 119.96 1099.59 120.56C1098.77 121.16 1097.81 121.64 1096.71 122C1095.63 122.336 1094.41 122.504 1093.04 122.504C1091.91 122.504 1090.88 122.336 1089.94 122C1089.03 121.64 1088.25 121.136 1087.6 120.488C1086.95 119.84 1086.45 119.06 1086.09 118.148C1085.73 117.236 1085.55 116.216 1085.55 115.088C1085.55 113.528 1085.81 112.052 1086.34 110.66C1086.89 109.268 1087.66 108.056 1088.65 107.024C1089.63 105.968 1090.82 105.14 1092.21 104.54C1093.6 103.94 1095.15 103.64 1096.85 103.64C1097.96 103.64 1098.95 103.796 1099.84 104.108C1100.73 104.42 1101.49 104.864 1102.11 105.44C1102.73 105.992 1103.21 106.664 1103.55 107.456C1103.89 108.224 1104.05 109.076 1104.05 110.012C1104.05 110.06 1104.05 110.12 1104.05 110.192C1104.05 110.24 1104.04 110.36 1104.02 110.552L1101.14 110.984C1101.16 110.84 1101.17 110.732 1101.17 110.66C1101.17 110.588 1101.17 110.504 1101.17 110.408C1101.17 109.832 1101.08 109.304 1100.89 108.824C1100.72 108.32 1100.43 107.888 1100.02 107.528C1099.64 107.144 1099.13 106.844 1098.51 106.628C1097.91 106.412 1097.19 106.304 1096.35 106.304C1095.22 106.304 1094.18 106.532 1093.22 106.988C1092.28 107.444 1091.45 108.068 1090.73 108.86C1090.04 109.628 1089.49 110.528 1089.08 111.56C1088.69 112.592 1088.5 113.672 1088.5 114.8C1088.5 116.504 1088.96 117.776 1089.87 118.616C1090.78 119.432 1092.03 119.84 1093.61 119.84C1094.57 119.84 1095.43 119.708 1096.17 119.444C1096.91 119.156 1097.56 118.796 1098.11 118.364C1098.67 117.908 1099.12 117.392 1099.48 116.816C1099.84 116.24 1100.12 115.64 1100.31 115.016L1102.97 115.88ZM1116.7 96.332L1113.5 111.56H1113.93L1122.86 103.712L1124.58 105.548L1116.63 112.532V113.18L1121.27 119.516C1121.42 119.684 1121.57 119.768 1121.74 119.768C1121.88 119.768 1122.04 119.708 1122.21 119.588L1123.94 118.328L1125.45 120.452L1123.83 121.676C1123.49 121.94 1123.14 122.144 1122.78 122.288C1122.42 122.432 1122.04 122.504 1121.63 122.504C1121.15 122.504 1120.68 122.384 1120.23 122.144C1119.8 121.904 1119.38 121.508 1118.97 120.956L1114 114.152H1112.92L1111.26 122H1108.46L1113.89 96.332H1116.7ZM1166.94 122H1161.4L1164.31 98.096H1163.88L1156.72 122H1151.17L1154.16 96.8H1156.9L1154.05 120.704H1154.49L1161.54 96.8H1167.16L1164.13 120.704H1164.57L1171.84 96.8H1174.65L1166.94 122ZM1183.69 98.816C1183.69 98.12 1183.93 97.532 1184.41 97.052C1184.92 96.548 1185.52 96.296 1186.21 96.296C1186.91 96.296 1187.5 96.548 1187.98 97.052C1188.48 97.532 1188.73 98.12 1188.73 98.816C1188.73 99.512 1188.48 100.112 1187.98 100.616C1187.5 101.096 1186.91 101.336 1186.21 101.336C1185.52 101.336 1184.92 101.096 1184.41 100.616C1183.93 100.112 1183.69 99.512 1183.69 98.816ZM1183.12 107.276C1183.17 107.036 1183.13 106.832 1183.01 106.664C1182.91 106.472 1182.73 106.376 1182.47 106.376C1182.28 106.376 1182.1 106.424 1181.93 106.52L1177.72 109.4L1176.28 107.276L1180.53 104.396C1181.27 103.892 1182.07 103.64 1182.94 103.64C1183.75 103.64 1184.46 103.88 1185.06 104.36C1185.66 104.84 1185.96 105.584 1185.96 106.592C1185.96 106.976 1185.91 107.36 1185.82 107.744L1183.15 118.868C1183.08 119.156 1183.11 119.384 1183.23 119.552C1183.37 119.72 1183.55 119.804 1183.77 119.804C1183.93 119.804 1184.11 119.744 1184.31 119.624L1188.45 116.816L1189.89 118.94L1185.75 121.748C1184.98 122.252 1184.17 122.504 1183.33 122.504C1182.52 122.504 1181.81 122.264 1181.21 121.784C1180.61 121.304 1180.31 120.56 1180.31 119.552C1180.31 119.168 1180.36 118.784 1180.45 118.4L1183.12 107.276ZM1209.7 111.272C1209.77 110.936 1209.82 110.66 1209.84 110.444C1209.86 110.204 1209.88 109.964 1209.88 109.724C1209.88 108.572 1209.53 107.72 1208.83 107.168C1208.16 106.592 1207.21 106.304 1205.99 106.304C1204.36 106.304 1203.02 106.892 1201.99 108.068C1200.96 109.22 1200.25 110.696 1199.87 112.496L1197.85 122H1195.04L1198.86 104.144H1201.67L1201.13 106.736H1201.56C1202.16 105.656 1202.94 104.876 1203.9 104.396C1204.88 103.892 1205.92 103.64 1207 103.64C1207.76 103.64 1208.5 103.772 1209.19 104.036C1209.89 104.276 1210.49 104.636 1210.99 105.116C1211.52 105.596 1211.93 106.184 1212.22 106.88C1212.53 107.576 1212.68 108.38 1212.68 109.292C1212.68 109.892 1212.61 110.528 1212.47 111.2L1210.74 119.192C1210.69 119.384 1210.72 119.528 1210.81 119.624C1210.91 119.72 1211.03 119.768 1211.17 119.768C1211.32 119.768 1211.45 119.72 1211.57 119.624L1213.08 118.508L1214.59 120.632L1213.19 121.676C1212.47 122.228 1211.66 122.504 1210.78 122.504C1210.42 122.504 1210.07 122.456 1209.73 122.36C1209.4 122.288 1209.1 122.156 1208.83 121.964C1208.57 121.748 1208.35 121.472 1208.18 121.136C1208.02 120.8 1207.93 120.38 1207.93 119.876C1207.93 119.564 1207.98 119.18 1208.08 118.724L1209.7 111.272ZM1231.74 111.272C1231.81 110.936 1231.86 110.66 1231.88 110.444C1231.91 110.204 1231.92 109.964 1231.92 109.724C1231.92 108.572 1231.57 107.72 1230.88 107.168C1230.2 106.592 1229.26 106.304 1228.03 106.304C1226.4 106.304 1225.07 106.892 1224.04 108.068C1223 109.22 1222.3 110.696 1221.91 112.496L1219.9 122H1217.09L1220.9 104.144H1223.71L1223.17 106.736H1223.6C1224.2 105.656 1224.98 104.876 1225.94 104.396C1226.93 103.892 1227.96 103.64 1229.04 103.64C1229.81 103.64 1230.54 103.772 1231.24 104.036C1231.93 104.276 1232.53 104.636 1233.04 105.116C1233.56 105.596 1233.97 106.184 1234.26 106.88C1234.57 107.576 1234.73 108.38 1234.73 109.292C1234.73 109.892 1234.66 110.528 1234.51 111.2L1232.78 119.192C1232.74 119.384 1232.76 119.528 1232.86 119.624C1232.95 119.72 1233.07 119.768 1233.22 119.768C1233.36 119.768 1233.49 119.72 1233.61 119.624L1235.12 118.508L1236.64 120.632L1235.23 121.676C1234.51 122.228 1233.71 122.504 1232.82 122.504C1232.46 122.504 1232.11 122.456 1231.78 122.36C1231.44 122.288 1231.14 122.156 1230.88 121.964C1230.61 121.748 1230.4 121.472 1230.23 121.136C1230.06 120.8 1229.98 120.38 1229.98 119.876C1229.98 119.564 1230.02 119.18 1230.12 118.724L1231.74 111.272ZM1242.95 113.936C1242.9 114.128 1242.86 114.344 1242.84 114.584C1242.81 114.824 1242.8 115.076 1242.8 115.34C1242.8 116.66 1243.19 117.752 1243.95 118.616C1244.72 119.456 1245.95 119.876 1247.63 119.876C1248.47 119.876 1249.21 119.78 1249.86 119.588C1250.53 119.396 1251.11 119.132 1251.59 118.796C1252.07 118.436 1252.47 118.04 1252.81 117.608C1253.17 117.152 1253.47 116.672 1253.71 116.168L1256.01 117.464C1255.68 118.16 1255.26 118.82 1254.75 119.444C1254.25 120.044 1253.65 120.572 1252.95 121.028C1252.26 121.484 1251.45 121.844 1250.54 122.108C1249.63 122.372 1248.59 122.504 1247.41 122.504C1246.33 122.504 1245.33 122.336 1244.42 122C1243.53 121.688 1242.77 121.232 1242.12 120.632C1241.47 120.008 1240.97 119.252 1240.61 118.364C1240.25 117.476 1240.07 116.468 1240.07 115.34C1240.07 113.828 1240.31 112.376 1240.79 110.984C1241.27 109.568 1241.96 108.32 1242.87 107.24C1243.79 106.16 1244.91 105.296 1246.26 104.648C1247.6 103.976 1249.13 103.64 1250.83 103.64C1252.03 103.64 1253.07 103.832 1253.96 104.216C1254.85 104.576 1255.58 105.08 1256.16 105.728C1256.73 106.352 1257.17 107.072 1257.45 107.888C1257.74 108.68 1257.89 109.508 1257.89 110.372C1257.89 111.02 1257.81 111.644 1257.67 112.244L1257.27 113.936H1242.95ZM1250.47 106.304C1249.63 106.304 1248.84 106.436 1248.09 106.7C1247.37 106.94 1246.71 107.288 1246.11 107.744C1245.51 108.2 1245 108.74 1244.57 109.364C1244.13 109.964 1243.8 110.624 1243.56 111.344H1255.01C1255.08 110.96 1255.11 110.6 1255.11 110.264C1255.11 108.968 1254.67 107.984 1253.78 107.312C1252.89 106.64 1251.79 106.304 1250.47 106.304ZM1267.94 107.24C1268.01 106.952 1267.98 106.736 1267.83 106.592C1267.69 106.424 1267.51 106.34 1267.29 106.34C1267.1 106.34 1266.92 106.4 1266.75 106.52L1263.48 108.752L1262.04 106.628L1265.24 104.468C1266.06 103.916 1266.89 103.64 1267.73 103.64C1268.47 103.64 1269.12 103.856 1269.67 104.288C1270.22 104.696 1270.53 105.368 1270.61 106.304H1271.04C1271.73 105.32 1272.51 104.636 1273.38 104.252C1274.24 103.844 1275.14 103.64 1276.08 103.64C1277.81 103.64 1279.16 104.144 1280.15 105.152C1281.13 106.136 1281.62 107.444 1281.62 109.076C1281.62 109.7 1281.55 110.336 1281.41 110.984L1278.35 111.2C1278.47 110.6 1278.53 110.096 1278.53 109.688C1278.53 108.536 1278.2 107.684 1277.55 107.132C1276.93 106.58 1276.11 106.304 1275.11 106.304C1274.39 106.304 1273.73 106.448 1273.13 106.736C1272.55 107 1272.05 107.372 1271.61 107.852C1271.18 108.308 1270.81 108.848 1270.5 109.472C1270.21 110.096 1269.99 110.744 1269.85 111.416L1268.16 119.408H1272.41V122H1260.96V119.408H1265.35L1267.94 107.24Z" fill="white" fill-opacity="0.88"/>
</svg>
