<svg width="1292" height="135" viewBox="0 0 1292 135" fill="none" xmlns="http://www.w3.org/2000/svg">
<rect width="1292" height="135" rx="12" fill="#F2BF41"/>
<path d="M40.978 51H34.906V41.34C34.906 40.604 34.7067 40.006 34.308 39.546C33.94 39.086 33.3113 38.856 32.422 38.856H25.43V51H19.358V18.8H31.686C33.342 18.8 34.7987 19.03 36.056 19.49C37.3133 19.95 38.356 20.594 39.184 21.422C40.0427 22.2193 40.6867 23.1547 41.116 24.228C41.576 25.3013 41.806 26.4513 41.806 27.678V28.782C41.806 30.1007 41.4533 31.3427 40.748 32.508C40.0427 33.6427 38.954 34.5167 37.482 35.13V35.958C38.5553 36.0807 39.3987 36.4947 40.012 37.2C40.656 37.9053 40.978 38.7947 40.978 39.868V51ZM25.43 33.06H31.226C32.698 33.06 33.8173 32.7227 34.584 32.048C35.3507 31.3427 35.734 30.3613 35.734 29.104V28.552C35.734 27.4787 35.3507 26.5587 34.584 25.792C33.8173 24.9947 32.698 24.596 31.226 24.596H25.43V33.06ZM55.022 34.624C55.022 35.36 55.4053 35.8967 56.172 36.234C56.9387 36.5407 58.334 36.8013 60.358 37.016C62.6887 37.2613 64.59 37.9667 66.062 39.132C67.534 40.2667 68.27 41.8613 68.27 43.916V44.192C68.27 46.4613 67.442 48.2707 65.786 49.62C64.13 50.9693 61.7993 51.644 58.794 51.644C57.0153 51.644 55.4973 51.414 54.24 50.954C52.9827 50.494 51.94 49.9267 51.112 49.252C50.284 48.5467 49.64 47.78 49.18 46.952C48.7507 46.0933 48.4593 45.2653 48.306 44.468L53.642 42.72C53.8873 43.7013 54.3933 44.56 55.16 45.296C55.9573 46.032 57.1687 46.4 58.794 46.4C60.2353 46.4 61.2167 46.1853 61.738 45.756C62.29 45.296 62.566 44.8053 62.566 44.284C62.566 43.9773 62.4893 43.7013 62.336 43.456C62.2134 43.18 61.968 42.9347 61.6 42.72C61.232 42.4747 60.726 42.2753 60.082 42.122C59.4687 41.9687 58.6867 41.846 57.736 41.754C55.16 41.5393 53.1053 40.88 51.572 39.776C50.0693 38.6413 49.318 36.9853 49.318 34.808V34.532C49.318 33.3973 49.5633 32.4007 50.054 31.542C50.5447 30.6833 51.1887 29.9627 51.986 29.38C52.7833 28.7667 53.7033 28.3067 54.746 28C55.7887 27.6933 56.862 27.54 57.966 27.54C59.4073 27.54 60.6493 27.724 61.692 28.092C62.7653 28.4293 63.67 28.8893 64.406 29.472C65.142 30.024 65.74 30.6527 66.2 31.358C66.66 32.0327 67.0127 32.692 67.258 33.336L62.014 35.452C61.738 34.624 61.2627 33.98 60.588 33.52C59.9133 33.0293 59.0393 32.784 57.966 32.784C56.9847 32.784 56.2487 32.968 55.758 33.336C55.2673 33.6733 55.022 34.1027 55.022 34.624ZM90.778 47.274C90.778 47.8873 90.6554 48.47 90.41 49.022C90.1954 49.5433 89.8887 50.0033 89.49 50.402C89.0914 50.77 88.616 51.0613 88.064 51.276C87.5427 51.5213 86.9907 51.644 86.408 51.644C85.7947 51.644 85.2274 51.5213 84.706 51.276C84.1847 51.0613 83.7247 50.77 83.326 50.402C82.9274 50.0033 82.6054 49.5433 82.36 49.022C82.1454 48.47 82.038 47.8873 82.038 47.274C82.038 46.6607 82.1454 46.0933 82.36 45.572C82.6054 45.02 82.9274 44.56 83.326 44.192C83.7247 43.7933 84.1847 43.4867 84.706 43.272C85.2274 43.0267 85.7947 42.904 86.408 42.904C86.9907 42.904 87.5427 43.0267 88.064 43.272C88.616 43.4867 89.0914 43.7933 89.49 44.192C89.8887 44.56 90.1954 45.02 90.41 45.572C90.6554 46.0933 90.778 46.6607 90.778 47.274ZM112.642 45.204V21.836H111.814L108.778 32.876H102.982V32.324L106.846 18.8H118.714V45.204H126.718V51H103.534V45.204H112.642ZM138.876 34.9C138.876 33.8573 139.259 32.9527 140.026 32.186C140.793 31.4193 141.697 31.036 142.74 31.036C143.783 31.036 144.687 31.4193 145.454 32.186C146.221 32.9527 146.604 33.8573 146.604 34.9C146.604 35.9427 146.221 36.8473 145.454 37.614C144.687 38.3807 143.783 38.764 142.74 38.764C141.697 38.764 140.793 38.3807 140.026 37.614C139.259 36.8473 138.876 35.9427 138.876 34.9ZM130.872 31.312C130.872 27.1413 131.915 23.906 134 21.606C136.116 19.306 139.029 18.156 142.74 18.156C146.451 18.156 149.349 19.306 151.434 21.606C153.55 23.906 154.608 27.1413 154.608 31.312V38.488C154.608 42.7813 153.55 46.0473 151.434 48.286C149.349 50.5247 146.451 51.644 142.74 51.644C139.029 51.644 136.116 50.5247 134 48.286C131.915 46.0473 130.872 42.7813 130.872 38.488V31.312ZM142.74 46.124C143.844 46.124 144.764 45.9553 145.5 45.618C146.236 45.25 146.834 44.744 147.294 44.1C147.754 43.456 148.076 42.6893 148.26 41.8C148.444 40.9107 148.536 39.9293 148.536 38.856V30.944C148.536 29.932 148.429 28.9813 148.214 28.092C147.999 27.2027 147.662 26.436 147.202 25.792C146.742 25.148 146.144 24.642 145.408 24.274C144.672 23.8753 143.783 23.676 142.74 23.676C141.697 23.676 140.808 23.8753 140.072 24.274C139.336 24.642 138.738 25.148 138.278 25.792C137.818 26.436 137.481 27.2027 137.266 28.092C137.051 28.9813 136.944 29.932 136.944 30.944V38.856C136.944 39.9293 137.036 40.9107 137.22 41.8C137.404 42.6893 137.726 43.456 138.186 44.1C138.646 44.744 139.244 45.25 139.98 45.618C140.716 45.9553 141.636 46.124 142.74 46.124ZM166.536 47.274C166.536 46.6913 166.643 46.1393 166.858 45.618C167.103 45.066 167.425 44.606 167.824 44.238C168.223 43.8393 168.683 43.5327 169.204 43.318C169.725 43.0727 170.293 42.95 170.906 42.95C171.489 42.95 172.041 43.0727 172.562 43.318C173.114 43.5327 173.589 43.8393 173.988 44.238C174.387 44.606 174.693 45.066 174.908 45.618C175.153 46.1393 175.276 46.6913 175.276 47.274V52.886C175.276 54.0513 174.877 55.0327 174.08 55.83C173.313 56.6273 172.347 57.026 171.182 57.026H168.238V53.438H170.446C171.274 53.438 171.688 52.978 171.688 52.058V51.506C171.443 51.598 171.182 51.644 170.906 51.644C170.293 51.644 169.725 51.5213 169.204 51.276C168.683 51.0613 168.223 50.7547 167.824 50.356C167.425 49.9573 167.103 49.4973 166.858 48.976C166.643 48.4547 166.536 47.8873 166.536 47.274ZM195.208 34.9C195.208 33.8573 195.591 32.9527 196.358 32.186C197.125 31.4193 198.029 31.036 199.072 31.036C200.115 31.036 201.019 31.4193 201.786 32.186C202.553 32.9527 202.936 33.8573 202.936 34.9C202.936 35.9427 202.553 36.8473 201.786 37.614C201.019 38.3807 200.115 38.764 199.072 38.764C198.029 38.764 197.125 38.3807 196.358 37.614C195.591 36.8473 195.208 35.9427 195.208 34.9ZM187.204 31.312C187.204 27.1413 188.247 23.906 190.332 21.606C192.448 19.306 195.361 18.156 199.072 18.156C202.783 18.156 205.681 19.306 207.766 21.606C209.882 23.906 210.94 27.1413 210.94 31.312V38.488C210.94 42.7813 209.882 46.0473 207.766 48.286C205.681 50.5247 202.783 51.644 199.072 51.644C195.361 51.644 192.448 50.5247 190.332 48.286C188.247 46.0473 187.204 42.7813 187.204 38.488V31.312ZM199.072 46.124C200.176 46.124 201.096 45.9553 201.832 45.618C202.568 45.25 203.166 44.744 203.626 44.1C204.086 43.456 204.408 42.6893 204.592 41.8C204.776 40.9107 204.868 39.9293 204.868 38.856V30.944C204.868 29.932 204.761 28.9813 204.546 28.092C204.331 27.2027 203.994 26.436 203.534 25.792C203.074 25.148 202.476 24.642 201.74 24.274C201.004 23.8753 200.115 23.676 199.072 23.676C198.029 23.676 197.14 23.8753 196.404 24.274C195.668 24.642 195.07 25.148 194.61 25.792C194.15 26.436 193.813 27.2027 193.598 28.092C193.383 28.9813 193.276 29.932 193.276 30.944V38.856C193.276 39.9293 193.368 40.9107 193.552 41.8C193.736 42.6893 194.058 43.456 194.518 44.1C194.978 44.744 195.576 45.25 196.312 45.618C197.048 45.9553 197.968 46.124 199.072 46.124ZM223.374 34.9C223.374 33.8573 223.757 32.9527 224.524 32.186C225.291 31.4193 226.195 31.036 227.238 31.036C228.281 31.036 229.185 31.4193 229.952 32.186C230.719 32.9527 231.102 33.8573 231.102 34.9C231.102 35.9427 230.719 36.8473 229.952 37.614C229.185 38.3807 228.281 38.764 227.238 38.764C226.195 38.764 225.291 38.3807 224.524 37.614C223.757 36.8473 223.374 35.9427 223.374 34.9ZM215.37 31.312C215.37 27.1413 216.413 23.906 218.498 21.606C220.614 19.306 223.527 18.156 227.238 18.156C230.949 18.156 233.847 19.306 235.932 21.606C238.048 23.906 239.106 27.1413 239.106 31.312V38.488C239.106 42.7813 238.048 46.0473 235.932 48.286C233.847 50.5247 230.949 51.644 227.238 51.644C223.527 51.644 220.614 50.5247 218.498 48.286C216.413 46.0473 215.37 42.7813 215.37 38.488V31.312ZM227.238 46.124C228.342 46.124 229.262 45.9553 229.998 45.618C230.734 45.25 231.332 44.744 231.792 44.1C232.252 43.456 232.574 42.6893 232.758 41.8C232.942 40.9107 233.034 39.9293 233.034 38.856V30.944C233.034 29.932 232.927 28.9813 232.712 28.092C232.497 27.2027 232.16 26.436 231.7 25.792C231.24 25.148 230.642 24.642 229.906 24.274C229.17 23.8753 228.281 23.676 227.238 23.676C226.195 23.676 225.306 23.8753 224.57 24.274C223.834 24.642 223.236 25.148 222.776 25.792C222.316 26.436 221.979 27.2027 221.764 28.092C221.549 28.9813 221.442 29.932 221.442 30.944V38.856C221.442 39.9293 221.534 40.9107 221.718 41.8C221.902 42.6893 222.224 43.456 222.684 44.1C223.144 44.744 223.742 45.25 224.478 45.618C225.214 45.9553 226.134 46.124 227.238 46.124ZM251.54 34.9C251.54 33.8573 251.923 32.9527 252.69 32.186C253.457 31.4193 254.361 31.036 255.404 31.036C256.447 31.036 257.351 31.4193 258.118 32.186C258.885 32.9527 259.268 33.8573 259.268 34.9C259.268 35.9427 258.885 36.8473 258.118 37.614C257.351 38.3807 256.447 38.764 255.404 38.764C254.361 38.764 253.457 38.3807 252.69 37.614C251.923 36.8473 251.54 35.9427 251.54 34.9ZM243.536 31.312C243.536 27.1413 244.579 23.906 246.664 21.606C248.78 19.306 251.693 18.156 255.404 18.156C259.115 18.156 262.013 19.306 264.098 21.606C266.214 23.906 267.272 27.1413 267.272 31.312V38.488C267.272 42.7813 266.214 46.0473 264.098 48.286C262.013 50.5247 259.115 51.644 255.404 51.644C251.693 51.644 248.78 50.5247 246.664 48.286C244.579 46.0473 243.536 42.7813 243.536 38.488V31.312ZM255.404 46.124C256.508 46.124 257.428 45.9553 258.164 45.618C258.9 45.25 259.498 44.744 259.958 44.1C260.418 43.456 260.74 42.6893 260.924 41.8C261.108 40.9107 261.2 39.9293 261.2 38.856V30.944C261.2 29.932 261.093 28.9813 260.878 28.092C260.663 27.2027 260.326 26.436 259.866 25.792C259.406 25.148 258.808 24.642 258.072 24.274C257.336 23.8753 256.447 23.676 255.404 23.676C254.361 23.676 253.472 23.8753 252.736 24.274C252 24.642 251.402 25.148 250.942 25.792C250.482 26.436 250.145 27.2027 249.93 28.092C249.715 28.9813 249.608 29.932 249.608 30.944V38.856C249.608 39.9293 249.7 40.9107 249.884 41.8C250.068 42.6893 250.39 43.456 250.85 44.1C251.31 44.744 251.908 45.25 252.644 45.618C253.38 45.9553 254.3 46.124 255.404 46.124Z" fill="#4F291E"/>
<path d="M18.328 82.736H22.48V78.584H24.208V82.736H28.36V84.464H24.208V88.616H22.48V84.464H18.328V82.736ZM47.4786 75.2H49.4946V90.128H58.2786V92H47.4786V75.2ZM65.8699 76.544C65.8699 76.08 66.0299 75.688 66.3499 75.368C66.6859 75.032 67.0859 74.864 67.5499 74.864C68.0139 74.864 68.4059 75.032 68.7259 75.368C69.0619 75.688 69.2299 76.08 69.2299 76.544C69.2299 77.008 69.0619 77.408 68.7259 77.744C68.4059 78.064 68.0139 78.224 67.5499 78.224C67.0859 78.224 66.6859 78.064 66.3499 77.744C66.0299 77.408 65.8699 77.008 65.8699 76.544ZM62.4619 90.272H66.6379V81.824H62.8939V80.096H68.5099V90.272H72.3979V92H62.4619V90.272ZM78.7413 92H76.8693V80.096H78.7413V82.112H79.0293C79.7653 80.544 81.0453 79.76 82.8693 79.76C84.2453 79.76 85.3413 80.192 86.1573 81.056C86.9733 81.904 87.3813 83.184 87.3813 84.896V92H85.5093V85.28C85.5093 84.032 85.2293 83.096 84.6693 82.472C84.1093 81.848 83.3493 81.536 82.3893 81.536C81.2533 81.536 80.3573 81.928 79.7013 82.712C79.0613 83.48 78.7413 84.512 78.7413 85.808V92ZM94.6366 85.04H95.0446L99.5806 80.096H101.885V80.24L96.9406 85.688V86.12L102.461 91.856V92H100.157L95.0926 86.768H94.6366V92H92.7646V75.2H94.6366V85.04ZM107.628 86.624C107.676 87.808 108.044 88.76 108.732 89.48C109.42 90.2 110.38 90.56 111.612 90.56C112.172 90.56 112.66 90.496 113.076 90.368C113.492 90.24 113.844 90.064 114.132 89.84C114.436 89.616 114.676 89.36 114.852 89.072C115.044 88.768 115.196 88.448 115.308 88.112L117.084 88.592C116.748 89.696 116.124 90.6 115.212 91.304C114.316 91.992 113.1 92.336 111.564 92.336C110.716 92.336 109.932 92.192 109.212 91.904C108.508 91.6 107.9 91.176 107.388 90.632C106.876 90.088 106.476 89.44 106.188 88.688C105.9 87.936 105.756 87.104 105.756 86.192V85.616C105.756 84.784 105.9 84.008 106.188 83.288C106.492 82.568 106.908 81.952 107.436 81.44C107.964 80.912 108.58 80.504 109.284 80.216C110.004 79.912 110.78 79.76 111.612 79.76C112.588 79.76 113.428 79.944 114.132 80.312C114.852 80.664 115.436 81.104 115.884 81.632C116.348 82.16 116.684 82.736 116.892 83.36C117.116 83.984 117.228 84.56 117.228 85.088V86.624H107.628ZM111.612 81.536C111.084 81.536 110.588 81.624 110.124 81.8C109.676 81.96 109.276 82.192 108.924 82.496C108.588 82.8 108.308 83.16 108.084 83.576C107.876 83.976 107.74 84.416 107.676 84.896H115.356C115.324 84.384 115.196 83.92 114.972 83.504C114.764 83.088 114.484 82.736 114.132 82.448C113.796 82.16 113.404 81.936 112.956 81.776C112.524 81.616 112.076 81.536 111.612 81.536ZM130.171 90.176H129.883C129.691 90.544 129.443 90.864 129.139 91.136C128.851 91.408 128.531 91.632 128.179 91.808C127.843 91.984 127.483 92.112 127.099 92.192C126.715 92.288 126.347 92.336 125.995 92.336C125.195 92.336 124.451 92.2 123.763 91.928C123.075 91.656 122.467 91.264 121.939 90.752C121.427 90.24 121.019 89.608 120.715 88.856C120.427 88.088 120.283 87.216 120.283 86.24V85.856C120.283 84.896 120.435 84.04 120.739 83.288C121.043 82.52 121.451 81.88 121.963 81.368C122.475 80.84 123.075 80.44 123.763 80.168C124.451 79.896 125.179 79.76 125.947 79.76C126.763 79.76 127.523 79.944 128.227 80.312C128.947 80.664 129.499 81.216 129.883 81.968H130.171V75.2H132.043V92H130.171V90.176ZM126.187 90.56C126.747 90.56 127.267 90.456 127.747 90.248C128.227 90.04 128.643 89.744 128.995 89.36C129.363 88.976 129.651 88.52 129.859 87.992C130.067 87.448 130.171 86.848 130.171 86.192V85.904C130.171 85.264 130.067 84.68 129.859 84.152C129.651 83.608 129.363 83.144 128.995 82.76C128.643 82.376 128.219 82.08 127.723 81.872C127.243 81.648 126.731 81.536 126.187 81.536C125.627 81.536 125.099 81.64 124.603 81.848C124.123 82.056 123.699 82.352 123.331 82.736C122.979 83.12 122.699 83.576 122.491 84.104C122.299 84.632 122.203 85.216 122.203 85.856V86.24C122.203 86.912 122.299 87.512 122.491 88.04C122.699 88.568 122.979 89.024 123.331 89.408C123.699 89.776 124.123 90.064 124.603 90.272C125.083 90.464 125.611 90.56 126.187 90.56ZM135.579 75.2H146.234V77.072H141.915V90.128H146.234V92H135.579V90.128H139.898V77.072H135.579V75.2ZM152.218 92H150.346V80.096H152.218V82.112H152.506C153.242 80.544 154.522 79.76 156.346 79.76C157.722 79.76 158.818 80.192 159.634 81.056C160.45 81.904 160.858 83.184 160.858 84.896V92H158.986V85.28C158.986 84.032 158.706 83.096 158.146 82.472C157.586 81.848 156.826 81.536 155.866 81.536C154.73 81.536 153.834 81.928 153.178 82.712C152.538 83.48 152.218 84.512 152.218 85.808V92ZM181.704 85.088V92H179.688V75.2H185.688C186.552 75.2 187.304 75.328 187.944 75.584C188.584 75.824 189.112 76.152 189.528 76.568C189.96 76.984 190.28 77.472 190.488 78.032C190.712 78.576 190.824 79.152 190.824 79.76V80.48C190.824 81.088 190.712 81.672 190.488 82.232C190.28 82.792 189.96 83.288 189.528 83.72C189.096 84.136 188.56 84.472 187.92 84.728C187.28 84.968 186.536 85.088 185.688 85.088H181.704ZM181.704 83.216H185.448C187.688 83.216 188.808 82.256 188.808 80.336V79.904C188.808 79.056 188.528 78.376 187.968 77.864C187.424 77.336 186.584 77.072 185.448 77.072H181.704V83.216ZM193.76 80.096H198.08V81.68H198.368C198.672 81.024 199.104 80.544 199.664 80.24C200.224 79.92 200.864 79.76 201.584 79.76C202.784 79.76 203.752 80.152 204.488 80.936C205.224 81.72 205.616 82.864 205.664 84.368L203.696 84.656C203.696 83.552 203.432 82.76 202.904 82.28C202.376 81.784 201.728 81.536 200.96 81.536C200.464 81.536 200.032 81.632 199.664 81.824C199.312 82.016 199.016 82.28 198.776 82.616C198.536 82.952 198.36 83.344 198.248 83.792C198.136 84.24 198.08 84.72 198.08 85.232V90.272H201.104V92H193.472V90.272H196.208V81.824H193.76V80.096ZM210.495 86.624C210.543 87.808 210.911 88.76 211.599 89.48C212.287 90.2 213.247 90.56 214.479 90.56C215.039 90.56 215.527 90.496 215.943 90.368C216.359 90.24 216.711 90.064 216.999 89.84C217.303 89.616 217.543 89.36 217.719 89.072C217.911 88.768 218.063 88.448 218.175 88.112L219.951 88.592C219.615 89.696 218.991 90.6 218.079 91.304C217.183 91.992 215.967 92.336 214.431 92.336C213.583 92.336 212.799 92.192 212.079 91.904C211.375 91.6 210.767 91.176 210.255 90.632C209.743 90.088 209.343 89.44 209.055 88.688C208.767 87.936 208.623 87.104 208.623 86.192V85.616C208.623 84.784 208.767 84.008 209.055 83.288C209.359 82.568 209.775 81.952 210.303 81.44C210.831 80.912 211.447 80.504 212.151 80.216C212.871 79.912 213.647 79.76 214.479 79.76C215.455 79.76 216.295 79.944 216.999 80.312C217.719 80.664 218.303 81.104 218.751 81.632C219.215 82.16 219.551 82.736 219.759 83.36C219.983 83.984 220.095 84.56 220.095 85.088V86.624H210.495ZM214.479 81.536C213.951 81.536 213.455 81.624 212.991 81.8C212.543 81.96 212.143 82.192 211.791 82.496C211.455 82.8 211.175 83.16 210.951 83.576C210.743 83.976 210.607 84.416 210.543 84.896H218.223C218.191 84.384 218.063 83.92 217.839 83.504C217.631 83.088 217.351 82.736 216.999 82.448C216.663 82.16 216.271 81.936 215.823 81.776C215.391 81.616 214.943 81.536 214.479 81.536ZM235.27 92H233.398V83.456C233.398 82.896 233.27 82.44 233.014 82.088C232.758 81.72 232.35 81.536 231.79 81.536C231.262 81.536 230.83 81.736 230.494 82.136C230.174 82.52 230.014 83.12 230.014 83.936V92H228.142V83.36C228.142 82.832 227.998 82.4 227.71 82.064C227.422 81.712 227.038 81.536 226.558 81.536C225.982 81.536 225.534 81.744 225.214 82.16C224.91 82.576 224.758 83.12 224.758 83.792V92H222.886V80.096H224.758V81.392H225.046C225.254 80.832 225.558 80.424 225.958 80.168C226.358 79.896 226.83 79.76 227.374 79.76C227.95 79.76 228.422 79.912 228.79 80.216C229.174 80.52 229.438 80.912 229.582 81.392H229.87C230.414 80.304 231.278 79.76 232.462 79.76C233.358 79.76 234.046 80.048 234.526 80.624C235.022 81.184 235.27 81.92 235.27 82.832V92ZM242.214 76.544C242.214 76.08 242.374 75.688 242.694 75.368C243.03 75.032 243.43 74.864 243.894 74.864C244.358 74.864 244.75 75.032 245.07 75.368C245.406 75.688 245.574 76.08 245.574 76.544C245.574 77.008 245.406 77.408 245.07 77.744C244.75 78.064 244.358 78.224 243.894 78.224C243.43 78.224 243.03 78.064 242.694 77.744C242.374 77.408 242.214 77.008 242.214 76.544ZM238.806 90.272H242.982V81.824H239.238V80.096H244.854V90.272H248.742V92H238.806V90.272ZM261.709 80.096H263.581V92H261.709V89.84H261.421C261.037 90.608 260.533 91.216 259.909 91.664C259.285 92.112 258.493 92.336 257.533 92.336C256.877 92.336 256.269 92.224 255.709 92C255.165 91.792 254.693 91.472 254.293 91.04C253.909 90.608 253.605 90.072 253.381 89.432C253.173 88.792 253.069 88.048 253.069 87.2V80.096H254.941V86.96C254.941 88.208 255.197 89.12 255.709 89.696C256.221 90.272 257.005 90.56 258.061 90.56C259.197 90.56 260.085 90.176 260.725 89.408C261.381 88.624 261.709 87.584 261.709 86.288V80.096ZM279.356 92H277.484V83.456C277.484 82.896 277.356 82.44 277.1 82.088C276.844 81.72 276.436 81.536 275.876 81.536C275.348 81.536 274.916 81.736 274.58 82.136C274.26 82.52 274.1 83.12 274.1 83.936V92H272.228V83.36C272.228 82.832 272.084 82.4 271.796 82.064C271.508 81.712 271.124 81.536 270.644 81.536C270.068 81.536 269.62 81.744 269.3 82.16C268.996 82.576 268.844 83.12 268.844 83.792V92H266.972V80.096H268.844V81.392H269.132C269.34 80.832 269.644 80.424 270.044 80.168C270.444 79.896 270.916 79.76 271.46 79.76C272.036 79.76 272.508 79.912 272.876 80.216C273.26 80.52 273.524 80.912 273.668 81.392H273.956C274.5 80.304 275.364 79.76 276.548 79.76C277.444 79.76 278.132 80.048 278.612 80.624C279.108 81.184 279.356 81.92 279.356 82.832V92Z" fill="#4F291E"/>
<path d="M1022.19 96.8H1040.3V99.608H1032.99L1028.24 122H1025.22L1029.97 99.608H1022.19V96.8ZM1047.51 107.24C1047.58 106.952 1047.55 106.736 1047.4 106.592C1047.26 106.424 1047.08 106.34 1046.86 106.34C1046.67 106.34 1046.49 106.4 1046.32 106.52L1043.05 108.752L1041.61 106.628L1044.81 104.468C1045.63 103.916 1046.46 103.64 1047.3 103.64C1048.04 103.64 1048.69 103.856 1049.24 104.288C1049.79 104.696 1050.1 105.368 1050.18 106.304H1050.61C1051.3 105.32 1052.08 104.636 1052.95 104.252C1053.81 103.844 1054.71 103.64 1055.65 103.64C1057.38 103.64 1058.73 104.144 1059.72 105.152C1060.7 106.136 1061.19 107.444 1061.19 109.076C1061.19 109.7 1061.12 110.336 1060.98 110.984L1057.92 111.2C1058.04 110.6 1058.1 110.096 1058.1 109.688C1058.1 108.536 1057.77 107.684 1057.12 107.132C1056.5 106.58 1055.68 106.304 1054.68 106.304C1053.96 106.304 1053.3 106.448 1052.7 106.736C1052.12 107 1051.62 107.372 1051.18 107.852C1050.75 108.308 1050.38 108.848 1050.07 109.472C1049.78 110.096 1049.56 110.744 1049.42 111.416L1047.73 119.408H1051.98V122H1040.53V119.408H1044.92L1047.51 107.24ZM1075.06 119.192C1074.32 120.464 1073.43 121.34 1072.4 121.82C1071.39 122.276 1070.32 122.504 1069.19 122.504C1068.23 122.504 1067.37 122.336 1066.6 122C1065.83 121.64 1065.19 121.148 1064.66 120.524C1064.13 119.9 1063.72 119.156 1063.43 118.292C1063.15 117.404 1063 116.432 1063 115.376C1063 113.864 1063.22 112.4 1063.65 110.984C1064.08 109.568 1064.71 108.32 1065.52 107.24C1066.36 106.16 1067.39 105.296 1068.62 104.648C1069.84 103.976 1071.26 103.64 1072.87 103.64C1074.09 103.64 1075.13 103.928 1076 104.504C1076.86 105.056 1077.43 105.872 1077.69 106.952H1078.12L1078.7 104.144H1081.51L1078.34 118.976C1078.29 119.192 1078.31 119.36 1078.41 119.48C1078.51 119.576 1078.64 119.624 1078.81 119.624C1078.97 119.624 1079.14 119.564 1079.31 119.444L1080.61 118.508L1082.12 120.632L1080.5 121.856C1080.23 122.048 1079.9 122.204 1079.49 122.324C1079.11 122.444 1078.71 122.504 1078.3 122.504C1077.94 122.504 1077.59 122.456 1077.26 122.36C1076.92 122.264 1076.61 122.12 1076.32 121.928C1076.06 121.712 1075.84 121.448 1075.67 121.136C1075.51 120.8 1075.42 120.392 1075.42 119.912C1075.42 119.792 1075.42 119.672 1075.42 119.552C1075.45 119.432 1075.47 119.312 1075.49 119.192H1075.06ZM1070.06 119.84C1071.02 119.84 1071.92 119.624 1072.76 119.192C1073.62 118.736 1074.37 118.124 1074.99 117.356C1075.64 116.588 1076.14 115.688 1076.5 114.656C1076.86 113.6 1077.04 112.46 1077.04 111.236C1077.04 109.748 1076.71 108.56 1076.03 107.672C1075.36 106.76 1074.32 106.304 1072.9 106.304C1071.77 106.304 1070.78 106.544 1069.91 107.024C1069.07 107.504 1068.35 108.152 1067.75 108.968C1067.15 109.76 1066.7 110.684 1066.39 111.74C1066.1 112.796 1065.95 113.888 1065.95 115.016C1065.95 116.6 1066.3 117.8 1067 118.616C1067.69 119.432 1068.71 119.84 1070.06 119.84ZM1102.97 115.88C1102.66 116.792 1102.23 117.656 1101.68 118.472C1101.13 119.264 1100.43 119.96 1099.59 120.56C1098.77 121.16 1097.81 121.64 1096.71 122C1095.63 122.336 1094.41 122.504 1093.04 122.504C1091.91 122.504 1090.88 122.336 1089.94 122C1089.03 121.64 1088.25 121.136 1087.6 120.488C1086.95 119.84 1086.45 119.06 1086.09 118.148C1085.73 117.236 1085.55 116.216 1085.55 115.088C1085.55 113.528 1085.81 112.052 1086.34 110.66C1086.89 109.268 1087.66 108.056 1088.65 107.024C1089.63 105.968 1090.82 105.14 1092.21 104.54C1093.6 103.94 1095.15 103.64 1096.85 103.64C1097.96 103.64 1098.95 103.796 1099.84 104.108C1100.73 104.42 1101.49 104.864 1102.11 105.44C1102.73 105.992 1103.21 106.664 1103.55 107.456C1103.89 108.224 1104.05 109.076 1104.05 110.012C1104.05 110.06 1104.05 110.12 1104.05 110.192C1104.05 110.24 1104.04 110.36 1104.02 110.552L1101.14 110.984C1101.16 110.84 1101.17 110.732 1101.17 110.66C1101.17 110.588 1101.17 110.504 1101.17 110.408C1101.17 109.832 1101.08 109.304 1100.89 108.824C1100.72 108.32 1100.43 107.888 1100.02 107.528C1099.64 107.144 1099.13 106.844 1098.51 106.628C1097.91 106.412 1097.19 106.304 1096.35 106.304C1095.22 106.304 1094.18 106.532 1093.22 106.988C1092.28 107.444 1091.45 108.068 1090.73 108.86C1090.04 109.628 1089.49 110.528 1089.08 111.56C1088.69 112.592 1088.5 113.672 1088.5 114.8C1088.5 116.504 1088.96 117.776 1089.87 118.616C1090.78 119.432 1092.03 119.84 1093.61 119.84C1094.57 119.84 1095.43 119.708 1096.17 119.444C1096.91 119.156 1097.56 118.796 1098.11 118.364C1098.67 117.908 1099.12 117.392 1099.48 116.816C1099.84 116.24 1100.12 115.64 1100.31 115.016L1102.97 115.88ZM1116.7 96.332L1113.5 111.56H1113.93L1122.86 103.712L1124.58 105.548L1116.63 112.532V113.18L1121.27 119.516C1121.42 119.684 1121.57 119.768 1121.74 119.768C1121.88 119.768 1122.04 119.708 1122.21 119.588L1123.94 118.328L1125.45 120.452L1123.83 121.676C1123.49 121.94 1123.14 122.144 1122.78 122.288C1122.42 122.432 1122.04 122.504 1121.63 122.504C1121.15 122.504 1120.68 122.384 1120.23 122.144C1119.8 121.904 1119.38 121.508 1118.97 120.956L1114 114.152H1112.92L1111.26 122H1108.46L1113.89 96.332H1116.7ZM1166.94 122H1161.4L1164.31 98.096H1163.88L1156.72 122H1151.17L1154.16 96.8H1156.9L1154.05 120.704H1154.49L1161.54 96.8H1167.16L1164.13 120.704H1164.57L1171.84 96.8H1174.65L1166.94 122ZM1183.69 98.816C1183.69 98.12 1183.93 97.532 1184.41 97.052C1184.92 96.548 1185.52 96.296 1186.21 96.296C1186.91 96.296 1187.5 96.548 1187.98 97.052C1188.48 97.532 1188.73 98.12 1188.73 98.816C1188.73 99.512 1188.48 100.112 1187.98 100.616C1187.5 101.096 1186.91 101.336 1186.21 101.336C1185.52 101.336 1184.92 101.096 1184.41 100.616C1183.93 100.112 1183.69 99.512 1183.69 98.816ZM1183.12 107.276C1183.17 107.036 1183.13 106.832 1183.01 106.664C1182.91 106.472 1182.73 106.376 1182.47 106.376C1182.28 106.376 1182.1 106.424 1181.93 106.52L1177.72 109.4L1176.28 107.276L1180.53 104.396C1181.27 103.892 1182.07 103.64 1182.94 103.64C1183.75 103.64 1184.46 103.88 1185.06 104.36C1185.66 104.84 1185.96 105.584 1185.96 106.592C1185.96 106.976 1185.91 107.36 1185.82 107.744L1183.15 118.868C1183.08 119.156 1183.11 119.384 1183.23 119.552C1183.37 119.72 1183.55 119.804 1183.77 119.804C1183.93 119.804 1184.11 119.744 1184.31 119.624L1188.45 116.816L1189.89 118.94L1185.75 121.748C1184.98 122.252 1184.17 122.504 1183.33 122.504C1182.52 122.504 1181.81 122.264 1181.21 121.784C1180.61 121.304 1180.31 120.56 1180.31 119.552C1180.31 119.168 1180.36 118.784 1180.45 118.4L1183.12 107.276ZM1209.7 111.272C1209.77 110.936 1209.82 110.66 1209.84 110.444C1209.86 110.204 1209.88 109.964 1209.88 109.724C1209.88 108.572 1209.53 107.72 1208.83 107.168C1208.16 106.592 1207.21 106.304 1205.99 106.304C1204.36 106.304 1203.02 106.892 1201.99 108.068C1200.96 109.22 1200.25 110.696 1199.87 112.496L1197.85 122H1195.04L1198.86 104.144H1201.67L1201.13 106.736H1201.56C1202.16 105.656 1202.94 104.876 1203.9 104.396C1204.88 103.892 1205.92 103.64 1207 103.64C1207.76 103.64 1208.5 103.772 1209.19 104.036C1209.89 104.276 1210.49 104.636 1210.99 105.116C1211.52 105.596 1211.93 106.184 1212.22 106.88C1212.53 107.576 1212.68 108.38 1212.68 109.292C1212.68 109.892 1212.61 110.528 1212.47 111.2L1210.74 119.192C1210.69 119.384 1210.72 119.528 1210.81 119.624C1210.91 119.72 1211.03 119.768 1211.17 119.768C1211.32 119.768 1211.45 119.72 1211.57 119.624L1213.08 118.508L1214.59 120.632L1213.19 121.676C1212.47 122.228 1211.66 122.504 1210.78 122.504C1210.42 122.504 1210.07 122.456 1209.73 122.36C1209.4 122.288 1209.1 122.156 1208.83 121.964C1208.57 121.748 1208.35 121.472 1208.18 121.136C1208.02 120.8 1207.93 120.38 1207.93 119.876C1207.93 119.564 1207.98 119.18 1208.08 118.724L1209.7 111.272ZM1231.74 111.272C1231.81 110.936 1231.86 110.66 1231.88 110.444C1231.91 110.204 1231.92 109.964 1231.92 109.724C1231.92 108.572 1231.57 107.72 1230.88 107.168C1230.2 106.592 1229.26 106.304 1228.03 106.304C1226.4 106.304 1225.07 106.892 1224.04 108.068C1223 109.22 1222.3 110.696 1221.91 112.496L1219.9 122H1217.09L1220.9 104.144H1223.71L1223.17 106.736H1223.6C1224.2 105.656 1224.98 104.876 1225.94 104.396C1226.93 103.892 1227.96 103.64 1229.04 103.64C1229.81 103.64 1230.54 103.772 1231.24 104.036C1231.93 104.276 1232.53 104.636 1233.04 105.116C1233.56 105.596 1233.97 106.184 1234.26 106.88C1234.57 107.576 1234.73 108.38 1234.73 109.292C1234.73 109.892 1234.66 110.528 1234.51 111.2L1232.78 119.192C1232.74 119.384 1232.76 119.528 1232.86 119.624C1232.95 119.72 1233.07 119.768 1233.22 119.768C1233.36 119.768 1233.49 119.72 1233.61 119.624L1235.12 118.508L1236.64 120.632L1235.23 121.676C1234.51 122.228 1233.71 122.504 1232.82 122.504C1232.46 122.504 1232.11 122.456 1231.78 122.36C1231.44 122.288 1231.14 122.156 1230.88 121.964C1230.61 121.748 1230.4 121.472 1230.23 121.136C1230.06 120.8 1229.98 120.38 1229.98 119.876C1229.98 119.564 1230.02 119.18 1230.12 118.724L1231.74 111.272ZM1242.95 113.936C1242.9 114.128 1242.86 114.344 1242.84 114.584C1242.81 114.824 1242.8 115.076 1242.8 115.34C1242.8 116.66 1243.19 117.752 1243.95 118.616C1244.72 119.456 1245.95 119.876 1247.63 119.876C1248.47 119.876 1249.21 119.78 1249.86 119.588C1250.53 119.396 1251.11 119.132 1251.59 118.796C1252.07 118.436 1252.47 118.04 1252.81 117.608C1253.17 117.152 1253.47 116.672 1253.71 116.168L1256.01 117.464C1255.68 118.16 1255.26 118.82 1254.75 119.444C1254.25 120.044 1253.65 120.572 1252.95 121.028C1252.26 121.484 1251.45 121.844 1250.54 122.108C1249.63 122.372 1248.59 122.504 1247.41 122.504C1246.33 122.504 1245.33 122.336 1244.42 122C1243.53 121.688 1242.77 121.232 1242.12 120.632C1241.47 120.008 1240.97 119.252 1240.61 118.364C1240.25 117.476 1240.07 116.468 1240.07 115.34C1240.07 113.828 1240.31 112.376 1240.79 110.984C1241.27 109.568 1241.96 108.32 1242.87 107.24C1243.79 106.16 1244.91 105.296 1246.26 104.648C1247.6 103.976 1249.13 103.64 1250.83 103.64C1252.03 103.64 1253.07 103.832 1253.96 104.216C1254.85 104.576 1255.58 105.08 1256.16 105.728C1256.73 106.352 1257.17 107.072 1257.45 107.888C1257.74 108.68 1257.89 109.508 1257.89 110.372C1257.89 111.02 1257.81 111.644 1257.67 112.244L1257.27 113.936H1242.95ZM1250.47 106.304C1249.63 106.304 1248.84 106.436 1248.09 106.7C1247.37 106.94 1246.71 107.288 1246.11 107.744C1245.51 108.2 1245 108.74 1244.57 109.364C1244.13 109.964 1243.8 110.624 1243.56 111.344H1255.01C1255.08 110.96 1255.11 110.6 1255.11 110.264C1255.11 108.968 1254.67 107.984 1253.78 107.312C1252.89 106.64 1251.79 106.304 1250.47 106.304ZM1267.94 107.24C1268.01 106.952 1267.98 106.736 1267.83 106.592C1267.69 106.424 1267.51 106.34 1267.29 106.34C1267.1 106.34 1266.92 106.4 1266.75 106.52L1263.48 108.752L1262.04 106.628L1265.24 104.468C1266.06 103.916 1266.89 103.64 1267.73 103.64C1268.47 103.64 1269.12 103.856 1269.67 104.288C1270.22 104.696 1270.53 105.368 1270.61 106.304H1271.04C1271.73 105.32 1272.51 104.636 1273.38 104.252C1274.24 103.844 1275.14 103.64 1276.08 103.64C1277.81 103.64 1279.16 104.144 1280.15 105.152C1281.13 106.136 1281.62 107.444 1281.62 109.076C1281.62 109.7 1281.55 110.336 1281.41 110.984L1278.35 111.2C1278.47 110.6 1278.53 110.096 1278.53 109.688C1278.53 108.536 1278.2 107.684 1277.55 107.132C1276.93 106.58 1276.11 106.304 1275.11 106.304C1274.39 106.304 1273.73 106.448 1273.13 106.736C1272.55 107 1272.05 107.372 1271.61 107.852C1271.18 108.308 1270.81 108.848 1270.5 109.472C1270.21 110.096 1269.99 110.744 1269.85 111.416L1268.16 119.408H1272.41V122H1260.96V119.408H1265.35L1267.94 107.24Z" fill="#4F291E"/>
</svg>
