<svg width="1292" height="135" viewBox="0 0 1292 135" fill="none" xmlns="http://www.w3.org/2000/svg">
<rect width="1292" height="135" rx="12" fill="#5FA19E"/>
<path d="M40.978 51H34.906V41.34C34.906 40.604 34.7067 40.006 34.308 39.546C33.94 39.086 33.3113 38.856 32.422 38.856H25.43V51H19.358V18.8H31.686C33.342 18.8 34.7987 19.03 36.056 19.49C37.3133 19.95 38.356 20.594 39.184 21.422C40.0427 22.2193 40.6867 23.1547 41.116 24.228C41.576 25.3013 41.806 26.4513 41.806 27.678V28.782C41.806 30.1007 41.4533 31.3427 40.748 32.508C40.0427 33.6427 38.954 34.5167 37.482 35.13V35.958C38.5553 36.0807 39.3987 36.4947 40.012 37.2C40.656 37.9053 40.978 38.7947 40.978 39.868V51ZM25.43 33.06H31.226C32.698 33.06 33.8173 32.7227 34.584 32.048C35.3507 31.3427 35.734 30.3613 35.734 29.104V28.552C35.734 27.4787 35.3507 26.5587 34.584 25.792C33.8173 24.9947 32.698 24.596 31.226 24.596H25.43V33.06ZM55.022 34.624C55.022 35.36 55.4053 35.8967 56.172 36.234C56.9387 36.5407 58.334 36.8013 60.358 37.016C62.6887 37.2613 64.59 37.9667 66.062 39.132C67.534 40.2667 68.27 41.8613 68.27 43.916V44.192C68.27 46.4613 67.442 48.2707 65.786 49.62C64.13 50.9693 61.7993 51.644 58.794 51.644C57.0153 51.644 55.4973 51.414 54.24 50.954C52.9827 50.494 51.94 49.9267 51.112 49.252C50.284 48.5467 49.64 47.78 49.18 46.952C48.7507 46.0933 48.4593 45.2653 48.306 44.468L53.642 42.72C53.8873 43.7013 54.3933 44.56 55.16 45.296C55.9573 46.032 57.1687 46.4 58.794 46.4C60.2353 46.4 61.2167 46.1853 61.738 45.756C62.29 45.296 62.566 44.8053 62.566 44.284C62.566 43.9773 62.4893 43.7013 62.336 43.456C62.2134 43.18 61.968 42.9347 61.6 42.72C61.232 42.4747 60.726 42.2753 60.082 42.122C59.4687 41.9687 58.6867 41.846 57.736 41.754C55.16 41.5393 53.1053 40.88 51.572 39.776C50.0693 38.6413 49.318 36.9853 49.318 34.808V34.532C49.318 33.3973 49.5633 32.4007 50.054 31.542C50.5447 30.6833 51.1887 29.9627 51.986 29.38C52.7833 28.7667 53.7033 28.3067 54.746 28C55.7887 27.6933 56.862 27.54 57.966 27.54C59.4073 27.54 60.6493 27.724 61.692 28.092C62.7653 28.4293 63.67 28.8893 64.406 29.472C65.142 30.024 65.74 30.6527 66.2 31.358C66.66 32.0327 67.0127 32.692 67.258 33.336L62.014 35.452C61.738 34.624 61.2627 33.98 60.588 33.52C59.9133 33.0293 59.0393 32.784 57.966 32.784C56.9847 32.784 56.2487 32.968 55.758 33.336C55.2673 33.6733 55.022 34.1027 55.022 34.624ZM90.778 47.274C90.778 47.8873 90.6554 48.47 90.41 49.022C90.1954 49.5433 89.8887 50.0033 89.49 50.402C89.0914 50.77 88.616 51.0613 88.064 51.276C87.5427 51.5213 86.9907 51.644 86.408 51.644C85.7947 51.644 85.2274 51.5213 84.706 51.276C84.1847 51.0613 83.7247 50.77 83.326 50.402C82.9274 50.0033 82.6054 49.5433 82.36 49.022C82.1454 48.47 82.038 47.8873 82.038 47.274C82.038 46.6607 82.1454 46.0933 82.36 45.572C82.6054 45.02 82.9274 44.56 83.326 44.192C83.7247 43.7933 84.1847 43.4867 84.706 43.272C85.2274 43.0267 85.7947 42.904 86.408 42.904C86.9907 42.904 87.5427 43.0267 88.064 43.272C88.616 43.4867 89.0914 43.7933 89.49 44.192C89.8887 44.56 90.1954 45.02 90.41 45.572C90.6554 46.0933 90.778 46.6607 90.778 47.274ZM111.446 37.2V27.632L119.45 25.424V24.596H103.442V18.8H124.418V28.92L115.862 31.404V32.232H116.966C118.101 32.232 119.22 32.416 120.324 32.784C121.428 33.1213 122.394 33.658 123.222 34.394C124.081 35.13 124.771 36.05 125.292 37.154C125.813 38.2273 126.074 39.5 126.074 40.972V41.524C126.074 42.9653 125.829 44.2993 125.338 45.526C124.878 46.7527 124.173 47.826 123.222 48.746C122.302 49.6353 121.152 50.3407 119.772 50.862C118.392 51.3833 116.813 51.644 115.034 51.644C113.225 51.644 111.584 51.3527 110.112 50.77C108.64 50.1873 107.383 49.39 106.34 48.378C105.328 47.366 104.546 46.2007 103.994 44.882C103.442 43.5633 103.166 42.168 103.166 40.696V38.764H109.238V40.42C109.238 41.892 109.713 43.1647 110.664 44.238C111.615 45.3113 113.041 45.848 114.942 45.848C116.567 45.848 117.809 45.434 118.668 44.606C119.557 43.778 120.002 42.6893 120.002 41.34C120.002 39.8987 119.527 38.856 118.576 38.212C117.656 37.5373 116.475 37.2 115.034 37.2H111.446ZM138.37 47.274C138.37 46.6913 138.477 46.1393 138.692 45.618C138.937 45.066 139.259 44.606 139.658 44.238C140.057 43.8393 140.517 43.5327 141.038 43.318C141.559 43.0727 142.127 42.95 142.74 42.95C143.323 42.95 143.875 43.0727 144.396 43.318C144.948 43.5327 145.423 43.8393 145.822 44.238C146.221 44.606 146.527 45.066 146.742 45.618C146.987 46.1393 147.11 46.6913 147.11 47.274V52.886C147.11 54.0513 146.711 55.0327 145.914 55.83C145.147 56.6273 144.181 57.026 143.016 57.026H140.072V53.438H142.28C143.108 53.438 143.522 52.978 143.522 52.058V51.506C143.277 51.598 143.016 51.644 142.74 51.644C142.127 51.644 141.559 51.5213 141.038 51.276C140.517 51.0613 140.057 50.7547 139.658 50.356C139.259 49.9573 138.937 49.4973 138.692 48.976C138.477 48.4547 138.37 47.8873 138.37 47.274ZM167.042 34.9C167.042 33.8573 167.425 32.9527 168.192 32.186C168.959 31.4193 169.863 31.036 170.906 31.036C171.949 31.036 172.853 31.4193 173.62 32.186C174.387 32.9527 174.77 33.8573 174.77 34.9C174.77 35.9427 174.387 36.8473 173.62 37.614C172.853 38.3807 171.949 38.764 170.906 38.764C169.863 38.764 168.959 38.3807 168.192 37.614C167.425 36.8473 167.042 35.9427 167.042 34.9ZM159.038 31.312C159.038 27.1413 160.081 23.906 162.166 21.606C164.282 19.306 167.195 18.156 170.906 18.156C174.617 18.156 177.515 19.306 179.6 21.606C181.716 23.906 182.774 27.1413 182.774 31.312V38.488C182.774 42.7813 181.716 46.0473 179.6 48.286C177.515 50.5247 174.617 51.644 170.906 51.644C167.195 51.644 164.282 50.5247 162.166 48.286C160.081 46.0473 159.038 42.7813 159.038 38.488V31.312ZM170.906 46.124C172.01 46.124 172.93 45.9553 173.666 45.618C174.402 45.25 175 44.744 175.46 44.1C175.92 43.456 176.242 42.6893 176.426 41.8C176.61 40.9107 176.702 39.9293 176.702 38.856V30.944C176.702 29.932 176.595 28.9813 176.38 28.092C176.165 27.2027 175.828 26.436 175.368 25.792C174.908 25.148 174.31 24.642 173.574 24.274C172.838 23.8753 171.949 23.676 170.906 23.676C169.863 23.676 168.974 23.8753 168.238 24.274C167.502 24.642 166.904 25.148 166.444 25.792C165.984 26.436 165.647 27.2027 165.432 28.092C165.217 28.9813 165.11 29.932 165.11 30.944V38.856C165.11 39.9293 165.202 40.9107 165.386 41.8C165.57 42.6893 165.892 43.456 166.352 44.1C166.812 44.744 167.41 45.25 168.146 45.618C168.882 45.9553 169.802 46.124 170.906 46.124ZM195.208 34.9C195.208 33.8573 195.591 32.9527 196.358 32.186C197.125 31.4193 198.029 31.036 199.072 31.036C200.115 31.036 201.019 31.4193 201.786 32.186C202.553 32.9527 202.936 33.8573 202.936 34.9C202.936 35.9427 202.553 36.8473 201.786 37.614C201.019 38.3807 200.115 38.764 199.072 38.764C198.029 38.764 197.125 38.3807 196.358 37.614C195.591 36.8473 195.208 35.9427 195.208 34.9ZM187.204 31.312C187.204 27.1413 188.247 23.906 190.332 21.606C192.448 19.306 195.361 18.156 199.072 18.156C202.783 18.156 205.681 19.306 207.766 21.606C209.882 23.906 210.94 27.1413 210.94 31.312V38.488C210.94 42.7813 209.882 46.0473 207.766 48.286C205.681 50.5247 202.783 51.644 199.072 51.644C195.361 51.644 192.448 50.5247 190.332 48.286C188.247 46.0473 187.204 42.7813 187.204 38.488V31.312ZM199.072 46.124C200.176 46.124 201.096 45.9553 201.832 45.618C202.568 45.25 203.166 44.744 203.626 44.1C204.086 43.456 204.408 42.6893 204.592 41.8C204.776 40.9107 204.868 39.9293 204.868 38.856V30.944C204.868 29.932 204.761 28.9813 204.546 28.092C204.331 27.2027 203.994 26.436 203.534 25.792C203.074 25.148 202.476 24.642 201.74 24.274C201.004 23.8753 200.115 23.676 199.072 23.676C198.029 23.676 197.14 23.8753 196.404 24.274C195.668 24.642 195.07 25.148 194.61 25.792C194.15 26.436 193.813 27.2027 193.598 28.092C193.383 28.9813 193.276 29.932 193.276 30.944V38.856C193.276 39.9293 193.368 40.9107 193.552 41.8C193.736 42.6893 194.058 43.456 194.518 44.1C194.978 44.744 195.576 45.25 196.312 45.618C197.048 45.9553 197.968 46.124 199.072 46.124ZM223.374 34.9C223.374 33.8573 223.757 32.9527 224.524 32.186C225.291 31.4193 226.195 31.036 227.238 31.036C228.281 31.036 229.185 31.4193 229.952 32.186C230.719 32.9527 231.102 33.8573 231.102 34.9C231.102 35.9427 230.719 36.8473 229.952 37.614C229.185 38.3807 228.281 38.764 227.238 38.764C226.195 38.764 225.291 38.3807 224.524 37.614C223.757 36.8473 223.374 35.9427 223.374 34.9ZM215.37 31.312C215.37 27.1413 216.413 23.906 218.498 21.606C220.614 19.306 223.527 18.156 227.238 18.156C230.949 18.156 233.847 19.306 235.932 21.606C238.048 23.906 239.106 27.1413 239.106 31.312V38.488C239.106 42.7813 238.048 46.0473 235.932 48.286C233.847 50.5247 230.949 51.644 227.238 51.644C223.527 51.644 220.614 50.5247 218.498 48.286C216.413 46.0473 215.37 42.7813 215.37 38.488V31.312ZM227.238 46.124C228.342 46.124 229.262 45.9553 229.998 45.618C230.734 45.25 231.332 44.744 231.792 44.1C232.252 43.456 232.574 42.6893 232.758 41.8C232.942 40.9107 233.034 39.9293 233.034 38.856V30.944C233.034 29.932 232.927 28.9813 232.712 28.092C232.497 27.2027 232.16 26.436 231.7 25.792C231.24 25.148 230.642 24.642 229.906 24.274C229.17 23.8753 228.281 23.676 227.238 23.676C226.195 23.676 225.306 23.8753 224.57 24.274C223.834 24.642 223.236 25.148 222.776 25.792C222.316 26.436 221.979 27.2027 221.764 28.092C221.549 28.9813 221.442 29.932 221.442 30.944V38.856C221.442 39.9293 221.534 40.9107 221.718 41.8C221.902 42.6893 222.224 43.456 222.684 44.1C223.144 44.744 223.742 45.25 224.478 45.618C225.214 45.9553 226.134 46.124 227.238 46.124Z" fill="#4F291E"/>
<path d="M18.328 82.736H22.48V78.584H24.208V82.736H28.36V84.464H24.208V88.616H22.48V84.464H18.328V82.736ZM47.1426 75.2H52.6626C54.7426 75.2 56.2626 75.696 57.2226 76.688C58.1826 77.68 58.6626 79.264 58.6626 81.44V85.76C58.6626 87.936 58.1826 89.52 57.2226 90.512C56.2626 91.504 54.7426 92 52.6626 92H47.1426V90.104H48.5826V77.072H47.1426V75.2ZM52.3746 90.128C53.1106 90.128 53.7426 90.056 54.2706 89.912C54.8146 89.768 55.2626 89.528 55.6146 89.192C55.9666 88.84 56.2226 88.376 56.3826 87.8C56.5586 87.224 56.6466 86.496 56.6466 85.616V81.584C56.6466 80.704 56.5586 79.976 56.3826 79.4C56.2226 78.824 55.9666 78.368 55.6146 78.032C55.2626 77.68 54.8146 77.432 54.2706 77.288C53.7426 77.144 53.1106 77.072 52.3746 77.072H50.5986V90.128H52.3746ZM65.8699 76.544C65.8699 76.08 66.0299 75.688 66.3499 75.368C66.6859 75.032 67.0859 74.864 67.5499 74.864C68.0139 74.864 68.4059 75.032 68.7259 75.368C69.0619 75.688 69.2299 76.08 69.2299 76.544C69.2299 77.008 69.0619 77.408 68.7259 77.744C68.4059 78.064 68.0139 78.224 67.5499 78.224C67.0859 78.224 66.6859 78.064 66.3499 77.744C66.0299 77.408 65.8699 77.008 65.8699 76.544ZM62.4619 90.272H66.6379V81.824H62.8939V80.096H68.5099V90.272H72.3979V92H62.4619V90.272ZM79.3413 83.168C79.3413 83.744 79.5813 84.184 80.0613 84.488C80.5573 84.792 81.4533 84.992 82.7493 85.088C84.1413 85.2 85.1973 85.536 85.9173 86.096C86.6533 86.64 87.0213 87.44 87.0213 88.496V88.64C87.0213 89.216 86.9013 89.736 86.6613 90.2C86.4373 90.648 86.1173 91.032 85.7013 91.352C85.3013 91.672 84.8053 91.912 84.2133 92.072C83.6373 92.248 83.0053 92.336 82.3173 92.336C81.3893 92.336 80.5893 92.216 79.9173 91.976C79.2613 91.72 78.7093 91.392 78.2613 90.992C77.8293 90.576 77.5013 90.112 77.2773 89.6C77.0533 89.072 76.9253 88.544 76.8933 88.016L78.6693 87.584C78.7493 88.496 79.1013 89.232 79.7253 89.792C80.3493 90.336 81.1813 90.608 82.2213 90.608C83.1013 90.608 83.8053 90.44 84.3333 90.104C84.8773 89.752 85.1493 89.264 85.1493 88.64C85.1493 87.968 84.8853 87.488 84.3573 87.2C83.8293 86.912 82.9733 86.728 81.7893 86.648C80.4133 86.552 79.3573 86.232 78.6213 85.688C77.8853 85.144 77.5173 84.352 77.5173 83.312V83.168C77.5173 82.608 77.6373 82.12 77.8773 81.704C78.1173 81.272 78.4373 80.912 78.8373 80.624C79.2533 80.336 79.7173 80.12 80.2293 79.976C80.7413 79.832 81.2773 79.76 81.8372 79.76C82.6213 79.76 83.3093 79.872 83.9013 80.096C84.4933 80.304 84.9893 80.584 85.3893 80.936C85.7893 81.272 86.0933 81.664 86.3013 82.112C86.5253 82.56 86.6693 83.008 86.7333 83.456L84.9573 83.888C84.8773 83.12 84.5653 82.52 84.0213 82.088C83.4933 81.656 82.7973 81.44 81.9333 81.44C81.5973 81.44 81.2693 81.48 80.9492 81.56C80.6453 81.624 80.3733 81.728 80.1333 81.872C79.8933 82.016 79.7013 82.2 79.5573 82.424C79.4133 82.632 79.3413 82.88 79.3413 83.168ZM102.701 87.776C102.573 88.432 102.349 89.04 102.029 89.6C101.725 90.16 101.333 90.648 100.853 91.064C100.373 91.464 99.8126 91.776 99.1726 92C98.5326 92.224 97.8206 92.336 97.0366 92.336C96.2046 92.336 95.4126 92.2 94.6606 91.928C93.9246 91.656 93.2766 91.264 92.7166 90.752C92.1566 90.224 91.7086 89.584 91.3726 88.832C91.0526 88.08 90.8926 87.216 90.8926 86.24V85.952C90.8926 84.992 91.0526 84.128 91.3726 83.36C91.7086 82.592 92.1566 81.944 92.7166 81.416C93.2766 80.888 93.9246 80.48 94.6606 80.192C95.4126 79.904 96.2046 79.76 97.0366 79.76C97.7886 79.76 98.4846 79.872 99.1246 80.096C99.7646 80.32 100.325 80.64 100.805 81.056C101.301 81.456 101.701 81.936 102.005 82.496C102.325 83.056 102.541 83.664 102.653 84.32L100.781 84.752C100.733 84.336 100.613 83.936 100.421 83.552C100.245 83.152 99.9966 82.808 99.6766 82.52C99.3726 82.216 98.9966 81.976 98.5486 81.8C98.1006 81.624 97.5806 81.536 96.9886 81.536C96.4126 81.536 95.8686 81.648 95.3566 81.872C94.8606 82.08 94.4206 82.384 94.0366 82.784C93.6526 83.168 93.3486 83.632 93.1246 84.176C92.9166 84.72 92.8126 85.312 92.8126 85.952V86.24C92.8126 86.912 92.9166 87.52 93.1246 88.064C93.3486 88.592 93.6526 89.04 94.0366 89.408C94.4206 89.776 94.8686 90.064 95.3806 90.272C95.8926 90.464 96.4446 90.56 97.0366 90.56C97.6286 90.56 98.1406 90.472 98.5726 90.296C99.0206 90.104 99.3966 89.864 99.7006 89.576C100.021 89.272 100.269 88.928 100.445 88.544C100.637 88.16 100.765 87.76 100.829 87.344L102.701 87.776ZM117.492 86.192C117.492 87.184 117.324 88.064 116.988 88.832C116.668 89.584 116.236 90.224 115.692 90.752C115.148 91.264 114.508 91.656 113.772 91.928C113.052 92.2 112.3 92.336 111.516 92.336C110.716 92.336 109.956 92.2 109.236 91.928C108.516 91.656 107.884 91.264 107.34 90.752C106.796 90.224 106.356 89.584 106.02 88.832C105.7 88.064 105.54 87.184 105.54 86.192V85.904C105.54 84.928 105.7 84.064 106.02 83.312C106.356 82.544 106.796 81.896 107.34 81.368C107.9 80.84 108.54 80.44 109.26 80.168C109.98 79.896 110.732 79.76 111.516 79.76C112.3 79.76 113.052 79.896 113.772 80.168C114.492 80.44 115.124 80.84 115.668 81.368C116.228 81.896 116.668 82.544 116.988 83.312C117.324 84.064 117.492 84.928 117.492 85.904V86.192ZM111.516 90.56C112.092 90.56 112.62 90.464 113.1 90.272C113.596 90.064 114.028 89.768 114.396 89.384C114.764 89 115.052 88.544 115.26 88.016C115.468 87.472 115.572 86.864 115.572 86.192V85.904C115.572 85.264 115.468 84.68 115.26 84.152C115.052 83.608 114.764 83.144 114.396 82.76C114.028 82.376 113.596 82.08 113.1 81.872C112.604 81.648 112.076 81.536 111.516 81.536C110.956 81.536 110.428 81.648 109.932 81.872C109.436 82.08 109.004 82.376 108.636 82.76C108.268 83.144 107.98 83.608 107.772 84.152C107.564 84.68 107.46 85.264 107.46 85.904V86.192C107.46 86.864 107.564 87.472 107.772 88.016C107.98 88.544 108.268 89 108.636 89.384C109.004 89.768 109.428 90.064 109.908 90.272C110.404 90.464 110.94 90.56 111.516 90.56ZM120.283 80.096H124.603V81.68H124.891C125.195 81.024 125.627 80.544 126.187 80.24C126.747 79.92 127.387 79.76 128.107 79.76C129.307 79.76 130.275 80.152 131.011 80.936C131.747 81.72 132.139 82.864 132.187 84.368L130.219 84.656C130.219 83.552 129.955 82.76 129.427 82.28C128.899 81.784 128.251 81.536 127.483 81.536C126.987 81.536 126.555 81.632 126.187 81.824C125.835 82.016 125.539 82.28 125.299 82.616C125.059 82.952 124.883 83.344 124.771 83.792C124.659 84.24 124.603 84.72 124.603 85.232V90.272H127.627V92H119.995V90.272H122.731V81.824H120.283V80.096ZM144.867 90.176H144.579C144.387 90.544 144.139 90.864 143.835 91.136C143.547 91.408 143.227 91.632 142.875 91.808C142.539 91.984 142.179 92.112 141.795 92.192C141.411 92.288 141.043 92.336 140.691 92.336C139.891 92.336 139.147 92.2 138.459 91.928C137.771 91.656 137.163 91.264 136.635 90.752C136.123 90.24 135.715 89.608 135.411 88.856C135.123 88.088 134.979 87.216 134.979 86.24V85.856C134.979 84.896 135.131 84.04 135.435 83.288C135.739 82.52 136.147 81.88 136.659 81.368C137.171 80.84 137.771 80.44 138.459 80.168C139.147 79.896 139.875 79.76 140.643 79.76C141.459 79.76 142.219 79.944 142.923 80.312C143.643 80.664 144.195 81.216 144.579 81.968H144.867V75.2H146.739V92H144.867V90.176ZM140.883 90.56C141.443 90.56 141.963 90.456 142.443 90.248C142.923 90.04 143.339 89.744 143.691 89.36C144.059 88.976 144.347 88.52 144.555 87.992C144.763 87.448 144.867 86.848 144.867 86.192V85.904C144.867 85.264 144.763 84.68 144.555 84.152C144.347 83.608 144.059 83.144 143.691 82.76C143.339 82.376 142.915 82.08 142.419 81.872C141.939 81.648 141.427 81.536 140.883 81.536C140.323 81.536 139.795 81.64 139.299 81.848C138.819 82.056 138.395 82.352 138.027 82.736C137.675 83.12 137.395 83.576 137.187 84.104C136.995 84.632 136.899 85.216 136.899 85.856V86.24C136.899 86.912 136.995 87.512 137.187 88.04C137.395 88.568 137.675 89.024 138.027 89.408C138.395 89.776 138.819 90.064 139.299 90.272C139.779 90.464 140.307 90.56 140.883 90.56ZM173.585 91.136H173.873V75.2H175.889V92H171.857L167.009 76.064H166.721V92H164.705V75.2H168.737L173.585 91.136ZM183.432 76.544C183.432 76.08 183.592 75.688 183.912 75.368C184.248 75.032 184.648 74.864 185.112 74.864C185.576 74.864 185.968 75.032 186.288 75.368C186.624 75.688 186.792 76.08 186.792 76.544C186.792 77.008 186.624 77.408 186.288 77.744C185.968 78.064 185.576 78.224 185.112 78.224C184.648 78.224 184.248 78.064 183.912 77.744C183.592 77.408 183.432 77.008 183.432 76.544ZM180.024 90.272H184.2V81.824H180.456V80.096H186.072V90.272H189.96V92H180.024V90.272ZM194.024 80.096H197.768V75.2H199.64V80.096H204.248V81.824H199.64V89.552C199.64 90.032 199.856 90.272 200.288 90.272H203.672V92H199.616C199.072 92 198.624 91.824 198.272 91.472C197.936 91.12 197.768 90.672 197.768 90.128V81.824H194.024V80.096ZM208.455 80.096H212.775V81.68H213.063C213.367 81.024 213.799 80.544 214.359 80.24C214.919 79.92 215.559 79.76 216.279 79.76C217.479 79.76 218.447 80.152 219.183 80.936C219.919 81.72 220.311 82.864 220.359 84.368L218.391 84.656C218.391 83.552 218.127 82.76 217.599 82.28C217.071 81.784 216.423 81.536 215.655 81.536C215.159 81.536 214.727 81.632 214.359 81.824C214.007 82.016 213.711 82.28 213.471 82.616C213.231 82.952 213.055 83.344 212.943 83.792C212.831 84.24 212.775 84.72 212.775 85.232V90.272H215.799V92H208.167V90.272H210.903V81.824H208.455V80.096ZM235.054 86.192C235.054 87.184 234.886 88.064 234.55 88.832C234.23 89.584 233.798 90.224 233.254 90.752C232.71 91.264 232.07 91.656 231.334 91.928C230.614 92.2 229.862 92.336 229.078 92.336C228.278 92.336 227.518 92.2 226.798 91.928C226.078 91.656 225.446 91.264 224.902 90.752C224.358 90.224 223.918 89.584 223.582 88.832C223.262 88.064 223.102 87.184 223.102 86.192V85.904C223.102 84.928 223.262 84.064 223.582 83.312C223.918 82.544 224.358 81.896 224.902 81.368C225.462 80.84 226.102 80.44 226.822 80.168C227.542 79.896 228.294 79.76 229.078 79.76C229.862 79.76 230.614 79.896 231.334 80.168C232.054 80.44 232.686 80.84 233.23 81.368C233.79 81.896 234.23 82.544 234.55 83.312C234.886 84.064 235.054 84.928 235.054 85.904V86.192ZM229.078 90.56C229.654 90.56 230.182 90.464 230.662 90.272C231.158 90.064 231.59 89.768 231.958 89.384C232.326 89 232.614 88.544 232.822 88.016C233.03 87.472 233.134 86.864 233.134 86.192V85.904C233.134 85.264 233.03 84.68 232.822 84.152C232.614 83.608 232.326 83.144 231.958 82.76C231.59 82.376 231.158 82.08 230.662 81.872C230.166 81.648 229.638 81.536 229.078 81.536C228.518 81.536 227.99 81.648 227.494 81.872C226.998 82.08 226.566 82.376 226.198 82.76C225.83 83.144 225.542 83.608 225.334 84.152C225.126 84.68 225.022 85.264 225.022 85.904V86.192C225.022 86.864 225.126 87.472 225.334 88.016C225.542 88.544 225.83 89 226.198 89.384C226.566 89.768 226.99 90.064 227.47 90.272C227.966 90.464 228.502 90.56 229.078 90.56Z" fill="#4F291E"/>
<path d="M1022.19 96.8H1040.3V99.608H1032.99L1028.24 122H1025.22L1029.97 99.608H1022.19V96.8ZM1047.51 107.24C1047.58 106.952 1047.55 106.736 1047.4 106.592C1047.26 106.424 1047.08 106.34 1046.86 106.34C1046.67 106.34 1046.49 106.4 1046.32 106.52L1043.05 108.752L1041.61 106.628L1044.81 104.468C1045.63 103.916 1046.46 103.64 1047.3 103.64C1048.04 103.64 1048.69 103.856 1049.24 104.288C1049.79 104.696 1050.1 105.368 1050.18 106.304H1050.61C1051.3 105.32 1052.08 104.636 1052.95 104.252C1053.81 103.844 1054.71 103.64 1055.65 103.64C1057.38 103.64 1058.73 104.144 1059.72 105.152C1060.7 106.136 1061.19 107.444 1061.19 109.076C1061.19 109.7 1061.12 110.336 1060.98 110.984L1057.92 111.2C1058.04 110.6 1058.1 110.096 1058.1 109.688C1058.1 108.536 1057.77 107.684 1057.12 107.132C1056.5 106.58 1055.68 106.304 1054.68 106.304C1053.96 106.304 1053.3 106.448 1052.7 106.736C1052.12 107 1051.62 107.372 1051.18 107.852C1050.75 108.308 1050.38 108.848 1050.07 109.472C1049.78 110.096 1049.56 110.744 1049.42 111.416L1047.73 119.408H1051.98V122H1040.53V119.408H1044.92L1047.51 107.24ZM1075.06 119.192C1074.32 120.464 1073.43 121.34 1072.4 121.82C1071.39 122.276 1070.32 122.504 1069.19 122.504C1068.23 122.504 1067.37 122.336 1066.6 122C1065.83 121.64 1065.19 121.148 1064.66 120.524C1064.13 119.9 1063.72 119.156 1063.43 118.292C1063.15 117.404 1063 116.432 1063 115.376C1063 113.864 1063.22 112.4 1063.65 110.984C1064.08 109.568 1064.71 108.32 1065.52 107.24C1066.36 106.16 1067.39 105.296 1068.62 104.648C1069.84 103.976 1071.26 103.64 1072.87 103.64C1074.09 103.64 1075.13 103.928 1076 104.504C1076.86 105.056 1077.43 105.872 1077.69 106.952H1078.12L1078.7 104.144H1081.51L1078.34 118.976C1078.29 119.192 1078.31 119.36 1078.41 119.48C1078.51 119.576 1078.64 119.624 1078.81 119.624C1078.97 119.624 1079.14 119.564 1079.31 119.444L1080.61 118.508L1082.12 120.632L1080.5 121.856C1080.23 122.048 1079.9 122.204 1079.49 122.324C1079.11 122.444 1078.71 122.504 1078.3 122.504C1077.94 122.504 1077.59 122.456 1077.26 122.36C1076.92 122.264 1076.61 122.12 1076.32 121.928C1076.06 121.712 1075.84 121.448 1075.67 121.136C1075.51 120.8 1075.42 120.392 1075.42 119.912C1075.42 119.792 1075.42 119.672 1075.42 119.552C1075.45 119.432 1075.47 119.312 1075.49 119.192H1075.06ZM1070.06 119.84C1071.02 119.84 1071.92 119.624 1072.76 119.192C1073.62 118.736 1074.37 118.124 1074.99 117.356C1075.64 116.588 1076.14 115.688 1076.5 114.656C1076.86 113.6 1077.04 112.46 1077.04 111.236C1077.04 109.748 1076.71 108.56 1076.03 107.672C1075.36 106.76 1074.32 106.304 1072.9 106.304C1071.77 106.304 1070.78 106.544 1069.91 107.024C1069.07 107.504 1068.35 108.152 1067.75 108.968C1067.15 109.76 1066.7 110.684 1066.39 111.74C1066.1 112.796 1065.95 113.888 1065.95 115.016C1065.95 116.6 1066.3 117.8 1067 118.616C1067.69 119.432 1068.71 119.84 1070.06 119.84ZM1102.97 115.88C1102.66 116.792 1102.23 117.656 1101.68 118.472C1101.13 119.264 1100.43 119.96 1099.59 120.56C1098.77 121.16 1097.81 121.64 1096.71 122C1095.63 122.336 1094.41 122.504 1093.04 122.504C1091.91 122.504 1090.88 122.336 1089.94 122C1089.03 121.64 1088.25 121.136 1087.6 120.488C1086.95 119.84 1086.45 119.06 1086.09 118.148C1085.73 117.236 1085.55 116.216 1085.55 115.088C1085.55 113.528 1085.81 112.052 1086.34 110.66C1086.89 109.268 1087.66 108.056 1088.65 107.024C1089.63 105.968 1090.82 105.14 1092.21 104.54C1093.6 103.94 1095.15 103.64 1096.85 103.64C1097.96 103.64 1098.95 103.796 1099.84 104.108C1100.73 104.42 1101.49 104.864 1102.11 105.44C1102.73 105.992 1103.21 106.664 1103.55 107.456C1103.89 108.224 1104.05 109.076 1104.05 110.012C1104.05 110.06 1104.05 110.12 1104.05 110.192C1104.05 110.24 1104.04 110.36 1104.02 110.552L1101.14 110.984C1101.16 110.84 1101.17 110.732 1101.17 110.66C1101.17 110.588 1101.17 110.504 1101.17 110.408C1101.17 109.832 1101.08 109.304 1100.89 108.824C1100.72 108.32 1100.43 107.888 1100.02 107.528C1099.64 107.144 1099.13 106.844 1098.51 106.628C1097.91 106.412 1097.19 106.304 1096.35 106.304C1095.22 106.304 1094.18 106.532 1093.22 106.988C1092.28 107.444 1091.45 108.068 1090.73 108.86C1090.04 109.628 1089.49 110.528 1089.08 111.56C1088.69 112.592 1088.5 113.672 1088.5 114.8C1088.5 116.504 1088.96 117.776 1089.87 118.616C1090.78 119.432 1092.03 119.84 1093.61 119.84C1094.57 119.84 1095.43 119.708 1096.17 119.444C1096.91 119.156 1097.56 118.796 1098.11 118.364C1098.67 117.908 1099.12 117.392 1099.48 116.816C1099.84 116.24 1100.12 115.64 1100.31 115.016L1102.97 115.88ZM1116.7 96.332L1113.5 111.56H1113.93L1122.86 103.712L1124.58 105.548L1116.63 112.532V113.18L1121.27 119.516C1121.42 119.684 1121.57 119.768 1121.74 119.768C1121.88 119.768 1122.04 119.708 1122.21 119.588L1123.94 118.328L1125.45 120.452L1123.83 121.676C1123.49 121.94 1123.14 122.144 1122.78 122.288C1122.42 122.432 1122.04 122.504 1121.63 122.504C1121.15 122.504 1120.68 122.384 1120.23 122.144C1119.8 121.904 1119.38 121.508 1118.97 120.956L1114 114.152H1112.92L1111.26 122H1108.46L1113.89 96.332H1116.7ZM1166.94 122H1161.4L1164.31 98.096H1163.88L1156.72 122H1151.17L1154.16 96.8H1156.9L1154.05 120.704H1154.49L1161.54 96.8H1167.16L1164.13 120.704H1164.57L1171.84 96.8H1174.65L1166.94 122ZM1183.69 98.816C1183.69 98.12 1183.93 97.532 1184.41 97.052C1184.92 96.548 1185.52 96.296 1186.21 96.296C1186.91 96.296 1187.5 96.548 1187.98 97.052C1188.48 97.532 1188.73 98.12 1188.73 98.816C1188.73 99.512 1188.48 100.112 1187.98 100.616C1187.5 101.096 1186.91 101.336 1186.21 101.336C1185.52 101.336 1184.92 101.096 1184.41 100.616C1183.93 100.112 1183.69 99.512 1183.69 98.816ZM1183.12 107.276C1183.17 107.036 1183.13 106.832 1183.01 106.664C1182.91 106.472 1182.73 106.376 1182.47 106.376C1182.28 106.376 1182.1 106.424 1181.93 106.52L1177.72 109.4L1176.28 107.276L1180.53 104.396C1181.27 103.892 1182.07 103.64 1182.94 103.64C1183.75 103.64 1184.46 103.88 1185.06 104.36C1185.66 104.84 1185.96 105.584 1185.96 106.592C1185.96 106.976 1185.91 107.36 1185.82 107.744L1183.15 118.868C1183.08 119.156 1183.11 119.384 1183.23 119.552C1183.37 119.72 1183.55 119.804 1183.77 119.804C1183.93 119.804 1184.11 119.744 1184.31 119.624L1188.45 116.816L1189.89 118.94L1185.75 121.748C1184.98 122.252 1184.17 122.504 1183.33 122.504C1182.52 122.504 1181.81 122.264 1181.21 121.784C1180.61 121.304 1180.31 120.56 1180.31 119.552C1180.31 119.168 1180.36 118.784 1180.45 118.4L1183.12 107.276ZM1209.7 111.272C1209.77 110.936 1209.82 110.66 1209.84 110.444C1209.86 110.204 1209.88 109.964 1209.88 109.724C1209.88 108.572 1209.53 107.72 1208.83 107.168C1208.16 106.592 1207.21 106.304 1205.99 106.304C1204.36 106.304 1203.02 106.892 1201.99 108.068C1200.96 109.22 1200.25 110.696 1199.87 112.496L1197.85 122H1195.04L1198.86 104.144H1201.67L1201.13 106.736H1201.56C1202.16 105.656 1202.94 104.876 1203.9 104.396C1204.88 103.892 1205.92 103.64 1207 103.64C1207.76 103.64 1208.5 103.772 1209.19 104.036C1209.89 104.276 1210.49 104.636 1210.99 105.116C1211.52 105.596 1211.93 106.184 1212.22 106.88C1212.53 107.576 1212.68 108.38 1212.68 109.292C1212.68 109.892 1212.61 110.528 1212.47 111.2L1210.74 119.192C1210.69 119.384 1210.72 119.528 1210.81 119.624C1210.91 119.72 1211.03 119.768 1211.17 119.768C1211.32 119.768 1211.45 119.72 1211.57 119.624L1213.08 118.508L1214.59 120.632L1213.19 121.676C1212.47 122.228 1211.66 122.504 1210.78 122.504C1210.42 122.504 1210.07 122.456 1209.73 122.36C1209.4 122.288 1209.1 122.156 1208.83 121.964C1208.57 121.748 1208.35 121.472 1208.18 121.136C1208.02 120.8 1207.93 120.38 1207.93 119.876C1207.93 119.564 1207.98 119.18 1208.08 118.724L1209.7 111.272ZM1231.74 111.272C1231.81 110.936 1231.86 110.66 1231.88 110.444C1231.91 110.204 1231.92 109.964 1231.92 109.724C1231.92 108.572 1231.57 107.72 1230.88 107.168C1230.2 106.592 1229.26 106.304 1228.03 106.304C1226.4 106.304 1225.07 106.892 1224.04 108.068C1223 109.22 1222.3 110.696 1221.91 112.496L1219.9 122H1217.09L1220.9 104.144H1223.71L1223.17 106.736H1223.6C1224.2 105.656 1224.98 104.876 1225.94 104.396C1226.93 103.892 1227.96 103.64 1229.04 103.64C1229.81 103.64 1230.54 103.772 1231.24 104.036C1231.93 104.276 1232.53 104.636 1233.04 105.116C1233.56 105.596 1233.97 106.184 1234.26 106.88C1234.57 107.576 1234.73 108.38 1234.73 109.292C1234.73 109.892 1234.66 110.528 1234.51 111.2L1232.78 119.192C1232.74 119.384 1232.76 119.528 1232.86 119.624C1232.95 119.72 1233.07 119.768 1233.22 119.768C1233.36 119.768 1233.49 119.72 1233.61 119.624L1235.12 118.508L1236.64 120.632L1235.23 121.676C1234.51 122.228 1233.71 122.504 1232.82 122.504C1232.46 122.504 1232.11 122.456 1231.78 122.36C1231.44 122.288 1231.14 122.156 1230.88 121.964C1230.61 121.748 1230.4 121.472 1230.23 121.136C1230.06 120.8 1229.98 120.38 1229.98 119.876C1229.98 119.564 1230.02 119.18 1230.12 118.724L1231.74 111.272ZM1242.95 113.936C1242.9 114.128 1242.86 114.344 1242.84 114.584C1242.81 114.824 1242.8 115.076 1242.8 115.34C1242.8 116.66 1243.19 117.752 1243.95 118.616C1244.72 119.456 1245.95 119.876 1247.63 119.876C1248.47 119.876 1249.21 119.78 1249.86 119.588C1250.53 119.396 1251.11 119.132 1251.59 118.796C1252.07 118.436 1252.47 118.04 1252.81 117.608C1253.17 117.152 1253.47 116.672 1253.71 116.168L1256.01 117.464C1255.68 118.16 1255.26 118.82 1254.75 119.444C1254.25 120.044 1253.65 120.572 1252.95 121.028C1252.26 121.484 1251.45 121.844 1250.54 122.108C1249.63 122.372 1248.59 122.504 1247.41 122.504C1246.33 122.504 1245.33 122.336 1244.42 122C1243.53 121.688 1242.77 121.232 1242.12 120.632C1241.47 120.008 1240.97 119.252 1240.61 118.364C1240.25 117.476 1240.07 116.468 1240.07 115.34C1240.07 113.828 1240.31 112.376 1240.79 110.984C1241.27 109.568 1241.96 108.32 1242.87 107.24C1243.79 106.16 1244.91 105.296 1246.26 104.648C1247.6 103.976 1249.13 103.64 1250.83 103.64C1252.03 103.64 1253.07 103.832 1253.96 104.216C1254.85 104.576 1255.58 105.08 1256.16 105.728C1256.73 106.352 1257.17 107.072 1257.45 107.888C1257.74 108.68 1257.89 109.508 1257.89 110.372C1257.89 111.02 1257.81 111.644 1257.67 112.244L1257.27 113.936H1242.95ZM1250.47 106.304C1249.63 106.304 1248.84 106.436 1248.09 106.7C1247.37 106.94 1246.71 107.288 1246.11 107.744C1245.51 108.2 1245 108.74 1244.57 109.364C1244.13 109.964 1243.8 110.624 1243.56 111.344H1255.01C1255.08 110.96 1255.11 110.6 1255.11 110.264C1255.11 108.968 1254.67 107.984 1253.78 107.312C1252.89 106.64 1251.79 106.304 1250.47 106.304ZM1267.94 107.24C1268.01 106.952 1267.98 106.736 1267.83 106.592C1267.69 106.424 1267.51 106.34 1267.29 106.34C1267.1 106.34 1266.92 106.4 1266.75 106.52L1263.48 108.752L1262.04 106.628L1265.24 104.468C1266.06 103.916 1266.89 103.64 1267.73 103.64C1268.47 103.64 1269.12 103.856 1269.67 104.288C1270.22 104.696 1270.53 105.368 1270.61 106.304H1271.04C1271.73 105.32 1272.51 104.636 1273.38 104.252C1274.24 103.844 1275.14 103.64 1276.08 103.64C1277.81 103.64 1279.16 104.144 1280.15 105.152C1281.13 106.136 1281.62 107.444 1281.62 109.076C1281.62 109.7 1281.55 110.336 1281.41 110.984L1278.35 111.2C1278.47 110.6 1278.53 110.096 1278.53 109.688C1278.53 108.536 1278.2 107.684 1277.55 107.132C1276.93 106.58 1276.11 106.304 1275.11 106.304C1274.39 106.304 1273.73 106.448 1273.13 106.736C1272.55 107 1272.05 107.372 1271.61 107.852C1271.18 108.308 1270.81 108.848 1270.5 109.472C1270.21 110.096 1269.99 110.744 1269.85 111.416L1268.16 119.408H1272.41V122H1260.96V119.408H1265.35L1267.94 107.24Z" fill="#4F291E"/>
</svg>
