<svg width="542" height="507" viewBox="0 0 542 507" fill="none" xmlns="http://www.w3.org/2000/svg">
<rect y="-6" width="542" height="513" rx="12" fill="#E35734"/>
<path d="M45.322 54H38.194V42.66C38.194 41.796 37.96 41.094 37.492 40.554C37.06 40.014 36.322 39.744 35.278 39.744H27.07V54H19.942V16.2H34.414C36.358 16.2 38.068 16.47 39.544 17.01C41.02 17.55 42.244 18.306 43.216 19.278C44.224 20.214 44.98 21.312 45.484 22.572C46.024 23.832 46.294 25.182 46.294 26.622V27.918C46.294 29.466 45.88 30.924 45.052 32.292C44.224 33.624 42.946 34.65 41.218 35.37V36.342C42.478 36.486 43.468 36.972 44.188 37.8C44.944 38.628 45.322 39.672 45.322 40.932V54ZM27.07 32.94H33.874C35.602 32.94 36.916 32.544 37.816 31.752C38.716 30.924 39.166 29.772 39.166 28.296V27.648C39.166 26.388 38.716 25.308 37.816 24.408C36.916 23.472 35.602 23.004 33.874 23.004H27.07V32.94ZM61.8085 34.776C61.8085 35.64 62.2585 36.27 63.1585 36.666C64.0585 37.026 65.6965 37.332 68.0725 37.584C70.8085 37.872 73.0405 38.7 74.7685 40.068C76.4965 41.4 77.3605 43.272 77.3605 45.684V46.008C77.3605 48.672 76.3885 50.796 74.4445 52.38C72.5005 53.964 69.7645 54.756 66.2365 54.756C64.1485 54.756 62.3665 54.486 60.8905 53.946C59.4145 53.406 58.1905 52.74 57.2185 51.948C56.2465 51.12 55.4905 50.22 54.9505 49.248C54.4465 48.24 54.1045 47.268 53.9245 46.332L60.1885 44.28C60.4765 45.432 61.0705 46.44 61.9705 47.304C62.9065 48.168 64.3285 48.6 66.2365 48.6C67.9285 48.6 69.0805 48.348 69.6925 47.844C70.3405 47.304 70.6645 46.728 70.6645 46.116C70.6645 45.756 70.5745 45.432 70.3945 45.144C70.2505 44.82 69.9625 44.532 69.5305 44.28C69.0985 43.992 68.5045 43.758 67.7485 43.578C67.0285 43.398 66.1105 43.254 64.9945 43.146C61.9705 42.894 59.5585 42.12 57.7585 40.824C55.9945 39.492 55.1125 37.548 55.1125 34.992V34.668C55.1125 33.336 55.4005 32.166 55.9765 31.158C56.5525 30.15 57.3085 29.304 58.2445 28.62C59.1805 27.9 60.2605 27.36 61.4845 27C62.7085 26.64 63.9685 26.46 65.2645 26.46C66.9565 26.46 68.4145 26.676 69.6385 27.108C70.8985 27.504 71.9605 28.044 72.8245 28.728C73.6885 29.376 74.3905 30.114 74.9305 30.942C75.4705 31.734 75.8845 32.508 76.1725 33.264L70.0165 35.748C69.6925 34.776 69.1345 34.02 68.3425 33.48C67.5505 32.904 66.5245 32.616 65.2645 32.616C64.1125 32.616 63.2485 32.832 62.6725 33.264C62.0965 33.66 61.8085 34.164 61.8085 34.776ZM103.783 49.626C103.783 50.346 103.639 51.03 103.351 51.678C103.099 52.29 102.739 52.83 102.271 53.298C101.803 53.73 101.245 54.072 100.597 54.324C99.9849 54.612 99.3369 54.756 98.6529 54.756C97.9329 54.756 97.2669 54.612 96.6549 54.324C96.0429 54.072 95.5029 53.73 95.0349 53.298C94.5669 52.83 94.1889 52.29 93.9009 51.678C93.6489 51.03 93.5229 50.346 93.5229 49.626C93.5229 48.906 93.6489 48.24 93.9009 47.628C94.1889 46.98 94.5669 46.44 95.0349 46.008C95.5029 45.54 96.0429 45.18 96.6549 44.928C97.2669 44.64 97.9329 44.496 98.6529 44.496C99.3369 44.496 99.9849 44.64 100.597 44.928C101.245 45.18 101.803 45.54 102.271 46.008C102.739 46.44 103.099 46.98 103.351 47.628C103.639 48.24 103.783 48.906 103.783 49.626ZM129.449 47.196V19.764H128.477L124.913 32.724H118.109V32.076L122.645 16.2H136.577V47.196H145.973V54H118.757V47.196H129.449ZM159.652 49.626C159.652 48.942 159.778 48.294 160.03 47.682C160.318 47.034 160.696 46.494 161.164 46.062C161.632 45.594 162.172 45.234 162.784 44.982C163.396 44.694 164.062 44.55 164.782 44.55C165.466 44.55 166.114 44.694 166.726 44.982C167.374 45.234 167.932 45.594 168.4 46.062C168.868 46.494 169.228 47.034 169.48 47.682C169.768 48.294 169.912 48.942 169.912 49.626V56.214C169.912 57.582 169.444 58.734 168.508 59.67C167.608 60.606 166.474 61.074 165.106 61.074H161.65V56.862H164.242C165.214 56.862 165.7 56.322 165.7 55.242V54.594C165.412 54.702 165.106 54.756 164.782 54.756C164.062 54.756 163.396 54.612 162.784 54.324C162.172 54.072 161.632 53.712 161.164 53.244C160.696 52.776 160.318 52.236 160.03 51.624C159.778 51.012 159.652 50.346 159.652 49.626ZM193.31 35.1C193.31 33.876 193.76 32.814 194.66 31.914C195.56 31.014 196.622 30.564 197.846 30.564C199.07 30.564 200.132 31.014 201.032 31.914C201.932 32.814 202.382 33.876 202.382 35.1C202.382 36.324 201.932 37.386 201.032 38.286C200.132 39.186 199.07 39.636 197.846 39.636C196.622 39.636 195.56 39.186 194.66 38.286C193.76 37.386 193.31 36.324 193.31 35.1ZM183.914 30.888C183.914 25.992 185.138 22.194 187.586 19.494C190.07 16.794 193.49 15.444 197.846 15.444C202.202 15.444 205.604 16.794 208.052 19.494C210.536 22.194 211.778 25.992 211.778 30.888V39.312C211.778 44.352 210.536 48.186 208.052 50.814C205.604 53.442 202.202 54.756 197.846 54.756C193.49 54.756 190.07 53.442 187.586 50.814C185.138 48.186 183.914 44.352 183.914 39.312V30.888ZM197.846 48.276C199.142 48.276 200.222 48.078 201.086 47.682C201.95 47.25 202.652 46.656 203.192 45.9C203.732 45.144 204.11 44.244 204.326 43.2C204.542 42.156 204.65 41.004 204.65 39.744V30.456C204.65 29.268 204.524 28.152 204.272 27.108C204.02 26.064 203.624 25.164 203.084 24.408C202.544 23.652 201.842 23.058 200.978 22.626C200.114 22.158 199.07 21.924 197.846 21.924C196.622 21.924 195.578 22.158 194.714 22.626C193.85 23.058 193.148 23.652 192.608 24.408C192.068 25.164 191.672 26.064 191.42 27.108C191.168 28.152 191.042 29.268 191.042 30.456V39.744C191.042 41.004 191.15 42.156 191.366 43.2C191.582 44.244 191.96 45.144 192.5 45.9C193.04 46.656 193.742 47.25 194.606 47.682C195.47 48.078 196.55 48.276 197.846 48.276ZM226.375 35.1C226.375 33.876 226.825 32.814 227.725 31.914C228.625 31.014 229.687 30.564 230.911 30.564C232.135 30.564 233.197 31.014 234.097 31.914C234.997 32.814 235.447 33.876 235.447 35.1C235.447 36.324 234.997 37.386 234.097 38.286C233.197 39.186 232.135 39.636 230.911 39.636C229.687 39.636 228.625 39.186 227.725 38.286C226.825 37.386 226.375 36.324 226.375 35.1ZM216.979 30.888C216.979 25.992 218.203 22.194 220.651 19.494C223.135 16.794 226.555 15.444 230.911 15.444C235.267 15.444 238.669 16.794 241.117 19.494C243.601 22.194 244.843 25.992 244.843 30.888V39.312C244.843 44.352 243.601 48.186 241.117 50.814C238.669 53.442 235.267 54.756 230.911 54.756C226.555 54.756 223.135 53.442 220.651 50.814C218.203 48.186 216.979 44.352 216.979 39.312V30.888ZM230.911 48.276C232.207 48.276 233.287 48.078 234.151 47.682C235.015 47.25 235.717 46.656 236.257 45.9C236.797 45.144 237.175 44.244 237.391 43.2C237.607 42.156 237.715 41.004 237.715 39.744V30.456C237.715 29.268 237.589 28.152 237.337 27.108C237.085 26.064 236.689 25.164 236.149 24.408C235.609 23.652 234.907 23.058 234.043 22.626C233.179 22.158 232.135 21.924 230.911 21.924C229.687 21.924 228.643 22.158 227.779 22.626C226.915 23.058 226.213 23.652 225.673 24.408C225.133 25.164 224.737 26.064 224.485 27.108C224.233 28.152 224.107 29.268 224.107 30.456V39.744C224.107 41.004 224.215 42.156 224.431 43.2C224.647 44.244 225.025 45.144 225.565 45.9C226.105 46.656 226.807 47.25 227.671 47.682C228.535 48.078 229.615 48.276 230.911 48.276ZM258.845 49.626C258.845 48.942 258.971 48.294 259.223 47.682C259.511 47.034 259.889 46.494 260.357 46.062C260.825 45.594 261.365 45.234 261.977 44.982C262.589 44.694 263.255 44.55 263.975 44.55C264.659 44.55 265.307 44.694 265.919 44.982C266.567 45.234 267.125 45.594 267.593 46.062C268.061 46.494 268.421 47.034 268.673 47.682C268.961 48.294 269.105 48.942 269.105 49.626V56.214C269.105 57.582 268.637 58.734 267.701 59.67C266.801 60.606 265.667 61.074 264.299 61.074H260.843V56.862H263.435C264.407 56.862 264.893 56.322 264.893 55.242V54.594C264.605 54.702 264.299 54.756 263.975 54.756C263.255 54.756 262.589 54.612 261.977 54.324C261.365 54.072 260.825 53.712 260.357 53.244C259.889 52.776 259.511 52.236 259.223 51.624C258.971 51.012 258.845 50.346 258.845 49.626ZM292.504 35.1C292.504 33.876 292.954 32.814 293.854 31.914C294.754 31.014 295.816 30.564 297.04 30.564C298.264 30.564 299.326 31.014 300.226 31.914C301.126 32.814 301.576 33.876 301.576 35.1C301.576 36.324 301.126 37.386 300.226 38.286C299.326 39.186 298.264 39.636 297.04 39.636C295.816 39.636 294.754 39.186 293.854 38.286C292.954 37.386 292.504 36.324 292.504 35.1ZM283.108 30.888C283.108 25.992 284.332 22.194 286.78 19.494C289.264 16.794 292.684 15.444 297.04 15.444C301.396 15.444 304.798 16.794 307.246 19.494C309.73 22.194 310.972 25.992 310.972 30.888V39.312C310.972 44.352 309.73 48.186 307.246 50.814C304.798 53.442 301.396 54.756 297.04 54.756C292.684 54.756 289.264 53.442 286.78 50.814C284.332 48.186 283.108 44.352 283.108 39.312V30.888ZM297.04 48.276C298.336 48.276 299.416 48.078 300.28 47.682C301.144 47.25 301.846 46.656 302.386 45.9C302.926 45.144 303.304 44.244 303.52 43.2C303.736 42.156 303.844 41.004 303.844 39.744V30.456C303.844 29.268 303.718 28.152 303.466 27.108C303.214 26.064 302.818 25.164 302.278 24.408C301.738 23.652 301.036 23.058 300.172 22.626C299.308 22.158 298.264 21.924 297.04 21.924C295.816 21.924 294.772 22.158 293.908 22.626C293.044 23.058 292.342 23.652 291.802 24.408C291.262 25.164 290.866 26.064 290.614 27.108C290.362 28.152 290.236 29.268 290.236 30.456V39.744C290.236 41.004 290.344 42.156 290.56 43.2C290.776 44.244 291.154 45.144 291.694 45.9C292.234 46.656 292.936 47.25 293.8 47.682C294.664 48.078 295.744 48.276 297.04 48.276ZM325.568 35.1C325.568 33.876 326.018 32.814 326.918 31.914C327.818 31.014 328.88 30.564 330.104 30.564C331.328 30.564 332.39 31.014 333.29 31.914C334.19 32.814 334.64 33.876 334.64 35.1C334.64 36.324 334.19 37.386 333.29 38.286C332.39 39.186 331.328 39.636 330.104 39.636C328.88 39.636 327.818 39.186 326.918 38.286C326.018 37.386 325.568 36.324 325.568 35.1ZM316.172 30.888C316.172 25.992 317.396 22.194 319.844 19.494C322.328 16.794 325.748 15.444 330.104 15.444C334.46 15.444 337.862 16.794 340.31 19.494C342.794 22.194 344.036 25.992 344.036 30.888V39.312C344.036 44.352 342.794 48.186 340.31 50.814C337.862 53.442 334.46 54.756 330.104 54.756C325.748 54.756 322.328 53.442 319.844 50.814C317.396 48.186 316.172 44.352 316.172 39.312V30.888ZM330.104 48.276C331.4 48.276 332.48 48.078 333.344 47.682C334.208 47.25 334.91 46.656 335.45 45.9C335.99 45.144 336.368 44.244 336.584 43.2C336.8 42.156 336.908 41.004 336.908 39.744V30.456C336.908 29.268 336.782 28.152 336.53 27.108C336.278 26.064 335.882 25.164 335.342 24.408C334.802 23.652 334.1 23.058 333.236 22.626C332.372 22.158 331.328 21.924 330.104 21.924C328.88 21.924 327.836 22.158 326.972 22.626C326.108 23.058 325.406 23.652 324.866 24.408C324.326 25.164 323.93 26.064 323.678 27.108C323.426 28.152 323.3 29.268 323.3 30.456V39.744C323.3 41.004 323.408 42.156 323.624 43.2C323.84 44.244 324.218 45.144 324.758 45.9C325.298 46.656 326 47.25 326.864 47.682C327.728 48.078 328.808 48.276 330.104 48.276ZM358.633 35.1C358.633 33.876 359.083 32.814 359.983 31.914C360.883 31.014 361.945 30.564 363.169 30.564C364.393 30.564 365.455 31.014 366.355 31.914C367.255 32.814 367.705 33.876 367.705 35.1C367.705 36.324 367.255 37.386 366.355 38.286C365.455 39.186 364.393 39.636 363.169 39.636C361.945 39.636 360.883 39.186 359.983 38.286C359.083 37.386 358.633 36.324 358.633 35.1ZM349.237 30.888C349.237 25.992 350.461 22.194 352.909 19.494C355.393 16.794 358.813 15.444 363.169 15.444C367.525 15.444 370.927 16.794 373.375 19.494C375.859 22.194 377.101 25.992 377.101 30.888V39.312C377.101 44.352 375.859 48.186 373.375 50.814C370.927 53.442 367.525 54.756 363.169 54.756C358.813 54.756 355.393 53.442 352.909 50.814C350.461 48.186 349.237 44.352 349.237 39.312V30.888ZM363.169 48.276C364.465 48.276 365.545 48.078 366.409 47.682C367.273 47.25 367.975 46.656 368.515 45.9C369.055 45.144 369.433 44.244 369.649 43.2C369.865 42.156 369.973 41.004 369.973 39.744V30.456C369.973 29.268 369.847 28.152 369.595 27.108C369.343 26.064 368.947 25.164 368.407 24.408C367.867 23.652 367.165 23.058 366.301 22.626C365.437 22.158 364.393 21.924 363.169 21.924C361.945 21.924 360.901 22.158 360.037 22.626C359.173 23.058 358.471 23.652 357.931 24.408C357.391 25.164 356.995 26.064 356.743 27.108C356.491 28.152 356.365 29.268 356.365 30.456V39.744C356.365 41.004 356.473 42.156 356.689 43.2C356.905 44.244 357.283 45.144 357.823 45.9C358.363 46.656 359.065 47.25 359.929 47.682C360.793 48.078 361.873 48.276 363.169 48.276Z" fill="white"/>
<path d="M18.522 114.964H23.02V110.466H24.892V114.964H29.39V116.836H24.892V121.334H23.02V116.836H18.522V114.964ZM50.2838 106.8H61.3078V108.828H52.4678V114.86H61.1518V116.888H52.4678V122.972H61.4638V125H50.2838V106.8ZM75.1998 112.104H77.5138L73.7178 118.24V118.552L77.8258 125H75.4598L71.9498 119.332H71.4818L67.9718 125H65.6058L69.7138 118.552V118.24L65.9178 112.104H68.2318L71.4818 117.46H71.9498L75.1998 112.104ZM81.9417 123.128H86.6217V108.672H82.0977V106.8H88.6497V123.128H93.3297V125H81.9417V123.128ZM107.066 112.104H109.094V125H107.066V122.66H106.754C106.338 123.492 105.792 124.151 105.116 124.636C104.44 125.121 103.582 125.364 102.542 125.364C101.831 125.364 101.172 125.243 100.566 125C99.9763 124.775 99.4649 124.428 99.0316 123.96C98.6156 123.492 98.2863 122.911 98.0436 122.218C97.8183 121.525 97.7056 120.719 97.7056 119.8V112.104H99.7336V119.54C99.7336 120.892 100.011 121.88 100.566 122.504C101.12 123.128 101.97 123.44 103.114 123.44C104.344 123.44 105.306 123.024 106 122.192C106.71 121.343 107.066 120.216 107.066 118.812V112.104ZM116.46 115.432C116.46 116.056 116.72 116.533 117.24 116.862C117.777 117.191 118.748 117.408 120.152 117.512C121.66 117.633 122.804 117.997 123.584 118.604C124.381 119.193 124.78 120.06 124.78 121.204V121.36C124.78 121.984 124.65 122.547 124.39 123.05C124.147 123.535 123.8 123.951 123.35 124.298C122.916 124.645 122.379 124.905 121.738 125.078C121.114 125.269 120.429 125.364 119.684 125.364C118.678 125.364 117.812 125.234 117.084 124.974C116.373 124.697 115.775 124.341 115.29 123.908C114.822 123.457 114.466 122.955 114.224 122.4C113.981 121.828 113.842 121.256 113.808 120.684L115.732 120.216C115.818 121.204 116.2 122.001 116.876 122.608C117.552 123.197 118.453 123.492 119.58 123.492C120.533 123.492 121.296 123.31 121.868 122.946C122.457 122.565 122.752 122.036 122.752 121.36C122.752 120.632 122.466 120.112 121.894 119.8C121.322 119.488 120.394 119.289 119.112 119.202C117.621 119.098 116.477 118.751 115.68 118.162C114.882 117.573 114.484 116.715 114.484 115.588V115.432C114.484 114.825 114.614 114.297 114.874 113.846C115.134 113.378 115.48 112.988 115.914 112.676C116.364 112.364 116.867 112.13 117.422 111.974C117.976 111.818 118.557 111.74 119.164 111.74C120.013 111.74 120.758 111.861 121.4 112.104C122.041 112.329 122.578 112.633 123.012 113.014C123.445 113.378 123.774 113.803 124 114.288C124.242 114.773 124.398 115.259 124.468 115.744L122.544 116.212C122.457 115.38 122.119 114.73 121.53 114.262C120.958 113.794 120.204 113.56 119.268 113.56C118.904 113.56 118.548 113.603 118.202 113.69C117.872 113.759 117.578 113.872 117.318 114.028C117.058 114.184 116.85 114.383 116.694 114.626C116.538 114.851 116.46 115.12 116.46 115.432ZM133.705 108.256C133.705 107.753 133.879 107.329 134.225 106.982C134.589 106.618 135.023 106.436 135.525 106.436C136.028 106.436 136.453 106.618 136.799 106.982C137.163 107.329 137.345 107.753 137.345 108.256C137.345 108.759 137.163 109.192 136.799 109.556C136.453 109.903 136.028 110.076 135.525 110.076C135.023 110.076 134.589 109.903 134.225 109.556C133.879 109.192 133.705 108.759 133.705 108.256ZM130.013 123.128H134.537V113.976H130.481V112.104H136.565V123.128H140.777V125H130.013V123.128ZM153.291 125H149.287L144.789 112.104H147.181L151.133 124.064H151.445L155.397 112.104H157.789L153.291 125ZM163.023 119.176C163.075 120.459 163.474 121.49 164.219 122.27C164.965 123.05 166.005 123.44 167.339 123.44C167.946 123.44 168.475 123.371 168.925 123.232C169.376 123.093 169.757 122.903 170.069 122.66C170.399 122.417 170.659 122.14 170.849 121.828C171.057 121.499 171.222 121.152 171.343 120.788L173.267 121.308C172.903 122.504 172.227 123.483 171.239 124.246C170.269 124.991 168.951 125.364 167.287 125.364C166.369 125.364 165.519 125.208 164.739 124.896C163.977 124.567 163.318 124.107 162.763 123.518C162.209 122.929 161.775 122.227 161.463 121.412C161.151 120.597 160.995 119.696 160.995 118.708V118.084C160.995 117.183 161.151 116.342 161.463 115.562C161.793 114.782 162.243 114.115 162.815 113.56C163.387 112.988 164.055 112.546 164.817 112.234C165.597 111.905 166.438 111.74 167.339 111.74C168.397 111.74 169.307 111.939 170.069 112.338C170.849 112.719 171.482 113.196 171.967 113.768C172.47 114.34 172.834 114.964 173.059 115.64C173.302 116.316 173.423 116.94 173.423 117.512V119.176H163.023ZM167.339 113.664C166.767 113.664 166.23 113.759 165.727 113.95C165.242 114.123 164.809 114.375 164.427 114.704C164.063 115.033 163.76 115.423 163.517 115.874C163.292 116.307 163.145 116.784 163.075 117.304H171.395C171.361 116.749 171.222 116.247 170.979 115.796C170.754 115.345 170.451 114.964 170.069 114.652C169.705 114.34 169.281 114.097 168.795 113.924C168.327 113.751 167.842 113.664 167.339 113.664ZM195.513 117.512V125H193.329V106.8H199.829C200.765 106.8 201.58 106.939 202.273 107.216C202.966 107.476 203.538 107.831 203.989 108.282C204.457 108.733 204.804 109.261 205.029 109.868C205.272 110.457 205.393 111.081 205.393 111.74V112.52C205.393 113.179 205.272 113.811 205.029 114.418C204.804 115.025 204.457 115.562 203.989 116.03C203.521 116.481 202.94 116.845 202.247 117.122C201.554 117.382 200.748 117.512 199.829 117.512H195.513ZM195.513 115.484H199.569C201.996 115.484 203.209 114.444 203.209 112.364V111.896C203.209 110.977 202.906 110.241 202.299 109.686C201.71 109.114 200.8 108.828 199.569 108.828H195.513V115.484ZM221.469 118.708C221.469 119.783 221.287 120.736 220.923 121.568C220.576 122.383 220.108 123.076 219.519 123.648C218.93 124.203 218.236 124.627 217.439 124.922C216.659 125.217 215.844 125.364 214.995 125.364C214.128 125.364 213.305 125.217 212.525 124.922C211.745 124.627 211.06 124.203 210.471 123.648C209.882 123.076 209.405 122.383 209.041 121.568C208.694 120.736 208.521 119.783 208.521 118.708V118.396C208.521 117.339 208.694 116.403 209.041 115.588C209.405 114.756 209.882 114.054 210.471 113.482C211.078 112.91 211.771 112.477 212.551 112.182C213.331 111.887 214.146 111.74 214.995 111.74C215.844 111.74 216.659 111.887 217.439 112.182C218.219 112.477 218.904 112.91 219.493 113.482C220.1 114.054 220.576 114.756 220.923 115.588C221.287 116.403 221.469 117.339 221.469 118.396V118.708ZM214.995 123.44C215.619 123.44 216.191 123.336 216.711 123.128C217.248 122.903 217.716 122.582 218.115 122.166C218.514 121.75 218.826 121.256 219.051 120.684C219.276 120.095 219.389 119.436 219.389 118.708V118.396C219.389 117.703 219.276 117.07 219.051 116.498C218.826 115.909 218.514 115.406 218.115 114.99C217.716 114.574 217.248 114.253 216.711 114.028C216.174 113.785 215.602 113.664 214.995 113.664C214.388 113.664 213.816 113.785 213.279 114.028C212.742 114.253 212.274 114.574 211.875 114.99C211.476 115.406 211.164 115.909 210.939 116.498C210.714 117.07 210.601 117.703 210.601 118.396V118.708C210.601 119.436 210.714 120.095 210.939 120.684C211.164 121.256 211.476 121.75 211.875 122.166C212.274 122.582 212.733 122.903 213.253 123.128C213.79 123.336 214.371 123.44 214.995 123.44ZM227.899 115.432C227.899 116.056 228.159 116.533 228.679 116.862C229.216 117.191 230.187 117.408 231.591 117.512C233.099 117.633 234.243 117.997 235.023 118.604C235.82 119.193 236.219 120.06 236.219 121.204V121.36C236.219 121.984 236.089 122.547 235.829 123.05C235.586 123.535 235.24 123.951 234.789 124.298C234.356 124.645 233.818 124.905 233.177 125.078C232.553 125.269 231.868 125.364 231.123 125.364C230.118 125.364 229.251 125.234 228.523 124.974C227.812 124.697 227.214 124.341 226.729 123.908C226.261 123.457 225.906 122.955 225.663 122.4C225.42 121.828 225.282 121.256 225.247 120.684L227.171 120.216C227.258 121.204 227.639 122.001 228.315 122.608C228.991 123.197 229.892 123.492 231.019 123.492C231.972 123.492 232.735 123.31 233.307 122.946C233.896 122.565 234.191 122.036 234.191 121.36C234.191 120.632 233.905 120.112 233.333 119.8C232.761 119.488 231.834 119.289 230.551 119.202C229.06 119.098 227.916 118.751 227.119 118.162C226.322 117.573 225.923 116.715 225.923 115.588V115.432C225.923 114.825 226.053 114.297 226.313 113.846C226.573 113.378 226.92 112.988 227.353 112.676C227.804 112.364 228.306 112.13 228.861 111.974C229.416 111.818 229.996 111.74 230.603 111.74C231.452 111.74 232.198 111.861 232.839 112.104C233.48 112.329 234.018 112.633 234.451 113.014C234.884 113.378 235.214 113.803 235.439 114.288C235.682 114.773 235.838 115.259 235.907 115.744L233.983 116.212C233.896 115.38 233.558 114.73 232.969 114.262C232.397 113.794 231.643 113.56 230.707 113.56C230.343 113.56 229.988 113.603 229.641 113.69C229.312 113.759 229.017 113.872 228.757 114.028C228.497 114.184 228.289 114.383 228.133 114.626C227.977 114.851 227.899 115.12 227.899 115.432ZM240.699 112.104H244.755V106.8H246.783V112.104H251.775V113.976H246.783V122.348C246.783 122.868 247.017 123.128 247.485 123.128H251.151V125H246.757C246.168 125 245.682 124.809 245.301 124.428C244.937 124.047 244.755 123.561 244.755 122.972V113.976H240.699V112.104ZM18.522 153.964H23.02V149.466H24.892V153.964H29.39V155.836H24.892V160.334H23.02V155.836H18.522V153.964ZM60.0858 151.052C60.0858 150.463 59.9645 149.943 59.7218 149.492C59.4965 149.041 59.1845 148.669 58.7858 148.374C58.3872 148.079 57.9278 147.854 57.4078 147.698C56.8878 147.542 56.3418 147.464 55.7698 147.464C55.2672 147.464 54.7905 147.533 54.3398 147.672C53.8892 147.793 53.4818 147.975 53.1178 148.218C52.7712 148.461 52.4938 148.764 52.2858 149.128C52.0778 149.475 51.9738 149.882 51.9738 150.35V150.506C51.9738 151.009 52.0778 151.442 52.2858 151.806C52.4938 152.153 52.7972 152.456 53.1958 152.716C53.6118 152.959 54.1232 153.167 54.7298 153.34C55.3365 153.496 56.0472 153.635 56.8618 153.756C58.7685 154.051 60.1725 154.614 61.0738 155.446C61.9752 156.261 62.4258 157.361 62.4258 158.748V159.06C62.4258 159.84 62.2872 160.559 62.0098 161.218C61.7498 161.859 61.3512 162.414 60.8138 162.882C60.2938 163.35 59.6438 163.714 58.8638 163.974C58.0838 164.234 57.1825 164.364 56.1598 164.364C54.9985 164.364 53.9672 164.199 53.0658 163.87C52.1818 163.523 51.4365 163.055 50.8298 162.466C50.2405 161.859 49.7898 161.157 49.4778 160.36C49.1658 159.545 49.0098 158.661 49.0098 157.708V156.928H51.1938V157.552C51.1938 159.147 51.6272 160.343 52.4938 161.14C53.3778 161.937 54.5998 162.336 56.1598 162.336C57.5118 162.336 58.5258 162.041 59.2018 161.452C59.8952 160.845 60.2418 160.048 60.2418 159.06V158.904C60.2418 157.951 59.8865 157.223 59.1758 156.72C58.4825 156.217 57.3472 155.853 55.7698 155.628C54.8512 155.507 54.0192 155.325 53.2738 155.082C52.5458 154.822 51.9218 154.493 51.4018 154.094C50.8818 153.678 50.4832 153.184 50.2058 152.612C49.9285 152.04 49.7898 151.364 49.7898 150.584V150.272C49.7898 149.561 49.9372 148.911 50.2318 148.322C50.5265 147.733 50.9338 147.221 51.4538 146.788C51.9912 146.355 52.6238 146.025 53.3518 145.8C54.0972 145.557 54.9118 145.436 55.7958 145.436C56.8185 145.436 57.7285 145.583 58.5258 145.878C59.3405 146.173 60.0252 146.571 60.5798 147.074C61.1345 147.559 61.5505 148.14 61.8278 148.816C62.1225 149.475 62.2698 150.168 62.2698 150.896V151.988H60.0858V151.052ZM67.5818 169.2H65.5538V151.104H67.5818V153.132H67.8938C68.3444 152.352 68.9684 151.763 69.7658 151.364C70.5631 150.948 71.4298 150.74 72.3658 150.74C73.1631 150.74 73.9171 150.887 74.6278 151.182C75.3384 151.477 75.9624 151.901 76.4998 152.456C77.0544 153.011 77.4878 153.695 77.7998 154.51C78.1291 155.325 78.2938 156.252 78.2938 157.292V157.812C78.2938 158.869 78.1378 159.805 77.8258 160.62C77.5138 161.435 77.0804 162.119 76.5258 162.674C75.9884 163.229 75.3558 163.653 74.6278 163.948C73.8998 164.225 73.1284 164.364 72.3138 164.364C71.8978 164.364 71.4731 164.312 71.0398 164.208C70.6064 164.121 70.1904 163.983 69.7918 163.792C69.4104 163.584 69.0551 163.341 68.7258 163.064C68.3964 162.769 68.1191 162.423 67.8938 162.024H67.5818V169.2ZM71.8978 162.44C72.5218 162.44 73.0938 162.336 73.6138 162.128C74.1338 161.903 74.5844 161.591 74.9658 161.192C75.3644 160.793 75.6678 160.308 75.8758 159.736C76.1011 159.164 76.2138 158.523 76.2138 157.812V157.292C76.2138 156.599 76.1011 155.975 75.8758 155.42C75.6678 154.848 75.3644 154.363 74.9658 153.964C74.5844 153.548 74.1251 153.227 73.5878 153.002C73.0678 152.777 72.5044 152.664 71.8978 152.664C71.2911 152.664 70.7278 152.785 70.2078 153.028C69.6878 153.253 69.2284 153.574 68.8298 153.99C68.4484 154.406 68.1451 154.909 67.9198 155.498C67.6944 156.07 67.5818 156.703 67.5818 157.396V157.708C67.5818 158.419 67.6944 159.069 67.9198 159.658C68.1451 160.23 68.4484 160.724 68.8298 161.14C69.2284 161.556 69.6878 161.877 70.2078 162.102C70.7278 162.327 71.2911 162.44 71.8978 162.44ZM83.4237 158.176C83.4757 159.459 83.8744 160.49 84.6197 161.27C85.365 162.05 86.405 162.44 87.7397 162.44C88.3464 162.44 88.875 162.371 89.3257 162.232C89.7764 162.093 90.1577 161.903 90.4697 161.66C90.799 161.417 91.059 161.14 91.2497 160.828C91.4577 160.499 91.6224 160.152 91.7437 159.788L93.6677 160.308C93.3037 161.504 92.6277 162.483 91.6397 163.246C90.669 163.991 89.3517 164.364 87.6877 164.364C86.769 164.364 85.9197 164.208 85.1397 163.896C84.377 163.567 83.7184 163.107 83.1637 162.518C82.609 161.929 82.1757 161.227 81.8637 160.412C81.5517 159.597 81.3957 158.696 81.3957 157.708V157.084C81.3957 156.183 81.5517 155.342 81.8637 154.562C82.193 153.782 82.6437 153.115 83.2157 152.56C83.7877 151.988 84.455 151.546 85.2177 151.234C85.9977 150.905 86.8384 150.74 87.7397 150.74C88.797 150.74 89.707 150.939 90.4697 151.338C91.2497 151.719 91.8824 152.196 92.3677 152.768C92.8704 153.34 93.2344 153.964 93.4597 154.64C93.7024 155.316 93.8237 155.94 93.8237 156.512V158.176H83.4237ZM87.7397 152.664C87.1677 152.664 86.6304 152.759 86.1277 152.95C85.6424 153.123 85.209 153.375 84.8277 153.704C84.4637 154.033 84.1604 154.423 83.9177 154.874C83.6924 155.307 83.545 155.784 83.4757 156.304H91.7957C91.761 155.749 91.6224 155.247 91.3797 154.796C91.1544 154.345 90.851 153.964 90.4697 153.652C90.1057 153.34 89.681 153.097 89.1957 152.924C88.7277 152.751 88.2424 152.664 87.7397 152.664ZM109.926 159.424C109.787 160.135 109.544 160.793 109.198 161.4C108.868 162.007 108.444 162.535 107.924 162.986C107.404 163.419 106.797 163.757 106.104 164C105.41 164.243 104.639 164.364 103.79 164.364C102.888 164.364 102.03 164.217 101.216 163.922C100.418 163.627 99.7163 163.203 99.1096 162.648C98.5029 162.076 98.0176 161.383 97.6536 160.568C97.3069 159.753 97.1336 158.817 97.1336 157.76V157.448C97.1336 156.408 97.3069 155.472 97.6536 154.64C98.0176 153.808 98.5029 153.106 99.1096 152.534C99.7163 151.962 100.418 151.52 101.216 151.208C102.03 150.896 102.888 150.74 103.79 150.74C104.604 150.74 105.358 150.861 106.052 151.104C106.745 151.347 107.352 151.693 107.872 152.144C108.409 152.577 108.842 153.097 109.172 153.704C109.518 154.311 109.752 154.969 109.874 155.68L107.846 156.148C107.794 155.697 107.664 155.264 107.456 154.848C107.265 154.415 106.996 154.042 106.65 153.73C106.32 153.401 105.913 153.141 105.428 152.95C104.942 152.759 104.379 152.664 103.738 152.664C103.114 152.664 102.524 152.785 101.97 153.028C101.432 153.253 100.956 153.583 100.54 154.016C100.124 154.432 99.7943 154.935 99.5516 155.524C99.3263 156.113 99.2136 156.755 99.2136 157.448V157.76C99.2136 158.488 99.3263 159.147 99.5516 159.736C99.7943 160.308 100.124 160.793 100.54 161.192C100.956 161.591 101.441 161.903 101.996 162.128C102.55 162.336 103.148 162.44 103.79 162.44C104.431 162.44 104.986 162.345 105.454 162.154C105.939 161.946 106.346 161.686 106.676 161.374C107.022 161.045 107.291 160.672 107.482 160.256C107.69 159.84 107.828 159.407 107.898 158.956L109.926 159.424ZM117.786 147.256C117.786 146.753 117.959 146.329 118.306 145.982C118.67 145.618 119.103 145.436 119.606 145.436C120.108 145.436 120.533 145.618 120.88 145.982C121.244 146.329 121.426 146.753 121.426 147.256C121.426 147.759 121.244 148.192 120.88 148.556C120.533 148.903 120.108 149.076 119.606 149.076C119.103 149.076 118.67 148.903 118.306 148.556C117.959 148.192 117.786 147.759 117.786 147.256ZM114.094 162.128H118.618V152.976H114.562V151.104H120.646V162.128H124.858V164H114.094V162.128ZM139.061 161.816H138.749C138.333 162.683 137.753 163.324 137.007 163.74C136.279 164.156 135.508 164.364 134.693 164.364C133.844 164.364 133.055 164.225 132.327 163.948C131.599 163.653 130.958 163.229 130.403 162.674C129.866 162.102 129.441 161.409 129.129 160.594C128.817 159.779 128.661 158.835 128.661 157.76V157.344C128.661 156.287 128.817 155.351 129.129 154.536C129.441 153.721 129.866 153.037 130.403 152.482C130.958 151.91 131.599 151.477 132.327 151.182C133.055 150.887 133.827 150.74 134.641 150.74C135.525 150.74 136.323 150.939 137.033 151.338C137.761 151.719 138.333 152.317 138.749 153.132H139.061V151.104H141.089V161.348C141.089 161.868 141.323 162.128 141.791 162.128H142.441V164H141.063C140.474 164 139.989 163.809 139.607 163.428C139.243 163.047 139.061 162.561 139.061 161.972V161.816ZM134.901 162.44C135.508 162.44 136.063 162.327 136.565 162.102C137.085 161.877 137.527 161.556 137.891 161.14C138.255 160.724 138.541 160.23 138.749 159.658C138.957 159.069 139.061 158.419 139.061 157.708V157.396C139.061 156.703 138.957 156.07 138.749 155.498C138.541 154.909 138.247 154.406 137.865 153.99C137.501 153.574 137.059 153.253 136.539 153.028C136.037 152.785 135.491 152.664 134.901 152.664C134.295 152.664 133.74 152.777 133.237 153.002C132.735 153.227 132.293 153.548 131.911 153.964C131.547 154.363 131.261 154.857 131.053 155.446C130.845 156.018 130.741 156.651 130.741 157.344V157.76C130.741 159.233 131.123 160.386 131.885 161.218C132.665 162.033 133.671 162.44 134.901 162.44ZM145.621 162.128H150.301V147.672H145.777V145.8H152.329V162.128H157.009V164H145.621V162.128ZM176.395 145.8H180.555L182.999 163.064H183.311L185.755 145.8H189.915V164H187.887V146.736H187.575L185.131 164H181.179L178.735 146.736H178.423V164H176.395V145.8ZM194.863 158.176C194.915 159.459 195.314 160.49 196.059 161.27C196.804 162.05 197.844 162.44 199.179 162.44C199.786 162.44 200.314 162.371 200.765 162.232C201.216 162.093 201.597 161.903 201.909 161.66C202.238 161.417 202.498 161.14 202.689 160.828C202.897 160.499 203.062 160.152 203.183 159.788L205.107 160.308C204.743 161.504 204.067 162.483 203.079 163.246C202.108 163.991 200.791 164.364 199.127 164.364C198.208 164.364 197.359 164.208 196.579 163.896C195.816 163.567 195.158 163.107 194.603 162.518C194.048 161.929 193.615 161.227 193.303 160.412C192.991 159.597 192.835 158.696 192.835 157.708V157.084C192.835 156.183 192.991 155.342 193.303 154.562C193.632 153.782 194.083 153.115 194.655 152.56C195.227 151.988 195.894 151.546 196.657 151.234C197.437 150.905 198.278 150.74 199.179 150.74C200.236 150.74 201.146 150.939 201.909 151.338C202.689 151.719 203.322 152.196 203.807 152.768C204.31 153.34 204.674 153.964 204.899 154.64C205.142 155.316 205.263 155.94 205.263 156.512V158.176H194.863ZM199.179 152.664C198.607 152.664 198.07 152.759 197.567 152.95C197.082 153.123 196.648 153.375 196.267 153.704C195.903 154.033 195.6 154.423 195.357 154.874C195.132 155.307 194.984 155.784 194.915 156.304H203.235C203.2 155.749 203.062 155.247 202.819 154.796C202.594 154.345 202.29 153.964 201.909 153.652C201.545 153.34 201.12 153.097 200.635 152.924C200.167 152.751 199.682 152.664 199.179 152.664ZM211.329 164H209.301V151.104H211.329V153.288H211.641C212.438 151.589 213.825 150.74 215.801 150.74C217.292 150.74 218.479 151.208 219.363 152.144C220.247 153.063 220.689 154.449 220.689 156.304V164H218.661V156.72C218.661 155.368 218.358 154.354 217.751 153.678C217.144 153.002 216.321 152.664 215.281 152.664C214.05 152.664 213.08 153.089 212.369 153.938C211.676 154.77 211.329 155.888 211.329 157.292V164ZM224.779 151.104H228.835V145.8H230.863V151.104H235.855V152.976H230.863V161.348C230.863 161.868 231.097 162.128 231.565 162.128H235.231V164H230.837C230.248 164 229.762 163.809 229.381 163.428C229.017 163.047 228.835 162.561 228.835 161.972V152.976H224.779V151.104ZM245.145 147.256C245.145 146.753 245.318 146.329 245.665 145.982C246.029 145.618 246.462 145.436 246.965 145.436C247.468 145.436 247.892 145.618 248.239 145.982C248.603 146.329 248.785 146.753 248.785 147.256C248.785 147.759 248.603 148.192 248.239 148.556C247.892 148.903 247.468 149.076 246.965 149.076C246.462 149.076 246.029 148.903 245.665 148.556C245.318 148.192 245.145 147.759 245.145 147.256ZM241.453 162.128H245.977V152.976H241.921V151.104H248.005V162.128H252.217V164H241.453V162.128ZM269.229 157.708C269.229 158.783 269.047 159.736 268.683 160.568C268.336 161.383 267.868 162.076 267.279 162.648C266.689 163.203 265.996 163.627 265.199 163.922C264.419 164.217 263.604 164.364 262.755 164.364C261.888 164.364 261.065 164.217 260.285 163.922C259.505 163.627 258.82 163.203 258.231 162.648C257.641 162.076 257.165 161.383 256.801 160.568C256.454 159.736 256.281 158.783 256.281 157.708V157.396C256.281 156.339 256.454 155.403 256.801 154.588C257.165 153.756 257.641 153.054 258.231 152.482C258.837 151.91 259.531 151.477 260.311 151.182C261.091 150.887 261.905 150.74 262.755 150.74C263.604 150.74 264.419 150.887 265.199 151.182C265.979 151.477 266.663 151.91 267.253 152.482C267.859 153.054 268.336 153.756 268.683 154.588C269.047 155.403 269.229 156.339 269.229 157.396V157.708ZM262.755 162.44C263.379 162.44 263.951 162.336 264.471 162.128C265.008 161.903 265.476 161.582 265.875 161.166C266.273 160.75 266.585 160.256 266.811 159.684C267.036 159.095 267.149 158.436 267.149 157.708V157.396C267.149 156.703 267.036 156.07 266.811 155.498C266.585 154.909 266.273 154.406 265.875 153.99C265.476 153.574 265.008 153.253 264.471 153.028C263.933 152.785 263.361 152.664 262.755 152.664C262.148 152.664 261.576 152.785 261.039 153.028C260.501 153.253 260.033 153.574 259.635 153.99C259.236 154.406 258.924 154.909 258.699 155.498C258.473 156.07 258.361 156.703 258.361 157.396V157.708C258.361 158.436 258.473 159.095 258.699 159.684C258.924 160.256 259.236 160.75 259.635 161.166C260.033 161.582 260.493 161.903 261.013 162.128C261.55 162.336 262.131 162.44 262.755 162.44ZM275.009 164H272.981V151.104H275.009V153.288H275.321C276.118 151.589 277.505 150.74 279.481 150.74C280.971 150.74 282.159 151.208 283.043 152.144C283.927 153.063 284.369 154.449 284.369 156.304V164H282.341V156.72C282.341 155.368 282.037 154.354 281.431 153.678C280.824 153.002 280.001 152.664 278.961 152.664C277.73 152.664 276.759 153.089 276.049 153.938C275.355 154.77 275.009 155.888 275.009 157.292V164ZM316.989 157.708C316.989 158.783 316.807 159.736 316.443 160.568C316.096 161.383 315.628 162.076 315.039 162.648C314.449 163.203 313.756 163.627 312.959 163.922C312.179 164.217 311.364 164.364 310.515 164.364C309.648 164.364 308.825 164.217 308.045 163.922C307.265 163.627 306.58 163.203 305.991 162.648C305.401 162.076 304.925 161.383 304.561 160.568C304.214 159.736 304.041 158.783 304.041 157.708V157.396C304.041 156.339 304.214 155.403 304.561 154.588C304.925 153.756 305.401 153.054 305.991 152.482C306.597 151.91 307.291 151.477 308.071 151.182C308.851 150.887 309.665 150.74 310.515 150.74C311.364 150.74 312.179 150.887 312.959 151.182C313.739 151.477 314.423 151.91 315.013 152.482C315.619 153.054 316.096 153.756 316.443 154.588C316.807 155.403 316.989 156.339 316.989 157.396V157.708ZM310.515 162.44C311.139 162.44 311.711 162.336 312.231 162.128C312.768 161.903 313.236 161.582 313.635 161.166C314.033 160.75 314.345 160.256 314.571 159.684C314.796 159.095 314.909 158.436 314.909 157.708V157.396C314.909 156.703 314.796 156.07 314.571 155.498C314.345 154.909 314.033 154.406 313.635 153.99C313.236 153.574 312.768 153.253 312.231 153.028C311.693 152.785 311.121 152.664 310.515 152.664C309.908 152.664 309.336 152.785 308.799 153.028C308.261 153.253 307.793 153.574 307.395 153.99C306.996 154.406 306.684 154.909 306.459 155.498C306.233 156.07 306.121 156.703 306.121 157.396V157.708C306.121 158.436 306.233 159.095 306.459 159.684C306.684 160.256 306.996 160.75 307.395 161.166C307.793 161.582 308.253 161.903 308.773 162.128C309.31 162.336 309.891 162.44 310.515 162.44ZM322.769 164H320.741V151.104H322.769V153.288H323.081C323.878 151.589 325.265 150.74 327.241 150.74C328.731 150.74 329.919 151.208 330.803 152.144C331.687 153.063 332.129 154.449 332.129 156.304V164H330.101V156.72C330.101 155.368 329.797 154.354 329.191 153.678C328.584 153.002 327.761 152.664 326.721 152.664C325.49 152.664 324.519 153.089 323.809 153.938C323.115 154.77 322.769 155.888 322.769 157.292V164ZM363.734 164H359.99L358.43 152.04H358.118L356.558 164H352.814L350.786 151.104H352.866L354.582 163.064H354.894L356.402 151.104H360.146L361.654 163.064H361.966L363.682 151.104H365.762L363.734 164ZM369.982 158.176C370.034 159.459 370.433 160.49 371.178 161.27C371.924 162.05 372.964 162.44 374.298 162.44C374.905 162.44 375.434 162.371 375.884 162.232C376.335 162.093 376.716 161.903 377.028 161.66C377.358 161.417 377.618 161.14 377.808 160.828C378.016 160.499 378.181 160.152 378.302 159.788L380.226 160.308C379.862 161.504 379.186 162.483 378.198 163.246C377.228 163.991 375.91 164.364 374.246 164.364C373.328 164.364 372.478 164.208 371.698 163.896C370.936 163.567 370.277 163.107 369.722 162.518C369.168 161.929 368.734 161.227 368.422 160.412C368.11 159.597 367.954 158.696 367.954 157.708V157.084C367.954 156.183 368.11 155.342 368.422 154.562C368.752 153.782 369.202 153.115 369.774 152.56C370.346 151.988 371.014 151.546 371.776 151.234C372.556 150.905 373.397 150.74 374.298 150.74C375.356 150.74 376.266 150.939 377.028 151.338C377.808 151.719 378.441 152.196 378.926 152.768C379.429 153.34 379.793 153.964 380.018 154.64C380.261 155.316 380.382 155.94 380.382 156.512V158.176H369.982ZM374.298 152.664C373.726 152.664 373.189 152.759 372.686 152.95C372.201 153.123 371.768 153.375 371.386 153.704C371.022 154.033 370.719 154.423 370.476 154.874C370.251 155.307 370.104 155.784 370.034 156.304H378.354C378.32 155.749 378.181 155.247 377.938 154.796C377.713 154.345 377.41 153.964 377.028 153.652C376.664 153.34 376.24 153.097 375.754 152.924C375.286 152.751 374.801 152.664 374.298 152.664ZM385.98 164H383.952V145.8H385.98V153.132H386.292C386.743 152.352 387.367 151.763 388.164 151.364C388.962 150.948 389.828 150.74 390.764 150.74C391.562 150.74 392.316 150.887 393.026 151.182C393.737 151.477 394.361 151.901 394.898 152.456C395.453 153.011 395.886 153.695 396.198 154.51C396.528 155.325 396.692 156.252 396.692 157.292V157.812C396.692 158.869 396.536 159.805 396.224 160.62C395.912 161.435 395.479 162.119 394.924 162.674C394.387 163.229 393.754 163.653 393.026 163.948C392.298 164.225 391.527 164.364 390.712 164.364C390.296 164.364 389.872 164.312 389.438 164.208C389.005 164.121 388.589 163.983 388.19 163.792C387.809 163.584 387.454 163.341 387.124 163.064C386.795 162.769 386.518 162.423 386.292 162.024H385.98V164ZM390.296 162.44C390.92 162.44 391.492 162.336 392.012 162.128C392.532 161.903 392.983 161.591 393.364 161.192C393.763 160.793 394.066 160.308 394.274 159.736C394.5 159.164 394.612 158.523 394.612 157.812V157.292C394.612 156.599 394.5 155.975 394.274 155.42C394.066 154.848 393.763 154.363 393.364 153.964C392.983 153.548 392.524 153.227 391.986 153.002C391.466 152.777 390.903 152.664 390.296 152.664C389.69 152.664 389.126 152.785 388.606 153.028C388.086 153.253 387.627 153.574 387.228 153.99C386.847 154.406 386.544 154.909 386.318 155.498C386.093 156.07 385.98 156.703 385.98 157.396V157.708C385.98 158.419 386.093 159.069 386.318 159.658C386.544 160.23 386.847 160.724 387.228 161.14C387.627 161.556 388.086 161.877 388.606 162.102C389.126 162.327 389.69 162.44 390.296 162.44ZM403.018 154.432C403.018 155.056 403.278 155.533 403.798 155.862C404.335 156.191 405.306 156.408 406.71 156.512C408.218 156.633 409.362 156.997 410.142 157.604C410.939 158.193 411.338 159.06 411.338 160.204V160.36C411.338 160.984 411.208 161.547 410.948 162.05C410.705 162.535 410.359 162.951 409.908 163.298C409.475 163.645 408.937 163.905 408.296 164.078C407.672 164.269 406.987 164.364 406.242 164.364C405.237 164.364 404.37 164.234 403.642 163.974C402.931 163.697 402.333 163.341 401.848 162.908C401.38 162.457 401.025 161.955 400.782 161.4C400.539 160.828 400.401 160.256 400.366 159.684L402.29 159.216C402.377 160.204 402.758 161.001 403.434 161.608C404.11 162.197 405.011 162.492 406.138 162.492C407.091 162.492 407.854 162.31 408.426 161.946C409.015 161.565 409.31 161.036 409.31 160.36C409.31 159.632 409.024 159.112 408.452 158.8C407.88 158.488 406.953 158.289 405.67 158.202C404.179 158.098 403.035 157.751 402.238 157.162C401.441 156.573 401.042 155.715 401.042 154.588V154.432C401.042 153.825 401.172 153.297 401.432 152.846C401.692 152.378 402.039 151.988 402.472 151.676C402.923 151.364 403.425 151.13 403.98 150.974C404.535 150.818 405.115 150.74 405.722 150.74C406.571 150.74 407.317 150.861 407.958 151.104C408.599 151.329 409.137 151.633 409.57 152.014C410.003 152.378 410.333 152.803 410.558 153.288C410.801 153.773 410.957 154.259 411.026 154.744L409.102 155.212C409.015 154.38 408.677 153.73 408.088 153.262C407.516 152.794 406.762 152.56 405.826 152.56C405.462 152.56 405.107 152.603 404.76 152.69C404.431 152.759 404.136 152.872 403.876 153.028C403.616 153.184 403.408 153.383 403.252 153.626C403.096 153.851 403.018 154.12 403.018 154.432ZM420.264 147.256C420.264 146.753 420.437 146.329 420.784 145.982C421.148 145.618 421.581 145.436 422.084 145.436C422.587 145.436 423.011 145.618 423.358 145.982C423.722 146.329 423.904 146.753 423.904 147.256C423.904 147.759 423.722 148.192 423.358 148.556C423.011 148.903 422.587 149.076 422.084 149.076C421.581 149.076 421.148 148.903 420.784 148.556C420.437 148.192 420.264 147.759 420.264 147.256ZM416.572 162.128H421.096V152.976H417.04V151.104H423.124V162.128H427.336V164H416.572V162.128ZM431.738 151.104H435.794V145.8H437.822V151.104H442.814V152.976H437.822V161.348C437.822 161.868 438.056 162.128 438.524 162.128H442.19V164H437.796C437.207 164 436.721 163.809 436.34 163.428C435.976 163.047 435.794 162.561 435.794 161.972V152.976H431.738V151.104ZM449.582 158.176C449.634 159.459 450.033 160.49 450.778 161.27C451.523 162.05 452.563 162.44 453.898 162.44C454.505 162.44 455.033 162.371 455.484 162.232C455.935 162.093 456.316 161.903 456.628 161.66C456.957 161.417 457.217 161.14 457.408 160.828C457.616 160.499 457.781 160.152 457.902 159.788L459.826 160.308C459.462 161.504 458.786 162.483 457.798 163.246C456.827 163.991 455.51 164.364 453.846 164.364C452.927 164.364 452.078 164.208 451.298 163.896C450.535 163.567 449.877 163.107 449.322 162.518C448.767 161.929 448.334 161.227 448.022 160.412C447.71 159.597 447.554 158.696 447.554 157.708V157.084C447.554 156.183 447.71 155.342 448.022 154.562C448.351 153.782 448.802 153.115 449.374 152.56C449.946 151.988 450.613 151.546 451.376 151.234C452.156 150.905 452.997 150.74 453.898 150.74C454.955 150.74 455.865 150.939 456.628 151.338C457.408 151.719 458.041 152.196 458.526 152.768C459.029 153.34 459.393 153.964 459.618 154.64C459.861 155.316 459.982 155.94 459.982 156.512V158.176H449.582ZM453.898 152.664C453.326 152.664 452.789 152.759 452.286 152.95C451.801 153.123 451.367 153.375 450.986 153.704C450.622 154.033 450.319 154.423 450.076 154.874C449.851 155.307 449.703 155.784 449.634 156.304H457.954C457.919 155.749 457.781 155.247 457.538 154.796C457.313 154.345 457.009 153.964 456.628 153.652C456.264 153.34 455.839 153.097 455.354 152.924C454.886 152.751 454.401 152.664 453.898 152.664ZM18.522 192.964H23.02V188.466H24.892V192.964H29.39V194.836H24.892V199.334H23.02V194.836H18.522V192.964ZM54.0538 194.264H62.1658V203H60.1378V200.816H59.8258C59.5312 201.579 59.0112 202.194 58.2658 202.662C57.5205 203.13 56.6538 203.364 55.6658 203.364C53.7072 203.364 52.1645 202.731 51.0378 201.466C49.9285 200.201 49.3738 198.355 49.3738 195.928V191.872C49.3738 189.515 49.9372 187.686 51.0638 186.386C52.1905 185.086 53.7592 184.436 55.7698 184.436C56.8098 184.436 57.7285 184.609 58.5258 184.956C59.3232 185.285 59.9905 185.753 60.5278 186.36C61.0652 186.949 61.4725 187.651 61.7498 188.466C62.0272 189.263 62.1658 190.121 62.1658 191.04V191.352H59.9818V191.04C59.9818 190.451 59.8952 189.879 59.7218 189.324C59.5658 188.769 59.3145 188.284 58.9678 187.868C58.6385 187.435 58.2052 187.097 57.6678 186.854C57.1478 186.594 56.5152 186.464 55.7698 186.464C54.3658 186.464 53.3085 186.975 52.5978 187.998C51.9045 189.021 51.5578 190.364 51.5578 192.028V195.772C51.5578 197.557 51.9045 198.935 52.5978 199.906C53.3085 200.859 54.3832 201.336 55.8218 201.336C57.1218 201.336 58.1358 200.92 58.8638 200.088C59.6092 199.256 59.9818 198.095 59.9818 196.604V196.292H54.0538V194.264ZM78.1898 196.708C78.1898 197.783 78.0078 198.736 77.6438 199.568C77.2971 200.383 76.8291 201.076 76.2398 201.648C75.6504 202.203 74.9571 202.627 74.1598 202.922C73.3798 203.217 72.5651 203.364 71.7158 203.364C70.8491 203.364 70.0258 203.217 69.2458 202.922C68.4658 202.627 67.7811 202.203 67.1918 201.648C66.6024 201.076 66.1258 200.383 65.7618 199.568C65.4151 198.736 65.2418 197.783 65.2418 196.708V196.396C65.2418 195.339 65.4151 194.403 65.7618 193.588C66.1258 192.756 66.6024 192.054 67.1918 191.482C67.7984 190.91 68.4918 190.477 69.2718 190.182C70.0518 189.887 70.8664 189.74 71.7158 189.74C72.5651 189.74 73.3798 189.887 74.1598 190.182C74.9398 190.477 75.6244 190.91 76.2138 191.482C76.8204 192.054 77.2971 192.756 77.6438 193.588C78.0078 194.403 78.1898 195.339 78.1898 196.396V196.708ZM71.7158 201.44C72.3398 201.44 72.9118 201.336 73.4318 201.128C73.9691 200.903 74.4371 200.582 74.8358 200.166C75.2344 199.75 75.5464 199.256 75.7718 198.684C75.9971 198.095 76.1098 197.436 76.1098 196.708V196.396C76.1098 195.703 75.9971 195.07 75.7718 194.498C75.5464 193.909 75.2344 193.406 74.8358 192.99C74.4371 192.574 73.9691 192.253 73.4318 192.028C72.8944 191.785 72.3224 191.664 71.7158 191.664C71.1091 191.664 70.5371 191.785 69.9998 192.028C69.4624 192.253 68.9944 192.574 68.5958 192.99C68.1971 193.406 67.8851 193.909 67.6598 194.498C67.4344 195.07 67.3218 195.703 67.3218 196.396V196.708C67.3218 197.436 67.4344 198.095 67.6598 198.684C67.8851 199.256 68.1971 199.75 68.5958 200.166C68.9944 200.582 69.4538 200.903 69.9738 201.128C70.5111 201.336 71.0918 201.44 71.7158 201.44ZM94.1097 196.708C94.1097 197.783 93.9277 198.736 93.5637 199.568C93.217 200.383 92.749 201.076 92.1597 201.648C91.5704 202.203 90.877 202.627 90.0797 202.922C89.2997 203.217 88.485 203.364 87.6357 203.364C86.769 203.364 85.9457 203.217 85.1657 202.922C84.3857 202.627 83.701 202.203 83.1117 201.648C82.5224 201.076 82.0457 200.383 81.6817 199.568C81.335 198.736 81.1617 197.783 81.1617 196.708V196.396C81.1617 195.339 81.335 194.403 81.6817 193.588C82.0457 192.756 82.5224 192.054 83.1117 191.482C83.7184 190.91 84.4117 190.477 85.1917 190.182C85.9717 189.887 86.7864 189.74 87.6357 189.74C88.485 189.74 89.2997 189.887 90.0797 190.182C90.8597 190.477 91.5444 190.91 92.1337 191.482C92.7404 192.054 93.217 192.756 93.5637 193.588C93.9277 194.403 94.1097 195.339 94.1097 196.396V196.708ZM87.6357 201.44C88.2597 201.44 88.8317 201.336 89.3517 201.128C89.889 200.903 90.357 200.582 90.7557 200.166C91.1544 199.75 91.4664 199.256 91.6917 198.684C91.917 198.095 92.0297 197.436 92.0297 196.708V196.396C92.0297 195.703 91.917 195.07 91.6917 194.498C91.4664 193.909 91.1544 193.406 90.7557 192.99C90.357 192.574 89.889 192.253 89.3517 192.028C88.8144 191.785 88.2424 191.664 87.6357 191.664C87.029 191.664 86.457 191.785 85.9197 192.028C85.3824 192.253 84.9144 192.574 84.5157 192.99C84.117 193.406 83.805 193.909 83.5797 194.498C83.3544 195.07 83.2417 195.703 83.2417 196.396V196.708C83.2417 197.436 83.3544 198.095 83.5797 198.684C83.805 199.256 84.117 199.75 84.5157 200.166C84.9144 200.582 85.3737 200.903 85.8937 201.128C86.431 201.336 87.0117 201.44 87.6357 201.44ZM107.846 201.024H107.534C107.326 201.423 107.057 201.769 106.728 202.064C106.416 202.359 106.069 202.601 105.688 202.792C105.324 202.983 104.934 203.121 104.518 203.208C104.102 203.312 103.703 203.364 103.322 203.364C102.455 203.364 101.649 203.217 100.904 202.922C100.158 202.627 99.4996 202.203 98.9276 201.648C98.3729 201.093 97.9309 200.409 97.6016 199.594C97.2896 198.762 97.1336 197.817 97.1336 196.76V196.344C97.1336 195.304 97.2983 194.377 97.6276 193.562C97.9569 192.73 98.3989 192.037 98.9536 191.482C99.5083 190.91 100.158 190.477 100.904 190.182C101.649 189.887 102.438 189.74 103.27 189.74C104.154 189.74 104.977 189.939 105.74 190.338C106.52 190.719 107.118 191.317 107.534 192.132H107.846V184.8H109.874V203H107.846V201.024ZM103.53 201.44C104.136 201.44 104.7 201.327 105.22 201.102C105.74 200.877 106.19 200.556 106.572 200.14C106.97 199.724 107.282 199.23 107.508 198.658C107.733 198.069 107.846 197.419 107.846 196.708V196.396C107.846 195.703 107.733 195.07 107.508 194.498C107.282 193.909 106.97 193.406 106.572 192.99C106.19 192.574 105.731 192.253 105.194 192.028C104.674 191.785 104.119 191.664 103.53 191.664C102.923 191.664 102.351 191.777 101.814 192.002C101.294 192.227 100.834 192.548 100.436 192.964C100.054 193.38 99.7509 193.874 99.5256 194.446C99.3176 195.018 99.2136 195.651 99.2136 196.344V196.76C99.2136 197.488 99.3176 198.138 99.5256 198.71C99.7509 199.282 100.054 199.776 100.436 200.192C100.834 200.591 101.294 200.903 101.814 201.128C102.334 201.336 102.906 201.44 103.53 201.44ZM117.786 186.256C117.786 185.753 117.959 185.329 118.306 184.982C118.67 184.618 119.103 184.436 119.606 184.436C120.108 184.436 120.533 184.618 120.88 184.982C121.244 185.329 121.426 185.753 121.426 186.256C121.426 186.759 121.244 187.192 120.88 187.556C120.533 187.903 120.108 188.076 119.606 188.076C119.103 188.076 118.67 187.903 118.306 187.556C117.959 187.192 117.786 186.759 117.786 186.256ZM114.094 201.128H118.618V191.976H114.562V190.104H120.646V201.128H124.858V203H114.094V201.128ZM131.183 197.176C131.235 198.459 131.634 199.49 132.379 200.27C133.125 201.05 134.165 201.44 135.499 201.44C136.106 201.44 136.635 201.371 137.085 201.232C137.536 201.093 137.917 200.903 138.229 200.66C138.559 200.417 138.819 200.14 139.009 199.828C139.217 199.499 139.382 199.152 139.503 198.788L141.427 199.308C141.063 200.504 140.387 201.483 139.399 202.246C138.429 202.991 137.111 203.364 135.447 203.364C134.529 203.364 133.679 203.208 132.899 202.896C132.137 202.567 131.478 202.107 130.923 201.518C130.369 200.929 129.935 200.227 129.623 199.412C129.311 198.597 129.155 197.696 129.155 196.708V196.084C129.155 195.183 129.311 194.342 129.623 193.562C129.953 192.782 130.403 192.115 130.975 191.56C131.547 190.988 132.215 190.546 132.977 190.234C133.757 189.905 134.598 189.74 135.499 189.74C136.557 189.74 137.467 189.939 138.229 190.338C139.009 190.719 139.642 191.196 140.127 191.768C140.63 192.34 140.994 192.964 141.219 193.64C141.462 194.316 141.583 194.94 141.583 195.512V197.176H131.183ZM135.499 191.664C134.927 191.664 134.39 191.759 133.887 191.95C133.402 192.123 132.969 192.375 132.587 192.704C132.223 193.033 131.92 193.423 131.677 193.874C131.452 194.307 131.305 194.784 131.235 195.304H139.555C139.521 194.749 139.382 194.247 139.139 193.796C138.914 193.345 138.611 192.964 138.229 192.652C137.865 192.34 137.441 192.097 136.955 191.924C136.487 191.751 136.002 191.664 135.499 191.664ZM148.299 193.432C148.299 194.056 148.559 194.533 149.079 194.862C149.617 195.191 150.587 195.408 151.991 195.512C153.499 195.633 154.643 195.997 155.423 196.604C156.221 197.193 156.619 198.06 156.619 199.204V199.36C156.619 199.984 156.489 200.547 156.229 201.05C155.987 201.535 155.64 201.951 155.189 202.298C154.756 202.645 154.219 202.905 153.577 203.078C152.953 203.269 152.269 203.364 151.523 203.364C150.518 203.364 149.651 203.234 148.923 202.974C148.213 202.697 147.615 202.341 147.129 201.908C146.661 201.457 146.306 200.955 146.063 200.4C145.821 199.828 145.682 199.256 145.647 198.684L147.571 198.216C147.658 199.204 148.039 200.001 148.715 200.608C149.391 201.197 150.293 201.492 151.419 201.492C152.373 201.492 153.135 201.31 153.707 200.946C154.297 200.565 154.591 200.036 154.591 199.36C154.591 198.632 154.305 198.112 153.733 197.8C153.161 197.488 152.234 197.289 150.951 197.202C149.461 197.098 148.317 196.751 147.519 196.162C146.722 195.573 146.323 194.715 146.323 193.588V193.432C146.323 192.825 146.453 192.297 146.713 191.846C146.973 191.378 147.32 190.988 147.753 190.676C148.204 190.364 148.707 190.13 149.261 189.974C149.816 189.818 150.397 189.74 151.003 189.74C151.853 189.74 152.598 189.861 153.239 190.104C153.881 190.329 154.418 190.633 154.851 191.014C155.285 191.378 155.614 191.803 155.839 192.288C156.082 192.773 156.238 193.259 156.307 193.744L154.383 194.212C154.297 193.38 153.959 192.73 153.369 192.262C152.797 191.794 152.043 191.56 151.107 191.56C150.743 191.56 150.388 191.603 150.041 191.69C149.712 191.759 149.417 191.872 149.157 192.028C148.897 192.184 148.689 192.383 148.533 192.626C148.377 192.851 148.299 193.12 148.299 193.432ZM186.821 200.816H186.509C186.093 201.683 185.513 202.324 184.767 202.74C184.039 203.156 183.268 203.364 182.453 203.364C181.604 203.364 180.815 203.225 180.087 202.948C179.359 202.653 178.718 202.229 178.163 201.674C177.626 201.102 177.201 200.409 176.889 199.594C176.577 198.779 176.421 197.835 176.421 196.76V196.344C176.421 195.287 176.577 194.351 176.889 193.536C177.201 192.721 177.626 192.037 178.163 191.482C178.718 190.91 179.359 190.477 180.087 190.182C180.815 189.887 181.587 189.74 182.401 189.74C183.285 189.74 184.083 189.939 184.793 190.338C185.521 190.719 186.093 191.317 186.509 192.132H186.821V190.104H188.849V200.348C188.849 200.868 189.083 201.128 189.551 201.128H190.201V203H188.823C188.234 203 187.749 202.809 187.367 202.428C187.003 202.047 186.821 201.561 186.821 200.972V200.816ZM182.661 201.44C183.268 201.44 183.823 201.327 184.325 201.102C184.845 200.877 185.287 200.556 185.651 200.14C186.015 199.724 186.301 199.23 186.509 198.658C186.717 198.069 186.821 197.419 186.821 196.708V196.396C186.821 195.703 186.717 195.07 186.509 194.498C186.301 193.909 186.007 193.406 185.625 192.99C185.261 192.574 184.819 192.253 184.299 192.028C183.797 191.785 183.251 191.664 182.661 191.664C182.055 191.664 181.5 191.777 180.997 192.002C180.495 192.227 180.053 192.548 179.671 192.964C179.307 193.363 179.021 193.857 178.813 194.446C178.605 195.018 178.501 195.651 178.501 196.344V196.76C178.501 198.233 178.883 199.386 179.645 200.218C180.425 201.033 181.431 201.44 182.661 201.44ZM195.409 203H193.381V190.104H195.409V192.288H195.721C196.518 190.589 197.905 189.74 199.881 189.74C201.372 189.74 202.559 190.208 203.443 191.144C204.327 192.063 204.769 193.449 204.769 195.304V203H202.741V195.72C202.741 194.368 202.438 193.354 201.831 192.678C201.224 192.002 200.401 191.664 199.361 191.664C198.13 191.664 197.16 192.089 196.449 192.938C195.756 193.77 195.409 194.888 195.409 196.292V203ZM219.285 201.024H218.973C218.765 201.423 218.496 201.769 218.167 202.064C217.855 202.359 217.508 202.601 217.127 202.792C216.763 202.983 216.373 203.121 215.957 203.208C215.541 203.312 215.142 203.364 214.761 203.364C213.894 203.364 213.088 203.217 212.343 202.922C211.598 202.627 210.939 202.203 210.367 201.648C209.812 201.093 209.37 200.409 209.041 199.594C208.729 198.762 208.573 197.817 208.573 196.76V196.344C208.573 195.304 208.738 194.377 209.067 193.562C209.396 192.73 209.838 192.037 210.393 191.482C210.948 190.91 211.598 190.477 212.343 190.182C213.088 189.887 213.877 189.74 214.709 189.74C215.593 189.74 216.416 189.939 217.179 190.338C217.959 190.719 218.557 191.317 218.973 192.132H219.285V184.8H221.313V203H219.285V201.024ZM214.969 201.44C215.576 201.44 216.139 201.327 216.659 201.102C217.179 200.877 217.63 200.556 218.011 200.14C218.41 199.724 218.722 199.23 218.947 198.658C219.172 198.069 219.285 197.419 219.285 196.708V196.396C219.285 195.703 219.172 195.07 218.947 194.498C218.722 193.909 218.41 193.406 218.011 192.99C217.63 192.574 217.17 192.253 216.633 192.028C216.113 191.785 215.558 191.664 214.969 191.664C214.362 191.664 213.79 191.777 213.253 192.002C212.733 192.227 212.274 192.548 211.875 192.964C211.494 193.38 211.19 193.874 210.965 194.446C210.757 195.018 210.653 195.651 210.653 196.344V196.76C210.653 197.488 210.757 198.138 210.965 198.71C211.19 199.282 211.494 199.776 211.875 200.192C212.274 200.591 212.733 200.903 213.253 201.128C213.773 201.336 214.345 201.44 214.969 201.44ZM251.125 190.052C251.125 189.463 251.004 188.943 250.761 188.492C250.536 188.041 250.224 187.669 249.825 187.374C249.426 187.079 248.967 186.854 248.447 186.698C247.927 186.542 247.381 186.464 246.809 186.464C246.306 186.464 245.83 186.533 245.379 186.672C244.928 186.793 244.521 186.975 244.157 187.218C243.81 187.461 243.533 187.764 243.325 188.128C243.117 188.475 243.013 188.882 243.013 189.35V189.506C243.013 190.009 243.117 190.442 243.325 190.806C243.533 191.153 243.836 191.456 244.235 191.716C244.651 191.959 245.162 192.167 245.769 192.34C246.376 192.496 247.086 192.635 247.901 192.756C249.808 193.051 251.212 193.614 252.113 194.446C253.014 195.261 253.465 196.361 253.465 197.748V198.06C253.465 198.84 253.326 199.559 253.049 200.218C252.789 200.859 252.39 201.414 251.853 201.882C251.333 202.35 250.683 202.714 249.903 202.974C249.123 203.234 248.222 203.364 247.199 203.364C246.038 203.364 245.006 203.199 244.105 202.87C243.221 202.523 242.476 202.055 241.869 201.466C241.28 200.859 240.829 200.157 240.517 199.36C240.205 198.545 240.049 197.661 240.049 196.708V195.928H242.233V196.552C242.233 198.147 242.666 199.343 243.533 200.14C244.417 200.937 245.639 201.336 247.199 201.336C248.551 201.336 249.565 201.041 250.241 200.452C250.934 199.845 251.281 199.048 251.281 198.06V197.904C251.281 196.951 250.926 196.223 250.215 195.72C249.522 195.217 248.386 194.853 246.809 194.628C245.89 194.507 245.058 194.325 244.313 194.082C243.585 193.822 242.961 193.493 242.441 193.094C241.921 192.678 241.522 192.184 241.245 191.612C240.968 191.04 240.829 190.364 240.829 189.584V189.272C240.829 188.561 240.976 187.911 241.271 187.322C241.566 186.733 241.973 186.221 242.493 185.788C243.03 185.355 243.663 185.025 244.391 184.8C245.136 184.557 245.951 184.436 246.835 184.436C247.858 184.436 248.768 184.583 249.565 184.878C250.38 185.173 251.064 185.571 251.619 186.074C252.174 186.559 252.59 187.14 252.867 187.816C253.162 188.475 253.309 189.168 253.309 189.896V190.988H251.125V190.052ZM258.621 208.2H256.593V190.104H258.621V192.132H258.933C259.383 191.352 260.007 190.763 260.805 190.364C261.602 189.948 262.469 189.74 263.405 189.74C264.202 189.74 264.956 189.887 265.667 190.182C266.377 190.477 267.001 190.901 267.539 191.456C268.093 192.011 268.527 192.695 268.839 193.51C269.168 194.325 269.333 195.252 269.333 196.292V196.812C269.333 197.869 269.177 198.805 268.865 199.62C268.553 200.435 268.119 201.119 267.565 201.674C267.027 202.229 266.395 202.653 265.667 202.948C264.939 203.225 264.167 203.364 263.353 203.364C262.937 203.364 262.512 203.312 262.079 203.208C261.645 203.121 261.229 202.983 260.831 202.792C260.449 202.584 260.094 202.341 259.765 202.064C259.435 201.769 259.158 201.423 258.933 201.024H258.621V208.2ZM262.937 201.44C263.561 201.44 264.133 201.336 264.653 201.128C265.173 200.903 265.623 200.591 266.005 200.192C266.403 199.793 266.707 199.308 266.915 198.736C267.14 198.164 267.253 197.523 267.253 196.812V196.292C267.253 195.599 267.14 194.975 266.915 194.42C266.707 193.848 266.403 193.363 266.005 192.964C265.623 192.548 265.164 192.227 264.627 192.002C264.107 191.777 263.543 191.664 262.937 191.664C262.33 191.664 261.767 191.785 261.247 192.028C260.727 192.253 260.267 192.574 259.869 192.99C259.487 193.406 259.184 193.909 258.959 194.498C258.733 195.07 258.621 195.703 258.621 196.396V196.708C258.621 197.419 258.733 198.069 258.959 198.658C259.184 199.23 259.487 199.724 259.869 200.14C260.267 200.556 260.727 200.877 261.247 201.102C261.767 201.327 262.33 201.44 262.937 201.44ZM285.149 196.708C285.149 197.783 284.967 198.736 284.603 199.568C284.256 200.383 283.788 201.076 283.199 201.648C282.609 202.203 281.916 202.627 281.119 202.922C280.339 203.217 279.524 203.364 278.675 203.364C277.808 203.364 276.985 203.217 276.205 202.922C275.425 202.627 274.74 202.203 274.151 201.648C273.561 201.076 273.085 200.383 272.721 199.568C272.374 198.736 272.201 197.783 272.201 196.708V196.396C272.201 195.339 272.374 194.403 272.721 193.588C273.085 192.756 273.561 192.054 274.151 191.482C274.757 190.91 275.451 190.477 276.231 190.182C277.011 189.887 277.825 189.74 278.675 189.74C279.524 189.74 280.339 189.887 281.119 190.182C281.899 190.477 282.583 190.91 283.173 191.482C283.779 192.054 284.256 192.756 284.603 193.588C284.967 194.403 285.149 195.339 285.149 196.396V196.708ZM278.675 201.44C279.299 201.44 279.871 201.336 280.391 201.128C280.928 200.903 281.396 200.582 281.795 200.166C282.193 199.75 282.505 199.256 282.731 198.684C282.956 198.095 283.069 197.436 283.069 196.708V196.396C283.069 195.703 282.956 195.07 282.731 194.498C282.505 193.909 282.193 193.406 281.795 192.99C281.396 192.574 280.928 192.253 280.391 192.028C279.853 191.785 279.281 191.664 278.675 191.664C278.068 191.664 277.496 191.785 276.959 192.028C276.421 192.253 275.953 192.574 275.555 192.99C275.156 193.406 274.844 193.909 274.619 194.498C274.393 195.07 274.281 195.703 274.281 196.396V196.708C274.281 197.436 274.393 198.095 274.619 198.684C274.844 199.256 275.156 199.75 275.555 200.166C275.953 200.582 276.413 200.903 276.933 201.128C277.47 201.336 278.051 201.44 278.675 201.44ZM290.929 203H288.901V190.104H290.929V192.288H291.241C292.038 190.589 293.425 189.74 295.401 189.74C296.891 189.74 298.079 190.208 298.963 191.144C299.847 192.063 300.289 193.449 300.289 195.304V203H298.261V195.72C298.261 194.368 297.957 193.354 297.351 192.678C296.744 192.002 295.921 191.664 294.881 191.664C293.65 191.664 292.679 192.089 291.969 192.938C291.275 193.77 290.929 194.888 290.929 196.292V203ZM307.499 193.432C307.499 194.056 307.759 194.533 308.279 194.862C308.816 195.191 309.787 195.408 311.191 195.512C312.699 195.633 313.843 195.997 314.623 196.604C315.42 197.193 315.819 198.06 315.819 199.204V199.36C315.819 199.984 315.689 200.547 315.429 201.05C315.186 201.535 314.839 201.951 314.389 202.298C313.955 202.645 313.418 202.905 312.777 203.078C312.153 203.269 311.468 203.364 310.723 203.364C309.717 203.364 308.851 203.234 308.123 202.974C307.412 202.697 306.814 202.341 306.329 201.908C305.861 201.457 305.505 200.955 305.263 200.4C305.02 199.828 304.881 199.256 304.847 198.684L306.771 198.216C306.857 199.204 307.239 200.001 307.915 200.608C308.591 201.197 309.492 201.492 310.619 201.492C311.572 201.492 312.335 201.31 312.907 200.946C313.496 200.565 313.791 200.036 313.791 199.36C313.791 198.632 313.505 198.112 312.933 197.8C312.361 197.488 311.433 197.289 310.151 197.202C308.66 197.098 307.516 196.751 306.719 196.162C305.921 195.573 305.523 194.715 305.523 193.588V193.432C305.523 192.825 305.653 192.297 305.913 191.846C306.173 191.378 306.519 190.988 306.953 190.676C307.403 190.364 307.906 190.13 308.461 189.974C309.015 189.818 309.596 189.74 310.203 189.74C311.052 189.74 311.797 189.861 312.439 190.104C313.08 190.329 313.617 190.633 314.051 191.014C314.484 191.378 314.813 191.803 315.039 192.288C315.281 192.773 315.437 193.259 315.507 193.744L313.583 194.212C313.496 193.38 313.158 192.73 312.569 192.262C311.997 191.794 311.243 191.56 310.307 191.56C309.943 191.56 309.587 191.603 309.241 191.69C308.911 191.759 308.617 191.872 308.357 192.028C308.097 192.184 307.889 192.383 307.733 192.626C307.577 192.851 307.499 193.12 307.499 193.432ZM322.223 197.176C322.275 198.459 322.673 199.49 323.419 200.27C324.164 201.05 325.204 201.44 326.539 201.44C327.145 201.44 327.674 201.371 328.125 201.232C328.575 201.093 328.957 200.903 329.269 200.66C329.598 200.417 329.858 200.14 330.049 199.828C330.257 199.499 330.421 199.152 330.543 198.788L332.467 199.308C332.103 200.504 331.427 201.483 330.439 202.246C329.468 202.991 328.151 203.364 326.487 203.364C325.568 203.364 324.719 203.208 323.939 202.896C323.176 202.567 322.517 202.107 321.963 201.518C321.408 200.929 320.975 200.227 320.663 199.412C320.351 198.597 320.195 197.696 320.195 196.708V196.084C320.195 195.183 320.351 194.342 320.663 193.562C320.992 192.782 321.443 192.115 322.015 191.56C322.587 190.988 323.254 190.546 324.017 190.234C324.797 189.905 325.637 189.74 326.539 189.74C327.596 189.74 328.506 189.939 329.269 190.338C330.049 190.719 330.681 191.196 331.167 191.768C331.669 192.34 332.033 192.964 332.259 193.64C332.501 194.316 332.623 194.94 332.623 195.512V197.176H322.223ZM326.539 191.664C325.967 191.664 325.429 191.759 324.927 191.95C324.441 192.123 324.008 192.375 323.627 192.704C323.263 193.033 322.959 193.423 322.717 193.874C322.491 194.307 322.344 194.784 322.275 195.304H330.595C330.56 194.749 330.421 194.247 330.179 193.796C329.953 193.345 329.65 192.964 329.269 192.652C328.905 192.34 328.48 192.097 327.995 191.924C327.527 191.751 327.041 191.664 326.539 191.664ZM335.932 190.104H340.612V191.82H340.924C341.254 191.109 341.722 190.589 342.328 190.26C342.935 189.913 343.628 189.74 344.408 189.74C345.708 189.74 346.757 190.165 347.554 191.014C348.352 191.863 348.776 193.103 348.828 194.732L346.696 195.044C346.696 193.848 346.41 192.99 345.838 192.47C345.266 191.933 344.564 191.664 343.732 191.664C343.195 191.664 342.727 191.768 342.328 191.976C341.947 192.184 341.626 192.47 341.366 192.834C341.106 193.198 340.916 193.623 340.794 194.108C340.673 194.593 340.612 195.113 340.612 195.668V201.128H343.888V203H335.62V201.128H338.584V191.976H335.932V190.104ZM378.484 190.052C378.484 189.463 378.363 188.943 378.12 188.492C377.895 188.041 377.583 187.669 377.184 187.374C376.786 187.079 376.326 186.854 375.806 186.698C375.286 186.542 374.74 186.464 374.168 186.464C373.666 186.464 373.189 186.533 372.738 186.672C372.288 186.793 371.88 186.975 371.516 187.218C371.17 187.461 370.892 187.764 370.684 188.128C370.476 188.475 370.372 188.882 370.372 189.35V189.506C370.372 190.009 370.476 190.442 370.684 190.806C370.892 191.153 371.196 191.456 371.594 191.716C372.01 191.959 372.522 192.167 373.128 192.34C373.735 192.496 374.446 192.635 375.26 192.756C377.167 193.051 378.571 193.614 379.472 194.446C380.374 195.261 380.824 196.361 380.824 197.748V198.06C380.824 198.84 380.686 199.559 380.408 200.218C380.148 200.859 379.75 201.414 379.212 201.882C378.692 202.35 378.042 202.714 377.262 202.974C376.482 203.234 375.581 203.364 374.558 203.364C373.397 203.364 372.366 203.199 371.464 202.87C370.58 202.523 369.835 202.055 369.228 201.466C368.639 200.859 368.188 200.157 367.876 199.36C367.564 198.545 367.408 197.661 367.408 196.708V195.928H369.592V196.552C369.592 198.147 370.026 199.343 370.892 200.14C371.776 200.937 372.998 201.336 374.558 201.336C375.91 201.336 376.924 201.041 377.6 200.452C378.294 199.845 378.64 199.048 378.64 198.06V197.904C378.64 196.951 378.285 196.223 377.574 195.72C376.881 195.217 375.746 194.853 374.168 194.628C373.25 194.507 372.418 194.325 371.672 194.082C370.944 193.822 370.32 193.493 369.8 193.094C369.28 192.678 368.882 192.184 368.604 191.612C368.327 191.04 368.188 190.364 368.188 189.584V189.272C368.188 188.561 368.336 187.911 368.63 187.322C368.925 186.733 369.332 186.221 369.852 185.788C370.39 185.355 371.022 185.025 371.75 184.8C372.496 184.557 373.31 184.436 374.194 184.436C375.217 184.436 376.127 184.583 376.924 184.878C377.739 185.173 378.424 185.571 378.978 186.074C379.533 186.559 379.949 187.14 380.226 187.816C380.521 188.475 380.668 189.168 380.668 189.896V190.988H378.484V190.052ZM395.574 203H391.83L390.27 191.04H389.958L388.398 203H384.654L382.626 190.104H384.706L386.422 202.064H386.734L388.242 190.104H391.986L393.494 202.064H393.806L395.522 190.104H397.602L395.574 203ZM409.7 200.816H409.388C408.972 201.683 408.391 202.324 407.646 202.74C406.918 203.156 406.147 203.364 405.332 203.364C404.483 203.364 403.694 203.225 402.966 202.948C402.238 202.653 401.597 202.229 401.042 201.674C400.505 201.102 400.08 200.409 399.768 199.594C399.456 198.779 399.3 197.835 399.3 196.76V196.344C399.3 195.287 399.456 194.351 399.768 193.536C400.08 192.721 400.505 192.037 401.042 191.482C401.597 190.91 402.238 190.477 402.966 190.182C403.694 189.887 404.465 189.74 405.28 189.74C406.164 189.74 406.961 189.939 407.672 190.338C408.4 190.719 408.972 191.317 409.388 192.132H409.7V190.104H411.728V200.348C411.728 200.868 411.962 201.128 412.43 201.128H413.08V203H411.702C411.113 203 410.627 202.809 410.246 202.428C409.882 202.047 409.7 201.561 409.7 200.972V200.816ZM405.54 201.44C406.147 201.44 406.701 201.327 407.204 201.102C407.724 200.877 408.166 200.556 408.53 200.14C408.894 199.724 409.18 199.23 409.388 198.658C409.596 198.069 409.7 197.419 409.7 196.708V196.396C409.7 195.703 409.596 195.07 409.388 194.498C409.18 193.909 408.885 193.406 408.504 192.99C408.14 192.574 407.698 192.253 407.178 192.028C406.675 191.785 406.129 191.664 405.54 191.664C404.933 191.664 404.379 191.777 403.876 192.002C403.373 192.227 402.931 192.548 402.55 192.964C402.186 193.363 401.9 193.857 401.692 194.446C401.484 195.018 401.38 195.651 401.38 196.344V196.76C401.38 198.233 401.761 199.386 402.524 200.218C403.304 201.033 404.309 201.44 405.54 201.44ZM426.062 201.024H425.75C425.334 201.804 424.762 202.393 424.034 202.792C423.323 203.173 422.543 203.364 421.694 203.364C420.827 203.364 420.013 203.217 419.25 202.922C418.487 202.627 417.811 202.203 417.222 201.648C416.65 201.093 416.191 200.409 415.844 199.594C415.515 198.762 415.35 197.817 415.35 196.76V196.344C415.35 195.304 415.523 194.377 415.87 193.562C416.217 192.73 416.676 192.037 417.248 191.482C417.82 190.91 418.487 190.477 419.25 190.182C420.013 189.887 420.81 189.74 421.642 189.74C422.578 189.74 423.393 189.948 424.086 190.364C424.797 190.763 425.351 191.352 425.75 192.132H426.062V190.104H428.09V206.172C428.09 206.761 427.899 207.247 427.518 207.628C427.154 208.009 426.677 208.2 426.088 208.2H417.69V206.328H425.36C425.828 206.328 426.062 206.068 426.062 205.548V201.024ZM421.746 201.44C422.353 201.44 422.916 201.327 423.436 201.102C423.956 200.877 424.407 200.556 424.788 200.14C425.187 199.724 425.499 199.23 425.724 198.658C425.949 198.069 426.062 197.419 426.062 196.708V196.396C426.062 195.703 425.949 195.07 425.724 194.498C425.499 193.909 425.187 193.406 424.788 192.99C424.407 192.574 423.947 192.253 423.41 192.028C422.89 191.785 422.335 191.664 421.746 191.664C421.139 191.664 420.567 191.777 420.03 192.002C419.51 192.227 419.051 192.548 418.652 192.964C418.271 193.38 417.967 193.874 417.742 194.446C417.534 195.018 417.43 195.651 417.43 196.344V196.76C417.43 197.488 417.534 198.138 417.742 198.71C417.967 199.282 418.271 199.776 418.652 200.192C419.051 200.591 419.51 200.903 420.03 201.128C420.55 201.336 421.122 201.44 421.746 201.44ZM434.858 193.432C434.858 194.056 435.118 194.533 435.638 194.862C436.175 195.191 437.146 195.408 438.55 195.512C440.058 195.633 441.202 195.997 441.982 196.604C442.779 197.193 443.178 198.06 443.178 199.204V199.36C443.178 199.984 443.048 200.547 442.788 201.05C442.545 201.535 442.199 201.951 441.748 202.298C441.315 202.645 440.777 202.905 440.136 203.078C439.512 203.269 438.827 203.364 438.082 203.364C437.077 203.364 436.21 203.234 435.482 202.974C434.771 202.697 434.173 202.341 433.688 201.908C433.22 201.457 432.865 200.955 432.622 200.4C432.379 199.828 432.241 199.256 432.206 198.684L434.13 198.216C434.217 199.204 434.598 200.001 435.274 200.608C435.95 201.197 436.851 201.492 437.978 201.492C438.931 201.492 439.694 201.31 440.266 200.946C440.855 200.565 441.15 200.036 441.15 199.36C441.15 198.632 440.864 198.112 440.292 197.8C439.72 197.488 438.793 197.289 437.51 197.202C436.019 197.098 434.875 196.751 434.078 196.162C433.281 195.573 432.882 194.715 432.882 193.588V193.432C432.882 192.825 433.012 192.297 433.272 191.846C433.532 191.378 433.879 190.988 434.312 190.676C434.763 190.364 435.265 190.13 435.82 189.974C436.375 189.818 436.955 189.74 437.562 189.74C438.411 189.74 439.157 189.861 439.798 190.104C440.439 190.329 440.977 190.633 441.41 191.014C441.843 191.378 442.173 191.803 442.398 192.288C442.641 192.773 442.797 193.259 442.866 193.744L440.942 194.212C440.855 193.38 440.517 192.73 439.928 192.262C439.356 191.794 438.602 191.56 437.666 191.56C437.302 191.56 436.947 191.603 436.6 191.69C436.271 191.759 435.976 191.872 435.716 192.028C435.456 192.184 435.248 192.383 435.092 192.626C434.936 192.851 434.858 193.12 434.858 193.432Z" fill="white" fill-opacity="0.88"/>
<path d="M448.024 483.944L454.472 453.524H453.848L444.696 467.2H439.964V466.888L450.416 451.6H459.256L452.392 483.944H462.688V488H437.728V483.944H448.024ZM485.792 465.12C485.099 465.12 484.371 465.207 483.608 465.38C482.88 465.553 482.204 465.813 481.58 466.16C480.991 466.507 480.506 466.957 480.124 467.512C479.743 468.032 479.552 468.656 479.552 469.384C479.552 470.493 480.038 471.325 481.008 471.88C482.014 472.435 483.73 472.799 486.156 472.972C488.652 473.145 490.576 473.769 491.928 474.844C493.315 475.919 494.008 477.496 494.008 479.576C494.008 481.032 493.696 482.332 493.072 483.476C492.483 484.62 491.651 485.591 490.576 486.388C489.502 487.151 488.219 487.723 486.728 488.104C485.272 488.52 483.66 488.728 481.892 488.728C480.124 488.728 478.616 488.485 477.368 488C476.155 487.549 475.15 486.943 474.352 486.18C473.555 485.383 472.966 484.499 472.584 483.528C472.238 482.523 472.064 481.5 472.064 480.46C472.064 480.287 472.064 480.113 472.064 479.94C472.064 479.732 472.082 479.541 472.116 479.368L476.172 478.848C476.138 479.125 476.12 479.299 476.12 479.368C476.12 479.437 476.12 479.541 476.12 479.68C476.12 480.443 476.224 481.153 476.432 481.812C476.675 482.436 477.056 482.991 477.576 483.476C478.096 483.927 478.772 484.291 479.604 484.568C480.436 484.845 481.459 484.984 482.672 484.984C483.47 484.984 484.284 484.897 485.116 484.724C485.983 484.516 486.763 484.221 487.456 483.84C488.15 483.424 488.722 482.921 489.172 482.332C489.623 481.708 489.848 480.963 489.848 480.096C489.848 478.744 489.294 477.843 488.184 477.392C487.11 476.907 485.498 476.577 483.348 476.404C480.887 476.231 478.946 475.641 477.524 474.636C476.138 473.631 475.444 472.053 475.444 469.904C475.444 468.691 475.704 467.564 476.224 466.524C476.744 465.484 477.472 464.6 478.408 463.872C479.379 463.109 480.523 462.52 481.84 462.104C483.192 461.688 484.683 461.48 486.312 461.48C487.907 461.48 489.276 461.705 490.42 462.156C491.599 462.572 492.552 463.127 493.28 463.82C494.043 464.513 494.598 465.311 494.944 466.212C495.326 467.079 495.516 467.98 495.516 468.916V469.488L491.512 470.06V469.852C491.512 469.783 491.512 469.731 491.512 469.696C491.547 469.627 491.564 469.557 491.564 469.488C491.564 468.171 491.062 467.113 490.056 466.316C489.086 465.519 487.664 465.12 485.792 465.12ZM504.58 462.208H513.524L515.916 450.872H519.972L517.58 462.208H526.732V465.952H516.748L513.056 483.476C512.952 483.892 512.987 484.221 513.16 484.464C513.368 484.707 513.628 484.828 513.94 484.828C514.183 484.828 514.443 484.741 514.72 484.568L521.636 479.888L523.716 482.956L516.8 487.636C515.691 488.364 514.547 488.728 513.368 488.728C512.155 488.728 511.115 488.364 510.248 487.636C509.381 486.908 508.948 485.816 508.948 484.36C508.948 484.117 508.965 483.875 509 483.632C509.035 483.355 509.087 483.077 509.156 482.8L512.692 465.952H504.58V462.208Z" fill="white" fill-opacity="0.88"/>
</svg>
