<svg width="758" height="758" viewBox="0 0 758 758" fill="none" xmlns="http://www.w3.org/2000/svg">
<path d="M377.049 721V534.714M377.049 534.714C277.418 512.577 106.545 429.344 214.522 223.336C216.372 219.806 220.257 217.631 224.22 218.052C254.701 221.294 280.811 227.756 303.112 236.597M377.049 534.714C397.432 518.746 415.184 469.036 421.511 446.177C428.75 405.038 423.259 337.881 377.049 286.644M377.049 534.714C527.092 459.883 613.257 372.563 538.71 222.91C537.045 219.568 533.567 217.397 529.834 217.481C494.261 218.285 464.806 226.093 441.388 236.597M377.049 286.644C359.097 266.739 334.998 249.237 303.112 236.597M377.049 286.644C385.666 273.227 407.027 252.009 441.388 236.597M303.112 236.597C312.328 205.448 350.02 174.077 371.89 159.354C375.029 157.241 379.111 157.216 382.23 159.358C414.772 181.707 435.09 219.654 441.388 236.597" stroke="white" stroke-width="45"/>
<circle cx="379" cy="379" r="356.5" stroke="white" stroke-width="45"/>
<path d="M377 173.5L329 222.5L370.5 261.5L419 226.5L377 173.5Z" fill="#03A94B"/>
<path d="M184.5 338.5L224 238L290.5 241.5L383 309.5L425.5 390.5L369.5 525L215 439.5L184.5 338.5Z" fill="#FAC02E" stroke="black"/>
<path d="M429 481L396.5 282L435.5 244.5L521.5 218L550.5 255.5L558.5 350L490.5 463L429 481Z" fill="#EA4740" stroke="black"/>
<path d="M377.049 721V534.714M377.049 534.714C277.418 512.577 106.545 429.344 214.522 223.336C216.372 219.806 220.257 217.631 224.22 218.052C254.701 221.294 280.811 227.756 303.112 236.597M377.049 534.714C397.432 518.746 415.184 469.036 421.511 446.177C428.75 405.038 423.259 337.881 377.049 286.644M377.049 534.714C527.092 459.883 613.257 372.563 538.71 222.91C537.045 219.568 533.567 217.397 529.834 217.481C494.261 218.285 464.806 226.093 441.388 236.597M377.049 286.644C359.097 266.739 334.998 249.237 303.112 236.597M377.049 286.644C385.666 273.227 407.027 252.009 441.388 236.597M303.112 236.597C312.328 205.448 350.02 174.077 371.89 159.354C375.029 157.241 379.111 157.216 382.23 159.358C414.772 181.707 435.09 219.654 441.388 236.597" stroke="white" stroke-width="45"/>
</svg>
