<svg width="302" height="303" viewBox="0 0 302 303" fill="none" xmlns="http://www.w3.org/2000/svg">
<g filter="url(#filter0_d_668_1063)">
<path d="M258.399 106.414C277.466 66.2764 235.601 24.3425 195.463 43.4787C180.541 1.61387 121.336 1.61387 106.414 43.4787C66.2764 24.4116 24.3425 66.2764 43.4787 106.414C1.61387 121.336 1.61387 180.541 43.4787 195.463C24.4116 235.601 66.2764 277.535 106.414 258.399C121.336 300.264 180.541 300.264 195.463 258.399C235.601 277.466 277.535 235.601 258.399 195.463C300.264 180.541 300.264 121.267 258.399 106.414Z" fill="#750500" stroke="#F26E2C" stroke-width="8.456"/>
<path d="M118.022 170.664L184.235 132.436M184.235 132.436L141.806 121.067M184.235 132.436L172.866 174.865" stroke="#F26E2C" stroke-width="8.456"/>
<path d="M77.5405 142.521L56.7545 136.959L59.3625 127.213C60.3063 123.686 62.9047 123.14 65.1664 123.745L69.3936 124.876C71.3322 125.395 72.3421 126.473 72.7198 127.757L81.6542 127.147L79.918 133.636L72.3643 134.154L79.284 136.006L77.5405 142.521ZM66.3062 132.533L66.5511 131.618C66.5511 131.618 66.7241 130.971 65.7278 130.705C64.7585 130.445 64.5856 131.092 64.5856 131.092L64.3407 132.007L66.3062 132.533Z" fill="#F26E2C"/>
<path d="M83.3159 123.53L64.5841 112.941L71.2224 101.198L76.4877 104.174L73.1686 110.046L74.7942 110.965L78.1134 105.093L83.0875 107.905L79.7683 113.776L81.3698 114.682L84.6889 108.81L89.9542 111.786L83.3159 123.53Z" fill="#F26E2C"/>
<path d="M95.8056 104.714C94.1482 106.446 91.6258 107.388 89.0686 104.94L80.3299 96.5761C78.6385 94.9573 77.7557 92.4533 80.2611 89.8357L83.9228 86.01C86.4282 83.3924 88.9684 84.1647 90.6598 85.7836L92.3713 87.4218L88.0351 91.9522L87.7934 91.7209C87.7934 91.7209 87.0283 90.9886 86.373 91.6732C85.7178 92.3578 86.4234 93.0717 86.4435 93.091L92.2827 98.68C92.3029 98.6992 93.047 99.3729 93.7023 98.6883C94.3575 98.0037 93.6125 97.2906 93.6125 97.2906L93.1293 96.8281L92.474 97.5127L88.3463 93.5619L93.3378 88.3468L99.3985 94.1478C101.956 96.5954 101.144 99.1364 99.4673 100.888L95.8056 104.714Z" fill="#F26E2C"/>
<path d="M106.552 94.7424L94.3584 77.0135L99.9159 73.1912L112.109 90.9202L106.552 94.7424Z" fill="#F26E2C"/>
<path d="M120.452 86.4564C117.137 87.8487 115.1 86.165 114.183 83.9807L113.276 81.8221L119.058 79.3937L119.187 79.7021C119.22 79.7792 119.612 80.6421 120.486 80.2752C121.36 79.9082 120.961 78.9574 120.961 78.9574C120.939 78.906 120.557 78.0688 119.765 78.3412L117.015 79.496C113.674 80.8991 111.652 79.1789 110.745 77.0203L109.062 73.0114C108.155 70.8529 108.343 68.2045 111.683 66.8014L116.566 64.7508C119.906 63.3477 121.929 65.0679 122.835 67.2265L123.753 69.4108L117.971 71.8392L117.831 71.5051C117.809 71.4537 117.406 70.5651 116.558 70.9213C115.658 71.299 116.057 72.2498 116.068 72.2755C116.079 72.3012 116.461 73.1384 117.29 72.8809L120.04 71.7261C123.355 70.3338 125.392 72.0176 126.298 74.1761L127.982 78.185C128.9 80.3693 128.675 83.0027 125.36 84.395L120.452 86.4564Z" fill="#F26E2C"/>
<path d="M136.701 81.0836L134.35 65.7945L130.548 66.3792L129.628 60.4013L143.926 58.2021L144.845 64.18L141.044 64.7648L143.396 80.0539L136.701 81.0836Z" fill="#F26E2C"/>
<path d="M151.172 79.349L152.984 57.9082L166.427 59.0447L165.917 65.0714L159.196 64.5032L159.039 66.364L165.76 66.9322L165.278 72.6257L158.557 72.0574L158.402 73.8905L165.123 74.4587L164.614 80.4854L151.172 79.349Z" fill="#F26E2C"/>
<path d="M169.083 81.3014L176.205 60.9972L185.726 64.337C189.172 65.5456 189.518 68.1779 188.743 70.3871L187.295 74.5164C186.631 76.41 185.479 77.3352 184.17 77.6145L184.101 86.5694L177.762 84.3459L177.819 76.7748L175.448 83.5341L169.083 81.3014ZM179.895 70.8571L180.789 71.1708C180.789 71.1708 181.42 71.3922 181.761 70.4191C182.094 69.4722 181.462 69.2508 181.462 69.2508L180.568 68.9371L179.895 70.8571Z" fill="#F26E2C"/>
<path d="M197.214 94.6404L211.961 78.9713L216.527 83.2692L213.211 90.2907L218.273 84.912L223.205 89.5538L208.458 105.223L203.891 100.925L206.729 94.3716L202.126 99.2631L197.214 94.6404Z" fill="#F26E2C"/>
<path d="M213.698 112.619C212.444 110.577 212.172 107.898 215.189 106.045L225.498 99.7163C227.493 98.4913 230.139 98.273 232.035 101.361L235.068 106.301C236.949 109.365 235.572 111.65 233.577 112.875L223.268 119.204C220.252 121.056 217.985 119.602 216.731 117.56L213.698 112.619ZM220.428 110.744C220.357 110.787 219.579 111.331 220.06 112.114C220.556 112.922 221.435 112.382 221.435 112.382L228.323 108.153C228.323 108.153 229.202 107.614 228.706 106.806C228.225 106.022 227.364 106.485 227.317 106.514L220.428 110.744Z" fill="#F26E2C"/>
<path d="M221.588 127.065L241.786 119.401L243.608 125.895L234.157 129.56L238.413 129.871L234.94 132.351L244.91 130.538L246.732 137.032L225.495 140.992L223.801 134.954L226.766 133.139L223.282 133.103L221.588 127.065Z" fill="#F26E2C"/>
<path d="M225.889 167.353L246.675 172.915L244.067 182.661C243.123 186.188 240.525 186.734 238.263 186.129L234.036 184.998C232.097 184.479 231.088 183.401 230.71 182.117L221.775 182.727L223.512 176.238L231.065 175.72L224.146 173.869L225.889 167.353ZM237.123 177.341L236.879 178.257C236.879 178.257 236.706 178.903 237.702 179.169C238.671 179.429 238.844 178.782 238.844 178.782L239.089 177.867L237.123 177.341Z" fill="#F26E2C"/>
<path d="M220.114 186.344L238.846 196.933L232.207 208.676L226.942 205.7L230.261 199.828L228.635 198.909L225.316 204.781L220.342 201.969L223.661 196.098L222.06 195.192L218.741 201.064L213.476 198.088L220.114 186.344Z" fill="#F26E2C"/>
<path d="M207.624 205.16C209.282 203.428 211.804 202.486 214.361 204.934L223.1 213.298C224.791 214.917 225.674 217.421 223.169 220.038L219.507 223.864C217.001 226.482 214.461 225.709 212.77 224.09L211.058 222.452L215.395 217.922L215.636 218.153C215.636 218.153 216.401 218.885 217.057 218.201C217.712 217.516 217.006 216.802 216.986 216.783L211.147 211.194C211.127 211.175 210.383 210.501 209.727 211.186C209.072 211.87 209.817 212.583 209.817 212.583L210.3 213.046L210.956 212.361L215.083 216.312L210.092 221.527L204.031 215.726C201.474 213.279 202.286 210.738 203.962 208.986L207.624 205.16Z" fill="#F26E2C"/>
<path d="M196.878 215.132L209.071 232.861L203.514 236.683L191.321 218.954L196.878 215.132Z" fill="#F26E2C"/>
<path d="M182.978 223.418C186.292 222.025 188.33 223.709 189.247 225.893L190.154 228.052L184.372 230.48L184.242 230.172C184.21 230.095 183.817 229.232 182.944 229.599C182.07 229.966 182.469 230.917 182.469 230.917C182.491 230.968 182.873 231.805 183.665 231.533L186.415 230.378C189.755 228.975 191.778 230.695 192.684 232.854L194.368 236.863C195.275 239.021 195.087 241.67 191.746 243.073L186.864 245.123C183.523 246.526 181.501 244.806 180.594 242.648L179.677 240.463L185.459 238.035L185.599 238.369C185.621 238.42 186.024 239.309 186.872 238.953C187.772 238.575 187.372 237.624 187.361 237.599C187.351 237.573 186.969 236.736 186.14 236.993L183.39 238.148C180.075 239.54 178.038 237.856 177.131 235.698L175.448 231.689C174.53 229.505 174.754 226.871 178.069 225.479L182.978 223.418Z" fill="#F26E2C"/>
<path d="M166.728 228.79L169.08 244.08L172.882 243.495L173.801 249.473L159.504 251.672L158.584 245.694L162.386 245.109L160.034 229.82L166.728 228.79Z" fill="#F26E2C"/>
<path d="M152.258 230.525L150.445 251.966L137.003 250.829L137.513 244.803L144.234 245.371L144.391 243.51L137.67 242.942L138.151 237.248L144.872 237.817L145.027 235.984L138.306 235.415L138.816 229.389L152.258 230.525Z" fill="#F26E2C"/>
<path d="M134.347 228.573L127.224 248.877L117.703 245.537C114.258 244.328 113.911 241.696 114.686 239.487L116.135 235.358C116.799 233.464 117.951 232.539 119.26 232.26L119.329 223.305L125.668 225.528L125.611 233.099L127.982 226.34L134.347 228.573ZM123.535 239.017L122.641 238.703C122.641 238.703 122.01 238.482 121.668 239.455C121.336 240.402 121.967 240.623 121.967 240.623L122.862 240.937L123.535 239.017Z" fill="#F26E2C"/>
<path d="M106.216 215.234L91.4691 230.903L86.9023 226.605L90.2188 219.583L85.1568 224.962L80.2246 220.32L94.9714 204.651L99.5382 208.949L96.7004 215.502L101.304 210.611L106.216 215.234Z" fill="#F26E2C"/>
<path d="M89.7319 197.255C90.9861 199.298 91.2572 201.976 88.2407 203.829L77.9322 210.158C75.937 211.383 73.2909 211.601 71.3951 208.513L68.3617 203.573C66.4805 200.509 67.8578 198.224 69.853 196.999L80.1615 190.67C83.1781 188.818 85.4444 190.272 86.6986 192.314L89.7319 197.255ZM83.0013 199.13C83.0726 199.087 83.851 198.543 83.3698 197.76C82.8739 196.952 81.9951 197.492 81.9951 197.492L75.1069 201.721C75.1069 201.721 74.2281 202.26 74.7239 203.068C75.2051 203.852 76.0656 203.389 76.1132 203.36L83.0013 199.13Z" fill="#F26E2C"/>
<path d="M81.8416 182.809L61.6436 190.473L59.8217 183.979L69.2729 180.314L65.017 180.003L68.4899 177.523L58.5193 179.336L56.6974 172.842L77.9343 168.882L79.6282 174.92L76.6639 176.736L80.1477 176.771L81.8416 182.809Z" fill="#F26E2C"/>
<ellipse cx="63.7331" cy="154.321" rx="8.16479" ry="8.15211" fill="#F26E2C"/>
<ellipse cx="240.1" cy="154.321" rx="8.16479" ry="8.15211" fill="#F26E2C"/>
</g>
<defs>
<filter id="filter0_d_668_1063" x="-4" y="0" width="310" height="310" filterUnits="userSpaceOnUse" color-interpolation-filters="sRGB">
<feFlood flood-opacity="0" result="BackgroundImageFix"/>
<feColorMatrix in="SourceAlpha" type="matrix" values="0 0 0 0 0 0 0 0 0 0 0 0 0 0 0 0 0 0 127 0" result="hardAlpha"/>
<feOffset dy="4"/>
<feGaussianBlur stdDeviation="2"/>
<feComposite in2="hardAlpha" operator="out"/>
<feColorMatrix type="matrix" values="0 0 0 0 0 0 0 0 0 0 0 0 0 0 0 0 0 0 0.25 0"/>
<feBlend mode="normal" in2="BackgroundImageFix" result="effect1_dropShadow_668_1063"/>
<feBlend mode="normal" in="SourceGraphic" in2="effect1_dropShadow_668_1063" result="shape"/>
</filter>
</defs>
</svg>
