<svg width="665" height="212" viewBox="0 0 665 212" fill="none" xmlns="http://www.w3.org/2000/svg">
<g filter="url(#filter0_d_272_611)">
<mask id="path-1-outside-1_272_611" maskUnits="userSpaceOnUse" x="1.35626" y="0.0351188" width="666.971" height="201.158" fill="black">
<rect fill="white" x="1.35626" y="0.0351188" width="666.971" height="201.158"/>
<path d="M69.5222 119.42L32.3017 114.85L41.1859 42.4936L21.3846 40.0624L24.8213 12.0726L101.644 21.5051L98.2077 49.4949L78.4064 47.0637L69.5222 119.42ZM107.55 22.2302L144.77 26.8003L132.449 127.147L95.2288 122.577L107.55 22.2302ZM175.78 132.467L138.41 127.879L150.731 27.5322L186.91 31.9743L202.791 62.6383L203.089 62.6748L225.917 36.7637L262.095 41.2058L249.774 141.552L212.405 136.964L217.212 97.8079L196.558 122.021L194.771 121.802L180.587 93.311L175.78 132.467ZM335.096 152.028L255.742 142.285L268.063 41.9385L344.439 51.3163L340.82 80.7949L301.664 75.9872L300.86 82.538L333.167 86.5048L329.767 114.197L297.46 110.23L296.582 117.376L338.716 122.55L335.096 152.028ZM414.486 161.776L341.088 152.764L353.408 52.4175L390.629 56.9876L381.927 127.855L418.106 132.297L414.486 161.776ZM432.793 62.1646L470.013 66.7346L457.692 167.081L420.472 162.511L432.793 62.1646ZM534.038 74.5958L571.259 79.1659L558.938 179.512L526.779 175.564L505.718 132.929L500.874 172.383L463.653 167.813L475.974 67.4666L510.366 71.6893L529.306 114.366L534.038 74.5958ZM644.201 189.981L564.847 180.238L577.167 79.8914L653.544 89.2691L649.924 118.748L610.768 113.94L609.964 120.491L642.272 124.458L638.871 152.15L606.564 148.183L605.687 155.329L647.82 160.503L644.201 189.981Z"/>
</mask>
<path d="M69.5222 119.42L32.3017 114.85L41.1859 42.4936L21.3846 40.0624L24.8213 12.0726L101.644 21.5051L98.2077 49.4949L78.4064 47.0637L69.5222 119.42ZM107.55 22.2302L144.77 26.8003L132.449 127.147L95.2288 122.577L107.55 22.2302ZM175.78 132.467L138.41 127.879L150.731 27.5322L186.91 31.9743L202.791 62.6383L203.089 62.6748L225.917 36.7637L262.095 41.2058L249.774 141.552L212.405 136.964L217.212 97.8079L196.558 122.021L194.771 121.802L180.587 93.311L175.78 132.467ZM335.096 152.028L255.742 142.285L268.063 41.9385L344.439 51.3163L340.82 80.7949L301.664 75.9872L300.86 82.538L333.167 86.5048L329.767 114.197L297.46 110.23L296.582 117.376L338.716 122.55L335.096 152.028ZM414.486 161.776L341.088 152.764L353.408 52.4175L390.629 56.9876L381.927 127.855L418.106 132.297L414.486 161.776ZM432.793 62.1646L470.013 66.7346L457.692 167.081L420.472 162.511L432.793 62.1646ZM534.038 74.5958L571.259 79.1659L558.938 179.512L526.779 175.564L505.718 132.929L500.874 172.383L463.653 167.813L475.974 67.4666L510.366 71.6893L529.306 114.366L534.038 74.5958ZM644.201 189.981L564.847 180.238L577.167 79.8914L653.544 89.2691L649.924 118.748L610.768 113.94L609.964 120.491L642.272 124.458L638.871 152.15L606.564 148.183L605.687 155.329L647.82 160.503L644.201 189.981Z" fill="#FFECC4"/>
<path d="M69.5222 119.42L68.3035 129.346L78.229 130.564L79.4477 120.639L69.5222 119.42ZM32.3017 114.85L22.3762 113.632L21.1576 123.557L31.083 124.776L32.3017 114.85ZM41.1859 42.4936L51.1113 43.7123L52.33 33.7868L42.4046 32.5682L41.1859 42.4936ZM21.3846 40.0624L11.4591 38.8437L10.2404 48.7691L20.1659 49.9878L21.3846 40.0624ZM24.8213 12.0726L26.0399 2.14709L16.1145 0.928407L14.8958 10.8539L24.8213 12.0726ZM101.644 21.5051L111.57 22.7238L112.788 12.7984L102.863 11.5797L101.644 21.5051ZM98.2077 49.4949L96.989 59.4204L106.914 60.6391L108.133 50.7136L98.2077 49.4949ZM78.4064 47.0637L79.6251 37.1382L69.6996 35.9195L68.4809 45.845L78.4064 47.0637ZM70.7409 109.495L33.5204 104.925L31.083 124.776L68.3035 129.346L70.7409 109.495ZM42.2272 116.069L51.1113 43.7123L31.2604 41.2749L22.3762 113.632L42.2272 116.069ZM42.4046 32.5682L22.6033 30.1369L20.1659 49.9878L39.9672 52.4191L42.4046 32.5682ZM31.31 41.281L34.7467 13.2912L14.8958 10.8539L11.4591 38.8437L31.31 41.281ZM23.6026 21.998L100.426 31.4306L102.863 11.5797L26.0399 2.14709L23.6026 21.998ZM91.7189 20.2865L88.2822 48.2763L108.133 50.7136L111.57 22.7238L91.7189 20.2865ZM99.4263 39.5695L79.6251 37.1382L77.1877 56.9891L96.989 59.4204L99.4263 39.5695ZM68.4809 45.845L59.5967 118.202L79.4477 120.639L88.3318 48.2824L68.4809 45.845ZM107.55 22.2302L108.768 12.3047L98.8428 11.0861L97.6241 21.0115L107.55 22.2302ZM144.77 26.8003L154.696 28.0189L155.914 18.0935L145.989 16.8748L144.77 26.8003ZM132.449 127.147L131.231 137.072L141.156 138.291L142.375 128.365L132.449 127.147ZM95.2288 122.577L85.3033 121.358L84.0846 131.283L94.0101 132.502L95.2288 122.577ZM106.331 32.1557L143.551 36.7257L145.989 16.8748L108.768 12.3047L106.331 32.1557ZM134.845 25.5816L122.524 125.928L142.375 128.365L154.696 28.0189L134.845 25.5816ZM133.668 117.221L96.4474 112.651L94.0101 132.502L131.231 137.072L133.668 117.221ZM105.154 123.795L117.475 23.4489L97.6241 21.0115L85.3033 121.358L105.154 123.795ZM175.78 132.467L174.561 142.392L184.486 143.611L185.705 133.686L175.78 132.467ZM138.41 127.879L128.485 126.66L127.266 136.585L137.192 137.804L138.41 127.879ZM150.731 27.5322L151.95 17.6067L142.024 16.388L140.806 26.3135L150.731 27.5322ZM186.91 31.9743L195.789 27.3753L193.363 22.6916L188.128 22.0488L186.91 31.9743ZM202.791 62.6383L193.911 67.2372L196.337 71.9209L201.572 72.5637L202.791 62.6383ZM203.089 62.6748L201.87 72.6003L207.105 73.2431L210.592 69.2854L203.089 62.6748ZM225.917 36.7637L227.135 26.8382L221.9 26.1954L218.413 30.1531L225.917 36.7637ZM262.095 41.2058L272.02 42.4244L273.239 32.499L263.314 31.2803L262.095 41.2058ZM249.774 141.552L248.555 151.478L258.481 152.696L259.699 142.771L249.774 141.552ZM212.405 136.964L202.479 135.745L201.261 145.671L211.186 146.889L212.405 136.964ZM217.212 97.8079L227.138 99.0266L231.191 66.0118L209.604 91.318L217.212 97.8079ZM196.558 122.021L195.339 131.947L200.676 132.602L204.166 128.511L196.558 122.021ZM194.771 121.802L185.819 126.258L188.215 131.072L193.552 131.727L194.771 121.802ZM180.587 93.311L189.539 88.8544L174.716 59.0775L170.662 92.0923L180.587 93.311ZM176.998 122.541L139.629 117.953L137.192 137.804L174.561 142.392L176.998 122.541ZM148.336 129.097L160.657 28.7509L140.806 26.3135L128.485 126.66L148.336 129.097ZM149.513 37.4576L185.691 41.8997L188.128 22.0488L151.95 17.6067L149.513 37.4576ZM178.03 36.5732L193.911 67.2372L211.671 58.0393L195.789 27.3753L178.03 36.5732ZM201.572 72.5637L201.87 72.6003L204.307 52.7494L204.01 52.7128L201.572 72.5637ZM210.592 69.2854L233.42 43.3742L218.413 30.1531L195.585 56.0643L210.592 69.2854ZM224.698 46.6891L260.876 51.1312L263.314 31.2803L227.135 26.8382L224.698 46.6891ZM252.169 39.9871L239.849 140.334L259.699 142.771L272.02 42.4244L252.169 39.9871ZM250.993 131.627L213.623 127.038L211.186 146.889L248.555 151.478L250.993 131.627ZM222.33 138.183L227.138 99.0266L207.287 96.5892L202.479 135.745L222.33 138.183ZM209.604 91.318L188.95 115.531L204.166 128.511L224.82 104.298L209.604 91.318ZM197.776 112.096L195.99 111.876L193.552 131.727L195.339 131.947L197.776 112.096ZM203.723 117.345L189.539 88.8544L171.635 97.7676L185.819 126.258L203.723 117.345ZM170.662 92.0923L165.854 131.248L185.705 133.686L190.513 94.5297L170.662 92.0923ZM335.096 152.028L333.878 161.954L343.803 163.172L345.022 153.247L335.096 152.028ZM255.742 142.285L245.817 141.066L244.598 150.992L254.523 152.21L255.742 142.285ZM268.063 41.9385L269.282 32.0131L259.356 30.7944L258.137 40.7199L268.063 41.9385ZM344.439 51.3163L354.365 52.535L355.584 42.6095L345.658 41.3908L344.439 51.3163ZM340.82 80.7949L339.601 90.7204L349.527 91.9391L350.745 82.0136L340.82 80.7949ZM301.664 75.9872L302.883 66.0618L292.957 64.8431L291.739 74.7685L301.664 75.9872ZM300.86 82.538L290.934 81.3193L289.715 91.2448L299.641 92.4635L300.86 82.538ZM333.167 86.5048L343.092 87.7235L344.311 77.798L334.386 76.5794L333.167 86.5048ZM329.767 114.197L328.548 124.122L338.474 125.341L339.692 115.416L329.767 114.197ZM297.46 110.23L298.678 100.305L288.753 99.0859L287.534 109.011L297.46 110.23ZM296.582 117.376L286.657 116.158L285.438 126.083L295.363 127.302L296.582 117.376ZM338.716 122.55L348.641 123.768L349.86 113.843L339.934 112.624L338.716 122.55ZM336.315 142.103L256.961 132.36L254.523 152.21L333.878 161.954L336.315 142.103ZM265.668 143.504L277.988 43.1572L258.137 40.7199L245.817 141.066L265.668 143.504ZM266.844 51.864L343.221 61.2417L345.658 41.3908L269.282 32.0131L266.844 51.864ZM334.514 50.0976L330.894 79.5762L350.745 82.0136L354.365 52.535L334.514 50.0976ZM342.039 70.8695L302.883 66.0618L300.445 85.9127L339.601 90.7204L342.039 70.8695ZM291.739 74.7685L290.934 81.3193L310.785 83.7567L311.589 77.2059L291.739 74.7685ZM299.641 92.4635L331.948 96.4303L334.386 76.5794L302.078 72.6126L299.641 92.4635ZM323.242 85.2862L319.841 112.978L339.692 115.416L343.092 87.7235L323.242 85.2862ZM330.986 104.271L298.678 100.305L296.241 120.156L328.548 124.122L330.986 104.271ZM287.534 109.011L286.657 116.158L306.508 118.595L307.385 111.449L287.534 109.011ZM295.363 127.302L337.497 132.475L339.934 112.624L297.801 107.451L295.363 127.302ZM328.79 121.331L325.171 150.81L345.022 153.247L348.641 123.768L328.79 121.331ZM414.486 161.776L413.268 171.702L423.193 172.92L424.412 162.995L414.486 161.776ZM341.088 152.764L331.162 151.545L329.943 161.471L339.869 162.689L341.088 152.764ZM353.408 52.4175L354.627 42.4921L344.702 41.2734L343.483 51.1988L353.408 52.4175ZM390.629 56.9876L400.554 58.2063L401.773 48.2808L391.848 47.0621L390.629 56.9876ZM381.927 127.855L372.002 126.637L370.783 136.562L380.709 137.781L381.927 127.855ZM418.106 132.297L428.031 133.516L429.25 123.591L419.324 122.372L418.106 132.297ZM415.705 151.851L342.306 142.838L339.869 162.689L413.268 171.702L415.705 151.851ZM351.013 153.983L363.334 53.6362L343.483 51.1988L331.162 151.545L351.013 153.983ZM352.19 62.343L389.41 66.913L391.848 47.0621L354.627 42.4921L352.19 62.343ZM380.703 55.7689L372.002 126.637L391.853 129.074L400.554 58.2063L380.703 55.7689ZM380.709 137.781L416.887 142.223L419.324 122.372L383.146 117.93L380.709 137.781ZM408.18 131.079L404.561 160.557L424.412 162.995L428.031 133.516L408.18 131.079ZM432.793 62.1646L434.011 52.2391L424.086 51.0204L422.867 60.9459L432.793 62.1646ZM470.013 66.7346L479.939 67.9533L481.157 58.0279L471.232 56.8092L470.013 66.7346ZM457.692 167.081L456.474 177.007L466.399 178.225L467.618 168.3L457.692 167.081ZM420.472 162.511L410.546 161.292L409.328 171.218L419.253 172.436L420.472 162.511ZM431.574 72.09L468.794 76.6601L471.232 56.8092L434.011 52.2391L431.574 72.09ZM460.088 65.516L447.767 165.862L467.618 168.3L479.939 67.9533L460.088 65.516ZM458.911 157.156L421.691 152.586L419.253 172.436L456.474 177.007L458.911 157.156ZM430.397 163.73L442.718 63.3833L422.867 60.9459L410.546 161.292L430.397 163.73ZM534.038 74.5958L535.257 64.6704L525.294 63.4471L524.108 73.4143L534.038 74.5958ZM571.259 79.1659L581.184 80.3846L582.403 70.4591L572.477 69.2404L571.259 79.1659ZM558.938 179.512L557.719 189.438L567.645 190.656L568.863 180.731L558.938 179.512ZM526.779 175.564L517.814 179.993L520.204 184.832L525.561 185.489L526.779 175.564ZM505.718 132.929L514.684 128.5L499.869 98.5106L495.793 131.711L505.718 132.929ZM500.874 172.383L499.655 182.309L509.581 183.527L510.799 173.602L500.874 172.383ZM463.653 167.813L453.728 166.594L452.509 176.52L462.435 177.738L463.653 167.813ZM475.974 67.4666L477.193 57.5411L467.267 56.3224L466.049 66.2479L475.974 67.4666ZM510.366 71.6893L519.506 67.6327L517.208 62.4543L511.585 61.7638L510.366 71.6893ZM529.306 114.366L520.166 118.422L534.935 151.699L539.236 115.547L529.306 114.366ZM532.82 84.5213L570.04 89.0913L572.477 69.2404L535.257 64.6704L532.82 84.5213ZM561.333 77.9472L549.012 178.294L568.863 180.731L581.184 80.3846L561.333 77.9472ZM560.157 169.587L527.998 165.638L525.561 185.489L557.719 189.438L560.157 169.587ZM535.745 171.135L514.684 128.5L496.752 137.358L517.814 179.993L535.745 171.135ZM495.793 131.711L490.948 171.164L510.799 173.602L515.644 134.148L495.793 131.711ZM502.093 162.458L464.872 157.888L462.435 177.738L499.655 182.309L502.093 162.458ZM473.579 169.032L485.9 68.6852L466.049 66.2479L453.728 166.594L473.579 169.032ZM474.756 77.392L509.147 81.6147L511.585 61.7638L477.193 57.5411L474.756 77.392ZM501.226 75.7458L520.166 118.422L538.447 110.309L519.506 67.6327L501.226 75.7458ZM539.236 115.547L543.968 75.7773L524.108 73.4143L519.376 113.184L539.236 115.547ZM644.201 189.981L642.982 199.907L652.907 201.125L654.126 191.2L644.201 189.981ZM564.847 180.238L554.921 179.019L553.702 188.945L563.628 190.163L564.847 180.238ZM577.167 79.8914L578.386 69.9659L568.461 68.7472L567.242 78.6727L577.167 79.8914ZM653.544 89.2691L663.469 90.4878L664.688 80.5623L654.763 79.3437L653.544 89.2691ZM649.924 118.748L648.706 128.673L658.631 129.892L659.85 119.966L649.924 118.748ZM610.768 113.94L611.987 104.015L602.062 102.796L600.843 112.721L610.768 113.94ZM609.964 120.491L600.039 119.272L598.82 129.198L608.745 130.416L609.964 120.491ZM642.272 124.458L652.197 125.676L653.416 115.751L643.49 114.532L642.272 124.458ZM638.871 152.15L637.653 162.075L647.578 163.294L648.797 153.368L638.871 152.15ZM606.564 148.183L607.783 138.257L597.857 137.039L596.639 146.964L606.564 148.183ZM605.687 155.329L595.761 154.111L594.542 164.036L604.468 165.255L605.687 155.329ZM647.82 160.503L657.746 161.721L658.964 151.796L649.039 150.577L647.82 160.503ZM645.419 180.056L566.065 170.312L563.628 190.163L642.982 199.907L645.419 180.056ZM574.772 181.456L587.093 81.1101L567.242 78.6727L554.921 179.019L574.772 181.456ZM575.949 89.8168L652.325 99.1946L654.763 79.3437L578.386 69.9659L575.949 89.8168ZM643.618 88.0504L639.999 117.529L659.85 119.966L663.469 90.4878L643.618 88.0504ZM651.143 108.822L611.987 104.015L609.55 123.866L648.706 128.673L651.143 108.822ZM600.843 112.721L600.039 119.272L619.89 121.71L620.694 115.159L600.843 112.721ZM608.745 130.416L641.053 134.383L643.49 114.532L611.183 110.565L608.745 130.416ZM632.346 123.239L628.946 150.931L648.797 153.368L652.197 125.676L632.346 123.239ZM640.09 142.224L607.783 138.257L605.345 158.108L637.653 162.075L640.09 142.224ZM596.639 146.964L595.761 154.111L615.612 156.548L616.489 149.402L596.639 146.964ZM604.468 165.255L646.601 170.428L649.039 150.577L606.905 145.404L604.468 165.255ZM637.895 159.284L634.275 188.762L654.126 191.2L657.746 161.721L637.895 159.284Z" fill="#E35734" mask="url(#path-1-outside-1_272_611)"/>
</g>
<defs>
<filter id="filter0_d_272_611" x="0.240234" y="0.928711" width="664.447" height="210.196" filterUnits="userSpaceOnUse" color-interpolation-filters="sRGB">
<feFlood flood-opacity="0" result="BackgroundImageFix"/>
<feColorMatrix in="SourceAlpha" type="matrix" values="0 0 0 0 0 0 0 0 0 0 0 0 0 0 0 0 0 0 127 0" result="hardAlpha"/>
<feOffset dx="-10" dy="10"/>
<feComposite in2="hardAlpha" operator="out"/>
<feColorMatrix type="matrix" values="0 0 0 0 0.890196 0 0 0 0 0.341176 0 0 0 0 0.203922 0 0 0 1 0"/>
<feBlend mode="normal" in2="BackgroundImageFix" result="effect1_dropShadow_272_611"/>
<feBlend mode="normal" in="SourceGraphic" in2="effect1_dropShadow_272_611" result="shape"/>
</filter>
</defs>
</svg>
