<svg width="779" height="225" viewBox="0 0 779 272" fill="none" xmlns="http://www.w3.org/2000/svg">
<mask id="path-1-outside-1_121_448" maskUnits="userSpaceOnUse" x="0.555331" y="47.3208" width="743.245" height="179.943" fill="black">
<rect fill="white" x="0.555331" y="47.3208" width="743.245" height="179.943"/>
<path d="M22.1513 93.8863L21.8564 70.0226L116.591 73.5932L116.886 97.4569L84.1012 96.2212L85.1543 181.449L55.9889 180.349L54.9357 95.122L22.1513 93.8863ZM157.319 75.1283L158.667 184.219L129.075 183.104L127.727 74.013L157.319 75.1283ZM171.342 75.6569L208.172 77.045L234.269 139.79L235.546 139.838L260.116 79.0028L296.945 80.391L298.293 189.482L269.341 188.391L268.562 125.323L267.71 125.29L244.21 186.592L226.753 185.934L201.71 122.377L200.858 122.345L201.643 185.839L172.69 184.748L171.342 75.6569ZM312.317 190.011L310.969 80.9196L389.524 83.8804L389.819 107.744L340.855 105.899L341.087 124.649L386.006 126.342L386.301 150.205L341.382 148.512L341.614 167.262L390.365 169.1L390.659 192.964L312.317 190.011ZM405.548 193.525L404.2 84.4335L433.791 85.5489L434.844 170.776L478.912 172.437L479.207 196.301L405.548 193.525ZM519.412 88.776L520.76 197.867L491.168 196.752L489.82 87.6607L519.412 88.776ZM627.744 92.8592L629.092 201.95L604.397 201.02L564.305 142.22L563.666 142.196L564.375 199.511L534.783 198.396L533.435 89.3046L558.556 90.2514L598.007 148.814L598.858 148.846L598.153 91.7438L627.744 92.8592ZM643.089 202.478L641.741 93.3867L720.296 96.3476L720.591 120.211L671.627 118.366L671.859 137.116L716.778 138.809L717.073 162.673L672.154 160.98L672.386 179.73L721.137 181.567L721.432 205.431L643.089 202.478Z"/>
</mask>
<path d="M22.1513 93.8863L21.8564 70.0226L116.591 73.5932L116.886 97.4569L84.1012 96.2212L85.1543 181.449L55.9889 180.349L54.9357 95.122L22.1513 93.8863ZM157.319 75.1283L158.667 184.219L129.075 183.104L127.727 74.013L157.319 75.1283ZM171.342 75.6569L208.172 77.045L234.269 139.79L235.546 139.838L260.116 79.0028L296.945 80.391L298.293 189.482L269.341 188.391L268.562 125.323L267.71 125.29L244.21 186.592L226.753 185.934L201.71 122.377L200.858 122.345L201.643 185.839L172.69 184.748L171.342 75.6569ZM312.317 190.011L310.969 80.9196L389.524 83.8804L389.819 107.744L340.855 105.899L341.087 124.649L386.006 126.342L386.301 150.205L341.382 148.512L341.614 167.262L390.365 169.1L390.659 192.964L312.317 190.011ZM405.548 193.525L404.2 84.4335L433.791 85.5489L434.844 170.776L478.912 172.437L479.207 196.301L405.548 193.525ZM519.412 88.776L520.76 197.867L491.168 196.752L489.82 87.6607L519.412 88.776ZM627.744 92.8592L629.092 201.95L604.397 201.02L564.305 142.22L563.666 142.196L564.375 199.511L534.783 198.396L533.435 89.3046L558.556 90.2514L598.007 148.814L598.858 148.846L598.153 91.7438L627.744 92.8592ZM643.089 202.478L641.741 93.3867L720.296 96.3476L720.591 120.211L671.627 118.366L671.859 137.116L716.778 138.809L717.073 162.673L672.154 160.98L672.386 179.73L721.137 181.567L721.432 205.431L643.089 202.478Z" fill="#A74925"/>
<path d="M22.1513 93.8863L1.16918 93.0954L1.42867 114.095L22.4107 114.886L22.1513 93.8863ZM21.8564 70.0226L21.5969 49.0225L0.614819 48.2317L0.874309 69.2317L21.8564 70.0226ZM116.591 73.5932L137.573 74.3841L137.313 53.384L116.331 52.5932L116.591 73.5932ZM116.886 97.4569L117.145 118.457L138.127 119.248L137.868 98.2478L116.886 97.4569ZM84.1012 96.2212L83.8417 75.2212L62.8596 74.4303L63.1191 95.4304L84.1012 96.2212ZM85.1543 181.449L85.4138 202.449L106.396 203.24L106.136 182.24L85.1543 181.449ZM55.9889 180.349L35.0068 179.559L35.2663 200.559L56.2484 201.349L55.9889 180.349ZM54.9357 95.122L75.9178 95.9128L75.6583 74.9127L54.6763 74.1219L54.9357 95.122ZM43.1333 94.6771L42.8385 70.8134L0.874309 69.2317L1.16918 93.0954L43.1333 94.6771ZM22.1159 91.0226L116.85 94.5933L116.331 52.5932L21.5969 49.0225L22.1159 91.0226ZM95.6087 72.8024L95.9036 96.6661L137.868 98.2478L137.573 74.3841L95.6087 72.8024ZM116.626 76.4569L83.8417 75.2212L84.3607 117.221L117.145 118.457L116.626 76.4569ZM63.1191 95.4304L64.1722 180.658L106.136 182.24L105.083 97.0121L63.1191 95.4304ZM84.8948 160.449L55.7294 159.349L56.2484 201.349L85.4138 202.449L84.8948 160.449ZM76.9709 181.14L75.9178 95.9128L33.9537 94.3311L35.0068 179.559L76.9709 181.14ZM54.6763 74.1219L21.8918 72.8862L22.4107 114.886L55.1952 116.122L54.6763 74.1219ZM157.319 75.1283L178.301 75.9191L178.041 54.9191L157.059 54.1282L157.319 75.1283ZM158.667 184.219L158.926 205.22L179.908 206.01L179.649 185.01L158.667 184.219ZM129.075 183.104L108.093 182.313L108.353 203.313L129.335 204.104L129.075 183.104ZM127.727 74.013L127.468 53.0129L106.486 52.2221L106.745 73.2221L127.727 74.013ZM136.337 74.3375L137.685 183.429L179.649 185.01L178.301 75.9191L136.337 74.3375ZM158.407 163.219L128.816 162.104L129.335 204.104L158.926 205.22L158.407 163.219ZM150.057 183.895L148.709 74.8038L106.745 73.2221L108.093 182.313L150.057 183.895ZM127.987 95.013L157.578 96.1283L157.059 54.1282L127.468 53.0129L127.987 95.013ZM171.342 75.6569L171.083 54.6568L150.101 53.866L150.36 74.866L171.342 75.6569ZM208.172 77.045L227.485 69.8045L221.982 56.5753L207.912 56.045L208.172 77.045ZM234.269 139.79L214.956 147.03L220.458 160.26L234.528 160.79L234.269 139.79ZM235.546 139.838L235.806 160.838L249.876 161.368L255.056 148.542L235.546 139.838ZM260.116 79.0028L259.857 58.0028L245.787 57.4725L240.606 70.299L260.116 79.0028ZM296.945 80.391L317.927 81.1818L317.668 60.1818L296.686 59.3909L296.945 80.391ZM298.293 189.482L298.553 210.482L319.535 211.273L319.275 190.273L298.293 189.482ZM269.341 188.391L248.359 187.6L248.618 208.6L269.6 209.391L269.341 188.391ZM268.562 125.323L289.544 126.113L289.284 105.113L268.302 104.323L268.562 125.323ZM267.71 125.29L267.451 104.29L253.118 103.75L248.07 116.917L267.71 125.29ZM244.21 186.592L244.469 207.592L258.802 208.132L263.849 194.966L244.21 186.592ZM226.753 185.934L207.284 192.789L212.644 206.392L227.013 206.934L226.753 185.934ZM201.71 122.377L221.179 115.522L215.819 101.918L201.45 101.377L201.71 122.377ZM200.858 122.345L200.599 101.345L179.617 100.554L179.876 121.554L200.858 122.345ZM201.643 185.839L201.903 206.839L222.885 207.63L222.625 186.63L201.643 185.839ZM172.69 184.748L151.708 183.957L151.968 204.957L172.95 205.748L172.69 184.748ZM171.602 96.6569L208.431 98.0451L207.912 56.045L171.083 54.6568L171.602 96.6569ZM188.859 84.2855L214.956 147.03L253.582 132.549L227.485 69.8045L188.859 84.2855ZM234.528 160.79L235.806 160.838L235.287 118.838L234.009 118.79L234.528 160.79ZM255.056 148.542L279.626 87.7067L240.606 70.299L216.036 131.134L255.056 148.542ZM260.376 100.003L297.205 101.391L296.686 59.3909L259.857 58.0028L260.376 100.003ZM275.963 79.6002L277.311 188.691L319.275 190.273L317.927 81.1818L275.963 79.6002ZM298.034 168.482L269.081 167.391L269.6 209.391L298.553 210.482L298.034 168.482ZM290.323 189.182L289.544 126.113L247.579 124.532L248.359 187.6L290.323 189.182ZM268.302 104.323L267.451 104.29L267.969 146.291L268.821 146.323L268.302 104.323ZM248.07 116.917L224.57 178.218L263.849 194.966L287.35 133.664L248.07 116.917ZM243.95 165.592L226.494 164.934L227.013 206.934L244.469 207.592L243.95 165.592ZM246.222 179.079L221.179 115.522L182.241 129.232L207.284 192.789L246.222 179.079ZM201.45 101.377L200.599 101.345L201.118 143.345L201.969 143.377L201.45 101.377ZM179.876 121.554L180.661 185.048L222.625 186.63L221.841 123.136L179.876 121.554ZM201.384 164.839L172.431 163.748L172.95 205.748L201.903 206.839L201.384 164.839ZM193.673 185.539L192.325 76.4477L150.36 74.866L151.708 183.957L193.673 185.539ZM312.317 190.011L291.335 189.22L291.595 210.22L312.577 211.011L312.317 190.011ZM310.969 80.9196L310.71 59.9195L289.728 59.1287L289.987 80.1287L310.969 80.9196ZM389.524 83.8804L410.506 84.6712L410.247 63.6712L389.265 62.8803L389.524 83.8804ZM389.819 107.744L390.079 128.744L411.061 129.535L410.801 108.535L389.819 107.744ZM340.855 105.899L340.596 84.8985L319.614 84.1077L319.873 105.108L340.855 105.899ZM341.087 124.649L320.105 123.858L320.364 144.858L341.347 145.649L341.087 124.649ZM386.006 126.342L406.988 127.133L406.729 106.132L385.747 105.342L386.006 126.342ZM386.301 150.205L386.56 171.205L407.542 171.996L407.283 150.996L386.301 150.205ZM341.382 148.512L341.122 127.512L320.14 126.721L320.4 147.721L341.382 148.512ZM341.614 167.262L320.632 166.472L320.891 187.472L341.873 188.262L341.614 167.262ZM390.365 169.1L411.347 169.891L411.087 148.891L390.105 148.1L390.365 169.1ZM390.659 192.964L390.919 213.964L411.901 214.754L411.642 193.754L390.659 192.964ZM333.299 190.802L331.951 81.7104L289.987 80.1287L291.335 189.22L333.299 190.802ZM311.229 101.92L389.784 104.88L389.265 62.8803L310.71 59.9195L311.229 101.92ZM368.542 83.0896L368.837 106.953L410.801 108.535L410.506 84.6712L368.542 83.0896ZM389.56 86.744L340.596 84.8985L341.115 126.899L390.079 128.744L389.56 86.744ZM319.873 105.108L320.105 123.858L362.069 125.439L361.837 106.689L319.873 105.108ZM341.347 145.649L386.266 147.342L385.747 105.342L340.828 103.649L341.347 145.649ZM365.024 125.551L365.319 149.415L407.283 150.996L406.988 127.133L365.024 125.551ZM386.041 129.205L341.122 127.512L341.641 169.512L386.56 171.205L386.041 129.205ZM320.4 147.721L320.632 166.472L362.596 168.053L362.364 149.303L320.4 147.721ZM341.873 188.262L390.624 190.1L390.105 148.1L341.354 146.262L341.873 188.262ZM369.382 168.309L369.677 192.173L411.642 193.754L411.347 169.891L369.382 168.309ZM390.4 171.964L312.058 169.011L312.577 211.011L390.919 213.964L390.4 171.964ZM405.548 193.525L384.566 192.734L384.826 213.734L405.808 214.525L405.548 193.525ZM404.2 84.4335L403.941 63.4335L382.959 62.6427L383.218 83.6427L404.2 84.4335ZM433.791 85.5489L454.773 86.3397L454.514 65.3397L433.532 64.5488L433.791 85.5489ZM434.844 170.776L413.862 169.986L414.122 190.986L435.104 191.776L434.844 170.776ZM478.912 172.437L499.894 173.228L499.635 152.228L478.652 151.437L478.912 172.437ZM479.207 196.301L479.466 217.301L500.448 218.092L500.189 197.092L479.207 196.301ZM426.53 194.316L425.182 85.2244L383.218 83.6427L384.566 192.734L426.53 194.316ZM404.46 105.434L434.051 106.549L433.532 64.5488L403.941 63.4335L404.46 105.434ZM412.809 84.758L413.862 169.986L455.827 171.567L454.773 86.3397L412.809 84.758ZM435.104 191.776L479.171 193.437L478.652 151.437L434.585 149.776L435.104 191.776ZM457.93 171.646L458.225 195.51L500.189 197.092L499.894 173.228L457.93 171.646ZM478.947 175.301L405.289 172.525L405.808 214.525L479.466 217.301L478.947 175.301ZM519.412 88.776L540.394 89.5668L540.134 68.5668L519.152 67.7759L519.412 88.776ZM520.76 197.867L521.019 218.867L542.001 219.658L541.742 198.658L520.76 197.867ZM491.168 196.752L470.186 195.961L470.446 216.961L491.428 217.752L491.168 196.752ZM489.82 87.6607L489.561 66.6606L468.579 65.8698L468.838 86.8698L489.82 87.6607ZM498.43 87.9852L499.778 197.076L541.742 198.658L540.394 89.5668L498.43 87.9852ZM520.5 176.867L490.909 175.752L491.428 217.752L521.019 218.867L520.5 176.867ZM512.15 197.543L510.802 88.4515L468.838 86.8698L470.186 195.961L512.15 197.543ZM490.08 108.661L519.671 109.776L519.152 67.7759L489.561 66.6606L490.08 108.661ZM627.744 92.8592L648.726 93.65L648.467 72.65L627.485 71.8591L627.744 92.8592ZM629.092 201.95L629.352 222.95L650.334 223.741L650.074 202.741L629.092 201.95ZM604.397 201.02L587.256 212.268L593.622 221.604L604.657 222.02L604.397 201.02ZM564.305 142.22L581.446 130.971L575.081 121.636L564.046 121.22L564.305 142.22ZM563.666 142.196L563.407 121.196L542.425 120.405L542.684 141.405L563.666 142.196ZM564.375 199.511L564.634 220.511L585.616 221.302L585.357 200.302L564.375 199.511ZM534.783 198.396L513.801 197.605L514.061 218.605L535.043 219.396L534.783 198.396ZM533.435 89.3046L533.176 68.3045L512.194 67.5137L512.453 88.5137L533.435 89.3046ZM558.556 90.2514L575.768 79.1077L569.411 69.6702L558.297 69.2513L558.556 90.2514ZM598.007 148.814L580.795 159.958L587.152 169.395L598.266 169.814L598.007 148.814ZM598.858 148.846L599.118 169.846L620.1 170.637L619.841 149.637L598.858 148.846ZM598.153 91.7438L597.893 70.7438L576.911 69.9529L577.171 90.953L598.153 91.7438ZM606.762 92.0683L608.11 201.16L650.074 202.741L648.726 93.65L606.762 92.0683ZM628.833 180.95L604.138 180.02L604.657 222.02L629.352 222.95L628.833 180.95ZM621.538 189.771L581.446 130.971L547.164 153.468L587.256 212.268L621.538 189.771ZM564.046 121.22L563.407 121.196L563.926 163.196L564.565 163.22L564.046 121.22ZM542.684 141.405L543.393 198.72L585.357 200.302L584.648 142.986L542.684 141.405ZM564.115 178.511L534.524 177.396L535.043 219.396L564.634 220.511L564.115 178.511ZM555.766 199.187L554.418 90.0954L512.453 88.5137L513.801 197.605L555.766 199.187ZM533.695 110.305L558.816 111.251L558.297 69.2513L533.176 68.3045L533.695 110.305ZM541.344 101.395L580.795 159.958L615.219 137.671L575.768 79.1077L541.344 101.395ZM598.266 169.814L599.118 169.846L598.599 127.846L597.747 127.814L598.266 169.814ZM619.841 149.637L619.135 92.5347L577.171 90.953L577.876 148.055L619.841 149.637ZM598.412 112.744L628.004 113.859L627.485 71.8591L597.893 70.7438L598.412 112.744ZM643.089 202.478L622.107 201.687L622.367 222.687L643.349 223.478L643.089 202.478ZM641.741 93.3867L641.482 72.3867L620.5 71.5958L620.759 92.5959L641.741 93.3867ZM720.296 96.3476L741.279 97.1384L741.019 76.1384L720.037 75.3475L720.296 96.3476ZM720.591 120.211L720.851 141.211L741.833 142.002L741.573 121.002L720.591 120.211ZM671.627 118.366L671.368 97.3657L650.386 96.5749L650.645 117.575L671.627 118.366ZM671.859 137.116L650.877 136.325L651.137 157.325L672.119 158.116L671.859 137.116ZM716.778 138.809L737.76 139.6L737.501 118.6L716.519 117.809L716.778 138.809ZM717.073 162.673L717.332 183.673L738.315 184.463L738.055 163.463L717.073 162.673ZM672.154 160.98L671.894 139.979L650.912 139.189L651.172 160.189L672.154 160.98ZM672.386 179.73L651.404 178.939L651.663 199.939L672.645 200.73L672.386 179.73ZM721.137 181.567L742.119 182.358L741.859 161.358L720.877 160.567L721.137 181.567ZM721.432 205.431L721.691 226.431L742.673 227.222L742.414 206.222L721.432 205.431ZM664.071 203.269L662.723 94.1776L620.759 92.5959L622.107 201.687L664.071 203.269ZM642.001 114.387L720.556 117.348L720.037 75.3475L641.482 72.3867L642.001 114.387ZM699.314 95.5567L699.609 119.42L741.573 121.002L741.279 97.1384L699.314 95.5567ZM720.332 99.2112L671.368 97.3657L671.887 139.366L720.851 141.211L720.332 99.2112ZM650.645 117.575L650.877 136.325L692.841 137.907L692.609 119.157L650.645 117.575ZM672.119 158.116L717.038 159.809L716.519 117.809L671.6 116.116L672.119 158.116ZM695.796 138.018L696.091 161.882L738.055 163.463L737.76 139.6L695.796 138.018ZM716.813 141.673L671.894 139.979L672.413 181.98L717.332 183.673L716.813 141.673ZM651.172 160.189L651.404 178.939L693.368 180.52L693.136 161.77L651.172 160.189ZM672.645 200.73L721.396 202.567L720.877 160.567L672.126 158.73L672.645 200.73ZM700.155 180.776L700.449 204.64L742.414 206.222L742.119 182.358L700.155 180.776ZM721.172 184.431L642.83 181.478L643.349 223.478L721.691 226.431L721.172 184.431Z" fill="#4F291E" mask="url(#path-1-outside-1_121_448)"/>
<mask id="path-4-outside-2_121_448" maskUnits="userSpaceOnUse" x="13.5846" y="32.9526" width="743.245" height="179.943" fill="black">
<rect fill="white" x="13.5846" y="32.9526" width="743.245" height="179.943"/>
<path d="M35.1806 79.5181L34.8857 55.6544L129.62 59.2251L129.915 83.0888L97.1305 81.8531L98.1836 167.081L69.0182 165.981L67.965 80.7538L35.1806 79.5181ZM170.348 60.7601L171.696 169.851L142.105 168.736L140.757 59.6448L170.348 60.7601ZM184.372 61.2887L221.201 62.6768L247.298 125.422L248.575 125.47L273.145 64.6347L309.975 66.0228L311.323 175.114L282.37 174.023L281.591 110.954L280.739 110.922L257.239 172.224L239.782 171.566L214.739 108.009L213.888 107.977L214.672 171.471L185.72 170.38L184.372 61.2887ZM325.347 175.643L323.999 66.5514L402.554 69.5122L402.848 93.3759L353.885 91.5304L354.116 110.28L399.035 111.974L399.33 135.837L354.411 134.144L354.643 152.894L403.394 154.732L403.689 178.595L325.347 175.643ZM418.577 179.157L417.229 70.0654L446.821 71.1807L447.874 156.408L491.941 158.069L492.236 181.933L418.577 179.157ZM532.441 74.4078L533.789 183.499L504.198 182.384L502.85 73.2925L532.441 74.4078ZM640.773 78.491L642.121 187.582L617.427 186.651L577.334 127.851L576.696 127.827L577.404 185.143L547.813 184.028L546.465 74.9364L571.585 75.8832L611.036 134.446L611.888 134.478L611.182 77.3757L640.773 78.491ZM656.119 188.11L654.771 79.0186L733.326 81.9794L733.621 105.843L684.657 103.998L684.888 122.748L729.807 124.441L730.102 148.304L685.183 146.611L685.415 165.361L734.166 167.199L734.461 191.063L656.119 188.11Z"/>
</mask>
<path d="M35.1806 79.5181L34.8857 55.6544L129.62 59.2251L129.915 83.0888L97.1305 81.8531L98.1836 167.081L69.0182 165.981L67.965 80.7538L35.1806 79.5181ZM170.348 60.7601L171.696 169.851L142.105 168.736L140.757 59.6448L170.348 60.7601ZM184.372 61.2887L221.201 62.6768L247.298 125.422L248.575 125.47L273.145 64.6347L309.975 66.0228L311.323 175.114L282.37 174.023L281.591 110.954L280.739 110.922L257.239 172.224L239.782 171.566L214.739 108.009L213.888 107.977L214.672 171.471L185.72 170.38L184.372 61.2887ZM325.347 175.643L323.999 66.5514L402.554 69.5122L402.848 93.3759L353.885 91.5304L354.116 110.28L399.035 111.974L399.33 135.837L354.411 134.144L354.643 152.894L403.394 154.732L403.689 178.595L325.347 175.643ZM418.577 179.157L417.229 70.0654L446.821 71.1807L447.874 156.408L491.941 158.069L492.236 181.933L418.577 179.157ZM532.441 74.4078L533.789 183.499L504.198 182.384L502.85 73.2925L532.441 74.4078ZM640.773 78.491L642.121 187.582L617.427 186.651L577.334 127.851L576.696 127.827L577.404 185.143L547.813 184.028L546.465 74.9364L571.585 75.8832L611.036 134.446L611.888 134.478L611.182 77.3757L640.773 78.491ZM656.119 188.11L654.771 79.0186L733.326 81.9794L733.621 105.843L684.657 103.998L684.888 122.748L729.807 124.441L730.102 148.304L685.183 146.611L685.415 165.361L734.166 167.199L734.461 191.063L656.119 188.11Z" fill="#A74925"/>
<path d="M35.1806 79.5181L14.1985 78.7273L14.458 99.7273L35.44 100.518L35.1806 79.5181ZM34.8857 55.6544L34.6262 34.6544L13.6441 33.8635L13.9036 54.8636L34.8857 55.6544ZM129.62 59.2251L150.602 60.0159L150.343 39.0158L129.361 38.225L129.62 59.2251ZM129.915 83.0888L130.174 104.089L151.157 104.88L150.897 83.8796L129.915 83.0888ZM97.1305 81.8531L96.871 60.853L75.8889 60.0622L76.1484 81.0622L97.1305 81.8531ZM98.1836 167.081L98.4431 188.081L119.425 188.871L119.166 167.871L98.1836 167.081ZM69.0182 165.981L48.0361 165.19L48.2956 186.19L69.2777 186.981L69.0182 165.981ZM67.965 80.7538L88.9471 81.5446L88.6876 60.5446L67.7056 59.7537L67.965 80.7538ZM56.1626 80.3089L55.8678 56.4452L13.9036 54.8636L14.1985 78.7273L56.1626 80.3089ZM35.1452 76.6545L129.88 80.2251L129.361 38.225L34.6262 34.6544L35.1452 76.6545ZM108.638 58.4342L108.933 82.2979L150.897 83.8796L150.602 60.0159L108.638 58.4342ZM129.655 62.0887L96.871 60.853L97.39 102.853L130.174 104.089L129.655 62.0887ZM76.1484 81.0622L77.2015 166.29L119.166 167.871L118.113 82.6439L76.1484 81.0622ZM97.9241 146.081L68.7587 144.981L69.2777 186.981L98.4431 188.081L97.9241 146.081ZM90.0002 166.772L88.9471 81.5446L46.983 79.963L48.0361 165.19L90.0002 166.772ZM67.7056 59.7537L34.9211 58.5181L35.44 100.518L68.2245 101.754L67.7056 59.7537ZM170.348 60.7601L191.33 61.551L191.07 40.5509L170.088 39.7601L170.348 60.7601ZM171.696 169.851L171.955 190.851L192.937 191.642L192.678 170.642L171.696 169.851ZM142.105 168.736L121.123 167.945L121.382 188.945L142.364 189.736L142.105 168.736ZM140.757 59.6448L140.497 38.6448L119.515 37.8539L119.775 58.854L140.757 59.6448ZM149.366 59.9693L150.714 169.06L192.678 170.642L191.33 61.551L149.366 59.9693ZM171.436 148.851L141.845 147.736L142.364 189.736L171.955 190.851L171.436 148.851ZM163.087 169.527L161.739 60.4356L119.775 58.854L121.123 167.945L163.087 169.527ZM141.016 80.6449L170.607 81.7602L170.088 39.7601L140.497 38.6448L141.016 80.6449ZM184.372 61.2887L184.112 40.2887L163.13 39.4978L163.39 60.4979L184.372 61.2887ZM221.201 62.6768L240.514 55.4363L235.012 42.2071L220.942 41.6768L221.201 62.6768ZM247.298 125.422L227.985 132.662L233.488 145.891L247.558 146.422L247.298 125.422ZM248.575 125.47L248.835 146.47L262.905 147L268.085 134.174L248.575 125.47ZM273.145 64.6347L272.886 43.6346L258.816 43.1043L253.635 55.9309L273.145 64.6347ZM309.975 66.0228L330.957 66.8137L330.697 45.8136L309.715 45.0228L309.975 66.0228ZM311.323 175.114L311.582 196.114L332.564 196.905L332.305 175.905L311.323 175.114ZM282.37 174.023L261.388 173.232L261.648 194.232L282.63 195.023L282.37 174.023ZM281.591 110.954L302.573 111.745L302.313 90.7452L281.331 89.9544L281.591 110.954ZM280.739 110.922L280.48 89.9223L266.147 89.382L261.1 102.548L280.739 110.922ZM257.239 172.224L257.499 193.224L271.831 193.764L276.879 180.598L257.239 172.224ZM239.782 171.566L220.313 178.42L225.674 192.024L240.042 192.566L239.782 171.566ZM214.739 108.009L234.208 101.154L228.848 87.5503L214.48 87.0087L214.739 108.009ZM213.888 107.977L213.628 86.9766L192.646 86.1858L192.906 107.186L213.888 107.977ZM214.672 171.471L214.932 192.471L235.914 193.262L235.654 172.262L214.672 171.471ZM185.72 170.38L164.738 169.589L164.997 190.589L185.979 191.38L185.72 170.38ZM184.631 82.2888L221.461 83.6769L220.942 41.6768L184.112 40.2887L184.631 82.2888ZM201.888 69.9174L227.985 132.662L266.611 118.181L240.514 55.4363L201.888 69.9174ZM247.558 146.422L248.835 146.47L248.316 104.47L247.039 104.422L247.558 146.422ZM268.085 134.174L292.655 73.3385L253.635 55.9309L229.066 116.766L268.085 134.174ZM273.405 85.6347L310.234 87.0229L309.715 45.0228L272.886 43.6346L273.405 85.6347ZM288.993 65.232L290.341 174.323L332.305 175.905L330.957 66.8137L288.993 65.232ZM311.063 154.114L282.111 153.023L282.63 195.023L311.582 196.114L311.063 154.114ZM303.352 174.814L302.573 111.745L260.609 110.164L261.388 173.232L303.352 174.814ZM281.331 89.9544L280.48 89.9223L280.999 131.922L281.85 131.954L281.331 89.9544ZM261.1 102.548L237.599 163.85L276.879 180.598L300.379 119.296L261.1 102.548ZM256.98 151.224L239.523 150.566L240.042 192.566L257.499 193.224L256.98 151.224ZM259.251 164.711L234.208 101.154L195.27 114.864L220.313 178.42L259.251 164.711ZM214.48 87.0087L213.628 86.9766L214.147 128.977L214.999 129.009L214.48 87.0087ZM192.906 107.186L193.69 170.68L235.654 172.262L234.87 108.768L192.906 107.186ZM214.413 150.471L185.46 149.38L185.979 191.38L214.932 192.471L214.413 150.471ZM206.702 171.171L205.354 62.0795L163.39 60.4979L164.738 169.589L206.702 171.171ZM325.347 175.643L304.364 174.852L304.624 195.852L325.606 196.643L325.347 175.643ZM323.999 66.5514L323.739 45.5513L302.757 44.7605L303.016 65.7606L323.999 66.5514ZM402.554 69.5122L423.536 70.3031L423.276 49.303L402.294 48.5122L402.554 69.5122ZM402.848 93.3759L403.108 114.376L424.09 115.167L423.831 94.1668L402.848 93.3759ZM353.885 91.5304L353.625 70.5304L332.643 69.7395L332.903 90.7396L353.885 91.5304ZM354.116 110.28L333.134 109.49L333.394 130.49L354.376 131.281L354.116 110.28ZM399.035 111.974L420.017 112.764L419.758 91.7643L398.776 90.9735L399.035 111.974ZM399.33 135.837L399.59 156.837L420.572 157.628L420.312 136.628L399.33 135.837ZM354.411 134.144L354.152 113.144L333.17 112.353L333.429 133.353L354.411 134.144ZM354.643 152.894L333.661 152.103L333.92 173.103L354.902 173.894L354.643 152.894ZM403.394 154.732L424.376 155.523L424.116 134.522L403.134 133.732L403.394 154.732ZM403.689 178.595L403.948 199.595L424.93 200.386L424.671 179.386L403.689 178.595ZM346.329 176.433L344.981 67.3422L303.016 65.7606L304.364 174.852L346.329 176.433ZM324.258 87.5515L402.813 90.5123L402.294 48.5122L323.739 45.5513L324.258 87.5515ZM381.572 68.7214L381.866 92.5851L423.831 94.1668L423.536 70.3031L381.572 68.7214ZM402.589 72.3759L353.625 70.5304L354.144 112.53L403.108 114.376L402.589 72.3759ZM332.903 90.7396L333.134 109.49L375.098 111.071L374.867 92.3213L332.903 90.7396ZM354.376 131.281L399.295 132.974L398.776 90.9735L353.857 89.2804L354.376 131.281ZM378.053 111.183L378.348 135.046L420.312 136.628L420.017 112.764L378.053 111.183ZM399.071 114.837L354.152 113.144L354.671 155.144L399.59 156.837L399.071 114.837ZM333.429 133.353L333.661 152.103L375.625 153.685L375.393 134.935L333.429 133.353ZM354.902 173.894L403.653 175.732L403.134 133.732L354.383 131.894L354.902 173.894ZM382.412 153.941L382.707 177.805L424.671 179.386L424.376 155.523L382.412 153.941ZM403.429 157.595L325.087 154.643L325.606 196.643L403.948 199.595L403.429 157.595ZM418.577 179.157L397.595 178.366L397.855 199.366L418.837 200.157L418.577 179.157ZM417.229 70.0654L416.97 49.0653L395.988 48.2745L396.247 69.2745L417.229 70.0654ZM446.821 71.1807L467.803 71.9715L467.543 50.9715L446.561 50.1807L446.821 71.1807ZM447.874 156.408L426.892 155.617L427.151 176.617L448.133 177.408L447.874 156.408ZM491.941 158.069L512.923 158.86L512.664 137.86L491.682 137.069L491.941 158.069ZM492.236 181.933L492.496 202.933L513.478 203.724L513.218 182.724L492.236 181.933ZM439.56 179.947L438.212 70.8562L396.247 69.2745L397.595 178.366L439.56 179.947ZM417.489 91.0654L447.08 92.1808L446.561 50.1807L416.97 49.0653L417.489 91.0654ZM425.839 70.3899L426.892 155.617L468.856 157.199L467.803 71.9715L425.839 70.3899ZM448.133 177.408L492.201 179.069L491.682 137.069L447.614 135.408L448.133 177.408ZM470.959 157.278L471.254 181.142L513.218 182.724L512.923 158.86L470.959 157.278ZM491.977 160.933L418.318 158.157L418.837 200.157L492.496 202.933L491.977 160.933ZM532.441 74.4078L553.423 75.1987L553.163 54.1986L532.181 53.4078L532.441 74.4078ZM533.789 183.499L534.048 204.499L555.03 205.29L554.771 184.29L533.789 183.499ZM504.198 182.384L483.216 181.593L483.475 202.593L504.457 203.384L504.198 182.384ZM502.85 73.2925L502.59 52.2924L481.608 51.5016L481.868 72.5017L502.85 73.2925ZM511.459 73.617L512.807 182.708L554.771 184.29L553.423 75.1987L511.459 73.617ZM533.529 162.499L503.938 161.384L504.457 203.384L534.048 204.499L533.529 162.499ZM525.18 183.175L523.832 74.0833L481.868 72.5017L483.216 181.593L525.18 183.175ZM503.109 94.2926L532.7 95.4079L532.181 53.4078L502.59 52.2924L503.109 94.2926ZM640.773 78.491L661.755 79.2818L661.496 58.2818L640.514 57.4909L640.773 78.491ZM642.121 187.582L642.381 208.582L663.363 209.373L663.103 188.373L642.121 187.582ZM617.427 186.651L600.285 197.9L606.651 207.236L617.686 207.651L617.427 186.651ZM577.334 127.851L594.476 116.603L588.11 107.267L577.075 106.851L577.334 127.851ZM576.696 127.827L576.436 106.827L555.454 106.037L555.714 127.037L576.696 127.827ZM577.404 185.143L577.663 206.143L598.645 206.934L598.386 185.934L577.404 185.143ZM547.813 184.028L526.831 183.237L527.09 204.237L548.072 205.028L547.813 184.028ZM546.465 74.9364L546.205 53.9363L525.223 53.1455L525.483 74.1456L546.465 74.9364ZM571.585 75.8832L588.797 64.7396L582.44 55.3021L571.326 54.8832L571.585 75.8832ZM611.036 134.446L593.824 145.59L600.182 155.027L611.296 155.446L611.036 134.446ZM611.888 134.478L612.147 155.478L633.129 156.269L632.87 135.269L611.888 134.478ZM611.182 77.3757L610.923 56.3756L589.941 55.5848L590.2 76.5848L611.182 77.3757ZM619.791 77.7002L621.139 186.791L663.103 188.373L661.755 79.2818L619.791 77.7002ZM641.862 166.582L617.167 165.651L617.686 207.651L642.381 208.582L641.862 166.582ZM634.568 175.403L594.476 116.603L560.193 139.1L600.285 197.9L634.568 175.403ZM577.075 106.851L576.436 106.827L576.955 148.827L577.594 148.852L577.075 106.851ZM555.714 127.037L556.422 184.352L598.386 185.934L597.678 128.618L555.714 127.037ZM577.144 164.143L547.553 163.028L548.072 205.028L577.663 206.143L577.144 164.143ZM568.795 184.818L567.447 75.7272L525.483 74.1456L526.831 183.237L568.795 184.818ZM546.724 95.9365L571.845 96.8833L571.326 54.8832L546.205 53.9363L546.724 95.9365ZM554.373 87.0269L593.824 145.59L628.248 123.302L588.797 64.7396L554.373 87.0269ZM611.296 155.446L612.147 155.478L611.628 113.478L610.777 113.446L611.296 155.446ZM632.87 135.269L632.164 78.1665L590.2 76.5848L590.906 133.687L632.87 135.269ZM611.442 98.3757L641.033 99.4911L640.514 57.4909L610.923 56.3756L611.442 98.3757ZM656.119 188.11L635.137 187.319L635.396 208.319L656.378 209.11L656.119 188.11ZM654.771 79.0186L654.511 58.0185L633.529 57.2277L633.789 78.2277L654.771 79.0186ZM733.326 81.9794L754.308 82.7702L754.048 61.7702L733.066 60.9794L733.326 81.9794ZM733.621 105.843L733.88 126.843L754.862 127.634L754.603 106.634L733.621 105.843ZM684.657 103.998L684.397 82.9975L663.415 82.2067L663.675 103.207L684.657 103.998ZM684.888 122.748L663.906 121.957L664.166 142.957L685.148 143.748L684.888 122.748ZM729.807 124.441L750.789 125.232L750.53 104.231L729.548 103.441L729.807 124.441ZM730.102 148.304L730.362 169.304L751.344 170.095L751.084 149.095L730.102 148.304ZM685.183 146.611L684.924 125.611L663.942 124.82L664.201 145.821L685.183 146.611ZM685.415 165.361L664.433 164.571L664.692 185.571L685.674 186.361L685.415 165.361ZM734.166 167.199L755.148 167.99L754.889 146.99L733.906 146.199L734.166 167.199ZM734.461 191.063L734.72 212.063L755.702 212.853L755.443 191.853L734.461 191.063ZM677.101 188.901L675.753 79.8094L633.789 78.2277L635.137 187.319L677.101 188.901ZM655.03 100.019L733.585 102.979L733.066 60.9794L654.511 58.0185L655.03 100.019ZM712.344 81.1886L712.639 105.052L754.603 106.634L754.308 82.7702L712.344 81.1886ZM733.361 84.8431L684.397 82.9975L684.916 124.998L733.88 126.843L733.361 84.8431ZM663.675 103.207L663.906 121.957L705.87 123.538L705.639 104.788L663.675 103.207ZM685.148 143.748L730.067 145.441L729.548 103.441L684.629 101.748L685.148 143.748ZM708.825 123.65L709.12 147.514L751.084 149.095L750.789 125.232L708.825 123.65ZM729.843 127.304L684.924 125.611L685.443 167.611L730.362 169.304L729.843 127.304ZM664.201 145.821L664.433 164.571L706.397 166.152L706.165 147.402L664.201 145.821ZM685.674 186.361L734.425 188.199L733.906 146.199L685.155 144.361L685.674 186.361ZM713.184 166.408L713.479 190.272L755.443 191.853L755.148 167.99L713.184 166.408ZM734.201 170.063L655.859 167.11L656.378 209.11L734.72 212.063L734.201 170.063Z" fill="#4F291E" mask="url(#path-4-outside-2_121_448)"/>
<mask id="path-7-outside-3_121_448" maskUnits="userSpaceOnUse" x="22.4792" y="17.3344" width="743.245" height="179.943" fill="black">
<rect fill="white" x="22.4792" y="17.3344" width="743.245" height="179.943"/>
<path d="M44.0751 63.8999L43.7802 40.0362L138.515 43.6069L138.809 67.4706L106.025 66.2349L107.078 151.462L77.9127 150.363L76.8596 65.1356L44.0751 63.8999ZM179.242 45.142L180.59 154.233L150.999 153.118L149.651 44.0266L179.242 45.142ZM193.266 45.6705L230.096 47.0587L256.193 109.803L257.47 109.852L282.04 49.0165L318.869 50.4047L320.217 159.496L291.265 158.405L290.485 95.3362L289.634 95.3042L266.134 156.605L248.677 155.948L223.634 92.3906L222.782 92.3585L223.567 155.853L194.614 154.762L193.266 45.6705ZM334.241 160.024L332.893 50.9332L411.448 53.8941L411.743 77.7578L362.779 75.9123L363.011 94.6623L407.93 96.3554L408.225 120.219L363.306 118.526L363.537 137.276L412.288 139.114L412.583 162.977L334.241 160.024ZM427.472 163.538L426.124 54.4472L455.715 55.5625L456.768 140.79L500.836 142.451L501.131 166.315L427.472 163.538ZM541.335 58.7897L542.683 167.881L513.092 166.766L511.744 57.6743L541.335 58.7897ZM649.668 62.8728L651.016 171.964L626.321 171.033L586.229 112.233L585.59 112.209L586.298 169.525L556.707 168.409L555.359 59.3182L580.48 60.2651L619.931 118.828L620.782 118.86L620.077 61.7575L649.668 62.8728ZM665.013 172.492L663.665 63.4004L742.22 66.3612L742.515 90.2249L693.551 88.3794L693.783 107.129L738.702 108.823L738.997 132.686L694.078 130.993L694.31 149.743L743.06 151.581L743.355 175.444L665.013 172.492Z"/>
</mask>
<path d="M44.0751 63.8999L43.7802 40.0362L138.515 43.6069L138.809 67.4706L106.025 66.2349L107.078 151.462L77.9127 150.363L76.8596 65.1356L44.0751 63.8999ZM179.242 45.142L180.59 154.233L150.999 153.118L149.651 44.0266L179.242 45.142ZM193.266 45.6705L230.096 47.0587L256.193 109.803L257.47 109.852L282.04 49.0165L318.869 50.4047L320.217 159.496L291.265 158.405L290.485 95.3362L289.634 95.3042L266.134 156.605L248.677 155.948L223.634 92.3906L222.782 92.3585L223.567 155.853L194.614 154.762L193.266 45.6705ZM334.241 160.024L332.893 50.9332L411.448 53.8941L411.743 77.7578L362.779 75.9123L363.011 94.6623L407.93 96.3554L408.225 120.219L363.306 118.526L363.537 137.276L412.288 139.114L412.583 162.977L334.241 160.024ZM427.472 163.538L426.124 54.4472L455.715 55.5625L456.768 140.79L500.836 142.451L501.131 166.315L427.472 163.538ZM541.335 58.7897L542.683 167.881L513.092 166.766L511.744 57.6743L541.335 58.7897ZM649.668 62.8728L651.016 171.964L626.321 171.033L586.229 112.233L585.59 112.209L586.298 169.525L556.707 168.409L555.359 59.3182L580.48 60.2651L619.931 118.828L620.782 118.86L620.077 61.7575L649.668 62.8728ZM665.013 172.492L663.665 63.4004L742.22 66.3612L742.515 90.2249L693.551 88.3794L693.783 107.129L738.702 108.823L738.997 132.686L694.078 130.993L694.31 149.743L743.06 151.581L743.355 175.444L665.013 172.492Z" fill="#A74925"/>
<path d="M44.0751 63.8999L23.093 63.1091L23.3525 84.1092L44.3346 84.9L44.0751 63.8999ZM43.7802 40.0362L43.5207 19.0362L22.5386 18.2454L22.7981 39.2454L43.7802 40.0362ZM138.515 43.6069L159.497 44.3977L159.237 23.3977L138.255 22.6068L138.515 43.6069ZM138.809 67.4706L139.069 88.4706L160.051 89.2615L159.792 68.2614L138.809 67.4706ZM106.025 66.2349L105.766 45.2349L84.7834 44.444L85.0429 65.4441L106.025 66.2349ZM107.078 151.462L107.338 172.462L128.32 173.253L128.06 152.253L107.078 151.462ZM77.9127 150.363L56.9306 149.572L57.1901 170.572L78.1722 171.363L77.9127 150.363ZM76.8596 65.1356L97.8416 65.9265L97.5822 44.9264L76.6001 44.1356L76.8596 65.1356ZM65.0572 64.6908L64.7623 40.8271L22.7981 39.2454L23.093 63.1091L65.0572 64.6908ZM44.0397 61.0363L138.774 64.6069L138.255 22.6068L43.5207 19.0362L44.0397 61.0363ZM117.533 42.8161L117.827 66.6798L159.792 68.2614L159.497 44.3977L117.533 42.8161ZM138.55 46.4705L105.766 45.2349L106.284 87.235L139.069 88.4706L138.55 46.4705ZM85.0429 65.4441L86.0961 150.672L128.06 152.253L127.007 67.0257L85.0429 65.4441ZM106.819 130.462L77.6532 129.363L78.1722 171.363L107.338 172.462L106.819 130.462ZM98.8948 151.154L97.8416 65.9265L55.8775 64.3448L56.9306 149.572L98.8948 151.154ZM76.6001 44.1356L43.8156 42.8999L44.3346 84.9L77.1191 86.1357L76.6001 44.1356ZM179.242 45.142L200.225 45.9328L199.965 24.9328L178.983 24.1419L179.242 45.142ZM180.59 154.233L180.85 175.233L201.832 176.024L201.573 155.024L180.59 154.233ZM150.999 153.118L130.017 152.327L130.277 173.327L151.259 174.118L150.999 153.118ZM149.651 44.0266L149.392 23.0266L128.41 22.2358L128.669 43.2358L149.651 44.0266ZM158.26 44.3511L159.608 153.442L201.573 155.024L200.225 45.9328L158.26 44.3511ZM180.331 133.233L150.74 132.118L151.259 174.118L180.85 175.233L180.331 133.233ZM171.981 153.909L170.633 44.8175L128.669 43.2358L130.017 152.327L171.981 153.909ZM149.911 65.0267L179.502 66.142L178.983 24.1419L149.392 23.0266L149.911 65.0267ZM193.266 45.6705L193.007 24.6705L172.025 23.8797L172.284 44.8797L193.266 45.6705ZM230.096 47.0587L249.408 39.8181L243.906 26.5889L229.836 26.0586L230.096 47.0587ZM256.193 109.803L236.88 117.044L242.382 130.273L256.452 130.804L256.193 109.803ZM257.47 109.852L257.729 130.852L271.799 131.382L276.98 118.555L257.47 109.852ZM282.04 49.0165L281.78 28.0165L267.71 27.4862L262.53 40.3127L282.04 49.0165ZM318.869 50.4047L339.851 51.1955L339.592 30.1954L318.61 29.4046L318.869 50.4047ZM320.217 159.496L320.477 180.496L341.459 181.287L341.199 160.287L320.217 159.496ZM291.265 158.405L270.283 157.614L270.542 178.614L291.524 179.405L291.265 158.405ZM290.485 95.3362L311.467 96.1271L311.208 75.127L290.226 74.3362L290.485 95.3362ZM289.634 95.3042L289.374 74.3041L275.042 73.7639L269.994 86.9302L289.634 95.3042ZM266.134 156.605L266.393 177.606L280.726 178.146L285.773 164.979L266.134 156.605ZM248.677 155.948L229.208 162.802L234.568 176.406L248.936 176.948L248.677 155.948ZM223.634 92.3906L243.103 85.5358L237.743 71.9321L223.374 71.3905L223.634 92.3906ZM222.782 92.3585L222.523 71.3585L201.541 70.5676L201.8 91.5677L222.782 92.3585ZM223.567 155.853L223.826 176.853L244.808 177.644L244.549 156.644L223.567 155.853ZM194.614 154.762L173.632 153.971L173.892 174.971L194.874 175.762L194.614 154.762ZM193.526 66.6706L230.355 68.0587L229.836 26.0586L193.007 24.6705L193.526 66.6706ZM210.783 54.2992L236.88 117.044L275.505 102.563L249.408 39.8181L210.783 54.2992ZM256.452 130.804L257.729 130.852L257.21 88.8516L255.933 88.8034L256.452 130.804ZM276.98 118.555L301.55 57.7203L262.53 40.3127L237.96 101.148L276.98 118.555ZM282.299 70.0166L319.129 71.4047L318.61 29.4046L281.78 28.0165L282.299 70.0166ZM297.887 49.6138L299.235 158.705L341.199 160.287L339.851 51.1955L297.887 49.6138ZM319.958 138.496L291.005 137.405L291.524 179.405L320.477 180.496L319.958 138.496ZM312.247 159.195L311.467 96.1271L269.503 94.5454L270.283 157.614L312.247 159.195ZM290.226 74.3362L289.374 74.3041L289.893 116.304L290.745 116.336L290.226 74.3362ZM269.994 86.9302L246.494 148.232L285.773 164.979L309.274 103.678L269.994 86.9302ZM265.874 135.605L248.417 134.947L248.936 176.948L266.393 177.606L265.874 135.605ZM268.146 149.093L243.103 85.5358L204.165 99.2454L229.208 162.802L268.146 149.093ZM223.374 71.3905L222.523 71.3585L223.042 113.359L223.893 113.391L223.374 71.3905ZM201.8 91.5677L202.585 155.062L244.549 156.644L243.764 93.1493L201.8 91.5677ZM223.307 134.853L194.355 133.762L194.874 175.762L223.826 176.853L223.307 134.853ZM215.596 155.553L214.248 46.4614L172.284 44.8797L173.632 153.971L215.596 155.553ZM334.241 160.024L313.259 159.234L313.519 180.234L334.501 181.024L334.241 160.024ZM332.893 50.9332L332.634 29.9332L311.652 29.1423L311.911 50.1424L332.893 50.9332ZM411.448 53.8941L432.43 54.6849L432.171 33.6849L411.189 32.894L411.448 53.8941ZM411.743 77.7578L412.003 98.7578L432.985 99.5487L432.725 78.5486L411.743 77.7578ZM362.779 75.9123L362.52 54.9122L341.538 54.1214L341.797 75.1214L362.779 75.9123ZM363.011 94.6623L342.029 93.8715L342.288 114.872L363.27 115.662L363.011 94.6623ZM407.93 96.3553L428.912 97.1462L428.652 76.1461L407.67 75.3553L407.93 96.3553ZM408.225 120.219L408.484 141.219L429.466 142.01L429.207 121.01L408.225 120.219ZM363.306 118.526L363.046 97.526L342.064 96.7351L342.324 117.735L363.306 118.526ZM363.537 137.276L342.555 136.485L342.815 157.485L363.797 158.276L363.537 137.276ZM412.288 139.114L433.27 139.904L433.011 118.904L412.029 118.113L412.288 139.114ZM412.583 162.977L412.843 183.977L433.825 184.768L433.565 163.768L412.583 162.977ZM355.223 160.815L353.875 51.7241L311.911 50.1424L313.259 159.234L355.223 160.815ZM333.153 71.9333L411.708 74.8941L411.189 32.894L332.634 29.9332L333.153 71.9333ZM390.466 53.1032L390.761 76.9669L432.725 78.5486L432.43 54.6849L390.466 53.1032ZM411.484 56.7577L362.52 54.9122L363.039 96.9123L412.003 98.7578L411.484 56.7577ZM341.797 75.1214L342.029 93.8715L383.993 95.4531L383.761 76.7031L341.797 75.1214ZM363.27 115.662L408.189 117.355L407.67 75.3553L362.751 73.6623L363.27 115.662ZM386.948 95.5645L387.243 119.428L429.207 121.01L428.912 97.1462L386.948 95.5645ZM407.965 99.219L363.046 97.526L363.565 139.526L408.484 141.219L407.965 99.219ZM342.324 117.735L342.555 136.485L384.52 138.067L384.288 119.317L342.324 117.735ZM363.797 158.276L412.548 160.114L412.029 118.113L363.278 116.276L363.797 158.276ZM391.306 138.323L391.601 162.186L433.565 163.768L433.27 139.904L391.306 138.323ZM412.324 141.977L333.982 139.024L334.501 181.024L412.843 183.977L412.324 141.977ZM427.472 163.538L406.49 162.748L406.749 183.748L427.731 184.538L427.472 163.538ZM426.124 54.4472L425.865 33.4472L404.882 32.6563L405.142 53.6564L426.124 54.4472ZM455.715 55.5625L476.697 56.3534L476.438 35.3533L455.456 34.5625L455.715 55.5625ZM456.768 140.79L435.786 139.999L436.046 160.999L457.028 161.79L456.768 140.79ZM500.836 142.451L521.818 143.242L521.558 122.242L500.576 121.451L500.836 142.451ZM501.131 166.315L501.39 187.315L522.372 188.106L522.113 167.106L501.131 166.315ZM448.454 164.329L447.106 55.2381L405.142 53.6564L406.49 162.748L448.454 164.329ZM426.383 75.4473L455.975 76.5626L455.456 34.5625L425.865 33.4472L426.383 75.4473ZM434.733 54.7717L435.786 139.999L477.75 141.581L476.697 56.3534L434.733 54.7717ZM457.028 161.79L501.095 163.451L500.576 121.451L456.509 119.79L457.028 161.79ZM479.854 141.66L480.149 165.524L522.113 167.106L521.818 143.242L479.854 141.66ZM500.871 145.315L427.213 142.538L427.731 184.538L501.39 187.315L500.871 145.315ZM541.335 58.7897L562.317 59.5805L562.058 38.5804L541.076 37.7896L541.335 58.7897ZM542.683 167.881L542.943 188.881L563.925 189.672L563.665 168.672L542.683 167.881ZM513.092 166.766L492.11 165.975L492.37 186.975L513.352 187.766L513.092 166.766ZM511.744 57.6743L511.485 36.6743L490.503 35.8834L490.762 56.8835L511.744 57.6743ZM520.353 57.9988L521.701 167.09L563.665 168.672L562.317 59.5805L520.353 57.9988ZM542.424 146.881L512.833 145.765L513.352 187.766L542.943 188.881L542.424 146.881ZM534.074 167.556L532.726 58.4652L490.762 56.8835L492.11 165.975L534.074 167.556ZM512.004 78.6744L541.595 79.7897L541.076 37.7896L511.485 36.6743L512.004 78.6744ZM649.668 62.8728L670.65 63.6637L670.391 42.6636L649.408 41.8728L649.668 62.8728ZM651.016 171.964L651.275 192.964L672.257 193.755L671.998 172.755L651.016 171.964ZM626.321 171.033L609.18 182.282L615.546 191.617L626.581 192.033L626.321 171.033ZM586.229 112.233L603.37 100.985L597.005 91.6492L585.969 91.2333L586.229 112.233ZM585.59 112.209L585.331 91.2092L564.349 90.4184L564.608 111.418L585.59 112.209ZM586.298 169.525L586.558 190.525L607.54 191.316L607.281 170.316L586.298 169.525ZM556.707 168.409L535.725 167.619L535.985 188.619L556.967 189.409L556.707 168.409ZM555.359 59.3182L555.1 38.3182L534.118 37.5273L534.377 58.5274L555.359 59.3182ZM580.48 60.2651L597.692 49.1214L591.334 39.6839L580.22 39.265L580.48 60.2651ZM619.931 118.828L602.719 129.971L609.076 139.409L620.19 139.828L619.931 118.828ZM620.782 118.86L621.042 139.86L642.024 140.651L641.764 119.651L620.782 118.86ZM620.077 61.7575L619.817 40.7575L598.835 39.9666L599.095 60.9667L620.077 61.7575ZM628.686 62.082L630.034 171.173L671.998 172.755L670.65 63.6637L628.686 62.082ZM650.756 150.964L626.062 150.033L626.581 192.033L651.275 192.964L650.756 150.964ZM643.462 159.785L603.37 100.985L569.088 123.482L609.18 182.282L643.462 159.785ZM585.969 91.2333L585.331 91.2092L585.85 133.209L586.488 133.233L585.969 91.2333ZM564.608 111.418L565.316 168.734L607.281 170.316L606.572 113L564.608 111.418ZM586.039 148.525L556.448 147.409L556.967 189.409L586.558 190.525L586.039 148.525ZM577.689 169.2L576.341 60.1091L534.377 58.5274L535.725 167.619L577.689 169.2ZM555.619 80.3183L580.739 81.2651L580.22 39.265L555.1 38.3182L555.619 80.3183ZM563.268 71.4087L602.719 129.971L637.143 107.684L597.692 49.1214L563.268 71.4087ZM620.19 139.828L621.042 139.86L620.523 97.8599L619.671 97.8278L620.19 139.828ZM641.764 119.651L641.059 62.5483L599.095 60.9667L599.8 118.069L641.764 119.651ZM620.336 82.7576L649.927 83.8729L649.408 41.8728L619.817 40.7575L620.336 82.7576ZM665.013 172.492L644.031 171.701L644.291 192.701L665.273 193.492L665.013 172.492ZM663.665 63.4004L663.406 42.4004L642.424 41.6095L642.683 62.6096L663.665 63.4004ZM742.22 66.3612L763.202 67.1521L762.943 46.152L741.961 45.3612L742.22 66.3612ZM742.515 90.2249L742.775 111.225L763.757 112.016L763.497 91.0158L742.515 90.2249ZM693.551 88.3794L693.292 67.3794L672.31 66.5885L672.569 87.5886L693.551 88.3794ZM693.783 107.129L672.801 106.339L673.06 127.339L694.042 128.13L693.783 107.129ZM738.702 108.823L759.684 109.613L759.425 88.6133L738.442 87.8225L738.702 108.823ZM738.997 132.686L739.256 153.686L760.238 154.477L759.979 133.477L738.997 132.686ZM694.078 130.993L693.818 109.993L672.836 109.202L673.096 130.202L694.078 130.993ZM694.309 149.743L673.327 148.952L673.587 169.952L694.569 170.743L694.309 149.743ZM743.06 151.581L764.043 152.372L763.783 131.371L742.801 130.581L743.06 151.581ZM743.355 175.444L743.615 196.444L764.597 197.235L764.337 176.235L743.355 175.444ZM685.995 173.282L684.647 64.1912L642.683 62.6096L644.031 171.701L685.995 173.282ZM663.925 84.4005L742.48 87.3613L741.961 45.3612L663.406 42.4004L663.925 84.4005ZM721.238 65.5704L721.533 89.4341L763.497 91.0158L763.202 67.1521L721.238 65.5704ZM742.256 69.2249L693.292 67.3794L693.811 109.379L742.775 111.225L742.256 69.2249ZM672.569 87.5886L672.801 106.339L714.765 107.92L714.533 89.1703L672.569 87.5886ZM694.042 128.13L738.961 129.823L738.442 87.8225L693.523 86.1294L694.042 128.13ZM717.72 108.032L718.015 131.895L759.979 133.477L759.684 109.613L717.72 108.032ZM738.737 111.686L693.818 109.993L694.337 151.993L739.256 153.686L738.737 111.686ZM673.096 130.202L673.327 148.952L715.292 150.534L715.06 131.784L673.096 130.202ZM694.569 170.743L743.32 172.581L742.801 130.581L694.05 128.743L694.569 170.743ZM722.078 150.79L722.373 174.654L764.337 176.235L764.043 152.372L722.078 150.79ZM743.096 154.444L664.754 151.492L665.273 193.492L743.615 196.444L743.096 154.444Z" fill="#4F291E" mask="url(#path-7-outside-3_121_448)"/>
</svg>
