<svg width="756" height="320" viewBox="0 0 756 320" fill="none" xmlns="http://www.w3.org/2000/svg">
<mask id="path-1-outside-1_121_421" maskUnits="userSpaceOnUse" x="0.911088" y="44.9765" width="677.325" height="180.359" fill="black">
<rect fill="white" x="0.911088" y="44.9765" width="677.325" height="180.359"/>
<path d="M22.5158 92.5388L22.2227 68.6752L116.957 72.232L117.25 96.0956L84.4656 94.8647L85.5123 180.092L56.3469 178.997L55.3002 93.7697L22.5158 92.5388ZM129.433 181.741L128.094 72.6501L157.685 73.7611L158.208 116.375L197.379 117.845L196.856 75.2318L226.447 76.3428L227.787 185.434L198.195 184.323L197.672 141.709L158.501 140.238L159.024 182.852L129.433 181.741ZM241.837 185.961L240.497 76.8703L319.052 79.8197L319.345 103.683L270.381 101.845L270.612 120.595L315.531 122.281L315.824 146.145L270.905 144.459L271.135 163.209L319.886 165.039L320.179 188.903L241.837 185.961ZM333.728 80.3707L370.557 81.7534L396.649 144.494L397.927 144.542L422.501 83.7037L459.331 85.0864L460.67 194.177L431.718 193.09L430.943 130.022L430.092 129.99L406.587 191.295L389.13 190.639L364.092 127.086L363.24 127.054L364.02 190.549L335.068 189.462L333.728 80.3707ZM474.694 194.704L473.355 85.6129L551.909 88.5623L552.202 112.426L503.239 110.588L503.469 129.338L548.388 131.024L548.681 154.888L503.762 153.201L503.992 171.951L552.743 173.782L553.036 197.645L474.694 194.704ZM625.76 125.41C625.433 121.848 624.068 119.029 621.667 116.951C619.301 114.874 615.723 113.746 610.933 113.566C607.881 113.452 605.384 113.73 603.442 114.403C601.535 115.041 600.128 115.965 599.22 117.173C598.313 118.381 597.852 119.784 597.836 121.38C597.781 122.691 598.026 123.89 598.571 124.975C599.152 126.026 600.05 127.001 601.267 127.898C602.484 128.76 604.036 129.564 605.925 130.309C607.814 131.054 610.056 131.742 612.653 132.372L621.618 134.625C627.665 136.13 632.848 138.011 637.167 140.267C641.486 142.524 645.029 145.123 647.796 148.067C650.563 150.975 652.606 154.211 653.927 157.774C655.283 161.339 656.004 165.2 656.09 169.356C656.143 176.528 654.426 182.533 650.939 187.371C647.452 192.21 642.424 195.801 635.857 198.146C629.325 200.492 621.446 201.491 612.221 201.145C602.747 200.789 594.463 199.076 587.368 196.006C580.308 192.937 574.791 188.417 570.817 182.446C566.877 176.442 564.834 168.876 564.686 159.748L592.787 160.803C593.006 164.148 593.874 166.984 595.392 169.313C596.91 171.642 599.025 173.443 601.736 174.716C604.482 175.99 607.736 176.698 611.497 176.839C614.655 176.958 617.293 176.666 619.412 175.965C621.532 175.264 623.133 174.241 624.216 172.898C625.299 171.554 625.847 169.995 625.861 168.221C625.805 166.551 625.237 165.074 624.157 163.791C623.112 162.474 621.395 161.274 619.006 160.19C616.616 159.071 613.393 157.992 609.338 156.952L598.452 154.201C588.775 151.743 581.121 147.96 575.491 142.85C569.895 137.706 567.063 130.873 566.993 122.352C566.873 115.426 568.644 109.44 572.305 104.396C576.002 99.3167 581.15 95.4458 587.749 92.783C594.384 90.1215 602.012 88.9526 610.634 89.2763C619.434 89.6067 627.062 91.3662 633.521 94.5547C639.979 97.7433 644.979 102.084 648.522 107.577C652.1 113.035 653.951 119.334 654.074 126.473L625.76 125.41Z"/>
</mask>
<path d="M22.5158 92.5388L22.2227 68.6752L116.957 72.232L117.25 96.0956L84.4656 94.8647L85.5123 180.092L56.3469 178.997L55.3002 93.7697L22.5158 92.5388ZM129.433 181.741L128.094 72.6501L157.685 73.7611L158.208 116.375L197.379 117.845L196.856 75.2318L226.447 76.3428L227.787 185.434L198.195 184.323L197.672 141.709L158.501 140.238L159.024 182.852L129.433 181.741ZM241.837 185.961L240.497 76.8703L319.052 79.8197L319.345 103.683L270.381 101.845L270.612 120.595L315.531 122.281L315.824 146.145L270.905 144.459L271.135 163.209L319.886 165.039L320.179 188.903L241.837 185.961ZM333.728 80.3707L370.557 81.7534L396.649 144.494L397.927 144.542L422.501 83.7037L459.331 85.0864L460.67 194.177L431.718 193.09L430.943 130.022L430.092 129.99L406.587 191.295L389.13 190.639L364.092 127.086L363.24 127.054L364.02 190.549L335.068 189.462L333.728 80.3707ZM474.694 194.704L473.355 85.6129L551.909 88.5623L552.202 112.426L503.239 110.588L503.469 129.338L548.388 131.024L548.681 154.888L503.762 153.201L503.992 171.951L552.743 173.782L553.036 197.645L474.694 194.704ZM625.76 125.41C625.433 121.848 624.068 119.029 621.667 116.951C619.301 114.874 615.723 113.746 610.933 113.566C607.881 113.452 605.384 113.73 603.442 114.403C601.535 115.041 600.128 115.965 599.22 117.173C598.313 118.381 597.852 119.784 597.836 121.38C597.781 122.691 598.026 123.89 598.571 124.975C599.152 126.026 600.05 127.001 601.267 127.898C602.484 128.76 604.036 129.564 605.925 130.309C607.814 131.054 610.056 131.742 612.653 132.372L621.618 134.625C627.665 136.13 632.848 138.011 637.167 140.267C641.486 142.524 645.029 145.123 647.796 148.067C650.563 150.975 652.606 154.211 653.927 157.774C655.283 161.339 656.004 165.2 656.09 169.356C656.143 176.528 654.426 182.533 650.939 187.371C647.452 192.21 642.424 195.801 635.857 198.146C629.325 200.492 621.446 201.491 612.221 201.145C602.747 200.789 594.463 199.076 587.368 196.006C580.308 192.937 574.791 188.417 570.817 182.446C566.877 176.442 564.834 168.876 564.686 159.748L592.787 160.803C593.006 164.148 593.874 166.984 595.392 169.313C596.91 171.642 599.025 173.443 601.736 174.716C604.482 175.99 607.736 176.698 611.497 176.839C614.655 176.958 617.293 176.666 619.412 175.965C621.532 175.264 623.133 174.241 624.216 172.898C625.299 171.554 625.847 169.995 625.861 168.221C625.805 166.551 625.237 165.074 624.157 163.791C623.112 162.474 621.395 161.274 619.006 160.19C616.616 159.071 613.393 157.992 609.338 156.952L598.452 154.201C588.775 151.743 581.121 147.96 575.491 142.85C569.895 137.706 567.063 130.873 566.993 122.352C566.873 115.426 568.644 109.44 572.305 104.396C576.002 99.3167 581.15 95.4458 587.749 92.783C594.384 90.1215 602.012 88.9526 610.634 89.2763C619.434 89.6067 627.062 91.3662 633.521 94.5547C639.979 97.7433 644.979 102.084 648.522 107.577C652.1 113.035 653.951 119.334 654.074 126.473L625.76 125.41Z" fill="#A74925"/>
<path d="M22.5158 92.5388L1.53376 91.751L1.79166 112.751L22.7737 113.539L22.5158 92.5388ZM22.2227 68.6752L21.9648 47.6752L0.982788 46.8874L1.24069 67.8874L22.2227 68.6752ZM116.957 72.232L137.939 73.0198L137.681 52.0198L116.699 51.232L116.957 72.232ZM117.25 96.0956L117.508 117.096L138.49 117.883L138.232 96.8834L117.25 96.0956ZM84.4656 94.8647L84.2077 73.8647L63.2256 73.077L63.4835 94.077L84.4656 94.8647ZM85.5123 180.092L85.7702 201.092L106.752 201.88L106.494 180.88L85.5123 180.092ZM56.3469 178.997L35.3649 178.209L35.6228 199.209L56.6048 199.997L56.3469 178.997ZM55.3002 93.7697L76.2822 94.5575L76.0243 73.5575L55.0423 72.7697L55.3002 93.7697ZM43.4978 93.3266L43.2048 69.463L1.24069 67.8874L1.53376 91.751L43.4978 93.3266ZM22.4806 89.6752L117.215 93.232L116.699 51.232L21.9648 47.6752L22.4806 89.6752ZM95.9749 71.4442L96.268 95.3078L138.232 96.8834L137.939 73.0198L95.9749 71.4442ZM116.992 75.0956L84.2077 73.8647L84.7235 115.865L117.508 117.096L116.992 75.0956ZM63.4835 94.077L64.5302 179.304L106.494 180.88L105.448 95.6525L63.4835 94.077ZM85.2544 159.092L56.089 157.997L56.6048 199.997L85.7702 201.092L85.2544 159.092ZM77.3289 179.785L76.2822 94.5575L34.3182 92.9819L35.3649 178.209L77.3289 179.785ZM55.0423 72.7697L22.2579 71.5388L22.7737 113.539L55.5581 114.77L55.0423 72.7697ZM129.433 181.741L108.451 180.953L108.709 201.953L129.691 202.741L129.433 181.741ZM128.094 72.6501L127.836 51.6501L106.854 50.8624L107.111 71.8623L128.094 72.6501ZM157.685 73.7611L178.667 74.5489L178.409 53.5489L157.427 52.7611L157.685 73.7611ZM158.208 116.375L137.226 115.587L137.484 136.587L158.466 137.375L158.208 116.375ZM197.379 117.845L197.637 138.845L218.619 139.633L218.361 118.633L197.379 117.845ZM196.856 75.2318L196.598 54.2318L175.616 53.444L175.874 74.444L196.856 75.2318ZM226.447 76.3428L247.429 77.1306L247.171 56.1306L226.189 55.3428L226.447 76.3428ZM227.787 185.434L228.044 206.434L249.026 207.221L248.769 186.221L227.787 185.434ZM198.195 184.323L177.213 183.535L177.471 204.535L198.453 205.323L198.195 184.323ZM197.672 141.709L218.654 142.497L218.396 121.497L197.414 120.709L197.672 141.709ZM158.501 140.238L158.243 119.238L137.261 118.451L137.519 139.451L158.501 140.238ZM159.024 182.852L159.282 203.852L180.264 204.64L180.006 183.64L159.024 182.852ZM150.415 182.529L149.076 73.4379L107.111 71.8623L108.451 180.953L150.415 182.529ZM128.351 93.6501L157.943 94.7611L157.427 52.7611L127.836 51.6501L128.351 93.6501ZM136.703 72.9733L137.226 115.587L179.19 117.162L178.667 74.5489L136.703 72.9733ZM158.466 137.375L197.637 138.845L197.121 96.8454L157.95 95.3747L158.466 137.375ZM218.361 118.633L217.838 76.0196L175.874 74.444L176.397 117.058L218.361 118.633ZM197.114 96.2318L226.705 97.3428L226.189 55.3428L196.598 54.2318L197.114 96.2318ZM205.465 75.555L206.805 184.646L248.769 186.221L247.429 77.1306L205.465 75.555ZM227.529 164.434L197.937 163.323L198.453 205.323L228.044 206.434L227.529 164.434ZM219.177 185.11L218.654 142.497L176.69 140.921L177.213 183.535L219.177 185.11ZM197.414 120.709L158.243 119.238L158.759 161.238L197.93 162.709L197.414 120.709ZM137.519 139.451L138.042 182.064L180.006 183.64L179.483 141.026L137.519 139.451ZM158.767 161.852L129.175 160.741L129.691 202.741L159.282 203.852L158.767 161.852ZM241.837 185.961L220.855 185.173L221.113 206.173L242.095 206.961L241.837 185.961ZM240.497 76.8703L240.239 55.8703L219.257 55.0826L219.515 76.0825L240.497 76.8703ZM319.052 79.8197L340.034 80.6074L339.776 59.6074L318.794 58.8197L319.052 79.8197ZM319.345 103.683L319.603 124.683L340.585 125.471L340.327 104.471L319.345 103.683ZM270.381 101.845L270.124 80.845L249.142 80.0572L249.399 101.057L270.381 101.845ZM270.612 120.595L249.63 119.807L249.888 140.807L270.87 141.595L270.612 120.595ZM315.531 122.281L336.513 123.069L336.255 102.069L315.273 101.281L315.531 122.281ZM315.824 146.145L316.082 167.145L337.064 167.933L336.806 146.933L315.824 146.145ZM270.905 144.459L270.647 123.459L249.665 122.671L249.923 143.671L270.905 144.459ZM271.135 163.209L250.153 162.421L250.411 183.421L271.393 184.209L271.135 163.209ZM319.886 165.039L340.868 165.827L340.61 144.827L319.628 144.039L319.886 165.039ZM320.179 188.903L320.437 209.903L341.419 210.69L341.161 189.69L320.179 188.903ZM262.819 186.749L261.479 77.6581L219.515 76.0825L220.855 185.173L262.819 186.749ZM240.755 97.8703L319.31 100.82L318.794 58.8197L240.239 55.8703L240.755 97.8703ZM298.07 79.0319L298.363 102.896L340.327 104.471L340.034 80.6074L298.07 79.0319ZM319.087 82.6833L270.124 80.845L270.639 122.845L319.603 124.683L319.087 82.6833ZM249.399 101.057L249.63 119.807L291.594 121.383L291.364 102.633L249.399 101.057ZM270.87 141.595L315.789 143.281L315.273 101.281L270.354 99.5949L270.87 141.595ZM294.549 121.494L294.842 145.357L336.806 146.933L336.513 123.069L294.549 121.494ZM315.566 125.145L270.647 123.459L271.163 165.459L316.082 167.145L315.566 125.145ZM249.923 143.671L250.153 162.421L292.117 163.996L291.887 145.246L249.923 143.671ZM271.393 184.209L320.144 186.039L319.628 144.039L270.877 142.209L271.393 184.209ZM298.904 164.251L299.197 188.115L341.161 189.69L340.868 165.827L298.904 164.251ZM319.921 167.903L241.579 164.961L242.095 206.961L320.437 209.903L319.921 167.903ZM333.728 80.3707L333.47 59.3707L312.488 58.5829L312.746 79.5829L333.728 80.3707ZM370.557 81.7534L389.871 74.5101L384.369 61.2817L370.299 60.7534L370.557 81.7534ZM396.649 144.494L377.336 151.738L382.837 164.966L396.907 165.494L396.649 144.494ZM397.927 144.542L398.185 165.542L412.255 166.071L417.436 153.243L397.927 144.542ZM422.501 83.7037L422.243 62.7037L408.173 62.1754L402.992 75.0027L422.501 83.7037ZM459.331 85.0864L480.313 85.8742L480.055 64.8742L459.073 64.0864L459.331 85.0864ZM460.67 194.177L460.928 215.177L481.91 215.965L481.652 194.965L460.67 194.177ZM431.718 193.09L410.736 192.302L410.994 213.302L431.976 214.09L431.718 193.09ZM430.943 130.022L451.925 130.81L451.668 109.81L430.685 109.022L430.943 130.022ZM430.092 129.99L429.834 108.99L415.501 108.452L410.453 121.619L430.092 129.99ZM406.587 191.295L406.845 212.295L421.178 212.833L426.226 199.666L406.587 191.295ZM389.13 190.639L369.661 197.497L375.02 211.1L389.388 211.639L389.13 190.639ZM364.092 127.086L383.562 120.229L378.202 106.626L363.834 106.086L364.092 127.086ZM363.24 127.054L362.983 106.054L342 105.266L342.258 126.266L363.24 127.054ZM364.02 190.549L364.278 211.549L385.26 212.336L385.002 191.336L364.02 190.549ZM335.068 189.462L314.086 188.674L314.344 209.674L335.326 210.462L335.068 189.462ZM333.986 101.371L370.815 102.753L370.299 60.7534L333.47 59.3707L333.986 101.371ZM351.244 88.9968L377.336 151.738L415.963 137.251L389.871 74.5101L351.244 88.9968ZM396.907 165.494L398.185 165.542L397.669 123.542L396.392 123.494L396.907 165.494ZM417.436 153.243L442.011 92.4046L402.992 75.0027L378.418 135.841L417.436 153.243ZM422.759 104.704L459.589 106.086L459.073 64.0864L422.243 62.7037L422.759 104.704ZM438.349 84.2986L439.688 193.39L481.652 194.965L480.313 85.8742L438.349 84.2986ZM460.412 173.177L431.46 172.09L431.976 214.09L460.928 215.177L460.412 173.177ZM452.7 193.878L451.925 130.81L409.961 129.234L410.736 192.302L452.7 193.878ZM430.685 109.022L429.834 108.99L430.35 150.99L431.201 151.022L430.685 109.022ZM410.453 121.619L386.948 182.924L426.226 199.666L449.731 138.361L410.453 121.619ZM406.329 170.295L388.872 169.639L389.388 211.639L406.845 212.295L406.329 170.295ZM408.6 183.782L383.562 120.229L344.622 133.944L369.661 197.497L408.6 183.782ZM363.834 106.086L362.983 106.054L363.498 148.054L364.35 148.086L363.834 106.086ZM342.258 126.266L343.038 189.761L385.002 191.336L384.222 127.842L342.258 126.266ZM363.762 169.549L334.81 168.462L335.326 210.462L364.278 211.549L363.762 169.549ZM356.05 190.249L354.71 81.1584L312.746 79.5829L314.086 188.674L356.05 190.249ZM474.694 194.704L453.712 193.916L453.97 214.916L474.952 215.704L474.694 194.704ZM473.355 85.6129L473.097 64.6129L452.115 63.8252L452.372 84.8252L473.355 85.6129ZM551.909 88.5623L572.891 89.3501L572.634 68.3501L551.652 67.5623L551.909 88.5623ZM552.202 112.426L552.46 133.426L573.442 134.214L573.185 113.214L552.202 112.426ZM503.239 110.588L502.981 89.5876L481.999 88.7998L482.257 109.8L503.239 110.588ZM503.469 129.338L482.487 128.55L482.745 149.55L503.727 150.338L503.469 129.338ZM548.388 131.024L569.37 131.812L569.112 110.812L548.13 110.024L548.388 131.024ZM548.681 154.888L548.939 175.888L569.921 176.675L569.663 155.675L548.681 154.888ZM503.762 153.201L503.504 132.201L482.522 131.413L482.78 152.413L503.762 153.201ZM503.992 171.951L483.01 171.163L483.268 192.163L504.25 192.951L503.992 171.951ZM552.743 173.782L573.725 174.569L573.467 153.569L552.485 152.782L552.743 173.782ZM553.036 197.645L553.294 218.645L574.276 219.433L574.018 198.433L553.036 197.645ZM495.676 195.492L494.337 86.4007L452.372 84.8252L453.712 193.916L495.676 195.492ZM473.612 106.613L552.167 109.562L551.652 67.5623L473.097 64.6129L473.612 106.613ZM530.927 87.7745L531.22 111.638L573.185 113.214L572.891 89.3501L530.927 87.7745ZM551.945 91.4259L502.981 89.5876L503.497 131.588L552.46 133.426L551.945 91.4259ZM482.257 109.8L482.487 128.55L524.451 130.125L524.221 111.375L482.257 109.8ZM503.727 150.338L548.646 152.024L548.13 110.024L503.211 108.338L503.727 150.338ZM527.406 130.236L527.699 154.1L569.663 155.675L569.37 131.812L527.406 130.236ZM548.423 133.888L503.504 132.201L504.02 174.201L548.939 175.888L548.423 133.888ZM482.78 152.413L483.01 171.163L524.974 172.739L524.744 153.989L482.78 152.413ZM504.25 192.951L553.001 194.782L552.485 152.782L503.734 150.951L504.25 192.951ZM531.761 172.994L532.054 196.857L574.018 198.433L573.725 174.569L531.761 172.994ZM552.778 176.645L474.436 173.704L474.952 215.704L553.294 218.645L552.778 176.645ZM625.76 125.41L604.866 126.3L606.648 145.683L626.018 146.41L625.76 125.41ZM621.667 116.951L608.288 132.454L608.348 132.506L608.409 132.558L621.667 116.951ZM603.442 114.403L610.971 134.369L611.07 134.336L611.167 134.303L603.442 114.403ZM599.22 117.173L582.223 104.018L582.223 104.018L599.22 117.173ZM597.836 121.38L618.801 123.3L618.815 122.968L618.818 122.634L597.836 121.38ZM598.571 124.975L579.92 133.662L580.115 134.05L580.325 134.43L598.571 124.975ZM601.267 127.898L589.378 144.6L589.55 144.727L589.724 144.851L601.267 127.898ZM612.653 132.372L616.797 112.003L616.71 111.981L616.624 111.96L612.653 132.372ZM621.618 134.625L617.474 154.994L617.498 155L617.523 155.007L621.618 134.625ZM647.796 148.067L632.858 162.062L632.904 162.111L632.951 162.16L647.796 148.067ZM653.927 157.774L634.296 164.211L634.329 164.299L634.363 164.388L653.927 157.774ZM656.09 169.356L677.073 170.248L677.072 170.106L677.069 169.964L656.09 169.356ZM650.939 187.371L668.162 200.218L668.162 200.218L650.939 187.371ZM635.857 198.146L627.951 178.31L627.933 178.316L627.915 178.322L635.857 198.146ZM587.368 196.006L579.832 215.219L579.849 215.226L579.866 215.233L587.368 196.006ZM570.817 182.446L553.452 193.364L553.493 193.427L553.535 193.49L570.817 182.446ZM564.686 159.748L564.429 138.748L543.365 137.957L543.706 159.042L564.686 159.748ZM592.787 160.803L613.726 160.474L612.425 140.55L592.529 139.803L592.787 160.803ZM595.392 169.313L577.992 180.176L577.992 180.176L595.392 169.313ZM601.736 174.716L593.615 193.665L593.661 193.686L593.708 193.708L601.736 174.716ZM619.412 175.965L626.878 195.953L626.878 195.953L619.412 175.965ZM624.216 172.898L640.801 186.582L640.801 186.582L624.216 172.898ZM625.861 168.221L646.844 169.428L646.847 168.995L646.832 168.562L625.861 168.221ZM624.157 163.791L607.979 176.351L608.183 176.608L608.394 176.86L624.157 163.791ZM619.006 160.19L610.908 179.149L611.03 179.207L611.153 179.262L619.006 160.19ZM609.338 156.952L613.58 136.608L613.545 136.599L613.509 136.59L609.338 156.952ZM598.452 154.201L594.256 174.556L594.268 174.559L594.28 174.562L598.452 154.201ZM575.491 142.85L561.725 158.005L561.778 158.054L561.832 158.103L575.491 142.85ZM566.993 122.352L587.976 123.227L587.976 123.13L587.974 123.032L566.993 122.352ZM572.305 104.396L555.136 91.4741L555.128 91.4845L555.121 91.495L572.305 104.396ZM587.749 92.783L579.125 73.2194L579.106 73.2269L579.087 73.2344L587.749 92.783ZM633.521 94.5547L625.009 113.315L633.521 94.5547ZM648.522 107.577L631.063 118.348L631.107 118.418L631.153 118.487L648.522 107.577ZM654.074 126.473L654.332 147.473L675.419 148.265L675.055 127.157L654.074 126.473ZM646.655 124.521C645.893 116.235 642.353 107.77 634.925 101.343L608.409 132.558C607.31 131.608 606.353 130.378 605.693 129.013C605.06 127.705 604.902 126.698 604.866 126.3L646.655 124.521ZM635.045 101.448C627.211 94.5727 617.793 92.8333 610.675 92.5661L611.19 134.566C612.208 134.604 612.324 134.722 611.826 134.565C611.275 134.392 609.871 133.843 608.288 132.454L635.045 101.448ZM610.675 92.5661C606.139 92.3958 600.865 92.7209 595.717 94.5034L611.167 134.303C610.809 134.427 610.532 134.496 610.361 134.532C610.19 134.569 610.103 134.578 610.117 134.576C610.131 134.575 610.225 134.565 610.41 134.56C610.594 134.554 610.852 134.553 611.19 134.566L610.675 92.5661ZM595.913 94.4366C591.405 95.9453 586.168 98.7645 582.223 104.018L616.217 130.328C614.087 133.165 611.665 134.137 610.971 134.369L595.913 94.4366ZM582.223 104.018C578.68 108.737 576.911 114.333 576.853 120.126L618.818 122.634C618.792 125.234 617.946 128.025 616.217 130.328L582.223 104.018ZM576.87 119.46C576.68 124.013 577.536 128.917 579.92 133.662L617.223 116.288C618.516 118.862 618.882 121.37 618.801 123.3L576.87 119.46ZM580.325 134.43C582.822 138.953 586.198 142.255 589.378 144.6L613.156 111.196C613.902 111.746 615.481 113.099 616.818 115.52L580.325 134.43ZM589.724 144.851C592.834 147.055 596.106 148.635 599.087 149.811L612.763 110.807C612.588 110.738 612.458 110.682 612.367 110.641C612.323 110.621 612.289 110.606 612.267 110.595C612.244 110.584 612.233 110.578 612.234 110.578C612.234 110.578 612.246 110.585 612.27 110.598C612.294 110.611 612.33 110.632 612.377 110.661C612.471 110.717 612.619 110.81 612.81 110.946L589.724 144.851ZM599.087 149.811C602.156 151.022 605.404 151.988 608.682 152.784L616.624 111.96C614.709 111.496 613.471 111.087 612.763 110.807L599.087 149.811ZM608.509 152.741L617.474 154.994L625.762 114.257L616.797 112.003L608.509 152.741ZM617.523 155.007C622.347 156.207 625.809 157.547 628.203 158.798L646.132 121.737C639.888 118.475 632.983 116.053 625.712 114.244L617.523 155.007ZM628.203 158.798C630.756 160.131 632.142 161.3 632.858 162.062L662.735 134.072C657.917 128.946 652.217 124.916 646.132 121.737L628.203 158.798ZM632.951 162.16C633.716 162.965 634.076 163.617 634.296 164.211L673.557 151.338C671.136 144.804 667.409 138.985 662.642 133.973L632.951 162.16ZM634.363 164.388C634.744 165.39 635.07 166.781 635.111 168.748L677.069 169.964C676.937 163.619 675.821 157.288 673.491 151.16L634.363 164.388ZM635.107 168.464C635.134 172.073 634.315 173.692 633.715 174.524L668.162 200.218C674.537 191.374 677.152 180.983 677.073 170.248L635.107 168.464ZM633.715 174.524C632.903 175.651 631.378 177.086 627.951 178.31L643.762 217.982C653.471 214.516 662.001 208.768 668.162 200.218L633.715 174.524ZM627.915 178.322C624.447 179.568 619.321 180.421 611.963 180.145L612.479 222.145C623.571 222.562 634.202 221.415 643.798 217.969L627.915 178.322ZM611.963 180.145C604.509 179.865 598.961 178.549 594.87 176.778L579.866 215.233C589.965 219.604 600.986 221.714 612.479 222.145L611.963 180.145ZM594.904 176.793C591.463 175.297 589.48 173.479 588.099 171.403L553.535 193.49C560.102 203.355 569.153 210.576 579.832 215.219L594.904 176.793ZM588.182 171.529C587.131 169.927 585.768 166.702 585.667 160.454L543.706 159.042C543.9 171.049 546.624 182.957 553.452 193.364L588.182 171.529ZM564.944 180.748L593.045 181.803L592.529 139.803L564.429 138.748L564.944 180.748ZM571.849 161.132C572.254 167.345 573.972 174.01 577.992 180.176L612.793 158.45C613.776 159.959 613.757 160.951 613.726 160.474L571.849 161.132ZM577.992 180.176C581.984 186.3 587.459 190.773 593.615 193.665L609.856 155.767C610.147 155.904 610.654 156.188 611.241 156.688C611.839 157.197 612.372 157.804 612.793 158.45L577.992 180.176ZM593.708 193.708C599.677 196.477 605.879 197.619 611.755 197.839L611.239 155.839C609.593 155.778 609.288 155.503 609.764 155.724L593.708 193.708ZM611.755 197.839C616.481 198.017 621.745 197.651 626.878 195.953L611.947 155.978C612.44 155.814 612.671 155.804 612.524 155.82C612.38 155.836 611.971 155.867 611.239 155.839L611.755 197.839ZM626.878 195.953C631.597 194.391 636.776 191.576 640.801 186.582L607.63 159.214C609.49 156.907 611.466 156.137 611.947 155.978L626.878 195.953ZM640.801 186.582C644.713 181.728 646.795 175.781 646.844 169.428L604.878 167.013C604.887 165.753 605.095 164.332 605.607 162.874C606.12 161.416 606.845 160.188 607.63 159.214L640.801 186.582ZM646.832 168.562C646.617 162.134 644.273 155.895 639.92 150.723L608.394 176.86C607.411 175.691 606.508 174.24 605.858 172.55C605.21 170.865 604.935 169.259 604.889 167.88L646.832 168.562ZM640.335 151.231C636.147 145.95 630.815 142.912 626.858 141.118L611.153 179.262C611.405 179.377 611.177 179.299 610.662 178.939C610.153 178.584 609.105 177.771 607.979 176.351L640.335 151.231ZM627.104 141.231C622.96 139.29 618.273 137.811 613.58 136.608L605.095 177.296C608.513 178.172 610.272 178.852 610.908 179.149L627.104 141.231ZM613.509 136.59L602.623 133.839L594.28 174.562L605.166 177.314L613.509 136.59ZM602.647 133.845C595.35 131.992 591.32 129.567 589.149 127.597L561.832 158.103C570.923 166.353 582.2 171.495 594.256 174.556L602.647 133.845ZM589.257 127.695C588.898 127.366 588.005 126.72 587.976 123.227L546.01 121.477C546.121 135.027 550.892 148.046 561.725 158.005L589.257 127.695ZM587.974 123.032C587.924 120.148 588.59 118.537 589.49 117.296L555.121 91.495C548.697 100.344 545.822 110.703 546.013 121.672L587.974 123.032ZM589.475 117.317C590.754 115.56 592.785 113.795 596.412 112.332L579.087 73.2344C569.515 77.0967 561.251 83.0731 555.136 91.4741L589.475 117.317ZM596.374 112.347C599.937 110.917 604.632 110.041 610.892 110.276L610.376 68.2763C599.393 67.864 588.831 69.3256 579.125 73.2194L596.374 112.347ZM610.892 110.276C617.393 110.52 621.901 111.78 625.009 113.315L642.032 75.7944C632.224 70.9519 621.474 68.693 610.376 68.2763L610.892 110.276ZM625.009 113.315C628.229 114.905 629.957 116.635 631.063 118.348L665.982 96.8051C660.001 87.5328 651.728 80.5816 642.032 75.7944L625.009 113.315ZM631.153 118.487C632.18 120.055 633.032 122.229 633.094 125.79L675.055 127.157C674.87 116.439 672.021 106.016 665.892 96.6665L631.153 118.487ZM653.816 105.473L625.502 104.41L626.018 146.41L654.332 147.473L653.816 105.473Z" fill="#4F291E" mask="url(#path-1-outside-1_121_421)"/>
<mask id="path-4-outside-2_121_421" maskUnits="userSpaceOnUse" x="13.288" y="30.5825" width="677.325" height="180.359" fill="black">
<rect fill="white" x="13.288" y="30.5825" width="677.325" height="180.359"/>
<path d="M34.8927 78.1448L34.5997 54.2811L129.334 57.8379L129.627 81.7016L96.8425 80.4707L97.8892 165.698L68.7238 164.603L67.6772 79.3757L34.8927 78.1448ZM141.81 167.347L140.47 58.2561L170.062 59.3671L170.585 101.981L209.756 103.451L209.233 60.8377L238.824 61.9487L240.163 171.04L210.572 169.929L210.049 127.315L170.878 125.844L171.401 168.458L141.81 167.347ZM254.214 171.567L252.874 62.4763L331.429 65.4256L331.722 89.2892L282.758 87.4509L282.989 106.201L327.908 107.887L328.201 131.751L283.282 130.065L283.512 148.815L332.263 150.645L332.556 174.508L254.214 171.567ZM346.105 65.9766L382.934 67.3594L409.026 130.1L410.304 130.148L434.878 69.3096L471.708 70.6924L473.047 179.783L444.095 178.696L443.32 115.628L442.469 115.596L418.964 176.901L401.507 176.245L376.469 112.692L375.617 112.66L376.397 176.154L347.445 175.067L346.105 65.9766ZM487.071 180.31L485.731 71.2189L564.286 74.1682L564.579 98.0319L515.616 96.1935L515.846 114.944L560.765 116.63L561.058 140.494L516.139 138.807L516.369 157.557L565.12 159.387L565.413 183.251L487.071 180.31ZM638.137 111.016C637.81 107.454 636.445 104.635 634.044 102.557C631.678 100.48 628.099 99.3519 623.31 99.172C620.258 99.0575 617.761 99.3364 615.819 100.009C613.912 100.647 612.505 101.57 611.597 102.779C610.69 103.987 610.229 105.389 610.213 106.986C610.158 108.297 610.403 109.496 610.948 110.581C611.529 111.632 612.427 112.607 613.644 113.504C614.86 114.366 616.413 115.17 618.302 115.915C620.191 116.66 622.433 117.348 625.03 117.978L633.995 120.231C640.042 121.736 645.225 123.617 649.544 125.873C653.863 128.129 657.406 130.729 660.173 133.673C662.94 136.581 664.983 139.817 666.304 143.38C667.66 146.945 668.381 150.806 668.467 154.962C668.52 162.134 666.803 168.139 663.316 172.977C659.829 177.816 654.801 181.407 648.234 183.752C641.702 186.098 633.823 187.097 624.598 186.751C615.124 186.395 606.84 184.682 599.745 181.612C592.685 178.543 587.168 174.023 583.194 168.052C579.254 162.048 577.211 154.482 577.063 145.354L605.164 146.409C605.383 149.754 606.251 152.59 607.769 154.919C609.287 157.248 611.402 159.049 614.113 160.322C616.859 161.596 620.113 162.304 623.874 162.445C627.032 162.564 629.67 162.272 631.789 161.571C633.909 160.87 635.51 159.847 636.593 158.504C637.676 157.16 638.224 155.601 638.238 153.827C638.182 152.156 637.614 150.68 636.534 149.397C635.489 148.08 633.772 146.88 631.383 145.796C628.993 144.677 625.77 143.598 621.714 142.558L610.829 139.807C601.152 137.349 593.498 133.565 587.868 128.456C582.272 123.312 579.44 116.479 579.37 107.958C579.25 101.032 581.02 95.0464 584.682 90.0016C588.379 84.9227 593.527 81.0518 600.126 78.3889C606.761 75.7275 614.389 74.5586 623.011 74.8823C631.811 75.2126 639.439 76.9721 645.898 80.1607C652.356 83.3492 657.356 87.6899 660.899 93.1827C664.477 98.6412 666.328 104.94 666.451 112.079L638.137 111.016Z"/>
</mask>
<path d="M34.8927 78.1448L34.5997 54.2811L129.334 57.8379L129.627 81.7016L96.8425 80.4707L97.8892 165.698L68.7238 164.603L67.6772 79.3757L34.8927 78.1448ZM141.81 167.347L140.47 58.2561L170.062 59.3671L170.585 101.981L209.756 103.451L209.233 60.8377L238.824 61.9487L240.163 171.04L210.572 169.929L210.049 127.315L170.878 125.844L171.401 168.458L141.81 167.347ZM254.214 171.567L252.874 62.4763L331.429 65.4256L331.722 89.2892L282.758 87.4509L282.989 106.201L327.908 107.887L328.201 131.751L283.282 130.065L283.512 148.815L332.263 150.645L332.556 174.508L254.214 171.567ZM346.105 65.9766L382.934 67.3594L409.026 130.1L410.304 130.148L434.878 69.3096L471.708 70.6924L473.047 179.783L444.095 178.696L443.32 115.628L442.469 115.596L418.964 176.901L401.507 176.245L376.469 112.692L375.617 112.66L376.397 176.154L347.445 175.067L346.105 65.9766ZM487.071 180.31L485.731 71.2189L564.286 74.1682L564.579 98.0319L515.616 96.1935L515.846 114.944L560.765 116.63L561.058 140.494L516.139 138.807L516.369 157.557L565.12 159.387L565.413 183.251L487.071 180.31ZM638.137 111.016C637.81 107.454 636.445 104.635 634.044 102.557C631.678 100.48 628.099 99.3519 623.31 99.172C620.258 99.0575 617.761 99.3364 615.819 100.009C613.912 100.647 612.505 101.57 611.597 102.779C610.69 103.987 610.229 105.389 610.213 106.986C610.158 108.297 610.403 109.496 610.948 110.581C611.529 111.632 612.427 112.607 613.644 113.504C614.86 114.366 616.413 115.17 618.302 115.915C620.191 116.66 622.433 117.348 625.03 117.978L633.995 120.231C640.042 121.736 645.225 123.617 649.544 125.873C653.863 128.129 657.406 130.729 660.173 133.673C662.94 136.581 664.983 139.817 666.304 143.38C667.66 146.945 668.381 150.806 668.467 154.962C668.52 162.134 666.803 168.139 663.316 172.977C659.829 177.816 654.801 181.407 648.234 183.752C641.702 186.098 633.823 187.097 624.598 186.751C615.124 186.395 606.84 184.682 599.745 181.612C592.685 178.543 587.168 174.023 583.194 168.052C579.254 162.048 577.211 154.482 577.063 145.354L605.164 146.409C605.383 149.754 606.251 152.59 607.769 154.919C609.287 157.248 611.402 159.049 614.113 160.322C616.859 161.596 620.113 162.304 623.874 162.445C627.032 162.564 629.67 162.272 631.789 161.571C633.909 160.87 635.51 159.847 636.593 158.504C637.676 157.16 638.224 155.601 638.238 153.827C638.182 152.156 637.614 150.68 636.534 149.397C635.489 148.08 633.772 146.88 631.383 145.796C628.993 144.677 625.77 143.598 621.714 142.558L610.829 139.807C601.152 137.349 593.498 133.565 587.868 128.456C582.272 123.312 579.44 116.479 579.37 107.958C579.25 101.032 581.02 95.0464 584.682 90.0016C588.379 84.9227 593.527 81.0518 600.126 78.3889C606.761 75.7275 614.389 74.5586 623.011 74.8823C631.811 75.2126 639.439 76.9721 645.898 80.1607C652.356 83.3492 657.356 87.6899 660.899 93.1827C664.477 98.6412 666.328 104.94 666.451 112.079L638.137 111.016Z" fill="#A74925"/>
<path d="M34.8927 78.1448L13.9107 77.357L14.1686 98.357L35.1506 99.1448L34.8927 78.1448ZM34.5997 54.2811L34.3418 33.2812L13.3597 32.4934L13.6176 53.4934L34.5997 54.2811ZM129.334 57.8379L150.316 58.6257L150.058 37.6257L129.076 36.838L129.334 57.8379ZM129.627 81.7016L129.885 102.702L150.867 103.489L150.609 82.4893L129.627 81.7016ZM96.8425 80.4707L96.5846 59.4707L75.6026 58.6829L75.8605 79.6829L96.8425 80.4707ZM97.8892 165.698L98.1471 186.698L119.129 187.486L118.871 166.486L97.8892 165.698ZM68.7238 164.603L47.7418 163.815L47.9997 184.815L68.9817 185.603L68.7238 164.603ZM67.6772 79.3757L88.6592 80.1634L88.4013 59.1634L67.4193 58.3757L67.6772 79.3757ZM55.8748 78.9325L55.5817 55.0689L13.6176 53.4934L13.9107 77.357L55.8748 78.9325ZM34.8576 75.2811L129.592 78.8379L129.076 36.838L34.3418 33.2812L34.8576 75.2811ZM108.352 57.0502L108.645 80.9138L150.609 82.4893L150.316 58.6257L108.352 57.0502ZM129.369 60.7016L96.5846 59.4707L97.1004 101.471L129.885 102.702L129.369 60.7016ZM75.8605 79.6829L76.9072 164.91L118.871 166.486L117.825 81.2585L75.8605 79.6829ZM97.6313 144.698L68.4659 143.603L68.9817 185.603L98.1471 186.698L97.6313 144.698ZM89.7059 165.391L88.6592 80.1634L46.6951 78.5879L47.7418 163.815L89.7059 165.391ZM67.4193 58.3757L34.6348 57.1448L35.1506 99.1448L67.9351 100.376L67.4193 58.3757ZM141.81 167.347L120.828 166.559L121.086 187.559L142.068 188.347L141.81 167.347ZM140.47 58.2561L140.213 37.2561L119.231 36.4683L119.488 57.4683L140.47 58.2561ZM170.062 59.3671L191.044 60.1548L190.786 39.1548L169.804 38.3671L170.062 59.3671ZM170.585 101.981L149.603 101.193L149.861 122.193L170.843 122.981L170.585 101.981ZM209.756 103.451L210.014 124.451L230.996 125.239L230.738 104.239L209.756 103.451ZM209.233 60.8377L208.975 39.8378L187.993 39.05L188.251 60.05L209.233 60.8377ZM238.824 61.9487L259.806 62.7365L259.548 41.7365L238.566 40.9488L238.824 61.9487ZM240.163 171.04L240.421 192.04L261.403 192.827L261.146 171.827L240.163 171.04ZM210.572 169.929L189.59 169.141L189.848 190.141L210.83 190.929L210.572 169.929ZM210.049 127.315L231.031 128.103L230.773 107.103L209.791 106.315L210.049 127.315ZM170.878 125.844L170.62 104.844L149.638 104.057L149.896 125.057L170.878 125.844ZM171.401 168.458L171.659 189.458L192.641 190.246L192.383 169.246L171.401 168.458ZM162.792 168.135L161.453 59.0438L119.488 57.4683L120.828 166.559L162.792 168.135ZM140.728 79.2561L170.32 80.3671L169.804 38.3671L140.213 37.2561L140.728 79.2561ZM149.08 58.5793L149.603 101.193L191.567 102.768L191.044 60.1548L149.08 58.5793ZM170.843 122.981L210.014 124.451L209.498 82.4514L170.327 80.9807L170.843 122.981ZM230.738 104.239L230.215 61.6255L188.251 60.05L188.774 102.664L230.738 104.239ZM209.491 81.8377L239.082 82.9487L238.566 40.9488L208.975 39.8378L209.491 81.8377ZM217.842 61.161L219.181 170.252L261.146 171.827L259.806 62.7365L217.842 61.161ZM239.906 150.04L210.314 148.929L210.83 190.929L240.421 192.04L239.906 150.04ZM231.554 170.716L231.031 128.103L189.067 126.527L189.59 169.141L231.554 170.716ZM209.791 106.315L170.62 104.844L171.136 146.844L210.307 148.315L209.791 106.315ZM149.896 125.057L150.419 167.67L192.383 169.246L191.86 126.632L149.896 125.057ZM171.143 147.458L141.552 146.347L142.068 188.347L171.659 189.458L171.143 147.458ZM254.214 171.567L233.232 170.779L233.49 191.779L254.472 192.567L254.214 171.567ZM252.874 62.4763L252.616 41.4763L231.634 40.6885L231.892 61.6885L252.874 62.4763ZM331.429 65.4256L352.411 66.2134L352.153 45.2134L331.171 44.4256L331.429 65.4256ZM331.722 89.2892L331.98 110.289L352.962 111.077L352.704 90.077L331.722 89.2892ZM282.758 87.4509L282.501 66.4509L261.519 65.6631L261.776 86.6631L282.758 87.4509ZM282.989 106.201L262.007 105.413L262.265 126.413L283.247 127.201L282.989 106.201ZM327.908 107.887L348.89 108.675L348.632 87.6751L327.65 86.8874L327.908 107.887ZM328.201 131.751L328.459 152.751L349.441 153.539L349.183 132.539L328.201 131.751ZM283.282 130.065L283.024 109.065L262.042 108.277L262.3 129.277L283.282 130.065ZM283.512 148.815L262.53 148.027L262.788 169.027L283.77 169.814L283.512 148.815ZM332.263 150.645L353.245 151.433L352.987 130.433L332.005 129.645L332.263 150.645ZM332.556 174.508L332.814 195.508L353.796 196.296L353.538 175.296L332.556 174.508ZM275.196 172.355L273.856 63.264L231.892 61.6885L233.232 170.779L275.196 172.355ZM253.132 83.4763L331.687 86.4256L331.171 44.4256L252.616 41.4763L253.132 83.4763ZM310.447 64.6378L310.74 88.5015L352.704 90.077L352.411 66.2134L310.447 64.6378ZM331.464 68.2893L282.501 66.4509L283.016 108.451L331.98 110.289L331.464 68.2893ZM261.776 86.6631L262.007 105.413L303.971 106.989L303.74 88.2387L261.776 86.6631ZM283.247 127.201L328.166 128.887L327.65 86.8874L282.731 85.2009L283.247 127.201ZM306.926 107.1L307.219 130.963L349.183 132.539L348.89 108.675L306.926 107.1ZM327.943 110.751L283.024 109.065L283.54 151.065L328.459 152.751L327.943 110.751ZM262.3 129.277L262.53 148.027L304.494 149.602L304.264 130.852L262.3 129.277ZM283.77 169.814L332.521 171.645L332.005 129.645L283.254 127.815L283.77 169.814ZM311.281 149.857L311.574 173.721L353.538 175.296L353.245 151.433L311.281 149.857ZM332.298 153.508L253.956 150.567L254.472 192.567L332.814 195.508L332.298 153.508ZM346.105 65.9766L345.847 44.9766L324.865 44.1889L325.123 65.1888L346.105 65.9766ZM382.934 67.3594L402.248 60.116L396.746 46.8876L382.676 46.3594L382.934 67.3594ZM409.026 130.1L389.713 137.344L395.214 150.572L409.284 151.1L409.026 130.1ZM410.304 130.148L410.562 151.148L424.632 151.676L429.813 138.849L410.304 130.148ZM434.878 69.3096L434.62 48.3096L420.55 47.7814L415.369 60.6087L434.878 69.3096ZM471.708 70.6924L492.69 71.4801L492.432 50.4802L471.45 49.6924L471.708 70.6924ZM473.047 179.783L473.305 200.783L494.287 201.571L494.029 180.571L473.047 179.783ZM444.095 178.696L423.113 177.908L423.371 198.908L444.353 199.696L444.095 178.696ZM443.32 115.628L464.302 116.416L464.044 95.4158L443.062 94.6281L443.32 115.628ZM442.469 115.596L442.211 94.5961L427.878 94.058L422.83 107.225L442.469 115.596ZM418.964 176.901L419.222 197.901L433.555 198.439L438.603 185.272L418.964 176.901ZM401.507 176.245L382.038 183.103L387.397 196.706L401.765 197.245L401.507 176.245ZM376.469 112.692L395.939 105.835L390.579 92.2316L376.211 91.6922L376.469 112.692ZM375.617 112.66L375.359 91.6602L354.377 90.8724L354.635 111.872L375.617 112.66ZM376.397 176.154L376.655 197.154L397.637 197.942L397.379 176.942L376.397 176.154ZM347.445 175.067L326.463 174.28L326.721 195.28L347.703 196.067L347.445 175.067ZM346.363 86.9766L383.192 88.3594L382.676 46.3594L345.847 44.9766L346.363 86.9766ZM363.621 74.6027L389.713 137.344L428.34 122.857L402.248 60.116L363.621 74.6027ZM409.284 151.1L410.562 151.148L410.046 109.148L408.769 109.1L409.284 151.1ZM429.813 138.849L454.388 78.0106L415.369 60.6087L390.795 121.447L429.813 138.849ZM435.136 90.3096L471.966 91.6924L471.45 49.6924L434.62 48.3096L435.136 90.3096ZM450.726 69.9046L452.065 178.995L494.029 180.571L492.69 71.4801L450.726 69.9046ZM472.789 158.783L443.837 157.696L444.353 199.696L473.305 200.783L472.789 158.783ZM465.077 179.484L464.302 116.416L422.338 114.84L423.113 177.908L465.077 179.484ZM443.062 94.6281L442.211 94.5961L442.727 136.596L443.578 136.628L443.062 94.6281ZM422.83 107.225L399.325 168.53L438.603 185.272L462.108 123.967L422.83 107.225ZM418.706 155.901L401.249 155.245L401.765 197.245L419.222 197.901L418.706 155.901ZM420.977 169.388L395.939 105.835L356.999 119.55L382.038 183.103L420.977 169.388ZM376.211 91.6922L375.359 91.6602L375.875 133.66L376.727 133.692L376.211 91.6922ZM354.635 111.872L355.415 175.367L397.379 176.942L396.599 113.448L354.635 111.872ZM376.139 155.155L347.187 154.067L347.703 196.067L376.655 197.154L376.139 155.155ZM368.427 175.855L367.087 66.7644L325.123 65.1888L326.463 174.28L368.427 175.855ZM487.071 180.31L466.089 179.522L466.347 200.522L487.329 201.31L487.071 180.31ZM485.731 71.2189L485.474 50.2189L464.492 49.4311L464.749 70.4311L485.731 71.2189ZM564.286 74.1682L585.268 74.956L585.011 53.956L564.028 53.1683L564.286 74.1682ZM564.579 98.0319L564.837 119.032L585.819 119.82L585.561 98.8196L564.579 98.0319ZM515.616 96.1935L515.358 75.1935L494.376 74.4058L494.634 95.4058L515.616 96.1935ZM515.846 114.944L494.864 114.156L495.122 135.156L516.104 135.943L515.846 114.944ZM560.765 116.63L581.747 117.418L581.489 96.4178L560.507 95.63L560.765 116.63ZM561.058 140.494L561.316 161.494L582.298 162.281L582.04 141.281L561.058 140.494ZM516.139 138.807L515.881 117.807L494.899 117.019L495.157 138.019L516.139 138.807ZM516.369 157.557L495.387 156.769L495.645 177.769L516.627 178.557L516.369 157.557ZM565.12 159.387L586.102 160.175L585.844 139.175L564.862 138.387L565.12 159.387ZM565.413 183.251L565.671 204.251L586.653 205.039L586.395 184.039L565.413 183.251ZM508.053 181.098L506.713 72.0067L464.749 70.4311L466.089 179.522L508.053 181.098ZM485.989 92.2189L564.544 95.1682L564.028 53.1683L485.474 50.2189L485.989 92.2189ZM543.304 73.3805L543.597 97.2441L585.561 98.8196L585.268 74.956L543.304 73.3805ZM564.322 77.0319L515.358 75.1935L515.874 117.194L564.837 119.032L564.322 77.0319ZM494.634 95.4058L494.864 114.156L536.828 115.731L536.598 96.9813L494.634 95.4058ZM516.104 135.943L561.023 137.63L560.507 95.63L515.588 93.9435L516.104 135.943ZM539.783 115.842L540.076 139.706L582.04 141.281L581.747 117.418L539.783 115.842ZM560.8 119.494L515.881 117.807L516.397 159.807L561.316 161.494L560.8 119.494ZM495.157 138.019L495.387 156.769L537.351 158.345L537.121 139.595L495.157 138.019ZM516.627 178.557L565.378 180.387L564.862 138.387L516.111 136.557L516.627 178.557ZM544.138 158.6L544.431 182.463L586.395 184.039L586.102 160.175L544.138 158.6ZM565.155 162.251L486.813 159.31L487.329 201.31L565.671 204.251L565.155 162.251ZM638.137 111.016L617.243 111.906L619.025 131.289L638.395 132.016L638.137 111.016ZM634.044 102.557L620.665 118.06L620.725 118.112L620.786 118.164L634.044 102.557ZM615.819 100.009L623.348 119.975L623.446 119.942L623.544 119.908L615.819 100.009ZM611.597 102.779L594.6 89.6235L594.6 89.6236L611.597 102.779ZM610.213 106.986L631.178 108.906L631.192 108.574L631.195 108.24L610.213 106.986ZM610.948 110.581L592.297 119.268L592.492 119.656L592.702 120.036L610.948 110.581ZM613.644 113.504L601.755 130.206L601.927 130.333L602.101 130.457L613.644 113.504ZM625.03 117.978L629.174 97.6092L629.087 97.5874L629.001 97.5663L625.03 117.978ZM633.995 120.231L629.851 140.6L629.875 140.606L629.9 140.612L633.995 120.231ZM660.173 133.673L645.235 147.668L645.281 147.717L645.328 147.766L660.173 133.673ZM666.304 143.38L646.673 149.816L646.706 149.905L646.74 149.994L666.304 143.38ZM668.467 154.962L689.45 155.854L689.449 155.712L689.446 155.57L668.467 154.962ZM663.316 172.977L680.539 185.824L680.539 185.824L663.316 172.977ZM648.234 183.752L640.328 163.916L640.31 163.922L640.292 163.928L648.234 183.752ZM599.745 181.612L592.209 200.825L592.226 200.832L592.243 200.839L599.745 181.612ZM583.194 168.052L565.829 178.97L565.87 179.033L565.912 179.096L583.194 168.052ZM577.063 145.354L576.805 124.354L555.742 123.563L556.083 144.648L577.063 145.354ZM605.164 146.409L626.103 146.08L624.802 126.156L604.906 125.409L605.164 146.409ZM607.769 154.919L590.369 165.782L590.369 165.782L607.769 154.919ZM614.113 160.322L605.992 179.271L606.038 179.292L606.085 179.314L614.113 160.322ZM631.789 161.571L639.255 181.559L639.255 181.559L631.789 161.571ZM636.593 158.504L653.178 172.187L653.178 172.187L636.593 158.504ZM638.238 153.827L659.22 155.034L659.224 154.601L659.209 154.168L638.238 153.827ZM636.534 149.397L620.356 161.957L620.56 162.214L620.771 162.465L636.534 149.397ZM631.383 145.796L623.285 164.755L623.407 164.813L623.53 164.868L631.383 145.796ZM621.714 142.558L625.957 122.214L625.922 122.205L625.886 122.196L621.714 142.558ZM610.829 139.807L606.633 160.162L606.645 160.165L606.657 160.168L610.829 139.807ZM587.868 128.456L574.102 143.611L574.155 143.66L574.209 143.709L587.868 128.456ZM579.37 107.958L600.353 108.833L600.353 108.736L600.351 108.638L579.37 107.958ZM584.682 90.0016L567.513 77.0801L567.505 77.0905L567.497 77.1009L584.682 90.0016ZM600.126 78.3889L591.502 58.8253L591.483 58.8328L591.464 58.8404L600.126 78.3889ZM645.898 80.1607L637.386 98.921L645.898 80.1607ZM660.899 93.1827L643.44 103.954L643.484 104.024L643.53 104.093L660.899 93.1827ZM666.451 112.079L666.709 133.079L687.796 133.871L687.432 112.762L666.451 112.079ZM659.032 110.127C658.27 101.841 654.73 93.3755 647.302 86.9489L620.786 118.164C619.687 117.214 618.73 115.984 618.07 114.619C617.437 113.311 617.279 112.304 617.243 111.906L659.032 110.127ZM647.422 87.0536C639.588 80.1787 630.17 78.4393 623.052 78.172L623.567 120.172C624.585 120.21 624.701 120.328 624.203 120.171C623.652 119.998 622.248 119.449 620.665 118.06L647.422 87.0536ZM623.052 78.172C618.516 78.0018 613.242 78.3269 608.094 80.1093L623.544 119.908C623.186 120.033 622.909 120.102 622.738 120.138C622.567 120.175 622.48 120.184 622.494 120.182C622.508 120.181 622.602 120.171 622.787 120.166C622.971 120.16 623.229 120.159 623.567 120.172L623.052 78.172ZM608.29 80.0426C603.782 81.5513 598.545 84.3705 594.6 89.6235L628.594 115.934C626.464 118.77 624.042 119.743 623.348 119.975L608.29 80.0426ZM594.6 89.6236C591.057 94.3429 589.288 99.9386 589.23 105.732L631.195 108.24C631.169 110.84 630.323 113.631 628.594 115.934L594.6 89.6236ZM589.247 105.066C589.057 109.619 589.913 114.523 592.297 119.268L629.6 101.894C630.893 104.468 631.259 106.976 631.178 108.906L589.247 105.066ZM592.702 120.036C595.199 124.559 598.575 127.861 601.755 130.206L625.533 96.8021C626.279 97.3524 627.858 98.705 629.195 101.126L592.702 120.036ZM602.101 130.457C605.211 132.661 608.483 134.241 611.464 135.417L625.14 96.4128C624.965 96.344 624.835 96.2881 624.744 96.2474C624.7 96.2273 624.666 96.2116 624.644 96.2007C624.621 96.1898 624.61 96.1842 624.61 96.1843C624.611 96.1844 624.623 96.1908 624.647 96.204C624.671 96.2172 624.707 96.2379 624.754 96.2666C624.848 96.323 624.996 96.4164 625.187 96.5515L602.101 130.457ZM611.464 135.417C614.533 136.628 617.781 137.594 621.059 138.39L629.001 97.5663C627.086 97.1018 625.848 96.6925 625.14 96.4128L611.464 135.417ZM620.886 138.347L629.851 140.6L638.139 99.8625L629.174 97.6092L620.886 138.347ZM629.9 140.612C634.724 141.813 638.186 143.153 640.58 144.404L658.508 107.343C652.265 104.081 645.36 101.659 638.089 99.8501L629.9 140.612ZM640.58 144.404C643.133 145.737 644.519 146.906 645.235 147.668L675.112 119.678C670.294 114.552 664.594 110.522 658.508 107.343L640.58 144.404ZM645.328 147.766C646.093 148.571 646.453 149.223 646.673 149.816L685.934 136.944C683.513 130.41 679.786 124.591 675.019 119.579L645.328 147.766ZM646.74 149.994C647.121 150.996 647.447 152.387 647.488 154.354L689.446 155.57C689.314 149.225 688.198 142.894 685.868 136.766L646.74 149.994ZM647.484 154.07C647.511 157.679 646.692 159.298 646.092 160.13L680.539 185.824C686.914 176.98 689.529 166.589 689.45 155.854L647.484 154.07ZM646.092 160.13C645.28 161.257 643.755 162.692 640.328 163.916L656.139 203.588C665.848 200.122 674.378 194.374 680.539 185.824L646.092 160.13ZM640.292 163.928C636.824 165.174 631.698 166.027 624.34 165.751L624.856 207.751C635.948 208.167 646.579 207.021 656.175 203.575L640.292 163.928ZM624.34 165.751C616.886 165.471 611.338 164.155 607.247 162.384L592.243 200.839C602.342 205.21 613.363 207.32 624.856 207.751L624.34 165.751ZM607.281 162.399C603.84 160.903 601.857 159.085 600.476 157.009L565.912 179.096C572.479 188.961 581.53 196.182 592.209 200.825L607.281 162.399ZM600.559 157.135C599.508 155.533 598.145 152.308 598.044 146.06L556.083 144.648C556.277 156.655 559.001 168.563 565.829 178.97L600.559 157.135ZM577.321 166.354L605.422 167.409L604.906 125.409L576.805 124.354L577.321 166.354ZM584.226 146.738C584.631 152.951 586.349 159.616 590.369 165.782L625.17 144.056C626.153 145.565 626.134 146.557 626.103 146.08L584.226 146.738ZM590.369 165.782C594.361 171.906 599.836 176.379 605.992 179.271L622.233 141.373C622.524 141.51 623.031 141.794 623.618 142.294C624.216 142.803 624.749 143.41 625.17 144.056L590.369 165.782ZM606.085 179.314C612.054 182.083 618.256 183.225 624.132 183.445L623.616 141.445C621.97 141.383 621.665 141.109 622.141 141.33L606.085 179.314ZM624.132 183.445C628.858 183.623 634.122 183.257 639.255 181.559L624.324 141.584C624.817 141.42 625.048 141.41 624.901 141.426C624.757 141.442 624.348 141.473 623.616 141.445L624.132 183.445ZM639.255 181.559C643.974 179.997 649.153 177.182 653.178 172.187L620.007 144.82C621.867 142.513 623.843 141.743 624.324 141.584L639.255 181.559ZM653.178 172.187C657.09 167.334 659.172 161.387 659.22 155.034L617.255 152.619C617.264 151.359 617.472 149.938 617.984 148.48C618.497 147.022 619.222 145.794 620.007 144.82L653.178 172.187ZM659.209 154.168C658.994 147.74 656.65 141.501 652.297 136.329L620.771 162.465C619.788 161.297 618.885 159.846 618.235 158.156C617.586 156.471 617.312 154.865 617.266 153.486L659.209 154.168ZM652.712 136.837C648.524 131.556 643.192 128.518 639.235 126.724L623.53 164.868C623.782 164.982 623.554 164.905 623.039 164.545C622.53 164.19 621.482 163.377 620.356 161.957L652.712 136.837ZM639.481 126.837C635.337 124.896 630.65 123.417 625.957 122.214L617.472 162.902C620.89 163.778 622.649 164.458 623.285 164.755L639.481 126.837ZM625.886 122.196L615 119.445L606.657 160.168L617.543 162.92L625.886 122.196ZM615.024 119.451C607.727 117.598 603.697 115.173 601.526 113.203L574.209 143.709C583.3 151.958 594.577 157.101 606.633 160.162L615.024 119.451ZM601.633 113.301C601.275 112.971 600.382 112.326 600.353 108.833L558.387 107.083C558.497 120.633 563.269 133.652 574.102 143.611L601.633 113.301ZM600.351 108.638C600.301 105.754 600.967 104.143 601.867 102.902L567.497 77.1009C561.074 85.9503 558.199 96.3092 558.39 107.278L600.351 108.638ZM601.852 102.923C603.131 101.166 605.162 99.4009 608.789 97.9375L591.464 58.8404C581.892 62.7026 573.628 68.6791 567.513 77.0801L601.852 102.923ZM608.751 97.9526C612.314 96.5234 617.009 95.6472 623.269 95.8823L622.753 53.8823C611.77 53.4699 601.208 54.9315 591.502 58.8253L608.751 97.9526ZM623.269 95.8823C629.77 96.1264 634.278 97.3863 637.386 98.921L654.409 61.4003C644.601 56.5579 633.851 54.2989 622.753 53.8823L623.269 95.8823ZM637.386 98.921C640.606 100.511 642.334 102.241 643.44 103.954L678.359 82.411C672.378 73.1388 664.105 66.1876 654.409 61.4003L637.386 98.921ZM643.53 104.093C644.557 105.66 645.409 107.835 645.471 111.396L687.432 112.762C687.247 102.045 684.398 91.622 678.269 82.2724L643.53 104.093ZM666.193 91.0792L637.879 90.0162L638.395 132.016L666.709 133.079L666.193 91.0792Z" fill="#4F291E" mask="url(#path-4-outside-2_121_421)"/>
<mask id="path-7-outside-3_121_421" maskUnits="userSpaceOnUse" x="21.7353" y="14.9458" width="674.328" height="180.246" fill="black">
<rect fill="white" x="21.7353" y="14.9458" width="674.328" height="180.246"/>
<path d="M43.34 62.5081L43.0469 38.6444L137.781 42.2012L138.074 66.0649L105.29 64.834L106.336 150.061L77.1711 148.966L76.1244 63.739L43.34 62.5081ZM150.257 151.71L148.918 42.6194L195.966 44.3858C204.055 44.6895 211.152 46.429 217.255 49.6042C223.359 52.7794 228.13 57.2002 231.568 62.8665C235.007 68.5329 236.774 75.2368 236.869 82.9782C236.965 90.7907 235.307 97.3128 231.896 102.544C228.52 107.777 223.727 111.644 217.516 114.144C211.34 116.645 204.101 117.74 195.799 117.428L167.698 116.373L167.415 93.3617L189.555 94.193C193.032 94.3235 195.99 94.0086 198.427 93.2483C200.9 92.4538 202.781 91.1223 204.071 89.254C205.395 87.387 206.039 84.9088 206.001 81.8193C205.962 78.6943 205.257 76.1299 203.885 74.1262C202.548 72.0882 200.631 70.561 198.136 69.5445C195.676 68.4937 192.708 67.9031 189.231 67.7726L178.799 67.3809L179.849 152.821L150.257 151.71ZM213.508 104.037L241.373 155.131L209.227 153.924L182.001 102.854L213.508 104.037ZM278.681 156.532L246.748 155.333L281.386 47.5929L321.834 49.1115L359.152 159.553L327.219 158.354L302.405 78.4108L301.553 78.3788L278.681 156.532ZM272.192 113.268L332.225 115.522L332.497 137.681L272.464 135.427L272.192 113.268ZM465.449 95.3937L435.432 94.2668C435.189 91.773 434.594 89.4967 433.646 87.4379C432.734 85.3804 431.471 83.5938 429.857 82.0779C428.277 80.5278 426.365 79.3201 424.12 78.455C421.875 77.5543 419.333 77.0506 416.494 76.9441C411.527 76.7576 407.337 77.8071 403.925 80.0927C400.549 82.3795 398.001 85.7447 396.282 90.188C394.599 94.6327 393.797 100.016 393.874 106.337C393.956 113.013 394.912 118.639 396.741 123.216C398.606 127.758 401.255 131.229 404.689 133.63C408.123 135.995 412.235 137.268 417.025 137.447C419.757 137.55 422.201 137.305 424.357 136.711C426.512 136.082 428.38 135.141 429.961 133.887C431.541 132.633 432.817 131.101 433.788 129.292C434.794 127.448 435.46 125.361 435.786 123.031L465.805 124.371C465.507 128.974 464.27 133.631 462.093 138.341C459.916 143.015 456.795 147.3 452.729 151.193C448.698 155.053 443.681 158.095 437.68 160.319C431.678 162.542 424.686 163.504 416.702 163.205C406.697 162.829 397.694 160.344 389.693 155.748C381.728 151.154 375.388 144.598 370.673 136.08C365.994 127.563 363.58 117.267 363.431 105.194C363.282 93.0487 365.498 82.9093 370.08 74.7755C374.661 66.6062 380.899 60.54 388.795 56.5771C396.689 52.5786 405.533 50.7632 415.326 51.1309C422.209 51.3893 428.554 52.5681 434.361 54.6674C440.167 56.7666 445.275 59.7092 449.684 63.4952C454.092 67.2457 457.659 71.7988 460.384 77.1544C463.11 82.51 464.798 88.5898 465.449 95.3937ZM479.712 164.08L478.372 54.9887L507.963 56.0997L508.505 100.205L509.995 100.261L542.238 57.3866L576.725 58.6814L540.493 105.878L578.917 167.804L543.577 166.477L518.593 124.649L508.957 137.066L509.303 165.191L479.712 164.08ZM643.218 95.253C642.891 91.6913 641.526 88.8714 639.125 86.7935C636.759 84.717 633.18 83.5888 628.391 83.4089C625.339 83.2944 622.842 83.5733 620.9 84.2458C618.993 84.8841 617.586 85.8074 616.678 87.0156C615.771 88.2239 615.31 89.6264 615.294 91.223C615.239 92.5343 615.484 93.7326 616.029 94.8179C616.61 95.869 617.508 96.8434 618.725 97.741C619.941 98.603 621.494 99.4067 623.383 100.152C625.272 100.897 627.514 101.585 630.111 102.215L639.076 104.468C645.123 105.973 650.306 107.854 654.625 110.11C658.944 112.366 662.487 114.966 665.254 117.91C668.021 120.818 670.064 124.054 671.385 127.617C672.741 131.182 673.462 135.043 673.548 139.199C673.601 146.371 671.884 152.376 668.397 157.214C664.91 162.053 659.882 165.644 653.315 167.989C646.783 170.335 638.904 171.334 629.679 170.988C620.205 170.632 611.921 168.919 604.826 165.849C597.766 162.779 592.249 158.26 588.275 152.289C584.335 146.285 582.292 138.719 582.144 129.591L610.245 130.646C610.464 133.991 611.332 136.827 612.85 139.156C614.368 141.485 616.483 143.286 619.194 144.559C621.94 145.833 625.194 146.541 628.955 146.682C632.113 146.801 634.751 146.509 636.87 145.808C638.99 145.107 640.591 144.084 641.674 142.741C642.757 141.397 643.305 139.838 643.319 138.064C643.263 136.393 642.695 134.917 641.615 133.634C640.57 132.317 638.853 131.117 636.464 130.033C634.074 128.914 630.851 127.835 626.795 126.795L615.91 124.044C606.233 121.586 598.579 117.802 592.949 112.693C587.353 107.549 584.521 100.716 584.451 92.1948C584.331 85.2687 586.102 79.2833 589.763 74.2385C593.46 69.1596 598.608 65.2887 605.207 62.6258C611.842 59.9644 619.47 58.7955 628.092 59.1192C636.892 59.4495 644.52 61.209 650.979 64.3976C657.437 67.5861 662.437 71.9268 665.98 77.4195C669.558 82.8781 671.409 89.177 671.532 96.3161L643.218 95.253Z"/>
</mask>
<path d="M43.34 62.5081L43.0469 38.6444L137.781 42.2012L138.074 66.0649L105.29 64.834L106.336 150.061L77.1711 148.966L76.1244 63.739L43.34 62.5081ZM150.257 151.71L148.918 42.6194L195.966 44.3858C204.055 44.6895 211.152 46.429 217.255 49.6042C223.359 52.7794 228.13 57.2002 231.568 62.8665C235.007 68.5329 236.774 75.2368 236.869 82.9782C236.965 90.7907 235.307 97.3128 231.896 102.544C228.52 107.777 223.727 111.644 217.516 114.144C211.34 116.645 204.101 117.74 195.799 117.428L167.698 116.373L167.415 93.3617L189.555 94.193C193.032 94.3235 195.99 94.0086 198.427 93.2483C200.9 92.4538 202.781 91.1223 204.071 89.254C205.395 87.387 206.039 84.9088 206.001 81.8193C205.962 78.6943 205.257 76.1299 203.885 74.1262C202.548 72.0882 200.631 70.561 198.136 69.5445C195.676 68.4937 192.708 67.9031 189.231 67.7726L178.799 67.3809L179.849 152.821L150.257 151.71ZM213.508 104.037L241.373 155.131L209.227 153.924L182.001 102.854L213.508 104.037ZM278.681 156.532L246.748 155.333L281.386 47.5929L321.834 49.1115L359.152 159.553L327.219 158.354L302.405 78.4108L301.553 78.3788L278.681 156.532ZM272.192 113.268L332.225 115.522L332.497 137.681L272.464 135.427L272.192 113.268ZM465.449 95.3937L435.432 94.2668C435.189 91.773 434.594 89.4967 433.646 87.4379C432.734 85.3804 431.471 83.5938 429.857 82.0779C428.277 80.5278 426.365 79.3201 424.12 78.455C421.875 77.5543 419.333 77.0506 416.494 76.9441C411.527 76.7576 407.337 77.8071 403.925 80.0927C400.549 82.3795 398.001 85.7447 396.282 90.188C394.599 94.6327 393.797 100.016 393.874 106.337C393.956 113.013 394.912 118.639 396.741 123.216C398.606 127.758 401.255 131.229 404.689 133.63C408.123 135.995 412.235 137.268 417.025 137.447C419.757 137.55 422.201 137.305 424.357 136.711C426.512 136.082 428.38 135.141 429.961 133.887C431.541 132.633 432.817 131.101 433.788 129.292C434.794 127.448 435.46 125.361 435.786 123.031L465.805 124.371C465.507 128.974 464.27 133.631 462.093 138.341C459.916 143.015 456.795 147.3 452.729 151.193C448.698 155.053 443.681 158.095 437.68 160.319C431.678 162.542 424.686 163.504 416.702 163.205C406.697 162.829 397.694 160.344 389.693 155.748C381.728 151.154 375.388 144.598 370.673 136.08C365.994 127.563 363.58 117.267 363.431 105.194C363.282 93.0487 365.498 82.9093 370.08 74.7755C374.661 66.6062 380.899 60.54 388.795 56.5771C396.689 52.5786 405.533 50.7632 415.326 51.1309C422.209 51.3893 428.554 52.5681 434.361 54.6674C440.167 56.7666 445.275 59.7092 449.684 63.4952C454.092 67.2457 457.659 71.7988 460.384 77.1544C463.11 82.51 464.798 88.5898 465.449 95.3937ZM479.712 164.08L478.372 54.9887L507.963 56.0997L508.505 100.205L509.995 100.261L542.238 57.3866L576.725 58.6814L540.493 105.878L578.917 167.804L543.577 166.477L518.593 124.649L508.957 137.066L509.303 165.191L479.712 164.08ZM643.218 95.253C642.891 91.6913 641.526 88.8714 639.125 86.7935C636.759 84.717 633.18 83.5888 628.391 83.4089C625.339 83.2944 622.842 83.5733 620.9 84.2458C618.993 84.8841 617.586 85.8074 616.678 87.0156C615.771 88.2239 615.31 89.6264 615.294 91.223C615.239 92.5343 615.484 93.7326 616.029 94.8179C616.61 95.869 617.508 96.8434 618.725 97.741C619.941 98.603 621.494 99.4067 623.383 100.152C625.272 100.897 627.514 101.585 630.111 102.215L639.076 104.468C645.123 105.973 650.306 107.854 654.625 110.11C658.944 112.366 662.487 114.966 665.254 117.91C668.021 120.818 670.064 124.054 671.385 127.617C672.741 131.182 673.462 135.043 673.548 139.199C673.601 146.371 671.884 152.376 668.397 157.214C664.91 162.053 659.882 165.644 653.315 167.989C646.783 170.335 638.904 171.334 629.679 170.988C620.205 170.632 611.921 168.919 604.826 165.849C597.766 162.779 592.249 158.26 588.275 152.289C584.335 146.285 582.292 138.719 582.144 129.591L610.245 130.646C610.464 133.991 611.332 136.827 612.85 139.156C614.368 141.485 616.483 143.286 619.194 144.559C621.94 145.833 625.194 146.541 628.955 146.682C632.113 146.801 634.751 146.509 636.87 145.808C638.99 145.107 640.591 144.084 641.674 142.741C642.757 141.397 643.305 139.838 643.319 138.064C643.263 136.393 642.695 134.917 641.615 133.634C640.57 132.317 638.853 131.117 636.464 130.033C634.074 128.914 630.851 127.835 626.795 126.795L615.91 124.044C606.233 121.586 598.579 117.802 592.949 112.693C587.353 107.549 584.521 100.716 584.451 92.1948C584.331 85.2687 586.102 79.2833 589.763 74.2385C593.46 69.1596 598.608 65.2887 605.207 62.6258C611.842 59.9644 619.47 58.7955 628.092 59.1192C636.892 59.4495 644.52 61.209 650.979 64.3976C657.437 67.5861 662.437 71.9268 665.98 77.4195C669.558 82.8781 671.409 89.177 671.532 96.3161L643.218 95.253Z" fill="#A74925"/>
<path d="M43.34 62.5081L22.358 61.7203L22.6159 82.7203L43.5979 83.508L43.34 62.5081ZM43.0469 38.6444L42.789 17.6444L21.807 16.8567L22.0649 37.8567L43.0469 38.6444ZM137.781 42.2012L158.763 42.989L158.505 21.989L137.523 21.2012L137.781 42.2012ZM138.074 66.0649L138.332 87.0648L159.314 87.8526L159.056 66.8526L138.074 66.0649ZM105.29 64.834L105.032 43.834L84.0499 43.0462L84.3078 64.0462L105.29 64.834ZM106.336 150.061L106.594 171.061L127.576 171.849L127.319 150.849L106.336 150.061ZM77.1711 148.966L56.1891 148.178L56.447 169.178L77.429 169.966L77.1711 148.966ZM76.1244 63.739L97.1065 64.5267L96.8486 43.5267L75.8665 42.739L76.1244 63.739ZM64.322 63.2958L64.029 39.4322L22.0649 37.8567L22.358 61.7203L64.322 63.2958ZM43.3048 59.6444L138.039 63.2012L137.523 21.2012L42.789 17.6444L43.3048 59.6444ZM116.799 41.4135L117.092 65.2771L159.056 66.8526L158.763 42.989L116.799 41.4135ZM137.816 45.0649L105.032 43.834L105.548 85.834L138.332 87.0648L137.816 45.0649ZM84.3078 64.0462L85.3544 149.273L127.319 150.849L126.272 65.6217L84.3078 64.0462ZM106.079 129.061L76.9132 127.966L77.429 169.966L106.594 171.061L106.079 129.061ZM98.1531 149.754L97.1065 64.5267L55.1424 62.9512L56.1891 148.178L98.1531 149.754ZM75.8665 42.739L43.0821 41.5081L43.5979 83.508L76.3823 84.7389L75.8665 42.739ZM150.257 151.71L129.275 150.922L129.533 171.922L150.515 172.71L150.257 151.71ZM148.918 42.6194L148.66 21.6194L127.678 20.8316L127.936 41.8316L148.918 42.6194ZM231.568 62.8665L249.355 52.6169L249.355 52.6168L231.568 62.8665ZM231.896 102.544L214.156 90.4512L214.129 90.4914L214.103 90.5317L231.896 102.544ZM217.516 114.144L208.87 94.5888L208.85 94.5969L208.829 94.605L217.516 114.144ZM167.698 116.373L146.716 115.585L146.974 136.585L167.956 137.373L167.698 116.373ZM167.415 93.3618L167.157 72.3618L146.175 71.574L146.433 92.574L167.415 93.3618ZM198.428 93.2483L205.564 113.342L205.646 113.316L205.727 113.29L198.428 93.2483ZM204.071 89.254L186.763 76.5244L186.689 76.6288L186.616 76.7343L204.071 89.254ZM203.885 74.1262L186.521 85.0453L186.643 85.2314L186.769 85.4151L203.885 74.1262ZM198.136 69.5445L190.731 88.8135L190.901 88.8862L191.072 88.9561L198.136 69.5445ZM178.799 67.3809L178.541 46.3809L157.559 45.5931L157.817 66.5931L178.799 67.3809ZM179.849 152.821L180.107 173.821L201.089 174.609L200.831 153.609L179.849 152.821ZM213.508 104.037L231.811 94.684L225.715 83.505L213.25 83.0371L213.508 104.037ZM241.373 155.131L241.631 176.131L276.952 177.457L259.675 145.778L241.373 155.131ZM209.227 153.924L190.824 163.091L196.88 174.451L209.485 174.924L209.227 153.924ZM182.001 102.854L181.743 81.8541L146.817 80.5428L163.598 112.02L182.001 102.854ZM171.24 152.498L169.9 43.4071L127.936 41.8316L129.275 150.922L171.24 152.498ZM149.176 63.6193L196.223 65.3858L195.708 23.3858L148.66 21.6194L149.176 63.6193ZM196.223 65.3858C201.765 65.5938 205.611 66.7404 208.325 68.1524L226.185 31.0561C216.692 26.1175 206.346 23.7852 195.708 23.3858L196.223 65.3858ZM208.325 68.1524C210.94 69.5127 212.57 71.1193 213.782 73.1162L249.355 52.6168C243.689 43.2811 235.777 36.0462 226.185 31.0561L208.325 68.1524ZM213.782 73.1162C214.813 74.8157 215.83 77.5507 215.887 82.1905L257.851 83.766C257.718 72.9229 255.201 62.2501 249.355 52.6169L213.782 73.1162ZM215.887 82.1905C215.944 86.8522 214.963 89.2121 214.156 90.4512L249.637 114.638C255.651 105.414 257.986 94.7293 257.851 83.766L215.887 82.1905ZM214.103 90.5317C213.078 92.1214 211.589 93.4944 208.87 94.5888L226.162 133.699C235.865 129.793 243.963 123.434 249.689 114.557L214.103 90.5317ZM208.829 94.605C205.826 95.8216 201.569 96.6545 195.541 96.4282L196.057 138.428C206.633 138.825 216.855 137.469 226.202 133.683L208.829 94.605ZM195.541 96.4282L167.44 95.3731L167.956 137.373L196.057 138.428L195.541 96.4282ZM188.68 117.161L188.397 94.1495L146.433 92.574L146.716 115.585L188.68 117.161ZM167.673 114.362L189.813 115.193L189.297 73.193L167.157 72.3618L167.673 114.362ZM189.813 115.193C194.887 115.383 200.31 114.98 205.564 113.342L191.291 73.1551C191.512 73.0861 191.491 73.119 191.141 73.1562C190.792 73.1934 190.193 73.2266 189.297 73.193L189.813 115.193ZM205.727 113.29C211.761 111.351 217.456 107.67 221.525 101.774L186.616 76.7343C187.292 75.7541 188.126 74.9262 189.023 74.2916C189.898 73.6719 190.663 73.3561 191.128 73.2068L205.727 113.29ZM221.378 101.984C225.817 95.7278 227.057 88.6629 226.983 82.607L185.019 81.0315C185.02 81.1547 184.973 79.0463 186.763 76.5244L221.378 101.984ZM226.983 82.607C226.908 76.5507 225.51 69.4222 221.001 62.8372L186.769 85.4151C185.004 82.8376 185.016 80.8379 185.019 81.0315L226.983 82.607ZM221.249 63.2071C217.132 56.9327 211.393 52.656 205.2 50.1328L191.072 88.9561C190.562 88.7481 189.773 88.3476 188.887 87.6413C187.982 86.9205 187.169 86.0328 186.521 85.0453L221.249 63.2071ZM205.542 50.2754C199.984 47.9016 194.268 46.9714 188.973 46.7726L189.489 88.7725C190.277 88.8022 190.754 88.8753 190.971 88.9185C191.185 88.9611 191.074 88.96 190.731 88.8135L205.542 50.2754ZM188.973 46.7726L178.541 46.3809L179.057 88.3809L189.489 88.7725L188.973 46.7726ZM157.817 66.5931L158.867 152.033L200.831 153.609L199.781 68.1687L157.817 66.5931ZM179.591 131.821L150 130.71L150.515 172.71L180.107 173.821L179.591 131.821ZM195.206 113.39L223.07 164.484L259.675 145.778L231.811 94.684L195.206 113.39ZM241.115 134.131L208.969 132.924L209.485 174.924L241.631 176.131L241.115 134.131ZM227.63 144.758L200.405 93.6877L163.598 112.02L190.824 163.091L227.63 144.758ZM182.259 123.854L213.766 125.037L213.25 83.0371L181.743 81.8541L182.259 123.854ZM278.681 156.532L278.939 177.532L294.522 178.117L298.842 163.355L278.681 156.532ZM246.748 155.333L226.742 148.003L217.985 175.243L247.006 176.333L246.748 155.333ZM281.386 47.5929L281.128 26.5929L265.958 26.0233L261.38 40.2625L281.386 47.5929ZM321.834 49.1115L341.678 43.2772L336.746 28.6811L321.576 28.1115L321.834 49.1115ZM359.152 159.553L359.41 180.553L388.431 181.643L378.996 153.719L359.152 159.553ZM327.219 158.354L307.207 163.669L311.894 178.769L327.477 179.354L327.219 158.354ZM302.405 78.4108L322.417 73.0958L317.73 57.9959L302.147 57.4108L302.405 78.4108ZM301.553 78.3788L301.295 57.3788L285.712 56.7937L281.392 71.5556L301.553 78.3788ZM272.192 113.268L271.934 92.2683L250.952 91.4806L251.209 112.481L272.192 113.268ZM332.225 115.522L353.207 116.31L352.949 95.3101L331.967 94.5223L332.225 115.522ZM332.497 137.681L332.755 158.681L353.737 159.469L353.48 138.469L332.497 137.681ZM272.464 135.427L251.482 134.64L251.74 155.64L272.722 156.427L272.464 135.427ZM278.423 135.532L246.49 134.333L247.006 176.333L278.939 177.532L278.423 135.532ZM266.754 162.663L301.391 54.9233L261.38 40.2625L226.742 148.003L266.754 162.663ZM281.644 68.5929L322.092 70.1115L321.576 28.1115L281.128 26.5929L281.644 68.5929ZM301.99 54.9458L339.308 165.387L378.996 153.719L341.678 43.2772L301.99 54.9458ZM358.894 138.553L326.961 137.354L327.477 179.354L359.41 180.553L358.894 138.553ZM347.231 153.039L322.417 73.0958L282.393 83.7257L307.207 163.669L347.231 153.039ZM302.147 57.4108L301.295 57.3788L301.811 99.3788L302.663 99.4108L302.147 57.4108ZM281.392 71.5556L258.52 149.709L298.842 163.355L321.715 85.2021L281.392 71.5556ZM272.449 134.268L332.483 136.522L331.967 94.5223L271.934 92.2683L272.449 134.268ZM311.243 114.735L311.515 136.894L353.48 138.469L353.207 116.31L311.243 114.735ZM332.24 116.681L272.206 114.427L272.722 156.427L332.755 158.681L332.24 116.681ZM293.446 136.215L293.174 114.056L251.209 112.481L251.482 134.64L293.446 136.215ZM465.449 95.3937L465.707 116.394L488.52 117.25L486.336 94.4257L465.449 95.3937ZM435.432 94.2667L414.549 95.2753L416.43 114.544L435.69 115.267L435.432 94.2667ZM433.646 87.4379L414.535 95.1513L414.598 95.2942L414.663 95.4363L433.646 87.4379ZM429.857 82.0779L415.556 96.7244L415.734 96.8994L415.916 97.0704L429.857 82.0779ZM424.12 78.455L417.167 97.9113L417.306 97.9672L417.446 98.0212L424.12 78.455ZM403.925 80.0927L391.67 62.4449L391.628 62.4728L391.587 62.5008L403.925 80.0927ZM396.282 90.188L376.665 81.762L376.639 81.8278L376.614 81.8938L396.282 90.188ZM396.741 123.216L377.312 130.176L377.35 130.27L377.389 130.364L396.741 123.216ZM404.689 133.63L393.265 150.666L393.329 150.711L393.393 150.755L404.689 133.63ZM424.357 136.711L430.843 156.995L430.991 156.954L431.139 156.911L424.357 136.711ZM429.961 133.887L443.486 150.608L443.486 150.608L429.961 133.887ZM433.788 129.292L415.257 118.52L415.224 118.581L415.191 118.642L433.788 129.292ZM435.786 123.031L435.676 102.037L417.503 101.226L415.002 119.106L435.786 123.031ZM465.805 124.371L486.745 126.767L488.195 104.381L465.696 103.377L465.805 124.371ZM462.093 138.341L481.191 147.989L481.204 147.962L481.216 147.935L462.093 138.341ZM452.729 151.193L467.619 166.724L467.62 166.723L452.729 151.193ZM389.693 155.748L379.913 173.83L379.931 173.84L379.948 173.85L389.693 155.748ZM370.673 136.08L352.404 145.495L352.421 145.525L352.438 145.556L370.673 136.08ZM370.08 74.7755L388.482 85.7794L388.491 85.7631L388.5 85.7467L370.08 74.7755ZM388.795 56.5771L398.93 75.4601L398.962 75.4442L398.994 75.4281L388.795 56.5771ZM434.361 54.6674L440.604 34.9402L440.604 34.9402L434.361 54.6674ZM449.684 63.4952L436.489 79.1573L436.528 79.1912L436.568 79.2249L449.684 63.4952ZM460.384 77.1544L441.785 85.9443L441.785 85.9443L460.384 77.1544ZM465.191 74.3937L435.174 73.2668L435.69 115.267L465.707 116.394L465.191 74.3937ZM456.316 93.2582C455.866 88.6517 454.716 83.9748 452.629 79.4395L414.663 95.4363C414.573 95.2399 414.533 95.1041 414.52 95.0563C414.508 95.0116 414.53 95.0766 414.549 95.2753L456.316 93.2582ZM452.758 79.7245C450.661 74.9928 447.658 70.7102 443.797 67.0853L415.916 97.0704C415.628 96.8001 415.345 96.4789 415.091 96.1198C414.838 95.7617 414.657 95.4267 414.535 95.1513L452.758 79.7245ZM444.158 67.4313C440.183 63.5312 435.598 60.7401 430.794 58.8888L417.446 98.0212C417.132 97.9002 416.371 97.5243 415.556 96.7244L444.158 67.4313ZM431.073 58.9986C426.113 57.0091 421.068 56.1255 416.236 55.9441L416.752 97.9441C417.597 97.9758 417.636 98.0995 417.167 97.9113L431.073 58.9986ZM416.236 55.9441C407.763 55.6259 399.18 57.4138 391.67 62.4449L416.181 97.7404C416.066 97.8175 415.948 97.8811 415.84 97.9284C415.733 97.9753 415.667 97.9927 415.661 97.9942C415.647 97.9977 415.966 97.9145 416.752 97.9441L416.236 55.9441ZM391.587 62.5008C384.406 67.364 379.594 74.188 376.665 81.762L415.9 98.614C416.173 97.9083 416.388 97.6079 416.433 97.5485C416.464 97.5068 416.405 97.5887 416.264 97.6845L391.587 62.5008ZM376.614 81.8938C373.801 89.3218 372.792 97.3968 372.892 105.549L414.856 107.124C414.801 102.634 415.397 99.9435 415.951 98.4822L376.614 81.8938ZM372.892 105.549C372.995 113.932 374.191 122.367 377.312 130.176L416.17 116.256C415.633 114.911 414.917 112.093 414.856 107.124L372.892 105.549ZM377.389 130.364C380.586 138.153 385.701 145.379 393.265 150.666L416.113 116.594C416.233 116.678 416.34 116.767 416.428 116.852C416.514 116.935 416.558 116.991 416.564 116.999C416.577 117.015 416.38 116.764 416.094 116.067L377.389 130.364ZM393.393 150.755C400.844 155.887 409.135 158.141 417.282 158.447L416.767 116.447C416.003 116.419 415.658 116.317 415.62 116.305C415.6 116.299 415.637 116.309 415.715 116.347C415.795 116.385 415.889 116.439 415.985 116.505L393.393 150.755ZM417.282 158.447C421.711 158.614 426.311 158.243 430.843 156.995L417.871 116.427C418.09 116.366 417.802 116.486 416.767 116.447L417.282 158.447ZM431.139 156.911C435.508 155.636 439.72 153.595 443.486 150.608L416.436 117.165C417.04 116.686 417.517 116.528 417.575 116.511L431.139 156.911ZM443.486 150.608C447.181 147.676 450.168 144.072 452.384 139.941L415.191 118.642C415.466 118.13 415.902 117.589 416.436 117.165L443.486 150.608ZM452.318 140.063C454.591 135.897 455.941 131.45 456.569 126.956L415.002 119.106C414.988 119.201 414.985 119.174 415.023 119.055C415.062 118.933 415.134 118.746 415.257 118.52L452.318 140.063ZM435.895 144.025L465.914 145.365L465.696 103.377L435.676 102.037L435.895 144.025ZM444.865 121.975C444.751 123.736 444.254 125.968 442.971 128.746L481.216 147.935C484.285 141.293 486.263 134.212 486.745 126.767L444.865 121.975ZM442.995 128.693C441.946 130.948 440.324 133.283 437.838 135.663L467.62 166.723C473.266 161.317 477.887 155.083 481.191 147.989L442.995 128.693ZM437.839 135.662C435.99 137.433 433.369 139.149 429.55 140.564L445.81 180.073C453.994 177.04 461.406 172.673 467.619 166.724L437.839 135.662ZM429.55 140.564C426.537 141.68 422.317 142.425 416.445 142.205L416.96 184.205C427.054 184.584 436.819 183.404 445.81 180.073L429.55 140.564ZM416.445 142.205C409.539 141.945 404.034 140.285 399.439 137.646L379.948 173.85C391.354 180.402 403.855 183.713 416.96 184.205L416.445 142.205ZM399.473 137.666C395.26 135.236 391.765 131.764 388.908 126.604L352.438 145.556C359.012 157.432 368.196 167.072 379.913 173.83L399.473 137.666ZM388.942 126.665C386.404 122.046 384.53 115.451 384.413 105.981L342.449 104.406C342.63 119.084 345.583 133.079 352.404 145.495L388.942 126.665ZM384.413 105.981C384.297 96.4843 386.048 90.0999 388.482 85.7794L351.678 63.7716C344.949 75.7188 342.268 89.6131 342.449 104.406L384.413 105.981ZM388.5 85.7467C391.289 80.7723 394.748 77.5594 398.93 75.4601L378.659 37.694C367.051 43.5207 358.033 52.44 351.66 63.8043L388.5 85.7467ZM398.994 75.4281C403.593 73.0985 408.973 71.8826 415.584 72.1309L415.068 30.1309C402.094 29.6438 389.786 32.0587 378.595 37.726L398.994 75.4281ZM415.584 72.1309C420.55 72.3173 424.672 73.1488 428.118 74.3946L440.604 34.9402C432.437 31.9875 423.869 30.4613 415.068 30.1309L415.584 72.1309ZM428.118 74.3946C431.579 75.6457 434.287 77.2671 436.489 79.1573L462.879 47.8332C456.262 42.1514 448.756 37.8876 440.604 34.9402L428.118 74.3946ZM436.568 79.2249C438.609 80.962 440.347 83.1191 441.785 85.9443L478.984 68.3645C474.97 60.4785 469.574 53.5295 462.8 47.7656L436.568 79.2249ZM441.785 85.9443C443.08 88.4884 444.13 91.8483 444.562 96.3617L486.336 94.4257C485.466 85.3313 483.14 76.5315 478.984 68.3645L441.785 85.9443ZM479.712 164.08L458.73 163.292L458.988 184.292L479.97 185.08L479.712 164.08ZM478.372 54.9887L478.114 33.9887L457.132 33.201L457.39 54.2009L478.372 54.9887ZM507.963 56.0997L528.945 56.8875L528.687 35.8875L507.705 35.0997L507.963 56.0997ZM508.505 100.205L487.523 99.417L487.781 120.417L508.763 121.205L508.505 100.205ZM509.995 100.261L510.253 121.261L520.795 121.657L526.983 113.428L509.995 100.261ZM542.238 57.3866L541.98 36.3866L531.438 35.9908L525.249 44.2197L542.238 57.3866ZM576.725 58.6814L593.596 72.0027L618.726 39.268L576.467 37.6814L576.725 58.6814ZM540.493 105.878L523.622 92.5569L515.026 103.753L522.822 116.317L540.493 105.878ZM578.917 167.804L579.174 188.804L616.975 190.223L596.587 157.365L578.917 167.804ZM543.577 166.477L525.71 176.592L531.945 187.031L543.835 187.477L543.577 166.477ZM518.593 124.649L536.461 114.534L520.27 87.4276L501.785 111.247L518.593 124.649ZM508.957 137.066L492.149 123.663L487.888 129.154L487.975 136.278L508.957 137.066ZM509.303 165.191L509.561 186.191L530.543 186.978L530.285 165.978L509.303 165.191ZM500.694 164.867L499.354 55.7765L457.39 54.2009L458.73 163.292L500.694 164.867ZM478.63 75.9887L508.221 77.0997L507.705 35.0997L478.114 33.9887L478.63 75.9887ZM486.981 55.3119L487.523 99.417L529.487 100.993L528.945 56.8875L486.981 55.3119ZM508.763 121.205L510.253 121.261L509.737 79.2608L508.247 79.2048L508.763 121.205ZM526.983 113.428L559.226 70.5534L525.249 44.2197L493.007 87.0939L526.983 113.428ZM542.496 78.3865L576.983 79.6814L576.467 37.6814L541.98 36.3866L542.496 78.3865ZM559.854 45.3601L523.622 92.5569L557.363 119.199L593.596 72.0027L559.854 45.3601ZM522.822 116.317L561.246 178.243L596.587 157.365L558.163 95.4393L522.822 116.317ZM578.659 146.804L543.32 145.477L543.835 187.477L579.174 188.804L578.659 146.804ZM561.445 156.363L536.461 114.534L500.725 134.764L525.71 176.592L561.445 156.363ZM501.785 111.247L492.149 123.663L525.766 150.468L535.402 138.051L501.785 111.247ZM487.975 136.278L488.321 164.403L530.285 165.978L529.939 137.853L487.975 136.278ZM509.045 144.191L479.454 143.08L479.97 185.08L509.561 186.191L509.045 144.191ZM643.218 95.253L622.324 96.1424L624.106 115.526L643.476 116.253L643.218 95.253ZM639.125 86.7935L625.746 102.297L625.806 102.349L625.867 102.401L639.125 86.7935ZM620.9 84.2458L628.429 104.212L628.527 104.179L628.625 104.145L620.9 84.2458ZM616.678 87.0156L599.681 73.8604L599.681 73.8604L616.678 87.0156ZM615.294 91.223L636.259 93.1431L636.273 92.8106L636.276 92.4772L615.294 91.223ZM616.029 94.8179L597.378 103.505L597.573 103.893L597.783 104.273L616.029 94.8179ZM618.725 97.741L606.836 114.443L607.008 114.57L607.182 114.694L618.725 97.741ZM630.111 102.215L634.255 81.8461L634.168 81.8243L634.082 81.8032L630.111 102.215ZM639.076 104.468L634.932 124.837L634.956 124.843L634.981 124.849L639.076 104.468ZM665.254 117.91L650.316 131.905L650.362 131.954L650.409 132.003L665.254 117.91ZM671.385 127.617L651.754 134.053L651.787 134.142L651.821 134.231L671.385 127.617ZM673.548 139.199L694.531 140.09L694.53 139.949L694.527 139.807L673.548 139.199ZM668.397 157.214L685.62 170.061L685.62 170.061L668.397 157.214ZM653.315 167.989L645.409 148.152L645.391 148.159L645.373 148.165L653.315 167.989ZM604.826 165.849L597.29 185.062L597.307 185.069L597.324 185.076L604.826 165.849ZM588.275 152.289L570.91 163.207L570.951 163.27L570.993 163.333L588.275 152.289ZM582.144 129.591L581.886 108.591L560.823 107.8L561.164 128.885L582.144 129.591ZM610.245 130.646L631.184 130.317L629.883 110.393L609.987 109.646L610.245 130.646ZM612.85 139.156L595.45 150.019L595.45 150.019L612.85 139.156ZM619.194 144.559L611.073 163.507L611.119 163.529L611.166 163.55L619.194 144.559ZM636.87 145.808L644.336 165.796L644.336 165.796L636.87 145.808ZM641.674 142.741L658.259 156.424L658.259 156.424L641.674 142.741ZM643.319 138.064L664.301 139.271L664.305 138.838L664.29 138.405L643.319 138.064ZM641.615 133.634L625.437 146.194L625.641 146.451L625.852 146.702L641.615 133.634ZM636.464 130.033L628.366 148.992L628.488 149.05L628.611 149.105L636.464 130.033ZM626.795 126.795L631.038 106.451L631.003 106.442L630.967 106.433L626.795 126.795ZM615.91 124.044L611.714 144.399L611.726 144.402L611.738 144.405L615.91 124.044ZM592.949 112.693L579.183 127.848L579.236 127.897L579.29 127.946L592.949 112.693ZM584.451 92.1948L605.434 93.07L605.434 92.9724L605.432 92.8748L584.451 92.1948ZM589.763 74.2385L572.594 61.317L572.586 61.3274L572.578 61.3378L589.763 74.2385ZM605.207 62.6258L596.583 43.0622L596.564 43.0697L596.545 43.0773L605.207 62.6258ZM650.979 64.3976L642.467 83.1579L650.979 64.3976ZM665.98 77.4195L648.521 88.1912L648.565 88.2606L648.611 88.3298L665.98 77.4195ZM671.532 96.3161L671.79 117.316L692.877 118.108L692.513 96.9994L671.532 96.3161ZM664.113 94.3637C663.351 86.0781 659.811 77.6124 652.383 71.1858L625.867 102.401C624.768 101.451 623.811 100.221 623.151 98.856C622.518 97.5482 622.36 96.5412 622.324 96.1424L664.113 94.3637ZM652.503 71.2905C644.669 64.4156 635.251 62.6762 628.133 62.4089L628.648 104.409C629.666 104.447 629.782 104.565 629.284 104.408C628.733 104.234 627.329 103.686 625.746 102.297L652.503 71.2905ZM628.133 62.4089C623.597 62.2386 618.323 62.5637 613.175 64.3462L628.625 104.145C628.267 104.27 627.99 104.339 627.819 104.375C627.648 104.412 627.561 104.421 627.575 104.419C627.589 104.418 627.683 104.408 627.868 104.402C628.052 104.397 628.31 104.396 628.648 104.409L628.133 62.4089ZM613.371 64.2795C608.863 65.7881 603.626 68.6074 599.681 73.8604L633.675 100.171C631.545 103.007 629.123 103.98 628.429 104.212L613.371 64.2795ZM599.681 73.8604C596.138 78.5798 594.369 84.1755 594.311 89.9689L636.276 92.4772C636.25 95.0772 635.404 97.868 633.675 100.171L599.681 73.8604ZM594.328 89.3029C594.138 93.8557 594.994 98.7601 597.378 103.505L634.681 86.131C635.974 88.7051 636.34 91.2129 636.259 93.1431L594.328 89.3029ZM597.783 104.273C600.28 108.796 603.656 112.098 606.836 114.443L630.614 81.0389C631.36 81.5892 632.939 82.9419 634.276 85.363L597.783 104.273ZM607.182 114.694C610.292 116.898 613.564 118.478 616.545 119.654L630.221 80.6497C630.046 80.5809 629.916 80.525 629.825 80.4843C629.781 80.4641 629.747 80.4485 629.725 80.4376C629.702 80.4266 629.691 80.4211 629.691 80.4212C629.692 80.4213 629.704 80.4277 629.728 80.4409C629.752 80.4541 629.788 80.4748 629.835 80.5035C629.929 80.5599 630.077 80.6532 630.268 80.7884L607.182 114.694ZM616.545 119.654C619.614 120.865 622.862 121.831 626.14 122.627L634.082 81.8032C632.167 81.3387 630.929 80.9294 630.221 80.6497L616.545 119.654ZM625.967 122.584L634.932 124.837L643.22 84.0994L634.255 81.8461L625.967 122.584ZM634.981 124.849C639.805 126.05 643.267 127.389 645.661 128.64L663.589 91.5797C657.346 88.3179 650.441 85.8963 643.17 84.087L634.981 124.849ZM645.661 128.64C648.214 129.974 649.6 131.143 650.316 131.905L680.193 103.915C675.375 98.7893 669.675 94.7588 663.589 91.5797L645.661 128.64ZM650.409 132.003C651.174 132.808 651.534 133.46 651.754 134.053L691.015 121.181C688.594 114.647 684.867 108.828 680.1 103.816L650.409 132.003ZM651.821 134.231C652.202 135.233 652.528 136.624 652.569 138.59L694.527 139.807C694.395 133.461 693.279 127.131 690.949 121.003L651.821 134.231ZM652.565 138.307C652.592 141.916 651.773 143.535 651.173 144.367L685.62 170.061C691.995 161.217 694.61 150.826 694.531 140.09L652.565 138.307ZM651.173 144.367C650.361 145.494 648.836 146.929 645.409 148.152L661.22 187.825C670.929 184.359 679.459 178.611 685.62 170.061L651.173 144.367ZM645.373 148.165C641.905 149.411 636.779 150.264 629.421 149.988L629.937 191.988C641.029 192.404 651.66 191.258 661.256 187.812L645.373 148.165ZM629.421 149.988C621.967 149.708 616.419 148.391 612.328 146.621L597.324 185.076C607.423 189.447 618.444 191.556 629.937 191.988L629.421 149.988ZM612.362 146.636C608.921 145.14 606.938 143.321 605.557 141.246L570.993 163.333C577.56 173.198 586.611 180.419 597.29 185.062L612.362 146.636ZM605.64 141.372C604.589 139.77 603.226 136.545 603.125 130.297L561.164 128.885C561.358 140.892 564.082 152.8 570.91 163.207L605.64 141.372ZM582.402 150.591L610.503 151.646L609.987 109.646L581.886 108.591L582.402 150.591ZM589.307 130.975C589.712 137.188 591.43 143.853 595.45 150.019L630.251 128.293C631.234 129.802 631.215 130.793 631.184 130.317L589.307 130.975ZM595.45 150.019C599.442 156.143 604.917 160.616 611.073 163.507L627.314 125.61C627.605 125.747 628.112 126.031 628.699 126.531C629.297 127.04 629.83 127.647 630.251 128.293L595.45 150.019ZM611.166 163.55C617.135 166.32 623.337 167.462 629.213 167.682L628.697 125.682C627.051 125.62 626.746 125.346 627.222 125.567L611.166 163.55ZM629.213 167.682C633.939 167.86 639.203 167.494 644.336 165.796L629.405 125.82C629.898 125.657 630.129 125.647 629.982 125.663C629.838 125.679 629.429 125.71 628.697 125.682L629.213 167.682ZM644.336 165.796C649.055 164.234 654.234 161.419 658.259 156.424L625.088 129.057C626.948 126.749 628.924 125.98 629.405 125.82L644.336 165.796ZM658.259 156.424C662.171 151.571 664.253 145.624 664.301 139.271L622.336 136.856C622.345 135.596 622.553 134.174 623.065 132.717C623.578 131.259 624.303 130.031 625.088 129.057L658.259 156.424ZM664.29 138.405C664.075 131.977 661.731 125.738 657.378 120.565L625.852 146.702C624.869 145.534 623.966 144.083 623.316 142.393C622.667 140.708 622.393 139.102 622.347 137.723L664.29 138.405ZM657.793 121.073C653.605 115.793 648.273 112.755 644.316 110.961L628.611 149.105C628.863 149.219 628.635 149.142 628.12 148.782C627.611 148.427 626.563 147.614 625.437 146.194L657.793 121.073ZM644.562 111.074C640.418 109.133 635.731 107.654 631.038 106.451L622.553 147.139C625.971 148.015 627.73 148.695 628.366 148.992L644.562 111.074ZM630.967 106.433L620.081 103.682L611.738 144.405L622.624 147.157L630.967 106.433ZM620.105 103.688C612.808 101.834 608.778 99.4094 606.607 97.4398L579.29 127.946C588.381 136.195 599.658 141.338 611.714 144.399L620.105 103.688ZM606.714 97.5378C606.356 97.2084 605.463 96.5628 605.434 93.07L563.468 91.3195C563.578 104.87 568.35 117.889 579.183 127.848L606.714 97.5378ZM605.432 92.8748C605.382 89.9913 606.048 88.3794 606.948 87.1392L572.578 61.3378C566.155 70.1872 563.28 80.5461 563.471 91.5147L605.432 92.8748ZM606.933 87.1601C608.212 85.4032 610.243 83.6378 613.87 82.1744L596.545 43.0773C586.973 46.9395 578.709 52.916 572.594 61.317L606.933 87.1601ZM613.832 82.1895C617.395 80.7603 622.09 79.8841 628.35 80.1192L627.834 38.1192C616.851 37.7068 606.289 39.1684 596.583 43.0622L613.832 82.1895ZM628.35 80.1192C634.851 80.3633 639.359 81.6232 642.467 83.1579L659.49 45.6372C649.682 40.7948 638.932 38.5358 627.834 38.1192L628.35 80.1192ZM642.467 83.1579C645.687 84.7478 647.415 86.4779 648.521 88.1912L683.44 66.6479C677.459 57.3757 669.186 50.4245 659.49 45.6372L642.467 83.1579ZM648.611 88.3298C649.638 89.8974 650.49 92.0723 650.552 95.6328L692.513 96.9994C692.328 86.2817 689.479 75.8589 683.35 66.5093L648.611 88.3298ZM671.274 75.3161L642.96 74.2531L643.476 116.253L671.79 117.316L671.274 75.3161Z" fill="#4F291E" mask="url(#path-7-outside-3_121_421)"/>
</svg>
