<svg width="58" height="80" viewBox="0 0 58 80" fill="none" xmlns="http://www.w3.org/2000/svg">
<g clip-path="url(#clip0_1_565)">
<rect x="1.91533" y="1.91582" width="53.7385" height="75.9413" rx="26.8693" stroke="#4F291E" stroke-width="3.04551"/>
<path d="M29.0791 66.2153V76.5308" stroke="#4F291E" stroke-width="4.24014"/>
<path d="M29.0755 71.4084V53.8567M29.0755 53.8567C19.6883 51.771 3.58895 43.929 13.7624 24.5191C13.9367 24.1865 14.3027 23.9816 14.6761 24.0213C17.548 24.3268 20.0081 24.9356 22.1092 25.7685M29.0755 53.8567C30.9959 52.3523 32.6684 47.6686 33.2647 45.5149C33.9466 41.6389 33.4293 35.3114 29.0755 30.484M29.0755 53.8567C43.2124 46.8062 51.3307 38.5791 44.3069 24.4789C44.1501 24.1641 43.8223 23.9596 43.4707 23.9675C40.119 24.0433 37.3438 24.7789 35.1374 25.7685M29.0755 30.484C27.384 28.6085 25.1135 26.9594 22.1092 25.7685M29.0755 30.484C29.8874 29.2198 31.9 27.2207 35.1374 25.7685M22.1092 25.7685C22.9775 22.8337 26.5288 19.878 28.5894 18.4908C28.8851 18.2917 29.2697 18.2893 29.5636 18.4912C32.6297 20.5969 34.5441 24.1722 35.1374 25.7685" stroke="white" stroke-width="4.23984"/>
<path d="M29.0703 19.8237L24.5479 24.4404L28.4579 28.115L33.0275 24.8173L29.0703 19.8237Z" fill="#03A94B"/>
<path d="M10.9336 35.3694L14.6552 25.9004L20.9208 26.2302L29.636 32.637L33.6403 40.2687L28.3641 52.9412L13.8073 44.8855L10.9336 35.3694Z" fill="#FAC02E" stroke="black" stroke-width="0.0942187"/>
<path d="M33.9703 48.7961L30.9082 30.0466L34.5827 26.5134L42.6855 24.0166L45.4179 27.5498L46.1716 36.4535L39.7648 47.1002L33.9703 48.7961Z" fill="#EA4740" stroke="black" stroke-width="0.0942187"/>
<path d="M29.0755 71.4084V53.8567M29.0755 53.8567C19.6883 51.771 3.58895 43.929 13.7624 24.5191C13.9367 24.1865 14.3027 23.9816 14.6761 24.0213C17.548 24.3268 20.0081 24.9356 22.1092 25.7685M29.0755 53.8567C30.9959 52.3523 32.6684 47.6686 33.2647 45.5149C33.9466 41.6389 33.4293 35.3114 29.0755 30.484M29.0755 53.8567C43.2124 46.8062 51.3307 38.5791 44.3069 24.4789C44.1501 24.1641 43.8223 23.9596 43.4707 23.9675C40.119 24.0433 37.3438 24.7789 35.1374 25.7685M29.0755 30.484C27.384 28.6085 25.1135 26.9594 22.1092 25.7685M29.0755 30.484C29.8874 29.2198 31.9 27.2207 35.1374 25.7685M22.1092 25.7685C22.9775 22.8337 26.5288 19.878 28.5894 18.4908C28.8851 18.2917 29.2697 18.2893 29.5636 18.4912C32.6297 20.5969 34.5441 24.1722 35.1374 25.7685" stroke="#4F291E" stroke-width="4.23984"/>
</g>
<defs>
<clipPath id="clip0_1_565">
<rect width="57.57" height="79.7727" fill="white"/>
</clipPath>
</defs>
</svg>
